<?xml version="1.0" encoding="UTF-8"?>
<!DOCTYPE svg PUBLIC "-//W3C//DTD SVG 1.1//EN" "http://www.w3.org/Graphics/SVG/1.1/DTD/svg11.dtd">
<!-- Creator: CorelDRAW 2021.5 -->
<svg xmlns="http://www.w3.org/2000/svg" xml:space="preserve" width="0.971642in" height="0.196969in" version="1.1" style="shape-rendering:geometricPrecision; text-rendering:geometricPrecision; image-rendering:optimizeQuality; fill-rule:evenodd; clip-rule:evenodd"
viewBox="0 0 10.69 2.17"
 xmlns:xlink="http://www.w3.org/1999/xlink"
 xmlns:xodm="http://www.corel.com/coreldraw/odm/2003">
 <defs>
  <style type="text/css">
   <![CDATA[
    .fil0 {fill:#FEFEFE}
    .fil1 {fill:#FEFEFE;fill-rule:nonzero}
   ]]>
  </style>
 </defs>
 <g id="Capa_x0020_1">
  <metadata id="CorelCorpID_0Corel-Layer"/>
  <path class="fil0" d="M1.47 2.1l-0.92 -0.77c0.04,-0.07 0.1,-0.13 0.15,-0.19 0.15,-0.18 0.3,-0.44 0.51,-0.56 0.38,-0.24 0.81,0.09 0.9,0.38 0,-0.16 0.02,-0.57 -0.01,-0.71 -0.05,-0.25 -0.26,-0.25 -0.53,-0.25 -0.51,0 -1.03,0 -1.54,0 0.01,0.57 -0.03,1.19 0,1.76 0.02,0.33 0.24,0.35 0.56,0.34 0.3,-0 0.6,0 0.89,-0z"/>
  <path class="fil0" d="M9.21 0.17c0.54,-0.01 1,0.07 1,0.63 -0,0.54 -0.49,0.62 -1.01,0.62l0.01 -1.25zm-0.19 1.38c0.33,0 0.7,0.02 0.97,-0.11 0.55,-0.27 0.54,-1.07 -0.02,-1.3 -0.25,-0.11 -0.64,-0.1 -0.94,-0.09l-0 1.51z"/>
  <path class="fil0" d="M7.84 0.17c0.92,-0.05 0.85,0.59 -0,0.55l0 -0.55zm0.48 0.63c0.14,-0.08 0.26,-0.08 0.32,-0.23 0.18,-0.45 -0.44,-0.63 -0.98,-0.52l0.01 1.5 0.17 -0.01 -0 -0.68c0.33,-0.03 0.51,0.04 0.64,0.24 0.27,0.42 0.1,0.46 0.42,0.45 -0.05,-0.15 -0.15,-0.31 -0.23,-0.45 -0.12,-0.2 -0.12,-0.2 -0.34,-0.3z"/>
  <path class="fil0" d="M2.9 0.72l0 -0.55c0.28,-0.02 0.66,-0.02 0.65,0.26 -0.01,0.28 -0.37,0.3 -0.66,0.29zm0 0.83l-0 -0.7c0.52,-0.05 0.61,0.16 0.78,0.5 0.09,0.19 0.06,0.19 0.28,0.19 -0.05,-0.15 -0.14,-0.29 -0.22,-0.43 -0.13,-0.22 -0.12,-0.22 -0.35,-0.32 0.13,-0.07 0.24,-0.07 0.31,-0.21 0.07,-0.14 0.04,-0.31 -0.07,-0.41 -0.21,-0.2 -0.56,-0.15 -0.9,-0.15l-0 1.44c0.04,0.1 -0.03,0.07 0.17,0.07z"/>
  <path class="fil0" d="M6.34 0.95c0.01,-0.13 0.28,-0.68 0.36,-0.75 0.06,0.15 0.32,0.61 0.34,0.75l-0.7 -0zm-0.48 0.61c0.23,-0 0.17,-0.01 0.27,-0.22 0.16,-0.35 0.04,-0.26 1.01,-0.26 0.19,0.54 0.22,0.48 0.41,0.47l-0.75 -1.51 -0.21 0 -0.72 1.51z"/>
  <path class="fil0" d="M5.75 1.42c-0.12,-0.09 -0.39,0.13 -0.82,-0.07 -0.2,-0.09 -0.35,-0.26 -0.34,-0.57 0.03,-0.83 1.09,-0.54 1.16,-0.58 0.01,-0.12 0.01,-0.11 -0.16,-0.14 -0.25,-0.04 -0.5,-0.02 -0.73,0.07 -0.66,0.26 -0.69,1.41 0.46,1.43 0.37,0.01 0.42,-0 0.43,-0.14z"/>
  <path class="fil0" d="M1.49 1.67c0.17,-0.19 0.48,-0.52 0.16,-0.77 -0.3,-0.24 -0.58,0.16 -0.69,0.35l0.46 0.38c0.08,0.05 0,0.01 0.08,0.05z"/>
  <path class="fil0" d="M4.11 0.06c-0.01,0.28 -0.04,1.95 0.01,2.1l0.17 0.01 -0.01 -2.13 -0.17 0.02z"/>
  <path class="fil0" d="M10.51 1.55l0.14 0c0.05,-0.15 0.03,-1.29 0.01,-1.51l-0.17 0.02 0.01 1.49z"/>
  <path class="fil0" d="M1.72 1.85c0.07,0.09 0.16,0.16 0.27,0.19 0.1,-0.15 0.11,-0.18 0.1,-0.43 -0.21,0.03 -0.28,0.09 -0.36,0.24z"/>
  <path class="fil1" d="M5.19 2.14l-0.08 0 0 -0.3c0,-0.02 0,-0.05 0,-0.09l-0 0c-0,0.02 -0.01,0.03 -0.01,0.04l-0.14 0.34 -0.05 0 -0.14 -0.34c-0,-0.01 -0.01,-0.03 -0.01,-0.05l-0 0c0,0.02 0,0.05 0,0.09l0 0.29 -0.07 0 0 -0.46 0.11 0 0.12 0.3c0.01,0.02 0.02,0.04 0.02,0.05l0 0c0.01,-0.02 0.01,-0.04 0.02,-0.05l0.12 -0.3 0.1 0 0 0.46zm0.7 -0.17l0 0.17 -0.08 0 0 -0.46 0.14 0c0.05,0 0.09,0.01 0.12,0.04 0.03,0.02 0.04,0.06 0.04,0.1 0,0.04 -0.02,0.08 -0.05,0.11 -0.03,0.03 -0.07,0.04 -0.12,0.04l-0.06 0zm0 -0.23l0 0.17 0.05 0c0.03,0 0.06,-0.01 0.07,-0.02 0.02,-0.02 0.03,-0.04 0.03,-0.06 0,-0.05 -0.03,-0.08 -0.09,-0.08l-0.06 0zm1.17 0.39l-0.09 0 -0.07 -0.12c-0.01,-0.01 -0.01,-0.02 -0.02,-0.03 -0.01,-0.01 -0.01,-0.01 -0.02,-0.02 -0.01,-0.01 -0.01,-0.01 -0.02,-0.01 -0.01,-0 -0.02,-0 -0.03,-0l-0.03 0 0 0.19 -0.08 0 0 -0.46 0.15 0c0.02,0 0.04,0 0.06,0.01 0.02,0.01 0.03,0.01 0.05,0.02 0.01,0.01 0.02,0.02 0.03,0.04 0.01,0.02 0.01,0.03 0.01,0.05 0,0.02 -0,0.03 -0.01,0.04 -0,0.01 -0.01,0.03 -0.02,0.04 -0.01,0.01 -0.02,0.02 -0.03,0.03 -0.01,0.01 -0.03,0.01 -0.04,0.02l0 0c0.01,0 0.02,0.01 0.02,0.02 0.01,0.01 0.01,0.01 0.02,0.02 0.01,0.01 0.01,0.01 0.02,0.02 0.01,0.01 0.01,0.02 0.02,0.03l0.08 0.13zm-0.28 -0.39l0 0.15 0.06 0c0.01,0 0.02,-0 0.03,-0.01 0.01,-0 0.02,-0.01 0.03,-0.02 0.01,-0.01 0.01,-0.02 0.02,-0.02 0,-0.01 0.01,-0.02 0.01,-0.03 0,-0.02 -0.01,-0.04 -0.02,-0.05 -0.01,-0.01 -0.03,-0.02 -0.06,-0.02l-0.06 0zm1.1 0.39l-0.26 0 0 -0.46 0.25 0 0 0.06 -0.17 0 0 0.13 0.16 0 0 0.06 -0.16 0 0 0.13 0.18 0 0 0.06zm0.58 -0.02l0 -0.08c0.01,0.01 0.02,0.01 0.02,0.02 0.01,0.01 0.02,0.01 0.03,0.01 0.01,0 0.02,0.01 0.03,0.01 0.01,0 0.02,0 0.03,0 0.03,0 0.06,-0.01 0.07,-0.02 0.02,-0.01 0.02,-0.03 0.02,-0.05 0,-0.01 -0,-0.02 -0.01,-0.03 -0.01,-0.01 -0.01,-0.02 -0.02,-0.02 -0.01,-0.01 -0.02,-0.01 -0.03,-0.02 -0.01,-0.01 -0.03,-0.01 -0.04,-0.02 -0.02,-0.01 -0.03,-0.02 -0.04,-0.03 -0.01,-0.01 -0.03,-0.02 -0.03,-0.03 -0.01,-0.01 -0.02,-0.02 -0.02,-0.03 -0.01,-0.01 -0.01,-0.03 -0.01,-0.05 0,-0.02 0,-0.04 0.01,-0.06 0.01,-0.02 0.02,-0.03 0.04,-0.04 0.02,-0.01 0.03,-0.02 0.05,-0.02 0.02,-0 0.04,-0.01 0.06,-0.01 0.05,0 0.08,0.01 0.1,0.02l0 0.07c-0.03,-0.02 -0.06,-0.03 -0.1,-0.03 -0.01,0 -0.02,0 -0.03,0 -0.01,0 -0.02,0.01 -0.03,0.01 -0.01,0 -0.02,0.01 -0.02,0.02 -0.01,0.01 -0.01,0.02 -0.01,0.03 0,0.01 0,0.02 0.01,0.03 0,0.01 0.01,0.01 0.02,0.02 0.01,0.01 0.02,0.01 0.03,0.02 0.01,0.01 0.03,0.01 0.04,0.02 0.02,0.01 0.03,0.02 0.04,0.03 0.01,0.01 0.03,0.02 0.04,0.03 0.01,0.01 0.02,0.02 0.03,0.04 0.01,0.01 0.01,0.03 0.01,0.05 0,0.02 -0,0.04 -0.01,0.06 -0.01,0.02 -0.02,0.03 -0.04,0.04 -0.02,0.01 -0.03,0.02 -0.05,0.02 -0.02,0 -0.04,0.01 -0.07,0.01 -0.01,0 -0.02,-0 -0.03,-0 -0.01,-0 -0.02,-0 -0.03,-0.01 -0.01,-0 -0.02,-0 -0.03,-0.01 -0.01,-0 -0.02,-0.01 -0.03,-0.01zm1.08 0.03c-0.07,0 -0.12,-0.02 -0.16,-0.06 -0.04,-0.04 -0.06,-0.1 -0.06,-0.17 0,-0.07 0.02,-0.13 0.06,-0.18 0.04,-0.04 0.1,-0.07 0.16,-0.07 0.06,0 0.12,0.02 0.15,0.06 0.04,0.04 0.06,0.1 0.06,0.17 0,0.07 -0.02,0.13 -0.06,0.18 -0.04,0.04 -0.09,0.06 -0.16,0.06zm0 -0.41c-0.04,0 -0.08,0.02 -0.1,0.05 -0.03,0.03 -0.04,0.07 -0.04,0.12 0,0.05 0.01,0.09 0.04,0.12 0.03,0.03 0.06,0.05 0.1,0.05 0.04,0 0.08,-0.01 0.1,-0.04 0.03,-0.03 0.04,-0.07 0.04,-0.12 0,-0.05 -0.01,-0.1 -0.04,-0.13 -0.02,-0.03 -0.06,-0.04 -0.1,-0.04zm0.8 0.38l0 -0.08c0.01,0.01 0.02,0.01 0.02,0.02 0.01,0.01 0.02,0.01 0.03,0.01 0.01,0 0.02,0.01 0.03,0.01 0.01,0 0.02,0 0.03,0 0.03,0 0.06,-0.01 0.07,-0.02 0.02,-0.01 0.02,-0.03 0.02,-0.05 0,-0.01 -0,-0.02 -0.01,-0.03 -0.01,-0.01 -0.01,-0.02 -0.02,-0.02 -0.01,-0.01 -0.02,-0.01 -0.03,-0.02 -0.01,-0.01 -0.03,-0.01 -0.04,-0.02 -0.02,-0.01 -0.03,-0.02 -0.04,-0.03 -0.01,-0.01 -0.03,-0.02 -0.03,-0.03 -0.01,-0.01 -0.02,-0.02 -0.02,-0.03 -0.01,-0.01 -0.01,-0.03 -0.01,-0.05 0,-0.02 0,-0.04 0.01,-0.06 0.01,-0.02 0.02,-0.03 0.04,-0.04 0.02,-0.01 0.03,-0.02 0.05,-0.02 0.02,-0 0.04,-0.01 0.06,-0.01 0.05,0 0.08,0.01 0.1,0.02l0 0.07c-0.03,-0.02 -0.06,-0.03 -0.1,-0.03 -0.01,0 -0.02,0 -0.03,0 -0.01,0 -0.02,0.01 -0.03,0.01 -0.01,0 -0.02,0.01 -0.02,0.02 -0.01,0.01 -0.01,0.02 -0.01,0.03 0,0.01 0,0.02 0.01,0.03 0,0.01 0.01,0.01 0.02,0.02 0.01,0.01 0.02,0.01 0.03,0.02 0.01,0.01 0.03,0.01 0.04,0.02 0.02,0.01 0.03,0.02 0.04,0.03 0.01,0.01 0.03,0.02 0.04,0.03 0.01,0.01 0.02,0.02 0.03,0.04 0.01,0.01 0.01,0.03 0.01,0.05 0,0.02 -0,0.04 -0.01,0.06 -0.01,0.02 -0.02,0.03 -0.04,0.04 -0.02,0.01 -0.03,0.02 -0.05,0.02 -0.02,0 -0.04,0.01 -0.07,0.01 -0.01,0 -0.02,-0 -0.03,-0 -0.01,-0 -0.02,-0 -0.03,-0.01 -0.01,-0 -0.02,-0 -0.03,-0.01 -0.01,-0 -0.02,-0.01 -0.03,-0.01z"/>
 </g>
</svg>
