<?xml version="1.0" encoding="UTF-8"?>
<!DOCTYPE svg PUBLIC "-//W3C//DTD SVG 1.1//EN" "http://www.w3.org/Graphics/SVG/1.1/DTD/svg11.dtd">
<!-- Creator: CorelDRAW 2021.5 -->
<svg xmlns="http://www.w3.org/2000/svg" xml:space="preserve" width="0.918043in" height="0.320795in" version="1.1" style="shape-rendering:geometricPrecision; text-rendering:geometricPrecision; image-rendering:optimizeQuality; fill-rule:evenodd; clip-rule:evenodd"
viewBox="0 0 11.51 4.02"
 xmlns:xlink="http://www.w3.org/1999/xlink"
 xmlns:xodm="http://www.corel.com/coreldraw/odm/2003">
 <defs>
  <style type="text/css">
   <![CDATA[
    .fil1 {fill:#FEFEFE}
    .fil0 {fill:#727376}
    .fil2 {fill:#FDFEFE}
   ]]>
  </style>
 </defs>
 <g id="Capa_x0020_1">
  <metadata id="CorelCorpID_0Corel-Layer"/>
  <g id="_3020469462960">
   <path class="fil0" d="M1.41 2.91c-0.02,0.01 -0.09,0.11 -0.18,0.04 -0.05,-0.04 -0.07,-0.12 -0.02,-0.18 0.03,-0.03 0.11,-0.08 0.16,-0.11 0.14,-0.07 0.24,0.32 1.07,0.14 0.04,-0.19 0.26,-0.14 0.25,0.07 -0,0.08 -0.08,0.1 -0.15,0.13 -0.07,0.02 -0.14,0.04 -0.21,0.05 -0.63,0.11 -0.78,-0.1 -0.91,-0.15zm8.54 -0.53c-0.03,0 -0.06,0 -0.06,-0.04 0.01,-0.03 0.04,-0.03 0.06,-0.04 0.13,-0.07 0.4,-0.84 0.49,-0.93 0.11,-0.11 0.15,0.08 0.18,0.17 0.05,0.16 0.15,0.46 0.21,0.6 0.1,0.22 0.18,0.12 0.18,0.22 -0.06,0.03 -0.46,0.03 -0.5,0 -0.03,-0.13 0.17,-0.02 0.07,-0.2l-0.36 -0c-0.05,0 -0.05,0.08 -0.02,0.11 0.04,0.04 0.08,0.02 0.07,0.1 -0.12,0.01 -0.22,0.01 -0.34,0.01zm-8.18 -0.04c-0.06,0.01 -0.14,0.01 -0.21,0.01 -0.04,0 -0.18,0.02 -0.15,-0.04 0.04,-0.07 0.05,0.07 0.2,-0.22 0.1,-0.18 0.17,-0.39 0.25,-0.58 0.13,-0.33 0.19,-0.01 0.28,0.28 0.03,0.1 0.11,0.37 0.18,0.45 0.06,0.08 0.1,0.03 0.11,0.1 -0.06,0.03 -0.26,0.02 -0.35,0.02 -0.08,0 -0.08,0.01 -0.1,-0.02 -0.05,-0.05 0.04,-0.06 0.08,-0.1 0,-0.04 -0.01,-0.06 -0.03,-0.09l-0.33 0.01c-0.03,0.01 -0.05,0.07 0,0.11 0.04,0.03 0.06,0.01 0.06,0.08zm5.57 0.04c-0.08,-0.07 -0.21,-0.48 -0,-0.25 0.03,0.04 0.05,0.06 0.1,0.1 0.08,0.05 0.26,0.05 0.32,-0.02 0.09,-0.1 -0.03,-0.2 -0.11,-0.23 -0.1,-0.04 -0.19,-0.07 -0.28,-0.12 -0.18,-0.13 -0.15,-0.41 0.08,-0.49 0.14,-0.05 0.25,0.03 0.31,0.04 0.02,-0.01 0.03,-0.07 0.08,-0.04 0.02,0.01 0.09,0.24 0.08,0.29 -0.07,0.01 -0.11,-0.08 -0.19,-0.15 -0.06,-0.05 -0.2,-0.08 -0.25,-0.01 -0.03,0.03 -0.04,0.1 -0.01,0.14 0.02,0.03 0.05,0.05 0.1,0.06 0.13,0.06 0.35,0.13 0.4,0.27 0.03,0.09 0.01,0.2 -0.03,0.27 -0.04,0.06 -0.12,0.1 -0.22,0.11 -0.09,0.01 -0.21,0.01 -0.29,-0.02 -0,0 -0,0 -0,0.01 -0.03,0.04 -0.02,0.05 -0.07,0.05zm-1.78 -0.09c0.05,-0.03 0.06,-0.01 0.1,-0.06 0.03,-0.04 0.03,-0.07 0.03,-0.13l0 -0.47c0,-0.15 -0.01,-0.14 -0.13,-0.17 -0.01,-0.08 -0.01,-0.1 0.08,-0.1 0.23,0 0.23,-0.02 0.27,0.06l0.14 0.27c0.04,0.07 0.16,0.32 0.2,0.34 0.02,-0.04 0.01,-0.32 0.01,-0.39 0,-0.24 -0.19,-0.13 -0.14,-0.25 0.02,-0.04 0.13,-0.02 0.17,-0.02 0.06,0 0.13,-0 0.19,0l0 0.09c-0.09,0.04 -0.13,0.04 -0.13,0.17 -0,0.08 -0,0.54 0.02,0.58 0.04,0.1 0.15,0.01 0.12,0.16l-0.05 0c-0.23,0.01 -0.23,0.01 -0.27,-0.07l-0.25 -0.46c-0.02,-0.04 -0.07,-0.15 -0.11,-0.17 -0.03,0.04 -0.01,0.35 -0.01,0.42 0,0.24 0.12,0.12 0.14,0.22 0.01,0.09 -0.1,0.06 -0.31,0.06 -0.06,0 -0.07,-0.02 -0.06,-0.09zm2.88 0.09c-0.12,0 -0.21,0.01 -0.33,-0.01l-0.01 -0.09c0.07,-0.03 0.09,-0.02 0.09,-0.12l0 -0.61c0,-0.12 -0.03,-0.07 -0.08,-0.11 -0.03,-0.03 -0.02,-0.09 0.05,-0.09l0.27 0c0.08,0 0.09,0.07 0.05,0.1 -0.05,0.04 -0.08,-0.01 -0.08,0.11l0 0.61c0,0.12 0.03,0.08 0.09,0.13 0.01,0.07 -0,0.09 -0.07,0.09zm-1.39 -0.01c-0.11,0.01 -0.26,0.01 -0.38,-0 -0.01,-0.04 -0.02,-0.04 -0.01,-0.09l0.08 -0.03c0.02,-0.18 0.01,-0.48 0.01,-0.67 0,-0.13 -0.04,-0.08 -0.08,-0.13 -0.1,-0.13 0.22,-0.1 0.31,-0.1 0.08,0 0.1,0.06 0.06,0.1 -0.05,0.05 -0.08,0.01 -0.08,0.13l0 0.59c0,0.18 0.14,0.04 0.08,0.21zm-1.72 0.01c-0.12,0 -0.55,0.01 -0.62,-0.01 -0.05,-0.14 0.08,-0.04 0.09,-0.2l-0 -0.6c-0.01,-0.16 -0.12,-0.06 -0.1,-0.19 0.06,-0.04 0.56,-0.02 0.68,-0.02 0.02,0.07 0.07,0.25 0.03,0.3 -0.09,0.01 -0.08,-0.1 -0.14,-0.15 -0.05,-0.04 -0.18,-0.06 -0.24,-0.03 -0.05,0.03 -0.02,0.25 -0.01,0.27 0.14,0.04 0.06,-0.09 0.16,-0.09 0.03,0.03 0.03,0.26 0,0.28 -0.09,0.03 -0.03,-0.13 -0.17,-0.08 -0.02,0.06 -0.01,0.32 -0,0.38 0.07,0.02 0.2,0.02 0.25,-0.03 0.03,-0.03 0.07,-0.12 0.11,-0.14 0.14,-0.06 -0.02,0.26 -0.04,0.3zm-1.57 0c-0.05,0 -0.07,-0.01 -0.06,-0.07 0.04,-0.02 0.08,-0.02 0.11,-0.05 0.05,-0.07 0.03,-0.53 0.03,-0.66 0,-0.1 0,-0.12 -0.09,-0.14 -0.09,-0.01 -0.08,-0.09 0.03,-0.09l0.43 0c0.27,0 0.37,0.22 0.3,0.44 -0.02,0.08 -0.06,0.12 -0.11,0.14 0,0 0,0.01 0.01,0.01l0.02 0.02c0.07,0.07 0.05,0.07 0.05,0.21 0.01,0.16 0.13,0.04 0.09,0.19l-0.08 0.01c-0.17,0.01 -0.21,0.01 -0.21,-0.09 -0,-0.22 0.03,-0.25 -0.12,-0.26 -0.07,-0 -0.1,-0.01 -0.1,0.07 0,0.27 0.12,0.14 0.13,0.23 0.01,0.04 -0.01,0.05 -0.05,0.05l-0.37 0zm-0.59 -0.13c0.07,0.03 0.19,0.02 0.25,-0.03 0.03,-0.03 0.11,-0.2 0.17,-0.13 0.03,0.03 -0.07,0.28 -0.1,0.3 -0.07,0 -0.59,0.02 -0.61,-0.03 -0.03,-0.06 0.03,-0.07 0.06,-0.09 0.06,-0.05 0.03,-0.31 0.03,-0.43 0,-0.48 -0.01,-0.29 -0.09,-0.39 -0.03,-0.04 -0.01,-0.08 0.04,-0.08l0.63 -0c0.01,0.05 0.07,0.26 0.03,0.3 -0.08,0.05 -0.08,-0.09 -0.14,-0.14 -0.02,-0.02 -0.25,-0.11 -0.27,0.02l0.01 0.2c0.14,0.08 0.07,-0.1 0.18,-0.08 0.02,0.05 0.02,0.22 0,0.28 -0.11,0.02 -0.05,-0.14 -0.18,-0.08 -0.02,0.06 -0.01,0.31 -0,0.38zm5.47 -0.82c-0.02,-0.09 0.06,-0.07 0.13,-0.07 0.07,0 0.14,-0 0.2,0l0.2 0.31c0.04,0.07 0.04,0.08 0.08,0.09 0.03,-0.03 0.09,-0.15 0.12,-0.2 0.14,-0.24 0.07,-0.19 0.33,-0.2 0.07,-0 0.13,-0.01 0.12,0.07 -0.13,0.03 -0.14,0 -0.14,0.16 0,0.11 -0.01,0.54 0.01,0.61 0.03,0.16 0.16,0.03 0.13,0.17 -0.06,0.01 -0.43,0.01 -0.48,-0l0 -0.06c0.13,-0.06 0.16,-0.02 0.16,-0.22 -0,-0.12 0,-0.26 -0,-0.38l-0.19 0.32c-0.02,0.04 -0.03,0.08 -0.08,0.09 -0.03,-0 -0.27,-0.42 -0.31,-0.49l-0.03 -0.03c-0,0.15 -0,0.3 -0,0.46 -0,0.06 -0.01,0.16 0.02,0.2 0.05,0.06 0.13,0 0.11,0.12 -0.05,0.01 -0.32,0.02 -0.37,-0.01l0 -0.06c0.06,-0.02 0.13,-0.01 0.13,-0.15 0,-0.09 0,-0.19 0,-0.29 0,-0.52 0,-0.36 -0.13,-0.44zm-5.99 -0.47c0.13,-0.03 0.18,0.15 0.05,0.2 -0.13,0.05 -0.2,0.07 -0.25,0.19 -0.1,0.24 0.18,0.41 0.26,0.56 0.11,0.23 0.04,0.53 -0.1,0.66 -0.16,0.14 -0.41,0.19 -0.67,0.1 -0.19,-0.07 -0.13,-0.22 -0.05,-0.25 0.1,-0.04 0.18,0.08 0.35,0.07 0.32,-0.01 0.37,-0.33 0.26,-0.5 -0.03,-0.05 -0.06,-0.08 -0.1,-0.12 -0.36,-0.38 -0.16,-0.83 0.23,-0.91zm-1.26 0.29c-0.04,0.02 -0.15,0.1 -0.19,0.1 -0.09,0.01 -0.15,-0.07 -0.13,-0.16 0.02,-0.06 0.27,-0.2 0.34,-0.25 0.12,-0.08 0.3,-0.23 0.4,-0.16 0.07,0.05 0.05,0.16 -0.01,0.2 -0.05,0.03 -0.14,0.08 -0.18,0.11 -0,0.18 0.02,0.3 -0.01,0.49 -0.04,0.27 -0.13,0.54 -0.25,0.78 -0.04,0.09 -0.15,0.28 -0.21,0.31 -0.07,0.03 -0.15,-0 -0.18,-0.06 -0.03,-0.08 0.04,-0.13 0.07,-0.18 0.21,-0.27 0.4,-0.83 0.36,-1.19zm2.03 1.37c-0.22,0.58 -0.85,0.97 -1.5,0.95 -1.06,-0.03 -1.75,-1.12 -1.4,-2.09 0.37,-1.02 1.65,-1.39 2.52,-0.62 0.07,0.06 0.03,0.17 -0.06,0.16 -0.04,-0.01 -0.14,-0.1 -0.18,-0.13 -0.34,-0.25 -0.77,-0.33 -1.21,-0.2 -0.55,0.16 -1.05,0.71 -0.98,1.45 0.11,1.25 1.69,1.72 2.48,0.72 0.13,-0.17 0.13,-0.23 0.21,-0.39l7.71 -0 -0 0.16 -7.59 0zm-3.14 -0.5c0.02,0.27 0.09,0.49 0.2,0.7 0.09,0.16 0.26,0.39 0.4,0.5 0.48,0.37 0.72,0.42 1.38,0.42l7.2 0c0.29,-0 0.52,-0.05 0.75,-0.15 0.19,-0.09 0.4,-0.22 0.53,-0.37 0.78,-0.83 0.6,-2.12 -0.38,-2.7 -0.38,-0.22 -0.69,-0.23 -1.12,-0.23 -2.4,0 -4.8,-0.01 -7.2,-0 -0.29,0 -0.52,0.05 -0.75,0.16 -0.17,0.08 -0.4,0.24 -0.52,0.37 -0.26,0.28 -0.52,0.73 -0.47,1.31z"/>
   <path class="fil1" d="M11.36 2.23c-0.04,0.38 -0.18,0.71 -0.4,0.99 -0.1,0.13 -0.23,0.25 -0.36,0.34 -0.47,0.32 -0.77,0.31 -1.34,0.31l-6.53 0c-0.31,0 -0.63,0.01 -0.94,-0 -1,-0.04 -1.76,-1 -1.64,-2.09 0.08,-0.71 0.55,-1.35 1.24,-1.56 0.28,-0.09 0.55,-0.07 0.86,-0.07 2.18,0 4.35,0 6.53,0 0.31,0 0.63,-0.01 0.94,0 0.99,0.04 1.76,1 1.64,2.08zm-9.61 -2.22c-1.03,0.08 -1.82,1.01 -1.74,2.14 0.05,0.78 0.52,1.45 1.17,1.72 0.29,0.12 0.5,0.14 0.84,0.14l6.79 0c0.31,0 0.67,0.02 0.98,-0 1.52,-0.11 2.22,-2.01 1.35,-3.22 -0.07,-0.09 -0.15,-0.19 -0.22,-0.26 -0.04,-0.04 -0.08,-0.07 -0.13,-0.11 -0.11,-0.1 -0.31,-0.22 -0.45,-0.28 -0.28,-0.12 -0.5,-0.14 -0.84,-0.14l-6.79 0c-0.3,0 -0.67,-0.02 -0.96,0z"/>
   <path class="fil2" d="M3.43 2.62l7.59 0 0 -0.16 -7.71 0c-0.08,0.16 -0.08,0.22 -0.21,0.39 -0.79,0.99 -2.36,0.53 -2.48,-0.72 -0.07,-0.74 0.43,-1.29 0.98,-1.45 0.44,-0.13 0.86,-0.04 1.21,0.2 0.04,0.03 0.14,0.12 0.18,0.13 0.09,0.01 0.13,-0.1 0.06,-0.16 -0.87,-0.76 -2.15,-0.39 -2.52,0.62 -0.35,0.97 0.35,2.06 1.4,2.09 0.65,0.02 1.27,-0.37 1.5,-0.95z"/>
   <path class="fil2" d="M8.65 1.43c0.13,0.08 0.13,-0.08 0.13,0.44 0,0.09 0,0.2 -0,0.29 -0.01,0.14 -0.07,0.13 -0.13,0.15l-0 0.06c0.05,0.02 0.32,0.02 0.37,0.01 0.01,-0.11 -0.07,-0.06 -0.11,-0.12 -0.03,-0.04 -0.02,-0.15 -0.02,-0.2 0,-0.15 -0,-0.3 0,-0.46l0.03 0.03c0.05,0.07 0.28,0.48 0.31,0.49 0.05,-0.01 0.06,-0.04 0.08,-0.09l0.19 -0.32c0.01,0.12 0,0.25 0,0.38 0,0.2 -0.03,0.16 -0.16,0.22l-0 0.06c0.05,0.01 0.42,0.01 0.48,0 0.03,-0.14 -0.09,-0.01 -0.13,-0.17 -0.01,-0.07 -0.01,-0.5 -0.01,-0.61 -0,-0.16 0.01,-0.13 0.14,-0.16 0.02,-0.09 -0.04,-0.07 -0.12,-0.07 -0.26,0 -0.18,-0.05 -0.33,0.2 -0.03,0.05 -0.09,0.17 -0.12,0.2 -0.04,-0.01 -0.03,-0.02 -0.08,-0.09l-0.2 -0.31c-0.07,-0.01 -0.14,-0 -0.2,-0 -0.07,-0 -0.15,-0.02 -0.13,0.07z"/>
   <path class="fil2" d="M1.4 1.25c0.05,0.36 -0.14,0.92 -0.36,1.19 -0.03,0.04 -0.1,0.1 -0.07,0.18 0.02,0.06 0.1,0.1 0.18,0.06 0.06,-0.03 0.16,-0.22 0.21,-0.31 0.12,-0.24 0.21,-0.51 0.25,-0.78 0.03,-0.19 0.01,-0.31 0.01,-0.49 0.04,-0.03 0.13,-0.08 0.18,-0.11 0.07,-0.04 0.08,-0.15 0.01,-0.2 -0.1,-0.07 -0.27,0.08 -0.4,0.16 -0.07,0.04 -0.32,0.18 -0.34,0.25 -0.03,0.09 0.04,0.17 0.13,0.16 0.05,-0 0.15,-0.08 0.19,-0.1z"/>
   <path class="fil2" d="M2.66 0.96c-0.39,0.08 -0.59,0.52 -0.23,0.91 0.04,0.04 0.07,0.07 0.1,0.12 0.11,0.17 0.05,0.49 -0.26,0.5 -0.17,0.01 -0.25,-0.11 -0.35,-0.07 -0.08,0.03 -0.14,0.18 0.05,0.25 0.25,0.09 0.51,0.04 0.67,-0.1 0.14,-0.12 0.21,-0.43 0.1,-0.66 -0.08,-0.15 -0.36,-0.33 -0.26,-0.56 0.05,-0.12 0.12,-0.13 0.25,-0.19 0.13,-0.05 0.08,-0.23 -0.05,-0.2z"/>
   <path class="fil2" d="M4.06 1.9c-0.01,-0.07 -0.01,-0.36 0,-0.42 0.13,-0.02 0.25,0.09 0.24,0.22 -0.01,0.12 -0.12,0.23 -0.25,0.2zm-0.22 -0.3c-0,0.12 0.02,0.59 -0.03,0.66 -0.03,0.03 -0.07,0.03 -0.11,0.05 -0.01,0.06 0.01,0.07 0.06,0.07l0.37 0c0.04,0 0.06,-0 0.05,-0.05 -0.02,-0.09 -0.13,0.04 -0.13,-0.23 0,-0.08 0.03,-0.07 0.1,-0.07 0.15,0 0.11,0.04 0.12,0.26 0,0.1 0.04,0.1 0.21,0.09l0.08 -0.01c0.03,-0.15 -0.09,-0.03 -0.09,-0.19 -0.01,-0.14 0.01,-0.15 -0.05,-0.21l-0.02 -0.02c-0,-0 -0,-0 -0.01,-0.01 0.06,-0.02 0.09,-0.06 0.11,-0.14 0.06,-0.22 -0.04,-0.44 -0.3,-0.44l-0.43 0c-0.1,0 -0.12,0.08 -0.03,0.09 0.1,0.01 0.09,0.04 0.09,0.14z"/>
   <path class="fil2" d="M5.56 1.46c0.12,0.03 0.13,0.02 0.13,0.17l0 0.47c0,0.05 -0,0.09 -0.03,0.13 -0.04,0.05 -0.06,0.03 -0.1,0.06 -0.01,0.06 -0,0.09 0.06,0.09 0.21,0 0.32,0.03 0.31,-0.06 -0.01,-0.1 -0.14,0.03 -0.14,-0.22 0,-0.07 -0.02,-0.38 0.01,-0.42 0.04,0.01 0.09,0.13 0.11,0.17l0.25 0.46c0.04,0.08 0.05,0.07 0.27,0.07l0.05 -0c0.03,-0.15 -0.08,-0.07 -0.12,-0.16 -0.02,-0.04 -0.02,-0.51 -0.02,-0.58 0,-0.14 0.04,-0.14 0.13,-0.17l-0 -0.09c-0.06,-0.01 -0.13,-0 -0.19,-0 -0.04,0 -0.16,-0.02 -0.17,0.02 -0.05,0.13 0.14,0.01 0.14,0.25 0,0.06 0.01,0.34 -0.01,0.39 -0.04,-0.02 -0.15,-0.26 -0.2,-0.34l-0.14 -0.27c-0.04,-0.08 -0.03,-0.06 -0.27,-0.06 -0.08,0 -0.09,0.02 -0.08,0.1z"/>
   <path class="fil2" d="M10.27 2.06c0.01,-0.05 0.05,-0.13 0.07,-0.18 0.02,-0.05 0.05,-0.14 0.09,-0.17l0.12 0.36 -0.28 0zm-0.32 0.32c0.12,0 0.22,0.01 0.34,-0.01 0.01,-0.08 -0.03,-0.06 -0.07,-0.1 -0.03,-0.03 -0.04,-0.11 0.02,-0.11l0.36 0c0.1,0.18 -0.1,0.07 -0.07,0.2 0.04,0.02 0.44,0.02 0.5,-0 -0.01,-0.1 -0.09,0 -0.18,-0.22 -0.06,-0.14 -0.16,-0.44 -0.21,-0.6 -0.03,-0.09 -0.08,-0.28 -0.18,-0.17 -0.09,0.09 -0.36,0.86 -0.49,0.93 -0.02,0.01 -0.05,0.01 -0.06,0.04 -0.01,0.04 0.03,0.04 0.06,0.04z"/>
   <path class="fil2" d="M4.7 1.38c-0.02,0.13 0.09,0.03 0.1,0.19l0 0.6c-0,0.16 -0.14,0.06 -0.09,0.2 0.07,0.02 0.5,0.01 0.62,0.01 0.02,-0.04 0.17,-0.36 0.04,-0.3 -0.04,0.02 -0.08,0.11 -0.11,0.14 -0.05,0.05 -0.18,0.06 -0.25,0.03 -0.01,-0.07 -0.01,-0.32 0,-0.38 0.14,-0.05 0.09,0.11 0.17,0.08 0.03,-0.02 0.02,-0.25 -0,-0.28 -0.1,0 -0.02,0.13 -0.16,0.09 -0.02,-0.01 -0.04,-0.23 0.01,-0.27 0.06,-0.03 0.19,-0.01 0.24,0.03 0.06,0.05 0.04,0.16 0.14,0.15 0.04,-0.06 -0.01,-0.23 -0.03,-0.3 -0.12,0 -0.62,-0.02 -0.68,0.02z"/>
   <path class="fil2" d="M3.49 2.38c0.03,-0.02 0.13,-0.27 0.1,-0.3 -0.06,-0.06 -0.14,0.11 -0.17,0.13 -0.05,0.05 -0.18,0.06 -0.25,0.03 -0.01,-0.06 -0.01,-0.32 0,-0.38 0.13,-0.05 0.07,0.1 0.18,0.08 0.01,-0.06 0.02,-0.23 -0,-0.28 -0.11,-0.02 -0.04,0.16 -0.18,0.08l-0.01 -0.2c0.02,-0.13 0.25,-0.04 0.27,-0.02 0.06,0.05 0.06,0.19 0.14,0.14 0.04,-0.03 -0.01,-0.25 -0.03,-0.3l-0.63 0c-0.05,0.01 -0.07,0.04 -0.04,0.08 0.08,0.1 0.09,-0.09 0.09,0.39 0,0.11 0.02,0.38 -0.03,0.43 -0.03,0.02 -0.09,0.03 -0.06,0.09 0.02,0.05 0.54,0.03 0.61,0.03z"/>
   <path class="fil2" d="M1.41 2.91c0.13,0.04 0.28,0.26 0.91,0.15 0.07,-0.01 0.15,-0.03 0.21,-0.05 0.07,-0.02 0.15,-0.04 0.15,-0.13 0.01,-0.2 -0.22,-0.26 -0.25,-0.07 -0.83,0.17 -0.93,-0.21 -1.07,-0.14 -0.05,0.02 -0.13,0.08 -0.16,0.11 -0.05,0.06 -0.03,0.15 0.02,0.18 0.09,0.06 0.16,-0.03 0.18,-0.04z"/>
   <path class="fil2" d="M7.34 2.38c0.05,-0.01 0.04,-0.01 0.07,-0.05 0,-0 0,-0 0,-0.01 0.08,0.04 0.2,0.04 0.29,0.02 0.1,-0.01 0.17,-0.05 0.22,-0.11 0.05,-0.06 0.07,-0.17 0.03,-0.27 -0.05,-0.14 -0.26,-0.21 -0.4,-0.27 -0.05,-0.02 -0.08,-0.03 -0.1,-0.06 -0.03,-0.04 -0.02,-0.11 0.01,-0.14 0.06,-0.06 0.2,-0.04 0.25,0.01 0.08,0.07 0.12,0.16 0.19,0.15 0.01,-0.05 -0.05,-0.28 -0.08,-0.29 -0.04,-0.03 -0.06,0.03 -0.08,0.04 -0.06,-0.01 -0.16,-0.09 -0.31,-0.04 -0.22,0.08 -0.25,0.36 -0.08,0.49 0.08,0.06 0.18,0.08 0.28,0.12 0.08,0.03 0.2,0.13 0.11,0.23 -0.06,0.07 -0.24,0.07 -0.32,0.02 -0.05,-0.03 -0.07,-0.06 -0.1,-0.1 -0.2,-0.23 -0.07,0.18 0,0.25z"/>
   <path class="fil2" d="M1.9 1.7l0.11 0.35 -0.26 -0 0.15 -0.35zm-0.12 0.64c-0,-0.07 -0.02,-0.05 -0.06,-0.08 -0.05,-0.04 -0.03,-0.1 -0,-0.11l0.33 -0.01c0.02,0.03 0.03,0.05 0.03,0.09 -0.04,0.04 -0.13,0.05 -0.08,0.1 0.02,0.02 0.02,0.02 0.1,0.02 0.09,-0 0.29,0.01 0.35,-0.02 -0.02,-0.07 -0.05,-0.02 -0.11,-0.1 -0.06,-0.08 -0.14,-0.35 -0.18,-0.45 -0.09,-0.29 -0.15,-0.61 -0.28,-0.28 -0.08,0.2 -0.15,0.4 -0.25,0.58 -0.15,0.29 -0.17,0.15 -0.2,0.22 -0.03,0.06 0.11,0.04 0.15,0.04 0.07,-0 0.15,0.01 0.21,-0.01z"/>
   <path class="fil2" d="M6.75 1.58c0,0.19 0.01,0.49 -0.01,0.67l-0.08 0.03c-0.01,0.05 -0,0.05 0.01,0.09 0.11,0.02 0.26,0.01 0.38,0 0.06,-0.17 -0.08,-0.03 -0.08,-0.21l0 -0.59c0,-0.11 0.03,-0.08 0.08,-0.13 0.04,-0.04 0.02,-0.1 -0.06,-0.1 -0.09,0 -0.42,-0.03 -0.31,0.1 0.04,0.05 0.08,0 0.08,0.13z"/>
   <path class="fil2" d="M8.2 1.56l0 0.61c0,0.1 -0.02,0.09 -0.09,0.12l0.01 0.09c0.12,0.01 0.21,0.01 0.33,0.01 0.07,0 0.08,-0.02 0.07,-0.09 -0.07,-0.05 -0.09,-0 -0.09,-0.13l0 -0.61c0,-0.12 0.02,-0.07 0.08,-0.11 0.04,-0.03 0.03,-0.1 -0.05,-0.1l-0.27 0c-0.08,0 -0.09,0.07 -0.05,0.09 0.05,0.04 0.08,-0.01 0.08,0.11z"/>
   <path class="fil0" d="M4.06 1.9c0.12,0.03 0.24,-0.08 0.25,-0.2 0.01,-0.13 -0.11,-0.24 -0.24,-0.22 -0.02,0.05 -0.01,0.35 -0,0.42z"/>
   <path class="fil0" d="M10.27 2.06l0.28 0 -0.12 -0.36c-0.04,0.03 -0.06,0.12 -0.09,0.17 -0.02,0.05 -0.06,0.13 -0.07,0.18z"/>
   <polygon class="fil0" points="1.75,2.05 2.01,2.05 1.9,1.7 "/>
  </g>
 </g>
</svg>
