<?xml version="1.0" encoding="UTF-8"?>
<!DOCTYPE svg PUBLIC "-//W3C//DTD SVG 1.1//EN" "http://www.w3.org/Graphics/SVG/1.1/DTD/svg11.dtd">
<!-- Creator: CorelDRAW 2021.5 -->
<svg xmlns="http://www.w3.org/2000/svg" xml:space="preserve" width="0.981543in" height="0.252728in" version="1.1" style="shape-rendering:geometricPrecision; text-rendering:geometricPrecision; image-rendering:optimizeQuality; fill-rule:evenodd; clip-rule:evenodd"
viewBox="0 0 12.74 3.28"
 xmlns:xlink="http://www.w3.org/1999/xlink"
 xmlns:xodm="http://www.corel.com/coreldraw/odm/2003">
 <defs>
  <style type="text/css">
   <![CDATA[
    .fil0 {fill:#FEFEFE}
   ]]>
  </style>
 </defs>
 <g id="Capa_x0020_1">
  <metadata id="CorelCorpID_0Corel-Layer"/>
  <g id="_3020728386416">
   <path class="fil0" d="M4.52 0.18c0.01,-0.04 0.02,-0.09 -0.02,-0.11 -0.19,0.01 -0.38,0.01 -0.58,0.01 -0.1,0 -0.19,-0 -0.29,-0.01 -0.06,-0 -0.24,-0.02 -0.29,-0.01 -0.01,0.02 -0.04,0.08 -0,0.1 0.01,0.01 0.04,0.01 0.06,0.01 0.06,0 0.14,0.01 0.19,0.03 0.08,0.03 0.11,0.08 0.13,0.17 0.03,0.15 0.02,0.4 0.02,0.56 0,0.19 0,0.39 0,0.58 0,0.54 -0.03,1.16 0.42,1.48 0.23,0.16 0.52,0.21 0.81,0.21 0.18,-0 0.35,-0.03 0.5,-0.09 0.88,-0.32 0.69,-1.43 0.71,-2.2 0.01,-0.18 0.01,-0.37 0.04,-0.54 0.02,-0.1 0.04,-0.14 0.12,-0.17 0.09,-0.04 0.17,-0.02 0.25,-0.04 0.03,-0.04 0.02,-0.08 -0.01,-0.11l-1.02 0c-0.02,0.03 -0.03,0.07 -0,0.11 0.16,0.02 0.32,0 0.37,0.16 0.09,0.28 0.07,1.19 0.07,1.5 -0.01,0.64 -0.26,1.18 -0.91,1.18 -0.7,0 -0.93,-0.46 -0.95,-1.14 -0.01,-0.34 -0,-0.7 -0,-1.04 0,-0.13 -0.01,-0.38 0.03,-0.5 0.05,-0.16 0.2,-0.13 0.37,-0.15z"/>
   <path class="fil0" d="M11.14 0.63c0.04,0.03 0.29,0.83 0.32,0.93 0.05,0.15 0.11,0.24 0,0.26l-0.62 0c-0.11,0 -0.16,0.02 -0.11,-0.1 0.06,-0.18 0.37,-1.04 0.41,-1.08zm1.6 2.56l0 -0.07c-0.03,-0.03 -0.08,-0.03 -0.13,-0.03 -0.05,-0 -0.09,-0.01 -0.13,-0.03 -0.18,-0.07 -0.26,-0.4 -0.32,-0.59 -0.05,-0.15 -0.11,-0.31 -0.16,-0.46l-0.47 -1.38c-0.05,-0.16 -0.1,-0.3 -0.15,-0.46 -0.01,-0.05 -0.02,-0.08 -0.06,-0.1 -0.02,-0.01 -0.03,0 -0.05,0.02 -0.01,0.02 -0.02,0.02 -0.04,0.04 -0.1,0.1 -0.13,0.08 -0.19,0.12 0,0.14 -0.07,0.3 -0.11,0.42 -0.15,0.37 -0.3,0.78 -0.44,1.16 -0.1,0.26 -0.2,0.51 -0.3,0.76 -0.04,0.1 -0.11,0.3 -0.16,0.37 -0.09,0.13 -0.19,0.13 -0.33,0.14 -0.12,0.01 -0.04,0.12 -0.04,0.12 0.05,0.01 0.26,-0.01 0.33,-0.01l0.51 0.01c0.05,0 0.11,0.02 0.12,-0.03 0.02,-0.08 -0.03,-0.08 -0.08,-0.08 -0.23,-0.02 -0.26,-0.02 -0.19,-0.26 0.03,-0.09 0.05,-0.17 0.08,-0.26 0.03,-0.09 0.15,-0.46 0.18,-0.51 0.04,-0.07 0.2,-0.05 0.29,-0.05 0.11,0 0.23,0 0.34,0 0.3,0 0.36,-0.03 0.4,0.11l0.21 0.65c0.02,0.06 0.08,0.22 0.04,0.27 -0.06,0.06 -0.22,0.03 -0.28,0.06 -0.03,0.04 -0.02,0.08 0.01,0.11 0.09,0 0.19,-0.01 0.28,-0.01l0.79 0.01c0.04,0 0.03,-0 0.04,-0.02z"/>
   <path class="fil0" d="M9.55 2.45c-0.02,-0.02 -0.07,-0.04 -0.11,-0.02 -0.01,0.01 -0.04,0.07 -0.05,0.09 -0.04,0.07 -0.06,0.12 -0.11,0.18 -0.28,0.39 -0.8,0.47 -1.26,0.33 -0.62,-0.19 -0.9,-0.74 -0.93,-1.36 -0.04,-0.73 0.3,-1.25 0.87,-1.43 0.41,-0.13 1.03,-0.09 1.28,0.32 0.15,0.25 0.06,0.37 0.24,0.29 0,-0.04 -0.06,-0.54 -0.06,-0.69 -0.09,0 -0.18,-0.03 -0.26,-0.05 -0.09,-0.02 -0.17,-0.03 -0.26,-0.05 -0.19,-0.02 -0.38,-0.04 -0.58,-0.03 -0.65,0.04 -1.26,0.33 -1.54,0.93 -0.21,0.44 -0.21,1.06 0.05,1.49 0.07,0.12 0.17,0.25 0.27,0.34 0.26,0.22 0.48,0.34 0.83,0.4 0.38,0.07 0.75,0.06 1.11,-0.02 0.09,-0.02 0.16,-0.05 0.24,-0.07 0.07,-0.01 0.05,-0.02 0.09,-0.07 0.07,-0.12 0.18,-0.45 0.18,-0.58z"/>
   <path class="fil0" d="M2.13 1.67l0.55 0c-0.04,0.71 -1.02,0.85 -1.57,0.61 -0.11,-0.05 -0.3,-0.16 -0.35,-0.27l0.41 0c0.21,0.34 0.95,0.31 0.95,-0.11l-0 -0.14 0 -0.1zm-1.58 0.19c0.01,-0.03 -0.01,-0.15 -0.01,-0.2 -0,-0.07 0,-0.14 0.01,-0.2 0.13,-0.84 1.13,-1.21 1.78,-0.72 0.57,0.44 0.59,1.24 0.14,1.66 -0.03,0.03 -0.06,0.09 -0.13,0.07 -0.03,-0.01 -0.04,-0.03 -0.08,-0.02 -0.08,0.02 -0.05,0.06 -0.15,0.01 -0.08,-0.04 -0.11,0.01 -0.16,0.02 -0.05,0.02 -0.13,0.01 -0.18,-0.01 0.01,-0.01 -0.01,-0 0.01,-0.01l0.04 -0c0.11,-0.01 0.24,-0.03 0.34,-0.06 0.39,-0.12 0.6,-0.38 0.6,-0.8l-0.71 -0c-0,0.08 0,0.15 0,0.23 0,0.08 0.01,0.14 -0.02,0.2 -0.05,0.1 -0.18,0.13 -0.32,0.14l0 -1.04c0.06,0 0.25,0.01 0.29,-0.01 0.04,-0.08 -0.04,-0.07 -0.1,-0.07 -0.06,0 -0.13,0 -0.19,0 0,-0.07 0.01,-0.23 -0.01,-0.28 -0.08,-0.02 -0.06,0.03 -0.06,0.1 0,0.06 0,0.12 -0,0.18 -0.06,0 -0.25,-0.01 -0.29,0.01 -0.02,0.02 -0.02,0.04 0.01,0.07l0.28 0 0 1.04c-0.18,-0.01 -0.29,-0.08 -0.41,-0.2 -0.02,-0.02 -0.02,-0.01 -0.06,-0.01 -0.12,0 -0.45,-0.01 -0.52,0 -0.01,0.08 0.04,0.1 0.09,0.15 0.12,0.12 0.25,0.21 0.42,0.28 0.07,0.03 0.23,0.06 0.24,0.07 -0.02,0.01 -0.03,0.02 -0.05,0.02 -0.06,-0.01 -0.07,-0.08 -0.18,-0.02 -0.12,0.06 -0.16,-0.08 -0.23,-0.01 0.02,0.01 0.04,0.01 0.06,0.03 0.05,0.05 0.1,0.08 0.18,0.03 0.07,-0.05 0.08,0 0.12,0.02 0.02,0.01 0.05,0.01 0.07,0 0.03,-0.01 0.01,-0.03 0.06,-0.03 0.04,0.01 -0.01,0.05 0.14,0.02 -0.02,0.04 -0.03,0.02 -0.04,0.09 -0.05,0.01 -0.13,0.06 -0.09,0.1 0.05,0.02 0.03,-0.05 0.1,-0.05 0.07,-0.01 0.07,0.06 0.09,0.07l0.05 0c0.02,-0 0.02,-0.07 0.09,-0.06 0.06,0.01 0.04,0.07 0.09,0.05 0.04,-0.04 -0.03,-0.09 -0.08,-0.1 -0,-0.06 -0.03,-0.08 -0.06,-0.11 0.06,0.01 0.09,0.04 0.18,0.03 0.06,-0.01 0.1,-0.06 0.15,-0.03 0.06,0.03 0.07,0.06 0.15,0.01 0.02,-0.01 0.04,-0.03 0.07,-0.02 0.05,0.02 0.03,0.01 0.08,-0l-0.01 0.01c-0,0 -0.01,0.01 -0.01,0.01 -0.01,0.01 -0.01,0.01 -0.03,0.02 -0.02,0.01 -0.04,0.02 -0.05,0.04 -0.29,0.19 -0.68,0.23 -1,0.11 -0.25,-0.1 -0.44,-0.26 -0.58,-0.49 -0.06,-0.1 -0.09,-0.22 -0.11,-0.25l-0.03 0c-0.03,0.08 0.15,0.33 0.18,0.38 0.26,0.36 0.76,0.55 1.24,0.42 0.32,-0.08 0.54,-0.28 0.68,-0.49 0.16,-0.25 0.25,-0.58 0.15,-0.93 -0.09,-0.32 -0.28,-0.53 -0.49,-0.68 -0.4,-0.27 -0.92,-0.26 -1.33,0.02 -0.3,0.21 -0.51,0.59 -0.49,0.96 0,0.05 0,0.09 0.01,0.14 0.01,0.04 0,0.09 0.05,0.07z"/>
   <path class="fil0" d="M1.52 0.07c0.47,-0.04 0.91,0.11 1.24,0.43 0.11,0.11 0.23,0.25 0.3,0.39 0.09,0.16 0.17,0.39 0.19,0.6 0.08,0.92 -0.61,1.64 -1.44,1.72 -0.92,0.08 -1.66,-0.61 -1.73,-1.42 -0.05,-0.53 0.18,-1.06 0.59,-1.38 0.07,-0.05 0.15,-0.11 0.24,-0.16 0.19,-0.09 0.37,-0.16 0.61,-0.18zm-1.52 1.46l0 0.21c0,0 0.03,0.22 0.06,0.33 0.05,0.18 0.15,0.38 0.25,0.52 0.13,0.17 0.22,0.26 0.39,0.38 0.07,0.05 0.16,0.1 0.25,0.14 0.09,0.04 0.18,0.08 0.28,0.1 0.05,0.01 0.11,0.03 0.16,0.03 0.04,0.01 0.15,0.01 0.17,0.02l0.2 0c0.03,-0.01 0.13,-0.01 0.18,-0.02 0.4,-0.07 0.76,-0.28 1.01,-0.59 0.09,-0.11 0.17,-0.23 0.23,-0.37 0.26,-0.56 0.15,-1.22 -0.23,-1.69 -0.09,-0.12 -0.19,-0.2 -0.31,-0.29 -0.19,-0.15 -0.46,-0.26 -0.7,-0.3 -0.04,-0.01 -0.15,-0.01 -0.17,-0.02l-0.21 0c-0.02,0.01 -0.13,0.02 -0.17,0.02 -0.16,0.03 -0.3,0.07 -0.44,0.14 -0.19,0.09 -0.31,0.19 -0.46,0.32 -0.2,0.18 -0.36,0.47 -0.43,0.73 -0.03,0.12 -0.05,0.31 -0.06,0.32z"/>
   <path class="fil0" d="M0.33 0.93c0,-0.05 0.07,-0.1 0.16,-0.07 0.08,0.03 0.08,0.09 0.03,0.16 -0.03,-0 -0.17,-0.07 -0.19,-0.09zm0.17 0.18c-0.07,0.03 -0.07,0.02 -0.16,0.04 -0.05,0.01 -0.13,0.01 -0.16,0.03 -0.01,0.05 0.05,0.08 0.1,0.13 0.02,0.03 0.04,0.03 0.06,0.05 0.05,0.04 0.02,0.02 0.05,0.07 0.03,-0.01 0.02,-0.01 0.03,-0.04 0.01,-0.02 0.01,-0.04 0.01,-0.06 -0.02,0 -0.03,0.01 -0.05,-0 -0.02,-0.01 -0.02,-0.02 -0.04,-0.03 0,-0.04 0.02,-0.06 0.03,-0.09 0.01,-0 0.04,-0 0.06,0 0.03,0.01 0.01,0.01 0.04,0.03l0.02 -0.03c0,-0.01 0.01,-0.02 0.01,-0.03 0.01,-0.02 0.01,-0.05 0.02,-0.07 0.02,-0.04 0.04,-0.07 0.06,-0.12 0.06,-0.17 -0.17,-0.25 -0.26,-0.12 -0.11,0.16 -0.03,0.12 0.01,0.14l0.12 0.06c0.03,0.02 0.03,0.02 0.05,0.05z"/>
   <path class="fil0" d="M1.54 0.26c-0.02,-0.13 0.17,-0.11 0.19,0.01 0.01,0.06 -0.04,0.1 -0.1,0.09 -0.04,-0.01 -0.09,-0.05 -0.09,-0.09zm0.05 -0.14c-0.22,0.06 -0.12,0.33 0.08,0.29 0.07,-0.02 0.15,-0.09 0.12,-0.19 -0.02,-0.07 -0.11,-0.12 -0.2,-0.1z"/>
   <path class="fil0" d="M2.2 2.84c0.06,0.02 0.22,0.1 0.25,0.09 0.01,-0 0.07,-0.02 0.02,-0.05 -0.04,-0.03 -0.06,-0.09 -0.08,-0.14 -0,-0.01 -0.02,-0.03 -0.02,-0.04 -0,-0.01 0.02,-0.09 -0.06,-0.04 -0.04,0.03 0,0.05 0.01,0.05 0.02,0.02 0.06,0.1 0.07,0.13 -0.05,-0.02 -0.21,-0.1 -0.26,-0.09 -0.01,0.04 0.04,0.1 0.05,0.14 0.01,0.03 0.02,0.05 0.03,0.07 0.02,0.04 -0,0.03 0.01,0.07 0.03,0 0.05,-0.01 0.07,-0.03 0,-0.04 -0,-0.03 -0.02,-0.04 -0.02,-0.01 -0.06,-0.11 -0.06,-0.13z"/>
   <path class="fil0" d="M2.84 2.47c0.04,0.03 0.02,0.05 0.05,0.05 0.02,-0.01 0.05,-0.04 0.04,-0.07 -0.02,-0.02 -0.02,-0 -0.05,-0.02l-0.11 -0.07c0.14,-0.04 0.29,-0 0.27,-0.1 -0.09,-0.01 -0.12,-0.04 -0.19,-0.09 -0.03,-0.02 -0.03,-0.04 -0.04,-0.05 -0.02,-0.01 -0.05,0.02 -0.05,0.04 -0.01,0.04 0.02,0.03 0.05,0.04 0.02,0 0.09,0.06 0.11,0.07 -0.04,0.03 -0.23,0.02 -0.26,0.06 -0.01,0.03 0.07,0.06 0.12,0.1 0.02,0.02 0.04,0.03 0.06,0.04z"/>
   <path class="fil0" d="M0.88 2.93c0.01,0.01 0.03,0.03 0.06,0.03 0.04,-0 0.02,-0.03 0.02,-0.05 0,-0.02 0.05,-0.1 0.06,-0.12 0,0 0,0 0,0 0,0 0,0 0,0l0.02 0.07c0.03,0.11 0.03,0.2 0.1,0.18l0 -0.02c0,-0 0,-0 0,-0.01 0,-0.01 -0,-0.01 0,-0.02 0,-0.01 0.01,-0.02 0.01,-0.03l0.06 -0.13c0.02,-0.04 0.03,-0.01 0.04,-0.05 -0.01,-0.02 -0.05,-0.05 -0.08,-0.02 0,0 -0.01,0.11 -0.06,0.16 -0.03,-0.05 -0.05,-0.2 -0.08,-0.25 -0.04,-0 -0.04,0.02 -0.05,0.06l-0.07 0.14c-0.02,0.05 -0.04,0.01 -0.04,0.06z"/>
   <path class="fil0" d="M2.88 1.39c-0.03,0.12 0.06,0.06 0.06,0.06 0.02,-0.01 0.06,-0.01 0.08,-0 0.01,0.05 -0.04,0.06 -0.07,0.08 -0.03,0.02 -0.07,0.07 -0.04,0.11 0.04,-0 0,-0.01 0.05,-0.06 0.02,-0.01 0.05,-0.03 0.08,-0.04 0.03,0.02 0.08,0.06 0.13,0 0.02,-0.03 0.01,-0.14 0.01,-0.17 -0.05,0 -0.02,0.01 -0.07,0.02l-0.16 0.01c-0.04,-0 -0.02,-0.02 -0.07,-0.01z"/>
   <path class="fil0" d="M2.02 3.1c0.02,-0.04 0.05,-0.18 0.06,-0.24 0.01,-0.05 0.03,-0.02 0.03,-0.07 -0.03,-0 -0.09,0 -0.11,0.02 0.01,0.02 0.03,0.02 0.02,0.07l-0.01 0.02c-0.03,0.01 -0.06,0.01 -0.09,0.01 -0.05,-0.06 -0.02,-0.07 -0.02,-0.09 -0.03,-0 -0.1,0.01 -0.13,0.02 0.01,0.03 0.01,0.02 0.03,0.04l0.08 0.11c0.06,0.08 0.08,0.12 0.13,0.11z"/>
   <path class="fil0" d="M2.82 1.15c0.04,-0.01 -0,-0.03 0.09,-0.03 0.01,0.02 0.03,0.06 0.03,0.09 -0.01,0.01 -0.03,0.03 -0.04,0.03 -0.03,0.01 -0.04,-0.02 -0.05,0.01 -0,0.01 0.04,0.1 0.04,0.11 0.03,-0.01 0.02,-0.01 0.03,-0.03 0.01,-0.03 0.12,-0.13 0.15,-0.16 0.01,-0.02 0.06,-0.05 0.04,-0.08 -0.03,-0.04 -0.23,-0 -0.29,-0.03 -0.08,-0.05 -0,0.09 -0,0.09z"/>
   <path class="fil0" d="M0.98 0.57c0.03,0.01 0.09,-0.02 0.1,-0.04 -0.02,-0.04 -0.03,0.01 -0.04,-0.09 0.08,-0.03 0.08,-0.05 0.12,-0 0.02,0.03 0.01,0.02 0.01,0.05 0.02,0.01 0.07,-0.02 0.09,-0.03 0.02,-0.01 0.02,-0.01 0.02,-0.02 -0.02,-0.02 -0.03,-0 -0.07,-0.04l-0.18 -0.14c-0.08,-0.06 -0.05,0.16 -0.05,0.23 0,0.06 -0.01,0.05 -0.02,0.08z"/>
   <path class="fil0" d="M2.44 0.66c-0,0.03 0.05,0.08 0.07,0.08 0.01,-0.03 -0,-0.02 0.02,-0.04 0.01,-0.01 0.03,-0.02 0.05,-0.02 0.02,0.01 0.06,0.05 0.06,0.07 0.01,0.05 -0.06,0.07 -0.06,0.07 0.01,0.02 0.07,0.09 0.09,0.09 0.01,-0.02 0.01,-0.06 0.01,-0.09 0.02,-0.06 0.07,-0.21 0.06,-0.25 -0.05,-0.01 -0.11,0.02 -0.15,0.04 -0.13,0.05 -0.05,0.03 -0.16,0.05z"/>
   <path class="fil0" d="M0.55 2.13c-0.03,0.01 -0.02,0.01 -0.04,0.03 -0.01,0.01 -0.02,0.02 -0.04,0.02 -0.04,0.02 -0.03,0.02 -0.04,0.01 -0.02,-0.02 0.01,-0.05 0.03,-0.07 0.02,-0.03 0.04,-0.05 0.03,-0.09 -0,-0.03 -0.01,-0.03 -0.04,-0.03 -0,0.08 -0.04,0.09 -0.07,0.13 -0.03,-0.01 -0.06,-0.01 -0.08,0 -0.07,0.04 -0.03,0.1 -0.01,0.14 0.04,0.11 0.04,0.04 0.09,0.01 0.02,-0.01 0.04,-0.02 0.06,-0.03 0.02,-0.01 0.04,-0.02 0.06,-0.03 0.04,-0.02 0.07,-0 0.07,-0.03 0,-0 0.01,-0.04 -0.03,-0.05z"/>
   <path class="fil0" d="M0.38 1.58c-0.03,0.01 -0.13,0.01 -0.17,0.01 -0.04,0 -0.05,0.01 -0.05,-0.04 0,-0.03 0.01,-0.05 0.03,-0.06 0.04,-0.05 0.21,-0.1 0.19,0.09zm-0.24 0.08c0.03,0 0.04,-0.01 0.06,-0.02l0.15 -0.01c0.04,0 0.03,0.02 0.07,0.01 0.01,-0.04 -0,-0.15 -0.01,-0.18 -0.04,-0.11 -0.21,-0.09 -0.26,0.01 -0.02,0.04 -0.03,0.14 -0.01,0.19z"/>
   <path class="fil0" d="M1.2 3.08c0.02,0.01 0.07,0.05 0.06,-0.01 -0,-0.05 0,-0.05 0.01,-0.1 0.01,-0.07 0.04,-0.13 0.12,-0.1 0.07,0.02 0.04,0.12 0.03,0.18 -0.02,0.08 -0.05,0.04 -0.03,0.08 0.01,0.02 0.07,0.02 0.09,0.02 0.01,-0.04 -0,-0.03 -0.01,-0.05 -0.01,-0.06 0.11,-0.25 -0.08,-0.29 -0.14,-0.03 -0.15,0.11 -0.17,0.19 -0.02,0.07 -0.03,0.03 -0.03,0.08z"/>
   <path class="fil0" d="M0.7 2.8c0.01,-0.04 0,-0.05 0.02,-0.09 0.01,-0.03 0.02,-0.05 0.03,-0.08 0.01,-0.04 0.05,-0.12 0.04,-0.16 -0.04,-0.01 -0.12,0.04 -0.15,0.05 -0.16,0.07 -0.09,0.03 -0.16,0.04 0,0.03 0.01,0.02 0.02,0.04 0.02,0.02 0.01,0.02 0.03,0.03 0.02,-0.03 -0,-0.02 0.04,-0.04 0.02,-0.01 0.03,-0.02 0.05,-0.02 0.03,-0.01 0.07,-0.03 0.1,-0.04 -0.01,0.04 -0.02,0.07 -0.04,0.1 -0.04,0.1 -0.03,0.06 -0.05,0.09 0.01,0.02 0.02,0.02 0.03,0.04 0.02,0.02 0.02,0.02 0.04,0.03z"/>
   <path class="fil0" d="M3.01 1.92c0.02,-0.03 0.01,-0.05 0,-0.08 -0.05,0 -0.01,0.02 -0.07,0.01 -0.06,-0.08 0.03,-0.17 0.13,-0.15 0.04,0.01 0.07,0.04 0.08,0.08 0.01,0.03 0,0.05 -0.01,0.07 -0.02,0.04 -0.03,0.01 -0.03,0.05 0.01,0.01 0.03,0.01 0.07,-0 0,-0.09 0.03,-0.12 -0.02,-0.2 -0.1,-0.13 -0.27,-0.04 -0.28,0.09 -0,0.11 0.06,0.1 0.08,0.11 0.04,0.01 0.01,0.01 0.04,0.02z"/>
   <path class="fil0" d="M2.45 0.61c-0.04,-0.02 -0.08,0.01 -0.12,-0.04 -0.03,-0.03 -0.03,-0.09 -0.01,-0.13 0.02,-0.03 0.06,-0.06 0.12,-0.05 0.08,0.01 0.05,0.06 0.07,0.1 0.03,0 0.02,0 0.03,-0.02 0.01,-0.02 0.01,-0.03 0.02,-0.05 -0.07,-0.06 -0.03,-0.03 -0.06,-0.05 -0.04,-0.04 -0.19,-0.06 -0.25,0.06 -0.07,0.17 0.19,0.27 0.2,0.18z"/>
   <path class="fil0" d="M0.94 0.52c-0.05,0 -0.01,0.06 -0.07,0.1 -0.09,0.06 -0.21,-0.05 -0.16,-0.15 0.03,-0.07 0.07,-0.03 0.12,-0.04 0.01,-0.03 0,-0.02 -0.01,-0.04 -0.02,-0.01 -0.02,-0.02 -0.03,-0.03 -0.02,0.01 -0.02,0.01 -0.03,0.02 -0.03,0.02 -0.06,0.02 -0.09,0.09 -0.03,0.06 -0.01,0.14 0.03,0.18 0.11,0.1 0.3,-0.01 0.25,-0.13z"/>
   <path class="fil0" d="M0.95 1.4c0.02,0.01 0.04,0.01 0.06,-0 0.02,-0.02 -0.03,-0.02 -0.01,-0.1l0.06 0.1c0.03,0.03 0.04,-0 0.04,-0 0.01,-0.01 0.02,-0.05 0.04,-0.08l0.01 -0.01c0,0.01 0,0.04 -0,0.05 -0.01,0.04 -0.02,0.01 -0.01,0.04 0.02,0 0.05,0.01 0.07,-0 0.01,-0.02 -0.01,-0.01 -0.01,-0.04 -0,-0.01 -0,-0.05 -0,-0.06 0,-0.04 0.01,-0.08 -0.01,-0.11 -0.03,-0 -0.03,-0.01 -0.04,0.02l-0.06 0.12c-0,-0.01 -0,-0 -0.01,-0.01 -0,-0.01 -0.01,-0.01 -0.01,-0.02 -0.05,-0.09 -0.04,-0.12 -0.09,-0.1 -0.01,0.03 0.01,0.14 -0,0.17 -0.01,0.02 -0.02,0.01 -0.02,0.04z"/>
   <path class="fil0" d="M0.67 2.36c-0,-0.02 -0.06,-0.11 -0.08,-0.13 -0.03,-0 -0.06,-0 -0.07,0.01 0.01,0.02 -0.01,0.01 0.02,0.02 0.01,0 0.05,0.01 0.07,0.05 0.02,0.03 -0.04,0.06 -0.06,0.07 -0.02,-0.02 -0.03,-0.03 -0.04,-0.06 -0.02,0.01 -0.03,0.01 -0.04,0.03 0.01,0.02 0.01,0.01 0.02,0.03 0.01,0.01 0.01,0.02 0.02,0.03 -0.02,0.02 -0.05,0.05 -0.08,0.05 -0.02,-0.03 -0.01,-0.06 -0.03,-0.08 -0.05,0.01 -0.03,0.06 -0.01,0.08 0.03,0.03 0.02,0.05 0.06,0.07 0.02,-0.02 0.01,-0.01 0.02,-0.03l0.21 -0.14z"/>
   <path class="fil0" d="M2.87 2.12c0.02,-0.02 -0.02,-0.05 0.01,-0.12 0.03,-0 0.06,0.02 0.09,0.02 -0,0.01 -0.01,0.03 -0.01,0.04 -0.01,0.02 -0.01,0 -0.01,0.03 0.06,0.03 0.05,0.02 0.06,-0.05 0.03,0 0.07,0.01 0.09,0.03 -0,0.06 -0.04,0.04 -0.04,0.09l0.05 -0c0.01,-0.02 0.01,-0.05 0.02,-0.07 0,-0.01 0.04,-0.06 0.01,-0.07 -0,-0 -0,-0 -0,-0l-0.06 -0.01c-0.02,-0.01 -0.04,-0.01 -0.07,-0.02l-0.14 -0.05c-0.01,0.02 -0.05,0.12 -0.05,0.15 0.01,0.01 0.03,0.04 0.05,0.04z"/>
   <path class="fil0" d="M2.84 2.61c0.02,-0.02 0.03,-0.04 0.01,-0.07l-0.04 0c-0.03,0.06 -0.01,0.09 -0.13,-0 -0.04,-0.03 -0.06,-0.07 -0.08,-0.09 -0.02,0.01 -0.02,0.01 -0.04,0.02 -0.01,0.01 -0.02,0.02 -0.02,0.04 0,0 0.19,0.11 0.17,0.16 -0.01,0.02 -0.05,0.02 -0.07,0.04l0.01 0.03c0.05,0.01 0.06,0 0.13,-0.06 0.02,-0.02 0.03,-0.04 0.05,-0.06z"/>
   <path class="fil0" d="M1.19 0.24c0.06,0 0.02,-0.03 0.08,-0.02 0.03,0.04 0.06,0.14 0.06,0.19 0,0.01 -0,0.02 0.01,0.03 0.02,0.01 0.06,-0.01 0.07,-0.02 -0,-0.03 -0.01,-0.02 -0.02,-0.05 -0.01,-0.01 -0.02,-0.04 -0.02,-0.05 -0.01,-0.02 -0.03,-0.08 -0.02,-0.1 0.01,-0.03 0.02,-0.02 0.05,-0.02l0.03 0c0.03,-0.01 0.02,-0.06 -0.03,-0.05 -0.02,0 -0.07,0.01 -0.09,0.02 -0.03,0.01 -0.05,0.01 -0.08,0.02 -0.04,0.02 -0.05,0.02 -0.03,0.06z"/>
   <path class="fil0" d="M0.78 1.41c-0.01,0.02 0,0.07 0,0.1 0,0.06 -0.01,0.06 -0.01,0.07 -0,0.04 -0,0.01 0.01,0.02 0.02,0.01 0.09,0.01 0.12,0 0.03,-0.01 0.04,-0.06 0.02,-0.09 -0.02,-0.02 -0.01,-0.01 -0.01,-0.03 0.02,-0.11 -0.12,-0.07 -0.12,-0.07z"/>
   <path class="fil0" d="M1.81 0.42c0.01,0.01 0.15,0.05 0.18,0.04 0.02,-0.01 0.03,-0.03 0.03,-0.06 -0.05,0 -0.06,0.06 -0.12,-0 -0,-0.01 0.02,-0.15 0.05,-0.18 0.01,-0.01 0.02,-0.01 0.02,-0.03 -0,-0.02 -0.05,-0.03 -0.07,-0.03 -0.05,0 -0.03,0.03 -0.02,0.05 0.01,0.02 -0.01,0.05 -0.01,0.08 -0.01,0.02 -0.01,0.05 -0.02,0.08 -0.01,0.03 -0.04,0.03 -0.03,0.06z"/>
  </g>
 </g>
</svg>
