<?xml version="1.0" encoding="UTF-8"?>
<!DOCTYPE svg PUBLIC "-//W3C//DTD SVG 1.1//EN" "http://www.w3.org/Graphics/SVG/1.1/DTD/svg11.dtd">
<!-- Creator: CorelDRAW 2021.5 -->
<svg xmlns="http://www.w3.org/2000/svg" xml:space="preserve" width="0.721803in" height="0.323657in" version="1.1" style="shape-rendering:geometricPrecision; text-rendering:geometricPrecision; image-rendering:optimizeQuality; fill-rule:evenodd; clip-rule:evenodd"
viewBox="0 0 6.88 3.09"
 xmlns:xlink="http://www.w3.org/1999/xlink"
 xmlns:xodm="http://www.corel.com/coreldraw/odm/2003">
 <defs>
  <style type="text/css">
   <![CDATA[
    .fil0 {fill:#FEFEFE}
   ]]>
  </style>
 </defs>
 <g id="Capa_x0020_1">
  <metadata id="CorelCorpID_0Corel-Layer"/>
  <g id="_3020464808656">
   <path class="fil0" d="M3.35 2.49l0.2 -0.01c0.02,-0 0.03,-0 0.04,-0.01 0.02,-0 0.04,-0.01 0.05,-0.01l0.18 -0.06c0,-0 0.01,-0 0.01,-0l0.4 -0.23 0.18 -0.19c0.01,-0.01 0.01,-0.02 0.02,-0.03 0,-0 0,-0 0,-0.01l0.18 -0.24c0,-0 0,-0 0,-0.01l0.1 -0.14c0.02,-0.03 -0.01,0.01 0.01,-0.01l0.05 -0.06c0,-0.01 0.01,-0.01 0.01,-0.02l0.25 -0.34c0,-0 0,-0 0,-0.01l0.08 -0.11c0.01,-0.01 0.01,-0.01 0.01,-0.02l0.12 -0.16c0,-0.01 0.01,-0.01 0.01,-0.02 0,-0 0,-0 0,-0.01 0,-0 0,-0 0,-0.01 0,-0 0,-0 0,-0.01 0.03,-0.04 0.06,-0.07 0.1,-0.03l0.05 0.06c0.01,0.02 0.01,0.02 0.03,0.04 0,0 0.01,0.01 0.01,0.01 0,0 0,0 0,0.01 0,0 0.01,0.01 0.01,0.01l0.18 0.25c0.01,0.02 0.01,0.01 0.03,0.04l0.2 0.28c0,0 0,0 0,0.01l0.14 0.19c0,0.01 0.01,0.02 0.01,0.02 0.02,0.03 0.05,0.05 0.05,0.09 -0.05,0.02 -0.86,0.01 -0.98,0.01l0 0.46c0,0.01 -0.02,0.06 -0.02,0.09 0.01,0.07 0.07,0.04 0.27,0.04l1.12 -0.01c0.05,-0.01 0.08,-0.02 0.12,-0.05 0.05,-0.03 0.09,-0.06 0.12,-0.11 0,-0 0,-0 0,-0.01l0.04 -0.06c0.01,-0.02 0.02,-0.03 0.03,-0.06 0.05,-0.11 0.05,-0.25 -0.01,-0.36 -0.01,-0.02 -0.02,-0.03 -0.03,-0.05l-0.01 -0.02c-0,-0 -0,-0 -0,-0.01 -0.01,-0.01 -0.01,-0.01 -0.02,-0.02l-0.21 -0.3c-0.01,-0.02 -0.02,-0.03 -0.03,-0.05 -0.01,-0.01 -0.01,-0.01 -0.02,-0.03 -0,-0 -0.01,-0.01 -0.01,-0.01l-0.07 -0.1c-0,-0 -0.01,-0.01 -0.01,-0.01l-0.06 -0.09c-0,-0 -0,-0 -0,-0.01 -0.02,-0.02 -0.02,-0.02 -0.04,-0.05l-0.03 -0.04c-0,-0 -0,-0 -0,-0.01l-0.14 -0.2c-0,-0 -0,-0 -0,-0.01l-0.01 -0.01c-0,-0 -0,-0 -0,-0.01 -0.02,-0.02 -0,-0 -0.02,-0.02l-0.18 -0.26c-0,-0 -0,-0 -0,-0.01l-0.07 -0.1c-0,-0 -0,-0 -0,-0.01 -0,-0 -0,-0 -0,-0.01l-0.05 -0.07c-0.02,-0.03 -0.01,-0.02 -0.04,-0.05 -0.02,-0.02 -0.03,-0.03 -0.05,-0.05 -0.15,-0.14 -0.43,-0.12 -0.59,-0.03l-0.01 0.01c-0.06,0.04 -0.06,0.05 -0.1,0.11 -0.01,0.01 0,0 -0.01,0.02l-0.06 0.07c-0,0 -0,0 -0,0.01l-0.07 0.09c-0.01,0.01 -0.01,0.02 -0.02,0.03l-0.1 0.13c-0,0 -0,0 -0,0.01 -0,0 -0,0 -0,0.01l-0.05 0.07c-0,0 -0,0 -0,0.01 -0,0 -0,0 -0,0.01 -0,0 -0,0 -0,0.01l-0.72 0.94c-0,0 -0,0 -0,0.01l-0.03 0.04c-0.05,0.08 -0.13,0.14 -0.23,0.18l-0.02 0.01c-0.18,0.07 -0.38,0.07 -0.54,-0.01 -0.02,-0.01 -0.04,-0.02 -0.05,-0.03l-0.15 -0.13c-0,-0 -0,-0 -0,-0.01l-0.04 -0.05c-0.1,-0.14 -0.15,-0.33 -0.11,-0.51 0.02,-0.06 0.05,-0.14 0.08,-0.2l0.05 -0.07c0.05,-0.07 0.11,-0.12 0.19,-0.17 0.01,-0 0.01,-0.01 0.02,-0.01 0.06,-0.04 0.14,-0.07 0.21,-0.08l0.25 0.02 0.33 0.16c0.01,0.01 0.02,0.02 0.03,0.03 0.04,0.04 0.08,0.09 0.13,0.12l0.23 -0.33c0,-0 0,-0 0,-0.01 0.04,-0.05 0.08,-0.1 0.1,-0.16l-0.17 -0.17c-0.09,-0.07 -0.19,-0.12 -0.3,-0.16 -0,-0 -0.01,-0 -0.02,-0.01 -0.1,-0.04 -0.22,-0.07 -0.33,-0.08 -0.12,-0.01 -0.25,-0.02 -0.37,-0l-0.13 0.03c-0,0 -0.02,0.01 -0.03,0.01l-0.16 0.06c-0,0 -0.01,0 -0.01,0.01l-0.28 0.18c-0.01,0.01 -0.01,0.01 -0.02,0.02l-0.02 0.02c-0,0 -0,0 -0.01,0 -0.05,0.04 -0.08,0.08 -0.12,0.13 -0.01,0.01 -0,0 -0.02,0.02 -0,0 -0,0 -0,0.01l-0.12 0.19c-0,0 -0,0 -0,0.01 -0,0 -0.01,0.01 -0.01,0.01 -0.01,0.02 -0.02,0.03 -0.03,0.06l-0.02 0.06c-0,0 -0,0.01 -0.01,0.01 -0.01,0.02 -0,0.01 -0.01,0.03l-0.05 0.18c-0.02,0.11 -0.03,0.25 -0.01,0.36l0.04 0.19c0,0.02 0.01,0.05 0.02,0.06l0.13 0.27c0,0 0,0 0,0.01 0,0 0,0 0,0.01l0.15 0.2c0.03,0.03 0.04,0.05 0.07,0.07l0.06 0.05c0.11,0.09 0.24,0.15 0.37,0.2l0.02 0.01c0,0 0.01,0 0.02,0 0.01,0 0.01,0 0.03,0.01 0.09,0.03 0.17,0.04 0.27,0.04z"/>
   <path class="fil0" d="M-0 1.88c0,0.14 0.02,0.23 0.1,0.34 0,0 0,0 0,0.01l0.01 0.01c0.01,0.01 0.01,0.01 0.02,0.03 0.02,0.02 0.02,0.01 0.03,0.02 0,0 0,0 0.01,0 0,0 0,0 0.01,0 0.01,0.01 0,0 0.02,0.01l0.04 0.02c0.13,0.06 0.47,0.04 0.63,0.04 0.13,0 0.39,0.02 0.49,-0 0.05,-0.01 -0.02,-0.01 0.04,-0.01l0.31 0c0,-0.05 0.01,-0.08 0.01,-0.13l-0 -0.46c-0.12,0 -0.59,-0.02 -0.7,0 -0.05,0.01 0.02,0.01 -0.04,0.01 -0.08,0 -0.15,0.01 -0.22,-0.02l0.02 -0.04c0,-0 0,-0 0,-0.01l0.05 -0.07c0.01,-0.01 0.01,-0.01 0.01,-0.02l0.25 -0.33c0.01,-0.01 0.01,-0.01 0.01,-0.02 0.01,-0.01 0.01,-0.01 0.01,-0.02l0.32 -0.43c0.01,-0.01 0.01,-0.01 0.01,-0.02l0.07 -0.08 0.24 0.3c0,0 0,0 0,0.01l0.29 0.4c0,0 0.01,0.03 0.05,0.05l-0.02 -0.16c-0,-0.06 -0.01,-0.01 -0.01,-0.16 0,-0.05 0,0.02 0.01,-0.03l0.01 -0.11c0.02,-0.09 0.05,-0.18 0.08,-0.26 0,-0 0,-0.01 0,-0.01l0.02 -0.04c0.02,-0.03 0.02,-0.05 0,-0.09l-0.25 -0.36c-0,-0 -0,-0 -0,-0.01 -0,-0 -0,-0 -0,-0.01l-0.02 -0.03c-0.02,-0.03 0,-0 -0.02,-0.02l-0.19 -0.14c-0.02,-0.01 -0.04,-0.01 -0.06,-0.02 -0.12,-0.04 -0.26,-0.02 -0.37,0.04l-0.17 0.17c-0,0 -0,0 -0,0.01 -0.01,0.01 -0.01,0.01 -0.01,0.02l-0.1 0.13c-0,0 -0,0 -0,0.01l-0.05 0.07c-0.01,0.01 -0.01,0.01 -0.02,0.02l-0.32 0.42c-0,0 -0,0 -0,0.01l-0.1 0.13c-0,0 -0,0 -0,0.01l-0.01 0.01c-0.01,0.01 -0.01,0.01 -0.02,0.02 -0,0 -0,0 -0,0.01l-0.01 0.02c-0.01,0.02 -0.01,0.01 -0.02,0.02l-0.12 0.17c-0,0 -0,0 -0,0.01 -0,0 -0,0 -0,0.01l-0.04 0.06c-0.01,0.02 -0.01,0.01 -0.02,0.03l-0.11 0.14c-0,0 -0,0 -0,0.01 -0.04,0.05 -0.06,0.09 -0.09,0.15 -0.02,0.07 -0.02,0.07 -0.02,0.15z"/>
   <path class="fil0" d="M1.62 2.99c0,-0 0,-0.01 0,-0.01l0 -0.02c0,-0 0,-0.01 0,-0.02l0.01 -0.06c0,-0 0,-0.01 0,-0.01 0,-0 0,-0.01 0,-0.01l0.02 -0.08c0.01,-0.04 -0.01,-0.01 0.01,-0.02 0,0.06 -0.01,0.11 -0.01,0.17 -0,0.01 0,0.04 0,0.04l0.01 0.05c0,0 0,0.01 0,0.01 0,0 0,0.01 0,0.01l0.01 0.04c0,-0 0,0.01 0,0.01l0.09 0c-0,-0.04 -0,-0.02 -0.01,-0.04l-0.01 -0.02c-0.01,-0.04 -0,-0.03 0,-0.06 0.01,-0.12 -0.02,-0 -0.01,-0.11 0,-0.05 0.01,-0.02 -0.01,-0.06 -0.01,-0.05 0.01,-0.07 -0.01,-0.12l-0.03 -0.05 -0.09 -0 -0.04 0.24c-0.03,-0.02 -0.02,-0 -0.02,-0.04 -0,-0 0,-0.01 0,-0.01l-0.01 -0.18 -0.15 -0c0,0.04 0.01,0.07 0,0.1l-0.02 0.2c-0,0 -0,0.01 -0,0.01 -0,0 -0,0.01 -0,0.01l-0 0.07c-0,0.03 -0,0.01 -0,0.03 -0,0 -0,0.01 -0,0.01l-0.01 0.05 0.11 0c-0.02,-0.07 -0.02,-0.05 0,-0.1 0.03,-0.08 -0.02,-0.07 0.01,-0.16l0.01 -0.05c-0.01,0.03 -0.01,0.05 -0,0.08l0.02 0.13c0,0.02 -0.01,0.06 0.02,0.08 0,0 0.05,0.02 0.06,0 0,-0 0.01,-0 0.01,-0l0.01 -0.08z"/>
   <path class="fil0" d="M3.98 2.84c0.01,0 0.04,0.02 0.05,-0.04l-0.02 -0.13c-0,-0 -0,-0 -0,-0.01l-0.03 -0.03c-0,-0 -0.01,-0 -0.01,-0l-0.02 -0c-0.08,-0.02 -0.1,-0.01 -0.18,-0.01 0,0.06 -0.01,0.38 0,0.44 0,0 0,0.01 0,0.01 0,-0 -0.01,0.01 0.02,0.02 0.06,0.01 0.09,0.01 0.14,-0.01 0,-0 0.01,-0 0.02,-0.01l0.04 -0.02c0,-0 0.01,-0.01 0.01,-0.02l0.03 -0.12c-0.02,-0.07 -0.03,-0.05 -0.07,-0.07z"/>
   <path class="fil0" d="M5.45 2.82l0.04 0.14c0,0 0,0.01 0.01,0.02l0.02 0.04c0,0 0,0.01 0,0.01l0.01 0.03c0.02,0.04 0,0.01 0.02,0.03l0.07 -0.01c0,-0.01 0.01,0.01 0.02,-0.03l0 -0.24c0,-0.19 0.02,-0.17 -0.04,-0.18 -0,-0 -0.07,-0 -0.08,-0 0,0.05 -0,0.1 -0,0.16 -0,0.08 0.01,0.07 0.02,0.11 0,0.01 0,0.01 -0,0.02l-0 -0.02c-0,-0 -0,-0 -0,-0.01 -0,-0 -0,-0.01 -0,-0.01l-0.02 -0.06c-0,-0 -0,-0.01 -0.01,-0.02l-0.04 -0.1c-0,-0 -0,-0 -0,-0.01l-0.02 -0.07 -0.11 0c0.03,0.09 0.01,0.31 0.01,0.41 0,0.01 0,0.02 0,0.03 0,0 0,0.01 0,0.01 0,-0 0,0.01 0,0.01l0.08 0 0 -0.27z"/>
   <path class="fil0" d="M0.78 2.62l-0.11 0 0 0.31c0,0.04 0.01,0.05 -0.04,0.06 -0.01,0 -0.05,0.02 -0.05,-0.05 0,-0.03 0.01,-0.07 0.01,-0.1 -0,-0.07 -0,-0.15 -0,-0.22l-0.12 0c0,0.14 -0.02,0.31 0.02,0.4 0,0 0,0 0,0.01 0,0 0,0 0,0.01 0.02,0.04 0.02,0.03 0.05,0.04l0.07 0c0.01,0 0.03,0 0.03,0l0.02 -0c0.07,-0 0.09,-0.03 0.1,-0.1 0,-0 0,-0.01 0,-0.01 0,-0.02 0,-0.03 0,-0.04 0,-0.1 -0,-0.21 -0,-0.31z"/>
   <path class="fil0" d="M4.67 2.89c0.02,-0.02 0,-0 0.02,-0.02 0,-0 0.01,-0.01 0.01,-0.01l0.01 -0.01c0.03,-0.03 0.03,-0.09 0.02,-0.13l-0.02 -0.06c-0.05,-0.07 -0.15,-0.04 -0.23,-0.04l-0 0.47 0.11 0 0 -0.14c0,0 0,0 0,0.01l0.04 0.13c0,-0 0,0.01 0,0.01l0.11 0 -0.08 -0.19c-0,-0 -0,-0 -0,-0z"/>
   <path class="fil0" d="M3.74 2.62l-0.11 0 0.01 0.31c0,0.04 0.01,0.05 -0.04,0.06 -0.03,0 -0.03,0.01 -0.04,-0.02l-0 -0.03c-0,-0.03 0,-0.07 0,-0.1 -0,-0.07 -0,-0.15 -0,-0.22l-0.11 0c0.02,0.08 0.01,0.21 0,0.3 -0,0.04 -0.01,0.03 0,0.07l0.01 0.02c0,0 0,0.01 0,0.01 0.03,0.07 0.08,0.06 0.16,0.06 0,0 0.01,0 0.01,0 0.03,-0 0.06,-0 0.08,-0.03l0.03 -0.08c0.02,-0.07 0.01,-0.27 0.01,-0.35z"/>
   <path class="fil0" d="M6.1 3.08l0.08 0 0.01 -0.22c0,0 0,0.01 0,0.01l0.01 0.02c0,0 0,0.01 0,0.01l0 0.02c0,0 0,0.01 0,0.01 0,0 0,0.01 0.01,0.02l0.07 0.13 0.06 0c0,-0 0,-0.01 0,-0.01l0 -0.22c0,-0.04 -0,-0.08 -0,-0.11l-0 -0.09c-0,-0.03 0,-0.01 -0.01,-0.03l-0.08 -0 0 0.25c0.01,-0.01 0.01,-0 -0.01,-0.04l-0.03 -0.09c-0,-0 -0,-0.01 -0,-0.01 -0,-0 -0,-0.01 -0,-0.01l-0.05 -0.1 -0.09 0c0.03,0.11 -0.01,0.41 0.02,0.46z"/>
   <path class="fil0" d="M1.89 2.92l-0 -0.12c0,-0 0,-0.01 0,-0.01l0.03 -0.05c0.02,-0.02 0.03,-0.03 0.06,-0l0.02 0.21c-0,0 -0,0 -0,0.01 -0,0 -0,0 -0,0.01l-0.03 0.03c-0,0 -0.01,0.01 -0.01,0 -0,-0 -0,0 -0.01,0l-0.05 -0.07c-0,-0 -0,-0.01 -0,-0.01zm-0.01 0.15c0,0 0.01,0 0.01,0 0,0 0.01,0 0.01,0 0.11,0.01 0.15,-0.02 0.19,-0.09 0,-0 0,-0.01 0,-0.01l0.01 -0.03c0,-0.03 0,-0.16 -0.01,-0.21l-0.02 -0.04c-0,-0 -0,-0 -0,-0.01l-0.06 -0.06c-0,-0 -0.01,-0 -0.01,-0l-0.02 -0c-0,-0 -0.01,-0 -0.01,-0l-0.02 -0c-0,-0 -0.01,-0 -0.01,-0 -0,-0 -0.01,0 -0.01,0l-0.07 0.02c-0.04,0.03 -0.05,0.05 -0.06,0.08 -0.01,0.04 -0.03,0.15 -0.02,0.17l0.01 0.03c0,0 0,0.01 0,0.01 0,0 0,0.01 0,0.01 0.01,0.03 -0,0.03 0.02,0.07l0.07 0.06z"/>
   <path class="fil0" d="M6.56 2.99c-0,-0 -0.01,-0.01 -0.01,-0.01l-0.01 -0.01c-0.03,-0.04 -0.03,-0.04 -0.02,-0.08 0.01,-0.11 -0.01,-0.08 0,-0.13 0,-0.01 0.01,-0.03 0.03,-0.04l0.07 0.06c0,0 0,0.01 0,0.01l-0.01 0.16c-0,0 -0,0 -0,0.01l-0.05 0.05zm0.15 -0.08c0,-0.01 0.02,-0.01 0.02,-0.04 0,-0 -0,-0.05 -0,-0.05l-0.04 -0.12c-0,-0 -0,-0 -0,-0.01 -0,-0 -0,-0 -0,-0.01 -0.02,-0.04 -0.03,-0.05 -0.07,-0.06l-0.14 0.01c-0.03,0.02 -0.04,0.04 -0.06,0.08l-0.01 0.04c-0,0 -0,0.01 -0,0.01 -0.01,0.04 0.01,0.05 0,0.1 -0,0.06 -0.02,0.05 0.01,0.11 0,0 0,0 0,0.01 0,0 0,0 0,0.01 0.02,0.04 0.01,0.06 0.06,0.07l0.1 0.01c0,-0 0.01,-0 0.01,-0 0.06,-0.01 0.1,-0.05 0.11,-0.11 0.01,-0.03 -0,-0.04 -0,-0.05z"/>
   <path class="fil0" d="M4.77 2.85l-0.01 0.06c-0,0.04 0.01,0.07 0.03,0.1l0.02 0.04c0.04,0.05 -0.03,-0.03 0.01,0.01l0.04 0.02c0,0 0.01,0 0.01,0 0,0 0.01,0 0.01,0 0,0 0.05,0 0.05,0 0,-0 0.01,-0 0.01,-0 0.03,-0 0.04,-0.02 0.06,-0.03l0.03 -0.04c0,-0 0,-0 0,-0.01 0,-0 0,-0.01 0,-0.01 0,-0 0,-0.01 0,-0.01 0,-0 0,-0.01 0,-0.01l0 -0.16c-0,-0 -0,-0.01 -0,-0.01 -0.02,0 -0.05,-0 -0.07,-0l-0.05 0c-0.04,0.01 -0.04,0.04 -0.04,0.08l0.07 0.01c0,0 0,0.03 0,0.03 -0,0.03 -0,0.02 -0.02,0.04 -0.01,0.01 -0.01,0.01 -0.02,0.02l-0.04 -0.03c-0.03,-0.04 -0.02,-0.16 -0.01,-0.2 0.02,-0.04 -0.02,0.02 0.01,-0.02 0.02,-0.03 0.04,-0.03 0.06,0 0.04,0.05 0.02,0.01 0.02,0.05 0,-0 0.01,-0.01 0.01,-0l0.04 -0.02c0.03,-0.01 0,-0.01 0.05,-0.01l-0.03 -0.08c-0,-0 -0.01,-0.01 -0.01,-0.01 -0.01,-0.01 -0.01,-0.01 -0.02,-0.02l-0.12 -0.02c-0,0 -0.01,0 -0.01,0l-0.02 0.01c-0.04,0.01 -0.04,0.03 -0.06,0.06 -0.04,0.1 -0.02,0.04 -0.02,0.15z"/>
   <path class="fil0" d="M1.15 2.96c-0.02,-0.04 -0.01,-0.19 -0.01,-0.19 0,-0 0,-0 0,-0.01l0.01 -0.02c0,-0 0,-0 0,-0.01l0.02 -0.02c0.05,-0.02 0.01,-0 0.03,0.01l0.03 0.04c0.02,0.03 0.02,0.12 0.01,0.15l-0.05 0.08 -0.04 -0.04zm-0.12 -0.16c0.01,0.08 -0.01,0.1 0,0.14l0.01 0.03c0.01,0.03 0.05,0.09 0.09,0.1l0.07 0c0.05,-0 0.09,-0.02 0.12,-0.06l0.02 -0.05c0,-0 0,-0.01 0,-0.01l0.01 -0.03c0.02,-0.06 -0,-0.18 -0.04,-0.24 -0,-0 -0,-0 -0,-0.01l-0.23 -0.03 -0.05 0.15z"/>
   <path class="fil0" d="M0.17 3.08c0.01,0 0.04,0 0.05,0l0.05 -0.01c0.03,-0.07 -0.05,-0.04 0.02,-0.06 0.01,-0.04 -0.01,-0.02 0.06,-0.02 0,0 0,0 0,0.01l0.03 0.09 0.09 0c-0,-0.04 -0.01,-0.03 -0.01,-0.04l-0.02 -0.1c-0,-0 -0,-0.01 -0,-0.01 -0,-0.01 -0,-0.01 -0,-0.03l-0.02 -0.08c-0,-0 -0,-0.01 -0,-0.01l-0.06 -0.2c-0.01,0 -0.09,-0.01 -0.09,0.01l-0.03 0.13c-0,0 -0,0.01 -0,0.01l-0.04 0.15c-0,0 -0,0.01 -0,0.01l-0.03 0.16z"/>
   <path class="fil0" d="M4.3 3.01c0.01,-0.04 -0.01,-0.02 0.06,-0.02l0.03 0.1 0.09 0c-0,-0 -0,-0.01 -0,-0.01l-0.02 -0.08c-0,-0 -0,-0.01 -0,-0.01l-0.08 -0.36c-0,-0.02 -0.07,-0.01 -0.09,-0.01 -0,0 -0,0.01 -0,0.01l-0.1 0.38c-0,0 -0,0.01 -0,0.01 -0,0 -0,0.01 -0,0.01 -0,0 -0,0.01 -0,0.01l-0.01 0.05c0.04,0 0.07,0 0.1,-0.01 0.03,-0.07 -0.05,-0.04 0.02,-0.06z"/>
   <path class="fil0" d="M2.11 2.62c0,0 -0,0.01 -0,0.02 -0.01,0.04 0.01,0.05 0.02,0.08l0.01 0.04c0,0 0,0.01 0.01,0.02 0,0 0,0.01 0,0.01l0.02 0.08c0,0 0,0.01 0,0.01 0,0 0,0.01 0,0.01l0.04 0.13c0,0 0,0.01 0,0.01l0.02 0.06c0,-0 0,0.01 0.01,0.01l0.06 0c0,-0 0,-0.01 0.01,-0.01l0.11 -0.36c0.01,-0.03 0.02,-0.06 0.01,-0.09 -0.04,0 -0.06,-0 -0.09,0.01l-0.04 0.14c-0,0 -0,0.01 -0,0.01l-0.01 0.05c-0,0.03 -0,0.05 -0.01,0.06 -0.02,-0.01 -0,-0 -0.01,-0.03l-0.04 -0.16c-0,-0 -0,-0.01 -0,-0.01l-0.01 -0.05c-0,-0 -0,-0.01 -0,-0.01 -0.03,-0.01 -0.05,-0.01 -0.09,-0.01z"/>
   <path class="fil0" d="M5.2 2.71l0.1 -0 0.02 -0.09 -0.2 0c0.02,0.07 0.02,0.39 -0,0.46l0.21 0 -0 -0.11 -0.12 0 0 -0.07 0.1 0 0 -0.11 -0.11 0 0 -0.08z"/>
   <path class="fil0" d="M3.19 3.07l0.01 -0.04c0,-0.02 0,-0.05 0,-0.06 -0.03,0 -0.06,-0 -0.09,0.01 -0,-0.01 -0.01,-0.02 -0.02,-0.04l-0.01 -0.02c-0.02,-0.02 0,0.01 -0.01,-0.02l0 -0.13c0,-0 0,-0.01 0,-0.01l0.04 -0.05c0.02,-0.01 0.05,-0.01 0.07,-0.01l0.03 -0.01 0 -0.07 -0.09 -0.02c-0.05,0 -0.05,-0 -0.09,0.02l-0.04 0.03c-0.03,0.03 -0.03,0.05 -0.03,0.09 -0,0 -0,0.01 -0,0.01 -0,0 -0,0.01 -0,0.01l-0.01 0.05c-0.01,0.05 -0,0.02 0.01,0.08l0.01 0.05c0.01,0.02 0,0.01 0.01,0.02l0.1 0.09 0.11 0c0,-0 0.01,0 0.01,-0z"/>
   <polygon class="fil0" points="3.22,3.08 3.44,3.08 3.44,2.97 3.33,2.97 3.33,2.62 3.22,2.62 "/>
   <path class="fil0" d="M0.95 2.71c0.04,0 0.06,0.01 0.09,-0.01l0 -0.08 -0.25 -0 0 0.08c0.02,0.01 -0.01,0 0.04,0.01 0,0 0.02,-0 0.02,-0 0,0.06 -0.01,0.3 0,0.35 0,0.02 0.01,0.02 0.04,0.03 0,0 0.01,0 0.01,0 0.01,0 0.03,0 0.04,0 0,-0 0,-0.01 0,-0.01 0,-0 0,-0.01 0,-0.01l0 -0.36z"/>
   <path class="fil0" d="M5.82 2.71c0.01,0 0.04,0 0.04,0 0.03,-0 0.02,-0 0.04,-0.01l0 -0.08 -0.24 0 0.01 0.09 0.05 0 0 0.38 0.1 -0.02c0,-0 0,-0.01 0,-0.01 0,-0 0,-0.02 0,-0.02 0,-0.01 -0,-0.03 -0,-0.04l-0 -0.28z"/>
   <path class="fil0" d="M2.43 3.02c0,0.05 0.01,0.06 0.06,0.06 0.06,0 0.06,-0.02 0.06,-0.07l-0 -0.33c-0,-0.03 -0,-0.01 -0.01,-0.03l-0.12 -0.03 -0 0.41z"/>
   <path class="fil0" d="M2.6 2.62c0.02,0.07 0.02,0.39 -0,0.46l0.21 0c-0.01,-0.06 -0.01,-0.06 0,-0.11l-0.12 0c0,-0.1 -0.01,-0.26 0.01,-0.35l-0.1 0z"/>
   <path class="fil0" d="M5.92 3.08l0.09 0c0.02,-0.05 -0.01,-0.36 0.02,-0.46l-0.11 -0 -0 0.47z"/>
  </g>
 </g>
</svg>
