<?xml version="1.0" encoding="UTF-8"?>
<!DOCTYPE svg PUBLIC "-//W3C//DTD SVG 1.1//EN" "http://www.w3.org/Graphics/SVG/1.1/DTD/svg11.dtd">
<!-- Creator: CorelDRAW 2021.5 -->
<svg xmlns="http://www.w3.org/2000/svg" xml:space="preserve" width="0.918043in" height="0.320795in" version="1.1" style="shape-rendering:geometricPrecision; text-rendering:geometricPrecision; image-rendering:optimizeQuality; fill-rule:evenodd; clip-rule:evenodd"
viewBox="0 0 54.83 19.16"
 xmlns:xlink="http://www.w3.org/1999/xlink"
 xmlns:xodm="http://www.corel.com/coreldraw/odm/2003">
 <defs>
  <style type="text/css">
   <![CDATA[
    .fil0 {fill:#FEFEFE}
    .fil2 {fill:#727376}
    .fil1 {fill:#FDFEFE}
   ]]>
  </style>
 </defs>
 <g id="Capa_x0020_1">
  <metadata id="CorelCorpID_0Corel-Layer"/>
  <g id="_3055979639904">
   <path class="fil0" d="M54.1 10.64c-0.2,1.79 -0.87,3.39 -1.91,4.71 -0.48,0.61 -1.08,1.2 -1.7,1.63 -2.24,1.54 -3.68,1.47 -6.39,1.47l-31.1 0c-1.46,0 -3.01,0.05 -4.46,-0.01 -4.75,-0.19 -8.38,-4.75 -7.8,-9.97 0.38,-3.41 2.64,-6.44 5.89,-7.43 1.36,-0.42 2.64,-0.33 4.12,-0.33 10.37,0 20.73,0 31.1,0 1.46,0 3.01,-0.05 4.46,0.01 4.71,0.19 8.39,4.75 7.8,9.93zm-45.78 -10.59c-4.88,0.37 -8.65,4.81 -8.29,10.2 0.25,3.73 2.49,6.91 5.59,8.21 1.37,0.58 2.39,0.66 4,0.66l32.33 0c1.47,0 3.21,0.08 4.65,-0.02 7.22,-0.53 10.58,-9.58 6.42,-15.32 -0.32,-0.44 -0.7,-0.92 -1.05,-1.26 -0.2,-0.2 -0.37,-0.32 -0.6,-0.52 -0.54,-0.48 -1.47,-1.03 -2.16,-1.32 -1.35,-0.57 -2.4,-0.65 -3.98,-0.65l-32.33 0c-1.44,0 -3.18,-0.09 -4.58,0.02z"/>
   <path class="fil1" d="M16.35 12.5l36.17 0 0.01 -0.76 -36.74 0c-0.38,0.76 -0.37,1.05 -1.01,1.86 -3.74,4.74 -11.26,2.52 -11.79,-3.44 -0.31,-3.52 2.06,-6.14 4.69,-6.9 2.09,-0.61 4.12,-0.2 5.76,0.97 0.21,0.15 0.66,0.59 0.85,0.62 0.43,0.06 0.61,-0.46 0.27,-0.76 -4.14,-3.63 -10.26,-1.87 -12.01,2.97 -1.68,4.64 1.64,9.8 6.67,9.96 3.09,0.1 6.07,-1.77 7.13,-4.52z"/>
   <path class="fil1" d="M41.23 6.8c0.62,0.39 0.61,-0.39 0.61,2.08 0,0.45 0.02,0.93 -0,1.37 -0.03,0.66 -0.33,0.61 -0.63,0.73l-0 0.29c0.23,0.1 1.51,0.09 1.77,0.03 0.07,-0.54 -0.32,-0.27 -0.54,-0.56 -0.15,-0.2 -0.11,-0.7 -0.11,-0.97 0,-0.72 -0.01,-1.45 0,-2.18l0.13 0.15c0.23,0.34 1.36,2.31 1.5,2.33 0.23,-0.05 0.27,-0.21 0.39,-0.41l0.92 -1.5c0.03,0.58 0.01,1.21 0.01,1.8 0,0.94 -0.15,0.74 -0.77,1.03l-0.02 0.3c0.24,0.07 2.01,0.06 2.29,0.01 0.15,-0.68 -0.45,-0.07 -0.6,-0.81 -0.07,-0.33 -0.03,-2.38 -0.03,-2.89 -0.01,-0.76 0.04,-0.63 0.68,-0.77 0.08,-0.41 -0.2,-0.35 -0.55,-0.34 -1.23,0.01 -0.87,-0.22 -1.55,0.94 -0.15,0.25 -0.44,0.8 -0.59,0.96 -0.19,-0.05 -0.16,-0.08 -0.37,-0.43l-0.93 -1.46c-0.31,-0.02 -0.65,-0.01 -0.97,-0.01 -0.34,-0 -0.69,-0.1 -0.61,0.31z"/>
   <path class="fil1" d="M6.67 5.95c0.24,1.72 -0.69,4.39 -1.69,5.69 -0.15,0.19 -0.46,0.46 -0.33,0.84 0.1,0.3 0.49,0.46 0.83,0.3 0.3,-0.14 0.79,-1.04 1,-1.45 0.58,-1.14 1.02,-2.44 1.21,-3.73 0.13,-0.91 0.04,-1.47 0.05,-2.34 0.18,-0.16 0.61,-0.4 0.84,-0.55 0.32,-0.2 0.39,-0.74 0.06,-0.97 -0.47,-0.33 -1.29,0.37 -1.88,0.76 -0.32,0.21 -1.52,0.87 -1.62,1.18 -0.13,0.42 0.2,0.79 0.61,0.76 0.23,-0.02 0.72,-0.37 0.93,-0.48z"/>
   <path class="fil1" d="M12.67 4.56c-1.87,0.37 -2.81,2.5 -1.1,4.32 0.18,0.19 0.32,0.34 0.46,0.57 0.52,0.83 0.26,2.35 -1.24,2.4 -0.81,0.03 -1.21,-0.53 -1.68,-0.34 -0.38,0.15 -0.66,0.85 0.23,1.18 1.19,0.44 2.42,0.18 3.17,-0.47 0.68,-0.59 1.02,-2.04 0.47,-3.12 -0.37,-0.74 -1.71,-1.56 -1.23,-2.68 0.24,-0.56 0.57,-0.64 1.17,-0.88 0.61,-0.25 0.38,-1.09 -0.25,-0.97z"/>
   <path class="fil1" d="M19.36 9.03c-0.04,-0.32 -0.07,-1.73 0.02,-1.99 0.61,-0.08 1.18,0.45 1.16,1.05 -0.02,0.56 -0.6,1.08 -1.18,0.93zm-1.04 -1.42c-0,0.59 0.1,2.82 -0.13,3.13 -0.13,0.16 -0.35,0.16 -0.53,0.25 -0.04,0.27 0.03,0.34 0.29,0.34l1.76 0c0.18,0 0.28,-0.01 0.24,-0.23 -0.08,-0.42 -0.64,0.19 -0.64,-1.09 0,-0.36 0.16,-0.34 0.5,-0.33 0.7,0.02 0.53,0.19 0.55,1.22 0.01,0.49 0.19,0.46 1.01,0.43l0.4 -0.03c0.16,-0.72 -0.41,-0.12 -0.45,-0.9 -0.03,-0.69 0.06,-0.7 -0.26,-1.02l-0.08 -0.09c-0.01,-0.01 -0.02,-0.02 -0.03,-0.04 0.27,-0.11 0.43,-0.31 0.54,-0.68 0.31,-1.05 -0.17,-2.08 -1.45,-2.08l-2.05 0c-0.5,0 -0.57,0.38 -0.12,0.45 0.45,0.07 0.44,0.17 0.44,0.67z"/>
   <path class="fil1" d="M26.5 6.94c0.57,0.12 0.63,0.1 0.63,0.81l0 2.25c0,0.26 -0.02,0.43 -0.16,0.61 -0.19,0.26 -0.27,0.14 -0.49,0.29 -0.06,0.31 -0.02,0.42 0.27,0.42 0.99,0 1.54,0.14 1.48,-0.28 -0.06,-0.47 -0.65,0.13 -0.65,-1.03 0,-0.34 -0.07,-1.8 0.05,-2.01 0.19,0.07 0.41,0.6 0.52,0.8l1.17 2.21c0.2,0.38 0.22,0.35 1.3,0.31l0.26 -0.02c0.13,-0.72 -0.38,-0.32 -0.59,-0.77 -0.09,-0.19 -0.08,-2.42 -0.07,-2.78 0.01,-0.66 0.2,-0.65 0.64,-0.83l-0.01 -0.41c-0.28,-0.04 -0.62,-0.02 -0.92,-0.02 -0.19,0 -0.74,-0.1 -0.82,0.11 -0.25,0.6 0.66,0.05 0.66,1.21 0,0.3 0.05,1.64 -0.05,1.84 -0.19,-0.09 -0.74,-1.25 -0.94,-1.61l-0.65 -1.26c-0.19,-0.38 -0.16,-0.28 -1.28,-0.28 -0.39,0 -0.42,0.09 -0.36,0.45z"/>
   <path class="fil1" d="M48.93 9.8c0.05,-0.25 0.25,-0.64 0.35,-0.88 0.11,-0.25 0.22,-0.67 0.41,-0.83l0.58 1.71 -1.34 0zm-1.51 1.52c0.57,0 1.05,0.03 1.6,-0.04 0.05,-0.37 -0.16,-0.27 -0.36,-0.46 -0.15,-0.15 -0.17,-0.51 0.08,-0.51l1.7 0.01c0.49,0.84 -0.47,0.32 -0.31,0.95 0.2,0.1 2.09,0.11 2.38,-0.02 -0.04,-0.46 -0.42,0.01 -0.88,-1.05 -0.28,-0.65 -0.75,-2.11 -1.01,-2.86 -0.14,-0.42 -0.36,-1.35 -0.88,-0.82 -0.41,0.42 -1.7,4.08 -2.32,4.44 -0.1,0.06 -0.25,0.06 -0.28,0.21 -0.04,0.18 0.15,0.17 0.27,0.17z"/>
   <path class="fil1" d="M22.41 6.59c-0.1,0.62 0.43,0.17 0.46,0.92l0 2.84c-0.02,0.76 -0.65,0.28 -0.42,0.93 0.36,0.1 2.4,0.04 2.95,0.04 0.08,-0.19 0.82,-1.74 0.17,-1.43 -0.19,0.09 -0.38,0.52 -0.52,0.66 -0.24,0.24 -0.86,0.27 -1.19,0.16 -0.04,-0.31 -0.05,-1.55 0.02,-1.82 0.67,-0.22 0.41,0.51 0.82,0.39 0.16,-0.1 0.12,-1.18 -0,-1.34 -0.49,0 -0.12,0.63 -0.78,0.43 -0.07,-0.06 -0.2,-1.11 0.04,-1.27 0.29,-0.16 0.92,-0.03 1.15,0.14 0.29,0.21 0.21,0.75 0.66,0.69 0.18,-0.27 -0.05,-1.09 -0.14,-1.45 -0.57,0 -2.93,-0.12 -3.22,0.1z"/>
   <path class="fil1" d="M16.62 11.32c0.16,-0.08 0.62,-1.29 0.5,-1.42 -0.28,-0.3 -0.66,0.52 -0.79,0.64 -0.26,0.24 -0.85,0.3 -1.18,0.15 -0.04,-0.3 -0.06,-1.54 0.02,-1.8 0.64,-0.26 0.35,0.48 0.88,0.39 0.06,-0.27 0.08,-1.07 -0.02,-1.33 -0.54,-0.09 -0.19,0.78 -0.86,0.38l-0.04 -0.97c0.09,-0.64 1.17,-0.19 1.27,-0.12 0.3,0.22 0.3,0.89 0.66,0.66 0.2,-0.15 -0.07,-1.17 -0.14,-1.41l-2.99 0c-0.22,0.03 -0.33,0.21 -0.18,0.4 0.37,0.48 0.41,-0.44 0.41,1.84 0,0.54 0.11,1.82 -0.16,2.04 -0.13,0.11 -0.42,0.15 -0.3,0.43 0.1,0.22 2.56,0.12 2.91,0.12z"/>
   <path class="fil1" d="M6.73 13.85c0.61,0.2 1.34,1.22 4.35,0.7 0.34,-0.06 0.7,-0.15 1.02,-0.25 0.35,-0.12 0.71,-0.21 0.73,-0.61 0.04,-0.97 -1.03,-1.22 -1.21,-0.31 -3.97,0.83 -4.41,-1.01 -5.09,-0.69 -0.24,0.11 -0.62,0.36 -0.76,0.52 -0.24,0.27 -0.15,0.69 0.09,0.86 0.44,0.29 0.77,-0.15 0.87,-0.21z"/>
   <path class="fil1" d="M34.98 11.32c0.25,-0.03 0.17,-0.04 0.33,-0.25 0,-0.01 0.01,-0.02 0.02,-0.03 0.37,0.18 0.96,0.18 1.39,0.11 0.46,-0.07 0.81,-0.25 1.02,-0.55 0.22,-0.31 0.31,-0.83 0.16,-1.26 -0.25,-0.67 -1.26,-1.02 -1.9,-1.28 -0.22,-0.09 -0.38,-0.15 -0.48,-0.31 -0.13,-0.2 -0.09,-0.54 0.05,-0.69 0.27,-0.3 0.93,-0.18 1.21,0.07 0.38,0.35 0.57,0.74 0.9,0.71 0.05,-0.24 -0.26,-1.32 -0.37,-1.39 -0.21,-0.12 -0.29,0.13 -0.37,0.2 -0.28,-0.04 -0.78,-0.42 -1.46,-0.17 -1.06,0.38 -1.21,1.72 -0.36,2.32 0.39,0.28 0.84,0.38 1.32,0.59 0.36,0.16 0.94,0.62 0.51,1.11 -0.3,0.34 -1.13,0.33 -1.51,0.09 -0.23,-0.15 -0.33,-0.28 -0.48,-0.45 -0.96,-1.09 -0.34,0.85 0.02,1.19z"/>
   <path class="fil1" d="M9.05 8.11l0.54 1.67 -1.23 -0.02 0.7 -1.64zm-0.59 3.05c-0.01,-0.34 -0.09,-0.23 -0.29,-0.39 -0.24,-0.19 -0.16,-0.49 -0,-0.54l1.55 -0.02c0.07,0.14 0.15,0.23 0.14,0.44 -0.17,0.18 -0.6,0.22 -0.37,0.47 0.1,0.1 0.09,0.08 0.47,0.07 0.45,-0.01 1.39,0.05 1.67,-0.08 -0.08,-0.35 -0.23,-0.1 -0.53,-0.48 -0.3,-0.37 -0.68,-1.66 -0.84,-2.15 -0.44,-1.36 -0.71,-2.91 -1.33,-1.33 -0.37,0.94 -0.72,1.92 -1.18,2.78 -0.73,1.37 -0.8,0.73 -0.97,1.04 -0.16,0.28 0.52,0.21 0.7,0.21 0.32,-0 0.71,0.03 1,-0.03z"/>
   <path class="fil1" d="M32.15 7.51c0,0.92 0.04,2.35 -0.04,3.21l-0.37 0.15c-0.03,0.23 -0.02,0.23 0.05,0.42 0.53,0.08 1.25,0.06 1.79,0.01 0.29,-0.79 -0.4,-0.14 -0.4,-0.99l0 -2.79c0,-0.53 0.13,-0.37 0.37,-0.6 0.21,-0.2 0.11,-0.49 -0.29,-0.49 -0.42,0 -1.98,-0.16 -1.49,0.47 0.19,0.25 0.37,0.01 0.37,0.62z"/>
   <path class="fil1" d="M39.09 7.41l0 2.89c0,0.48 -0.09,0.42 -0.44,0.56l0.02 0.43c0.56,0.06 0.98,0.03 1.56,0.03 0.33,0 0.38,-0.1 0.33,-0.42 -0.31,-0.22 -0.44,-0.02 -0.44,-0.6l0 -2.89c0,-0.59 0.11,-0.34 0.37,-0.53 0.19,-0.13 0.14,-0.46 -0.26,-0.46l-1.27 0c-0.36,0 -0.41,0.32 -0.25,0.45 0.24,0.2 0.38,-0.05 0.38,0.54z"/>
   <path class="fil2" d="M19.36 9.03c0.58,0.14 1.15,-0.38 1.18,-0.93 0.03,-0.6 -0.54,-1.13 -1.16,-1.05 -0.09,0.26 -0.07,1.67 -0.02,1.99z"/>
   <path class="fil2" d="M48.93 9.8l1.34 0 -0.58 -1.71c-0.19,0.16 -0.31,0.58 -0.41,0.83 -0.1,0.24 -0.3,0.63 -0.35,0.88z"/>
   <polygon class="fil2" points="8.35,9.75 9.59,9.77 9.05,8.11 "/>
  </g>
 </g>
</svg>
