<?xml version="1.0" encoding="UTF-8"?>
<!DOCTYPE svg PUBLIC "-//W3C//DTD SVG 1.1//EN" "http://www.w3.org/Graphics/SVG/1.1/DTD/svg11.dtd">
<!-- Creator: CorelDRAW 2021.5 -->
<svg xmlns="http://www.w3.org/2000/svg" xml:space="preserve" width="0.90389in" height="0.370465in" version="1.1" style="shape-rendering:geometricPrecision; text-rendering:geometricPrecision; image-rendering:optimizeQuality; fill-rule:evenodd; clip-rule:evenodd"
viewBox="0 0 10.51 4.31"
 xmlns:xlink="http://www.w3.org/1999/xlink"
 xmlns:xodm="http://www.corel.com/coreldraw/odm/2003">
 <defs>
  <style type="text/css">
   <![CDATA[
    .fil0 {fill:#FEFEFE}
   ]]>
  </style>
 </defs>
 <g id="Capa_x0020_1">
  <metadata id="CorelCorpID_0Corel-Layer"/>
  <g id="_3020736270176">
   <path class="fil0" d="M1.02 3.88c0.2,-0.02 0.78,0.1 1.09,0.12l0.08 0.02c-0.26,0.17 -0.99,0.06 -1.16,-0.14zm-0.35 -0.31c0.69,-0.06 0.99,0.09 1.52,0.11 0.2,0.01 0.36,-0.02 0.55,-0.03 -0.03,0.07 -0.11,0.12 -0.17,0.16 -0.15,0.11 -0.67,0.02 -0.85,-0.01 -0.18,-0.02 -0.37,-0.06 -0.56,-0.07 -0.11,-0.01 -0.21,0 -0.32,0 -0.07,-0 -0.07,-0.02 -0.11,-0.06 -0.08,-0.08 -0.03,-0.02 -0.08,-0.1zm-0.2 -0.27c0.13,-0.05 0.5,-0.07 0.65,-0.06 0.61,0.03 1.2,0.25 1.92,0.03 -0,0.02 -0.07,0.18 -0.16,0.2 -0.09,0.02 -0.22,0.04 -0.32,0.05 -0.55,0.05 -0.81,-0.06 -1.34,-0.1 -0.42,-0.03 -0.37,0.01 -0.67,0.02 -0.03,-0.03 -0.08,-0.1 -0.08,-0.13zm0.33 -0.31c-0,-0.15 -0.01,-0.18 0.06,-0.3l0.07 0.29 -0.13 0.01zm-0.06 -0.56l-0.01 0.54c-0.05,0.01 -0.07,-0.02 -0.11,-0.03l0.12 -0.51zm2.19 -0.02c-0,0.03 0.06,0.27 0.07,0.33 0.02,0.09 0.08,0.2 -0.07,0.27l-0 -0.6zm-0.4 0.57c-0.08,-0.05 -0.06,-0.12 -0.06,-0.22 -0,-0.09 -0.01,-0.18 -0,-0.27 0.03,0.07 0.06,0.16 0.08,0.25 0.05,0.16 0.02,0.11 -0.02,0.24zm-1.32 -0.23c0.03,-0.07 0.1,-0.25 0.14,-0.29l-0.01 0.29 -0.14 0zm-0.12 0.1c-0.06,-0.12 -0.1,-0.25 -0.07,-0.41 0.02,0.07 0.05,0.14 0.08,0.21 0.04,0.1 0.07,0.13 -0.01,0.2zm1.63 0.24c0.02,-0.1 0.15,-0.63 0.15,-0.67l-0.01 0.65 -0.14 0.02zm-0.34 -0.62l-0.12 0.44 -0.26 -0 0.39 -0.43zm0.56 -0.16c0.04,0.12 0.24,0.51 0.25,0.59l-0.11 0c-0.03,-0.08 -0.14,-0.53 -0.14,-0.6zm-1.67 -2.03c0.06,0.06 0.1,0.08 0.18,0.14 0.07,0.05 0.09,0.1 0.15,0.15l0.05 -0.03c-0.01,-0.05 -0.07,-0.14 -0.1,-0.17 -0.04,-0.05 -0.09,-0.07 -0.11,-0.14 0.05,-0.01 0.09,-0.02 0.14,-0.03 0.12,-0.02 0.11,-0.01 0.13,0.33l0.08 -0.01 0.03 -0.32c0.07,-0 0.19,0 0.23,0.04 -0.04,0.11 -0.17,0.16 -0.2,0.32 0.08,0.04 0.07,0 0.13,-0.06 0.05,-0.06 0.11,-0.09 0.18,-0.14 0.04,-0.03 0.05,-0.05 0.08,-0.07 0.04,0.01 0.07,0.03 0.11,0.04l0.08 0.05c0,-0 0,0 0.01,0.01 -0.09,0.1 -0.35,0.17 -0.48,0.23l0.03 0.06c0.05,-0.01 0.1,-0.04 0.15,-0.05 0.11,-0.03 0.23,-0.04 0.34,-0.07 0.06,-0.02 0.08,-0.04 0.13,-0.06 0.04,0.02 0.15,0.11 0.17,0.15 -0.09,0.07 -0.25,0.04 -0.37,0.04 -0.16,-0.01 -0.25,0.01 -0.39,0.04 0.01,0.04 0.01,0.05 0.02,0.07 0.15,-0.03 0.3,-0.01 0.45,0.02 0.2,0.04 0.25,0.02 0.43,0 0.09,0.14 0.16,0.24 0.24,0.42 0.15,0.34 0.21,0.73 0.18,1.11 -0.01,0.1 -0.04,0.44 -0.11,0.53 -0.04,-0.05 -0.29,-0.64 -0.3,-0.71 0.04,-0.02 0.11,-0.03 0.14,-0.08 -0.03,-0.05 -0.1,-0.08 -0.15,-0.12l-0 -0.23 0.18 -0.01c-0.05,-0.07 -0.16,-0.04 -0.2,-0.1 -0.01,0.09 0,0.24 -0.01,0.31 -0.01,0.08 -0.13,0.07 -0.15,0.16l0.13 0.06c-0.01,0.06 -0.23,0.6 -0.26,0.63 -0.03,-0.03 -0.12,-0.33 -0.13,-0.39l0.16 -0.08c-0.02,-0.06 -0.12,-0.1 -0.17,-0.14l-0 -0.16c0.05,-0.02 0.11,-0.04 0.15,-0.08 -0.02,-0.05 -0.11,-0.08 -0.15,-0.13l0 -0.3 0.18 -0.01c-0.02,-0.02 -0.06,-0.04 -0.1,-0.05 -0.08,-0.02 -0.07,0.02 -0.11,-0.05l-0.01 0.42c-0.04,0.05 -0.12,0.08 -0.15,0.13 0.03,0.03 0.1,0.06 0.15,0.08l-0 0.16c-0.05,0.02 -0.16,0.09 -0.17,0.14l0.15 0.09c-0.05,0.09 -0.18,0.2 -0.25,0.28 -0.05,0.06 -0.16,0.21 -0.23,0.22 -0.02,0.01 -0.04,0.01 -0.05,0.01 -0,0.08 0.01,0.05 0.05,0.09 0.03,0.03 0.03,0.05 0.06,0.08 0.04,0.05 0.11,0.07 0.15,0.12 -0.09,0 -0.77,-0.09 -0.81,-0.12 0.24,-0.1 0.17,-0.1 0.28,-0.23 0.04,-0.04 0.06,-0.02 0.07,-0.1l-0.1 -0.02 0.01 -0.19c0.06,-0.01 0.13,-0 0.18,-0.02 -0.02,-0.02 -0.06,-0.04 -0.1,-0.05l-0.11 -0.03 -0.01 0.29 -0.12 -0.01c-0.01,-0.29 -0.05,-0.35 0.09,-0.62 0.1,0.02 0.08,0.06 0.17,0.06 -0.04,-0.07 -0.11,-0.11 -0.14,-0.18 -0.02,0.04 -0.1,0.23 -0.13,0.25l-0.01 -0.22c-0.05,0.09 0.01,0.26 -0.06,0.39 -0.04,0.07 -0.11,0.26 -0.16,0.3 -0.05,-0.06 -0.1,-0.23 -0.14,-0.32 -0.06,-0.14 -0.02,-0.24 -0.05,-0.4 -0.03,0.06 -0.02,0.16 -0.02,0.24 -0,0.12 -0.02,0.11 -0.05,0.2 -0.05,-0.04 -0.07,-0.14 -0.1,-0.2 -0.05,-0.11 -0.04,-0.12 -0.04,-0.25 0.04,-0.01 0.1,-0.03 0.12,-0.06 -0.02,-0.04 -0.09,-0.07 -0.13,-0.11l0 -0.31c0.07,-0.01 0.13,0.01 0.18,-0.03 -0.03,-0.01 -0.07,-0.03 -0.1,-0.04 -0.07,-0.02 -0.06,0.01 -0.11,-0.04l-0.01 0.43c-0.04,0.02 -0.11,0.07 -0.13,0.11l0.13 0.07c0.01,0.23 -0.11,0.37 -0.18,0.58 -0.04,-0.03 -0.04,-0.02 -0.11,-0.03 -0.02,-0.08 -0.03,-0.11 -0.02,-0.2l0.14 -0.07c-0.02,-0.07 -0.12,-0.06 -0.14,-0.13 -0.04,-0.1 0.07,-0.1 0.12,-0.15 -0.02,-0.05 -0.09,-0.07 -0.13,-0.11l-0 -0.16 0.16 -0.01c-0.04,-0.07 -0.14,-0.04 -0.18,-0.09 -0,0.04 -0.01,0.23 -0.01,0.25 -0.02,0.06 -0.1,0.06 -0.13,0.12 0.04,0.04 0.09,0.04 0.13,0.08 0,0.16 -0.1,0.1 -0.15,0.21l0.15 0.07 -0.03 0.2 -0.07 0.03c0,0 0.01,0 0.01,0.01l0.04 0.02c-0.01,0.05 -0.01,0.16 -0.08,0.14 -0.03,-0.02 -0.02,0 -0.04,-0.06 -0.17,-0.63 0,-1.4 0.36,-1.89 0.08,0 0.13,0.03 0.23,0.02 0.25,-0 0.24,-0.06 0.67,-0.04l0.01 -0.06c-0.01,-0.01 -0,-0 -0.03,-0.01 -0,-0 -0.02,-0.01 -0.02,-0.01 -0.21,-0.06 -0.44,0.01 -0.64,-0.03 -0.01,-0 -0.03,-0.01 -0.04,-0.01 -0.03,-0.01 -0.02,-0.01 -0.03,-0.02 0.03,-0.05 0.12,-0.13 0.17,-0.15 0.09,0.05 0.17,0.08 0.3,0.09 0.13,0.02 0.2,0.05 0.31,0.08l0.03 -0.07c-0.12,-0.05 -0.4,-0.13 -0.47,-0.22 0.01,-0.02 0,-0 0.02,-0.02l0.07 -0.04c0.04,-0.02 0.06,-0.03 0.1,-0.04zm-1.26 1.62l0 0.48c0.03,0.05 0.06,0.3 0.08,0.39 0.03,0.13 0.07,0.24 0.12,0.35 0.16,0.39 0.52,0.81 0.89,0.98 1.26,0.59 2.41,-0.55 2.41,-1.96 -0,-1.07 -0.67,-2.03 -1.62,-2.11 -0.8,-0.07 -1.41,0.51 -1.67,1.13 -0.05,0.11 -0.09,0.23 -0.12,0.35l-0.08 0.38z"/>
   <path class="fil0" d="M4.62 0.7c0.2,-0.01 0.6,-0.06 0.59,0.17 -0.01,0.22 -0.4,0.16 -0.59,0.16l0 -0.34zm-0 -0.51c0.19,-0.01 0.53,-0.05 0.52,0.16 -0,0.21 -0.34,0.17 -0.52,0.16l0 -0.32zm0.45 -0.19l-0.66 0 0 1.22c0.23,0.01 0.7,0.03 0.87,-0.07 0.09,-0.06 0.17,-0.16 0.14,-0.33 -0.03,-0.19 -0.16,-0.16 -0.22,-0.24 0.08,-0.07 0.2,-0.14 0.15,-0.35 -0.03,-0.13 -0.13,-0.17 -0.23,-0.21 -0.01,-0 -0.02,-0.01 -0.03,-0.01l-0.02 -0.01z"/>
   <path class="fil0" d="M9.62 3.53c0.36,-0.07 0.45,0.5 0.11,0.58 -0.36,0.09 -0.46,-0.51 -0.11,-0.58zm-0.05 0.78l0.11 0c0.01,-0.01 0,-0 0.03,-0.01 0.22,-0.1 0.06,-0.02 0.23,-0.15l0 0.13 0.21 -0.01 0 -1.27 -0.21 -0 -0 0.48c-0.06,-0.02 -0.08,-0.08 -0.16,-0.11 -0.07,-0.03 -0.16,-0.04 -0.25,-0.02 -0.33,0.07 -0.4,0.48 -0.27,0.72 0.1,0.19 0.25,0.2 0.32,0.24z"/>
   <path class="fil0" d="M7.29 3.88c-0.06,-0.43 0.48,-0.47 0.53,-0.11 0.06,0.41 -0.48,0.48 -0.53,0.11zm0.16 0.43l0.11 0c0.01,-0.01 0,-0 0.03,-0.01l0.06 -0.02c0.11,-0.04 0.11,-0.09 0.17,-0.13l0 0.14 0.2 0 -0 -1.27 -0.2 -0 0 0.48c-0.06,-0.03 -0.09,-0.08 -0.16,-0.12 -0.07,-0.03 -0.16,-0.04 -0.25,-0.02 -0.15,0.03 -0.24,0.14 -0.29,0.26 -0.06,0.14 -0.05,0.33 0.02,0.46 0.09,0.17 0.18,0.18 0.29,0.23 0,0 0.01,0.01 0.01,0 0,-0 0.01,0 0.01,0.01z"/>
   <path class="fil0" d="M4.91 1.8c0.03,0.03 0.19,0.43 0.2,0.48l-0.41 -0c0.01,-0.04 0.17,-0.45 0.21,-0.48zm-0.29 0.66l0.59 -0c0.02,0.08 0.08,0.23 0.12,0.29l0.22 -0 -0.53 -1.22 -0.2 -0 -0.4 0.92c-0.04,0.1 -0.09,0.2 -0.13,0.3l0.21 -0.01 0.12 -0.29z"/>
   <path class="fil0" d="M4.84 4.31l0.18 0c0.08,-0.04 0.25,-0.04 0.4,-0.22l-0.13 -0.13c-0.07,0.05 -0.1,0.09 -0.21,0.13 -0.54,0.18 -0.76,-0.64 -0.28,-0.82 0.26,-0.1 0.43,0.1 0.49,0.12l0.12 -0.15c-0.08,-0.13 -0.35,-0.22 -0.57,-0.19 -0.46,0.07 -0.65,0.57 -0.45,0.94 0.15,0.28 0.4,0.28 0.45,0.32z"/>
   <path class="fil0" d="M8.82 3.9c0.03,0.26 -0.3,0.3 -0.39,0.19 -0.07,-0.08 -0.01,-0.19 0.08,-0.22 0.1,-0.03 0.23,-0.01 0.32,0.02zm-0.37 0.41l0.13 0c0.04,-0.02 0.09,-0.03 0.13,-0.05 0.04,-0.02 0.06,-0.05 0.1,-0.07l0 0.1 0.21 -0c-0,-0.22 0.04,-0.65 -0.08,-0.8 -0.15,-0.18 -0.45,-0.15 -0.68,-0.05l0.06 0.16c0.19,-0.05 0.47,-0.14 0.49,0.16 -0.23,-0.03 -0.47,-0.08 -0.58,0.11 -0.09,0.13 -0.07,0.34 0.15,0.42l0.07 0.03z"/>
   <path class="fil0" d="M9.1 0.48c0.38,-0.11 0.49,0.47 0.17,0.57 -0.38,0.12 -0.52,-0.47 -0.17,-0.57zm0.57 0.34c0.09,-0.63 -0.89,-0.74 -0.97,-0.12 -0.08,0.63 0.88,0.76 0.97,0.12z"/>
   <path class="fil0" d="M6.9 2.23c-0.01,-0.13 0.1,-0.25 0.23,-0.25 0.13,-0 0.24,0.11 0.23,0.25l-0.46 0zm0.51 0.27c-0.26,0.2 -0.49,0.09 -0.51,-0.13l0.67 0c0.06,-0.25 -0.12,-0.49 -0.31,-0.54 -0.26,-0.07 -0.47,0.09 -0.54,0.28 -0.1,0.27 0.04,0.51 0.2,0.6 0.2,0.11 0.52,0.06 0.61,-0.11 -0.03,-0.03 -0.08,-0.08 -0.12,-0.1z"/>
   <path class="fil0" d="M6.84 0.7c0.03,-0.31 0.43,-0.35 0.47,0l-0.47 -0zm0.52 0.27c-0.05,0.03 -0.06,0.06 -0.14,0.08 -0.15,0.06 -0.35,-0.01 -0.38,-0.22l0.68 -0c0,-0.27 -0.09,-0.48 -0.32,-0.53 -0.56,-0.13 -0.77,0.63 -0.35,0.88 0.21,0.13 0.51,0.06 0.62,-0.1l-0.12 -0.1z"/>
   <path class="fil0" d="M0.89 1.11c0.02,-0.02 0.01,-0.01 0.03,-0.03 0,-0 0.03,-0.01 0.04,-0.02 0.18,-0.07 0.32,-0.19 0.54,-0.13 0.11,0.03 0.21,0.08 0.16,0.21 -0.03,0.07 -0.11,0.18 -0.18,0.21 -0.09,-0.04 -0.1,-0.18 -0.21,-0.23 -0.11,-0.05 -0.25,-0.01 -0.38,-0.01zm1.06 -0.1c-0.03,-0.25 0.71,0.07 0.71,0.07 -0.08,0.1 -0.21,0.09 -0.35,0.07 -0.23,-0.02 -0.19,0.09 -0.31,0.14 -0.01,-0.1 -0.04,-0.2 -0.05,-0.28zm-0.5 0.59c-0.12,-0.01 -0.15,0.04 -0.22,0.04 0.04,-0.1 0.47,-0.25 0.52,-0.61 0.04,-0.25 -0.05,-0.26 -0.07,-0.3 0.12,-0.25 0.23,0.33 0.25,0.45 0.02,0.12 0,0.26 -0.11,0.28 -0.09,0.01 -0.18,-0.04 -0.17,0.24 -0.07,-0.03 -0.09,-0.09 -0.19,-0.1zm0.24 -0.65c-0.28,-0.18 -0.47,-0.08 -0.74,0.05 -0.08,0.04 -0.17,0.05 -0.24,0.08 0,0.15 0.29,0.09 0.4,0.09 0.1,-0.01 0.14,0.01 0.19,0.08 0.03,0.04 0.08,0.12 0.09,0.18 -0.07,0.09 -0.25,0.11 -0.23,0.27 0.12,0.1 0.14,-0.05 0.3,-0.01 0.12,0.03 0.13,0.15 0.25,0.12 0.02,-0.09 -0,-0.19 0.04,-0.27 0.07,-0.01 0.12,0.02 0.17,-0.02 0.05,-0.04 0.05,-0.08 0.08,-0.12 0.03,-0.04 0.07,-0.03 0.11,-0.08 0.18,-0.23 0.29,0.05 0.6,-0.17 0.05,-0.03 0.09,-0.05 0.09,-0.12 -0.21,-0.05 -0.09,0 -0.34,-0.09 -0.15,-0.05 -0.23,-0.08 -0.39,-0.08 -0.07,0 -0.07,0.01 -0.14,0.03 -0.04,-0.11 -0.07,-0.33 -0.22,-0.27 -0.03,0.01 -0.12,0.1 -0.1,0.15 0.02,0.06 0.09,-0 0.08,0.18z"/>
   <path class="fil0" d="M6.34 4.31l0.11 0 0.02 -0.01c0.24,-0.11 0.12,-0.1 0.21,-0.14l0 0.13 0.21 -0.01 0 -0.91 -0.21 -0c-0.02,0.36 0.08,0.74 -0.2,0.75 -0.18,0 -0.21,-0.12 -0.2,-0.28 0,-0.16 0,-0.31 0,-0.47l-0.21 0c-0,0.19 -0.01,0.43 0,0.62 0.02,0.28 0.21,0.29 0.28,0.33z"/>
   <path class="fil0" d="M7.91 0.43l-0 -0.12 -0.21 -0 -0 0.91 0.21 0c0,-0.16 0,-0.32 -0,-0.47 -0,-0.16 0.05,-0.27 0.21,-0.27 0.15,-0 0.2,0.11 0.2,0.26 0,0.16 -0,0.32 -0,0.49l0.21 0c0,-0.38 0.1,-0.95 -0.34,-0.94 -0.17,0 -0.22,0.11 -0.28,0.15z"/>
   <path class="fil0" d="M5.62 0.3c0,0.41 -0.1,0.96 0.34,0.94 0.2,-0.01 0.2,-0.13 0.27,-0.13l-0 0.12 0.21 -0 -0 -0.92 -0.21 0.01c0,0.16 0,0.32 0,0.47 -0,0.16 -0.05,0.26 -0.21,0.26 -0.16,0 -0.2,-0.11 -0.2,-0.28 0,-0.16 0,-0.31 0,-0.47l-0.21 0z"/>
   <path class="fil0" d="M8.38 1.92c-0.44,-0.3 -0.85,0.11 -0.59,0.35 0.05,0.05 0.14,0.08 0.23,0.1 0.08,0.02 0.19,0.04 0.19,0.12 0.01,0.11 -0.13,0.12 -0.22,0.1 -0.1,-0.02 -0.15,-0.07 -0.22,-0.1l-0.08 0.14c0.13,0.07 0.28,0.17 0.51,0.11 0.15,-0.04 0.3,-0.23 0.18,-0.4 -0.1,-0.15 -0.33,-0.13 -0.43,-0.22 -0.09,-0.08 0.01,-0.16 0.13,-0.15 0.09,0.01 0.17,0.05 0.23,0.08l0.08 -0.14z"/>
   <path class="fil0" d="M10.51 1.02l0 -0.13c-0,-0 -0,-0.01 -0.01,-0.01 -0.01,0.03 0.01,-0.09 -0.21,-0.17 -0.11,-0.04 -0.21,-0.05 -0.28,-0.12 -0.02,-0.11 0.05,-0.14 0.16,-0.13 0.1,0.01 0.15,0.06 0.23,0.08l0.07 -0.14c-0.11,-0.1 -0.36,-0.14 -0.51,-0.07 -0.16,0.08 -0.22,0.3 -0.06,0.43 0.11,0.09 0.42,0.1 0.4,0.23 -0.01,0.09 -0.13,0.1 -0.23,0.08 -0.1,-0.02 -0.15,-0.07 -0.22,-0.1 -0.02,0.05 -0.06,0.09 -0.08,0.14 0.15,0.14 0.57,0.24 0.7,-0.03l0.02 -0.04c0,-0 0,-0.01 0.01,-0.01 0,-0 0,-0.01 0.01,-0.01z"/>
   <path class="fil0" d="M6.29 2.75c-0.01,-0.22 -0.04,-0.54 0.14,-0.66 0.19,-0.13 0.19,0.1 0.19,-0.27 -0.25,0.01 -0.25,0.15 -0.32,0.2l0 -0.18 -0.21 -0 0 0.92 0.21 -0.01z"/>
   <polygon class="fil0" points="5.62,2.75 5.83,2.75 5.83,1.83 5.74,1.83 5.7,1.83 5.62,1.83 "/>
   <polygon class="fil0" points="5.62,4.28 5.83,4.28 5.83,3.36 5.75,3.36 5.7,3.36 5.62,3.36 5.62,3.47 5.62,4.22 "/>
   <polygon class="fil0" points="5.61,1.69 5.84,1.69 5.84,1.49 5.62,1.5 "/>
   <polygon class="fil0" points="5.62,3.22 5.84,3.22 5.84,3.02 5.62,3.03 "/>
  </g>
 </g>
</svg>
