<?xml version="1.0" encoding="UTF-8"?>
<!DOCTYPE svg PUBLIC "-//W3C//DTD SVG 1.1//EN" "http://www.w3.org/Graphics/SVG/1.1/DTD/svg11.dtd">
<!-- Creator: CorelDRAW 2021.5 -->
<svg xmlns="http://www.w3.org/2000/svg" xml:space="preserve" width="0.994661in" height="0.324047in" version="1.1" style="shape-rendering:geometricPrecision; text-rendering:geometricPrecision; image-rendering:optimizeQuality; fill-rule:evenodd; clip-rule:evenodd"
viewBox="0 0 82.78 26.97"
 xmlns:xlink="http://www.w3.org/1999/xlink"
 xmlns:xodm="http://www.corel.com/coreldraw/odm/2003">
 <defs>
  <style type="text/css">
   <![CDATA[
    .fil0 {fill:#FEFEFE}
   ]]>
  </style>
 </defs>
 <g id="Capa_x0020_1">
  <metadata id="CorelCorpID_0Corel-Layer"/>
  <g id="_3020730578912">
   <path class="fil0" d="M57.24 18.05c0.03,-0.03 -0.08,-0.14 0.23,-0.07 0.15,0.03 0.31,0.29 0.44,0.42 1.35,1.43 1.91,0.63 1.2,1.95 -0.53,0.98 -1.28,2.08 -2,2.84 -0.44,0.47 -1.25,0.78 -1.64,0.1 -0.6,-1.02 1.31,-4.87 1.77,-5.26zm2.46 -3.22c1.43,-0.41 1.01,1.81 0.68,2.75 -0.13,0.36 -0.19,0.73 -0.74,0.56 -1.71,-0.53 -1.21,-2.95 0.06,-3.31zm15.52 0.12c0.9,-0.29 0.67,0.48 0.46,0.98 -0.45,1.08 -1.07,2.6 -1.63,3.59 -0.44,0.78 -1.94,3.81 -2.9,4.05 -0.64,0.16 -0.66,-0.61 -0.57,-1.11 0.19,-1.05 1.59,-3.79 2.18,-4.75 0.37,-0.6 1.75,-2.53 2.46,-2.76zm-8.15 0.88c-0.05,-0.47 0.65,-1.75 0.84,-2.17 1.1,-2.35 2.35,-4.7 3.8,-6.84 1.04,-1.54 2.04,-2.95 3.33,-4.27 0.52,-0.54 1.09,-1.14 1.94,-1.02 0.05,0.86 -0.17,1.04 -0.23,1.72 0.49,-0.07 1.05,-0.31 1.2,-0.77 0.27,-0.8 0.32,-1.85 -0.47,-2.19 -1.22,-0.52 -2.97,0.68 -3.69,1.16 -1.27,0.86 -1.68,1.45 -2.63,2.37 -1.13,1.08 -2.32,2.9 -3.21,4.24 -1.71,2.56 -3.06,5.22 -4.32,8.06 -0.54,1.21 -0.64,2.19 -1.29,2.4 -0.27,0.09 -0.84,0.16 -1.04,-0.02 -0.19,-0.2 0.31,-1.74 0.43,-2.24 0.54,-2.27 -1.08,-4.32 -4.37,-1.84 -2.1,1.59 -3.58,4.09 -4.64,6.8 -1.65,4.21 0.42,7.08 3.86,4.29 0.88,-0.72 1.98,-2.28 2.53,-3.19 0.32,-0.53 0.72,-1.2 1.06,-1.83 0.15,-0.29 0.26,-0.73 0.66,-0.78 0.24,-0.03 1.08,-0.01 1.33,0.03 0.15,0.71 -1.46,4.66 0,6.37 1.1,1.29 3.03,-0.29 3.87,-1.05 0.25,-0.22 0.68,-0.82 0.94,-0.93 0.34,0.54 -0.02,2.53 1.88,2.39 1.43,-0.11 2.25,-1.43 2.75,-1.53 0.28,0.39 0.27,1.07 0.65,1.37 0.42,0.34 1.23,0.15 1.66,-0.01 0.82,-0.3 1.77,-1.13 2.27,-1.63 0.8,-0.81 2.98,-3.77 2.99,-4.91l-0.73 0.02c-0.54,0.82 -1.46,2.34 -2.13,3 -0.16,0.16 -0.53,0.52 -0.76,0.55 -1,0.17 0.55,-2.33 0.7,-2.63 0.37,-0.74 0.77,-1.6 1.2,-2.42 0.44,-0.85 0.77,-1.58 1.23,-2.45 0.25,-0.47 1.13,-2.08 1.1,-2.55 -0.61,0.01 -1.22,-0.01 -1.82,-0.02 -0.86,-0.01 -0.72,-0.09 -1.1,0.23 -0.49,0.42 -0.37,-0.07 -1.32,-0.26 -2.27,-0.44 -4.61,2.58 -5.64,4.15 -0.75,1.16 -1.44,2.24 -2.21,3.45 -0.39,0.61 -2.07,3.41 -2.81,2.47 -0.44,-0.52 0.73,-4.48 1.04,-4.9 0.26,-0.36 1.33,-1.15 1.63,-1.4 1.29,-1.08 3.38,-3.36 4.44,-4.67 0.58,-0.72 2.34,-2.84 2.49,-3.61 -1.39,0.02 -1.08,0.13 -2.17,1.55 -0.99,1.28 -4.33,5.39 -5.29,5.54z"/>
   <path class="fil0" d="M15.62 12.95c-0.04,0.81 -2.1,3.87 -3.13,4.28 -0.95,0.38 -1.12,-0.57 -0.99,-1.37 0.16,-0.96 0.91,-2.74 1.39,-3.52 0.1,-0.17 0.39,-0.66 0.49,-0.75 0.4,-0.33 0.62,0.45 1.82,1.1 0.08,0.04 0.11,0.06 0.19,0.1l0.23 0.16zm0.64 -1.37c-0.78,0.04 -1.43,-0.51 -1.61,-1.14 -0.46,-1.6 2.13,-3.26 2.22,-1.03 0.03,0.79 -0.27,1.67 -0.6,2.18zm18.23 -2.25c-0.42,1.72 -3.24,6.96 -4.41,7.91 -0.41,0.33 -0.97,0.47 -0.97,-0.3 -0.01,-1.89 2.65,-6.44 4.45,-7.88 0.32,-0.26 1.14,-0.57 0.93,0.27zm-8.96 7.72c0.14,0.63 -0.39,3.14 1.49,3.14 1.56,0 2.66,-1.48 3.19,-1.53 0.13,0.36 0.29,1.13 0.59,1.36 1.13,0.87 3.33,-0.98 4.05,-1.71 0.88,-0.9 3.02,-3.81 3.19,-4.86 -0.2,-0.12 -0.56,-0.16 -0.79,-0.12 -0.41,0.09 -0.91,1.22 -1.24,1.79 -0.22,0.38 -1.48,1.93 -2.08,1.91 -0.14,-0.52 0.79,-2.09 1.04,-2.6 0.22,-0.44 0.42,-0.83 0.62,-1.25l2.48 -5.06c0.15,-0.32 0.58,-0.97 0.51,-1.29 -0.36,-0.02 -2.32,-0.11 -2.62,-0.02 -0.25,0.08 -0.3,0.26 -0.6,0.38 -0.75,-0.09 -0.94,-0.64 -2.15,-0.38 -1.73,0.37 -3.21,2.18 -4.22,3.45 -0.35,0.44 -0.71,0.99 -1.03,1.5 -0.36,0.56 -0.68,1.03 -1.04,1.57 -0.34,0.5 -0.68,1.01 -1.03,1.5 -0.69,0.95 -3.3,3.72 -4.53,3.02 -1.48,-0.85 0.92,-5.29 1.69,-6.52l1.69 -2.13c0.41,-0.41 1.08,-1.06 1.74,-0.73 0.02,0.66 -0.44,0.32 -0.91,0.77 -0.32,0.3 -0.59,0.54 -0.76,0.98 -0.5,1.32 0.52,1.99 1.5,1.2 0.51,-0.41 1.14,-1.4 1.26,-2.22 0.14,-0.97 -0.24,-1.99 -1.05,-2.3 -0.93,-0.35 -2.08,0.07 -2.83,0.46 -2.19,1.13 -3.36,4.48 -6.07,4.38 -0.06,-0.72 0.69,-2.33 0.17,-3.71 -0.39,-1.05 -1.41,-1.58 -2.71,-1.17 -3.3,1.05 -6.3,6.07 -6.97,9.54 -0.56,2.86 1.36,4.87 3.81,3.28 1.85,-1.2 3.45,-3.77 4.55,-5.73 0.36,-0.65 0.24,-0.84 1.15,-0.93 1.56,-0.16 1.04,-0.3 0.21,2.24 -0.37,1.14 -0.52,2.35 -0.04,3.49 0.36,0.84 1.37,1.62 2.66,1.43 2.41,-0.37 4.87,-3.09 5.11,-3.12z"/>
   <path class="fil0" d="M57.52 3.08c0.2,2.69 -1.04,4.74 -2.53,6.57 -0.3,0.37 -1.47,1.27 -2.01,0.66 -0.94,-1.06 1.41,-4.82 2.74,-6.07 0.31,-0.3 1.37,-1.26 1.8,-1.15zm-18.49 18.34c0,1.41 0.34,2.76 1.06,3.73 0.85,1.16 1.89,1.5 3.44,1.5 6.77,0 11.81,-12.84 7.46,-13.34 -1.48,-0.17 -2.59,0.53 -3.42,1.36 -1.51,1.52 -2.97,4.45 -2.86,6.75l0.02 0.58c0.24,-0.05 0.17,-0.03 0.34,-0.2 0.11,-0.11 0.18,-0.19 0.28,-0.3 0.81,-0.83 1.53,-1.36 2.47,-1.95 0.3,-0.19 0.43,-0.21 0.51,-0.57 0.25,-1.13 0.4,-2.16 1.22,-3.2 1.19,-1.52 2.83,-1.42 1.61,2.49 -0.56,1.81 -2.1,4.18 -3.57,5.25 -0.71,0.52 -2,1.34 -3.24,0.97 -1.18,-0.36 -1.47,-1.85 -1.47,-3.08 0,-2.2 1.04,-4.78 1.82,-6.51 0.53,-1.17 1.47,-2.96 2.16,-4.05 1.02,-1.61 1.51,-2.2 2.57,-3.65 1.2,-1.64 2.65,-2.92 4.19,-4.21 0.74,-0.62 1.84,-1.37 2.82,-1.3 -0.01,0.23 -0.61,0.65 -0.91,0.89 -0.85,0.68 -2.08,2.17 -2.61,3.12 -0.44,0.79 -0.91,1.75 -1.07,2.76 -0.61,3.85 2.91,3.81 5.27,-0.37 1.54,-2.72 1.27,-3.31 1.69,-5.98 3.5,-0.32 4.86,1.14 7.26,2.7 0.42,0.28 1.54,1.13 1.93,1.2 0.28,-0.21 1.36,-1.59 1.69,-2.01 0.2,-0.27 0.44,-0.48 0.51,-0.75 -0.32,-0.36 -2.67,-1.73 -3.29,-2.09 -2.57,-1.51 -5.3,-1.41 -8.07,-0.48 -0.44,0.15 -0.69,0.31 -1.08,0.01 -1.32,-1.01 -3.29,-0.45 -4.61,0.09 -2.75,1.13 -4.69,2.83 -6.7,4.89 -3,3.09 -7.41,10.17 -7.41,15.76z"/>
   <path class="fil0" d="M36.64 26.97c-0.09,-0.57 -1.82,-2.1 -2.34,-2.47 -3.61,-2.49 -7.06,-3.21 -11.63,-2.61 -5.25,0.69 -12.21,4.53 -15.96,2.68 -2.38,-1.18 -3.04,-3.79 -2.38,-6.87 0.32,-1.49 0.67,-2.37 1.16,-3.7l1.58 -3.34c0.51,-0.89 1.3,-2.05 1.93,-2.92 1.19,-1.64 3.01,-3.87 4.64,-5.13 0.66,-0.51 3.23,-1.93 2.99,-0.31 -0.33,0.17 -1.25,0.32 -1.74,1.32 -0.41,0.84 -0.32,2.18 0.9,1.91 0.65,-0.14 1.32,-0.83 1.58,-1.52 1.43,-3.72 -1.43,-4.61 -4.41,-3.33 -2.68,1.15 -5.3,3.22 -7.16,5.51 -1.8,2.22 -3.78,5.16 -4.77,7.9 -0.66,1.83 -1.07,3.06 -1.03,5.37 0.04,2.68 0.96,5.08 3.14,6.37 0.85,0.5 1.31,0.52 2.39,0.79 0.72,0.18 2.26,0.1 2.99,0.03 1.56,-0.16 6.08,-1.43 7.7,-1.85 3.49,-0.91 7.73,-1.33 9.9,1.36 1.16,1.44 0.13,-0.26 5.11,-0.11 1.06,0.03 1.89,0.18 2.84,0.34l2.58 0.57z"/>
   <path class="fil0" d="M72.16 7.92c2.53,0.38 4.93,-0.7 6.83,-2.2 0.88,-0.69 1.55,-1.43 2.24,-2.33 0.37,-0.49 1.52,-2.27 1.55,-3.05 -0.2,0.08 -1.08,0.88 -1.24,1.04 -1.04,0.97 -2.84,2.13 -4.24,2.64 -3.76,1.37 -1.97,-0.78 -4.31,2.5 -0.25,0.35 -0.83,1.06 -0.83,1.4z"/>
   <path class="fil0" d="M38.94 9.74c0.37,0.16 1.38,0.06 1.84,0.06 1.09,0.01 0.74,0.02 1.15,-0.69 0.15,-0.26 0.21,-0.25 0.33,-0.62l0.14 -0.37c0.01,-0.01 0.02,-0.03 0.03,-0.04 0.82,-1.21 0.19,-1.04 -0.12,-1.05l-1.97 0.04 -0.75 1.35c-0.14,0.28 -0.19,0.43 -0.34,0.67 -0.12,0.19 -0.26,0.43 -0.3,0.66z"/>
   <path class="fil0" d="M38.94 9.74c0.03,-0.23 0.18,-0.47 0.3,-0.66 0.15,-0.24 0.2,-0.39 0.34,-0.67l0.75 -1.35 1.97 -0.04c0.32,0.02 0.95,-0.16 0.12,1.05 -0.01,0.01 -0.02,0.03 -0.03,0.04l-0.14 0.37c-0.11,0.36 -0.18,0.36 -0.33,0.62 -0.41,0.71 -0.06,0.7 -1.15,0.69 -0.46,-0 -1.48,0.1 -1.84,-0.06zm-0.23 0.21c0.49,0.08 1.32,0.03 1.85,0.03 0.77,0 1.06,0.13 1.41,-0.46 0.22,-0.37 1.17,-2.34 1.16,-2.61 -0.54,-0.07 -1.29,-0.05 -1.85,-0.05 -1.25,-0.01 -1.11,0.01 -2.01,1.77 -0.17,0.33 -0.59,0.88 -0.56,1.33z"/>
  </g>
 </g>
</svg>
