<?xml version="1.0" encoding="UTF-8"?>
<!DOCTYPE svg PUBLIC "-//W3C//DTD SVG 1.1//EN" "http://www.w3.org/Graphics/SVG/1.1/DTD/svg11.dtd">
<!-- Creator: CorelDRAW 2021.5 -->
<svg xmlns="http://www.w3.org/2000/svg" xml:space="preserve" width="0.841398in" height="0.702in" version="1.1" style="shape-rendering:geometricPrecision; text-rendering:geometricPrecision; image-rendering:optimizeQuality; fill-rule:evenodd; clip-rule:evenodd"
viewBox="0 0 8.84 7.38"
 xmlns:xlink="http://www.w3.org/1999/xlink"
 xmlns:xodm="http://www.corel.com/coreldraw/odm/2003">
 <defs>
  <style type="text/css">
   <![CDATA[
    .fil0 {fill:#FEFEFE;fill-rule:nonzero}
   ]]>
  </style>
 </defs>
 <g id="Capa_x0020_1">
  <metadata id="CorelCorpID_0Corel-Layer"/>
  <path class="fil0" d="M4.5 3.07c0.05,-0.01 0.09,-0.01 0.11,0.01 0.03,0.02 0.05,0.05 0.06,0.09 0.01,0.03 0.01,0.06 0.01,0.09 -0,0.03 -0.01,0.06 -0.03,0.07 0.02,0.08 0.03,0.17 0.03,0.28 0,0.11 -0.01,0.22 -0.03,0.33 -0.02,0.11 -0.06,0.21 -0.11,0.29 -0.05,0.08 -0.12,0.14 -0.21,0.16 -0.07,0.02 -0.13,0.01 -0.18,-0.02 -0.05,-0.04 -0.08,-0.09 -0.1,-0.16 -0.03,-0.09 -0.03,-0.19 -0.03,-0.31 0.01,-0.12 0.03,-0.24 0.07,-0.35 0.04,-0.12 0.09,-0.22 0.16,-0.31 0.07,-0.09 0.14,-0.15 0.24,-0.17zm4.01 -2.16c0.04,-0.04 0.08,-0.05 0.12,-0.05 0.05,0 0.1,0.02 0.14,0.06 0.04,0.04 0.07,0.08 0.07,0.13 0,0.02 -0.01,0.05 -0.02,0.07 -0.04,0.06 -0.1,0.16 -0.2,0.3 -0.09,0.14 -0.19,0.29 -0.3,0.45 -0.08,0.13 -0.15,0.25 -0.22,0.37 0.39,0.44 0.31,1.14 0.07,1.61 -0.54,1.07 -1.89,1.45 -3.12,1.71 -1.04,0.22 -2.21,0.22 -3.12,0.72 -0.23,0.13 -0.74,0.52 -0.7,0.8 0.03,0.01 0.06,0.03 0.09,0.05 0.06,0.06 0.04,0.15 -0.03,0.2 -0.53,0.29 -0.82,-0.98 1.22,-1.57 -0.01,-0.02 -0.01,-0.04 -0.02,-0.06 -0.01,-0.06 -0.02,-0.11 -0.02,-0.17 -0.02,-0.18 -0.01,-0.36 0.01,-0.55 0.02,-0.18 0.06,-0.36 0.11,-0.54 -0.03,-0.03 -0.05,-0.07 -0.08,-0.11 -0.02,-0.02 -0.02,-0.04 -0.03,-0.06 -0,-0.03 0.01,-0.05 0.02,-0.07 0.02,-0.02 0.04,-0.03 0.05,-0.03 0.02,-0 0.03,0 0.04,0.02 0.01,0.03 0.02,0.05 0.04,0.08 0.01,-0.03 0.02,-0.07 0.03,-0.1l-0 -0.01c-0,-0.01 0,-0.02 0.01,-0.03 0.01,-0.02 0.02,-0.03 0.03,-0.05 0.01,-0.02 0.02,-0.03 0.02,-0.05 0.01,-0.04 0.03,-0.08 0.05,-0.12 0.01,-0.02 0.02,-0.05 0.03,-0.07 0.05,-0.12 0.07,-0.22 0.06,-0.3 -0.02,-0.25 -0.63,-0.32 -0.18,-0.68 0.14,-0.11 0.31,-0.17 0.46,-0.21 0.15,-0.05 0.29,-0.08 0.41,-0.09 0.11,-0.01 0.2,-0.01 0.27,0 0.13,0.02 0.22,0.06 0.28,0.13 0.06,0.06 0.1,0.14 0.1,0.23 0.02,0.18 -0.04,0.38 -0.18,0.61 -0.14,0.23 -0.31,0.43 -0.51,0.61 -0.21,0.18 -0.41,0.29 -0.62,0.33l-0.01 0.02c0.16,0.12 0.34,0.22 0.54,0.31 0.2,0.09 0.35,0.13 0.46,0.12 0.05,-0.01 0.09,-0.03 0.11,-0.06 0,-0.01 0.01,-0.02 0.02,-0.02 0.01,-0 0.01,0 0.02,0.01 0.01,0.01 0.01,0.02 0.01,0.03 0,0.03 -0.01,0.06 -0.03,0.1 -0.02,0.04 -0.07,0.06 -0.13,0.07 -0.01,0 -0.03,0.01 -0.05,0.01 -0.13,0.01 -0.29,-0.01 -0.47,-0.06 -0.18,-0.06 -0.36,-0.16 -0.55,-0.32 -0.06,0.19 -0.12,0.37 -0.15,0.55 -0.04,0.18 -0.05,0.33 -0.04,0.46 0,0.01 0,0.01 0,0.02 0.28,-0.08 0.61,-0.14 0.99,-0.18 1.31,-0.16 2.98,-0.36 3.93,-1.21 0.57,-0.51 0.92,-1.35 0.49,-1.99l-0 0.01c-0.08,0.15 -0.12,0.27 -0.12,0.36l0 0.03c0,0.05 -0.02,0.07 -0.06,0.07 -0.03,0 -0.06,-0.02 -0.09,-0.06 -0.03,-0.04 -0.05,-0.1 -0.06,-0.18l0 -0.06c0,-0.14 0.02,-0.28 0.07,-0.42 -0.23,-0.14 -0.49,-0.09 -0.79,0.07 0.22,-0.2 0.51,-0.29 0.81,-0.14 0,0 0.01,0 0.01,0.01 0,-0.01 0.01,-0.02 0.01,-0.03 0.07,-0.17 0.15,-0.34 0.24,-0.48 0.09,-0.15 0.18,-0.27 0.26,-0.38 0.08,-0.1 0.14,-0.17 0.17,-0.2 0,-0.01 0.01,-0.01 0.01,-0.01zm-0.84 1.97c0.05,-0.03 0.09,-0.05 0.11,-0.05 0.02,0 0.03,0.01 0.04,0.02 0,0.01 -0,0.01 -0.01,0.02 -0.05,0.04 -0.08,0.11 -0.11,0.19 -0.02,0.08 -0.04,0.16 -0.04,0.23 0,0.06 0.01,0.1 0.03,0.12 0,0.01 0.01,0.01 0.01,0.02 0,0.02 -0.01,0.04 -0.04,0.06 -0.03,0.02 -0.06,0.03 -0.09,0.03 -0.03,0 -0.06,-0.01 -0.08,-0.04 -0.02,-0.03 -0.03,-0.07 -0.03,-0.12 0,-0.07 0.02,-0.15 0.06,-0.24 0.04,-0.09 0.1,-0.17 0.17,-0.24zm-5.75 1.72c-0.05,-1.05 0.4,-3.46 1.63,-3.81 0.08,-0.02 0.1,-0.02 0.19,-0.02 -0.1,0.07 -0.05,0.04 -0.16,0.09l0 -0 -0.18 0.12c-0.9,0.68 -1.2,2.55 -1.1,3.58 0.01,0.1 -0.06,0.19 -0.17,0.2 -0.11,0.01 -0.2,-0.06 -0.21,-0.16zm5.63 -2.25c0.01,-0.02 0.02,-0.03 0.04,-0.03 0.02,-0 0.03,-0 0.05,-0 0.02,0 0.03,0.01 0.03,0.03 0,0.01 -0,0.02 -0.01,0.03 -0.01,0.01 -0.02,0.03 -0.04,0.06 -0.05,0.08 -0.12,0.18 -0.21,0.32 -0.09,0.14 -0.18,0.26 -0.28,0.38 -0.1,0.12 -0.17,0.19 -0.23,0.21 -0.08,0.02 -0.14,0.01 -0.19,-0.02 -0.05,-0.04 -0.08,-0.09 -0.1,-0.16 -0.02,-0.08 -0.02,-0.17 -0.01,-0.28 0.01,-0.11 0.04,-0.21 0.09,-0.32 0.05,-0.11 0.11,-0.2 0.19,-0.28 0.08,-0.08 0.18,-0.14 0.29,-0.17 0.02,-0.01 0.05,-0.01 0.07,-0.02 0.05,-0.01 0.09,-0 0.12,0.01 0.03,0.02 0.05,0.04 0.06,0.08 0.02,0.08 -0.01,0.19 -0.1,0.32 -0.09,0.13 -0.23,0.24 -0.42,0.33 -0.03,0.12 -0.04,0.23 -0.02,0.32l0.01 0.03c0.07,-0.07 0.15,-0.17 0.25,-0.29 0.1,-0.12 0.19,-0.24 0.27,-0.34 0.08,-0.11 0.13,-0.17 0.14,-0.19zm-0.34 -0.07c-0.05,0.04 -0.1,0.1 -0.15,0.18 -0.05,0.08 -0.09,0.17 -0.13,0.27 0.14,-0.1 0.23,-0.19 0.26,-0.26 0.03,-0.08 0.04,-0.14 0.02,-0.19zm-3.33 -1.52c0.04,-0.04 0.06,-0.1 0.06,-0.16 0,-0.04 -0.01,-0.07 -0.02,-0.1 -0.01,-0.03 -0.04,-0.05 -0.07,-0.05 -0.03,-0.01 -0.06,-0.01 -0.1,-0.01 -0.26,0 -0.55,0.18 -0.88,0.54 -0.33,0.36 -0.62,0.85 -0.87,1.46 -0.25,0.62 -0.41,1.32 -0.48,2.11l0 0.03c0,0.06 -0.01,0.12 -0.03,0.16 -0.02,0.04 -0.04,0.07 -0.07,0.07 -0.02,0 -0.05,-0.02 -0.09,-0.07 -0.09,-0.14 -0.15,-0.32 -0.18,-0.55 -0.03,-0.23 -0.05,-0.48 -0.05,-0.75 0,-0.25 0.01,-0.5 0.03,-0.76 0.02,-0.26 0.04,-0.5 0.05,-0.73 0.04,-0.36 0.05,-0.63 0.05,-0.83 0,-0.09 -0.01,-0.15 -0.02,-0.2 -0.01,-0.05 -0.03,-0.07 -0.05,-0.07 -0.1,0.01 -0.23,0.12 -0.37,0.32 -0.14,0.2 -0.26,0.44 -0.37,0.73 -0.11,0.28 -0.16,0.54 -0.16,0.76 0,0.11 0.02,0.2 0.05,0.28 0.03,0.08 0.08,0.14 0.15,0.18 0.03,0.02 0.07,0.03 0.1,0.03 0.05,0 0.08,-0.01 0.12,-0.04 0.03,-0.03 0.06,-0.06 0.08,-0.1 0.02,-0.04 0.03,-0.06 0.04,-0.09 0.01,-0.02 0.02,-0.04 0.04,-0.04 0.01,0 0.02,0.01 0.03,0.02 0.01,0.01 0.01,0.03 0.01,0.05 0,0.01 -0,0.02 -0,0.03 -0,0.03 -0.02,0.08 -0.04,0.13 -0.02,0.06 -0.06,0.11 -0.11,0.15 -0.05,0.05 -0.12,0.07 -0.2,0.07 -0.05,0 -0.09,-0.01 -0.15,-0.03 -0.14,-0.06 -0.24,-0.16 -0.3,-0.29 -0.06,-0.14 -0.09,-0.3 -0.09,-0.48 0,-0.22 0.04,-0.44 0.11,-0.69 0.07,-0.24 0.17,-0.47 0.28,-0.68 0.12,-0.21 0.25,-0.39 0.39,-0.52 0.14,-0.14 0.28,-0.21 0.42,-0.21 0.1,0 0.18,0.04 0.24,0.12 0.06,0.08 0.1,0.18 0.12,0.32 0.02,0.14 0.03,0.29 0.03,0.47 0,0.17 -0.01,0.35 -0.02,0.54 -0.01,0.19 -0.03,0.39 -0.05,0.59 -0.02,0.22 -0.04,0.44 -0.05,0.66 0.11,-0.54 0.27,-1.01 0.46,-1.41 0.19,-0.4 0.4,-0.72 0.62,-0.98 0.22,-0.26 0.44,-0.45 0.65,-0.57 0.21,-0.12 0.39,-0.19 0.55,-0.19 0.04,0 0.08,0 0.12,0.01 0.12,0.03 0.2,0.09 0.24,0.16 0.05,0.08 0.07,0.16 0.07,0.24 0,0.12 -0.03,0.22 -0.1,0.3 -0.03,0.03 -0.06,0.06 -0.09,0.07 -0.03,0.01 -0.06,0.02 -0.08,0.02 -0.03,0 -0.04,-0.01 -0.04,-0.02 0,-0.01 0.01,-0.01 0.02,-0.02zm-1.04 2.33c0.01,0 0.22,0.24 0.24,0.28 0.11,-0.19 0.2,-0.31 0.25,-0.37 0.02,-0.02 0.05,-0.03 0.08,-0.04 0.04,-0 0.07,0 0.1,0.03 0.03,0.02 0.05,0.04 0.05,0.07 0,0.01 -0,0.02 -0.01,0.02 -0,0 -0,0.01 -0,0.01 -0.03,0.04 -0.09,0.16 -0.18,0.35 -0.1,0.19 -0.2,0.41 -0.31,0.68 0.23,-0.13 0.42,-0.32 0.58,-0.54 0.16,-0.23 0.23,-0.42 0.22,-0.57 -0.01,-0.05 -0.02,-0.1 -0.06,-0.13 -0.03,-0.03 -0.08,-0.06 -0.15,-0.06 -0.04,-0 -0.08,-0 -0.12,0 -0.1,0.01 -0.23,0.05 -0.37,0.1 -0.14,0.06 -0.19,0.07 -0.32,0.18zm0.99 -1.52c0.01,-0.02 0.02,-0.03 0.03,-0.03 0.01,-0 0.03,-0 0.04,0.01 0.01,0.01 0.02,0.02 0.03,0.03 0,0.01 -0,0.02 -0.01,0.04 -0,0.01 -0.02,0.03 -0.03,0.06 -0.04,0.08 -0.1,0.19 -0.18,0.33 -0.08,0.14 -0.16,0.27 -0.25,0.4 -0.09,0.12 -0.16,0.19 -0.21,0.2 -0.07,0.01 -0.13,-0 -0.17,-0.05 -0.04,-0.05 -0.07,-0.11 -0.09,-0.2 -0.02,-0.09 -0.02,-0.2 -0.01,-0.32 0.01,-0.12 0.04,-0.24 0.08,-0.35 0.04,-0.11 0.1,-0.21 0.17,-0.29 0.07,-0.08 0.16,-0.14 0.26,-0.16 0.02,-0 0.04,-0.01 0.06,-0.01 0.05,-0 0.08,0.01 0.11,0.03 0.03,0.02 0.05,0.05 0.05,0.09 0.02,0.09 -0.01,0.21 -0.09,0.35 -0.08,0.14 -0.21,0.24 -0.38,0.32 -0.03,0.13 -0.03,0.25 -0.01,0.36l0.01 0.03c0.06,-0.07 0.14,-0.17 0.23,-0.29 0.09,-0.12 0.17,-0.24 0.24,-0.35 0.07,-0.11 0.11,-0.18 0.12,-0.2zm-0.31 -0.12c-0.04,0.04 -0.09,0.1 -0.13,0.18 -0.04,0.09 -0.08,0.18 -0.11,0.29 0.13,-0.09 0.21,-0.18 0.23,-0.26 0.03,-0.08 0.03,-0.15 0.01,-0.21zm0.14 -0.25c-0,0 -0.01,0 -0.01,0.01 -0.01,0 -0.03,-0 -0.05,-0.01 -0.02,-0.01 -0.03,-0.02 -0.03,-0.04 -0,-0.01 -0,-0.01 0,-0.02 0.01,-0.01 0.03,-0.04 0.05,-0.08 0.03,-0.04 0.05,-0.07 0.08,-0.11 0.03,-0.04 0.05,-0.06 0.06,-0.07 0,-0 0.01,-0 0.01,-0.01 0.02,-0 0.05,0 0.08,0.02 0.03,0.02 0.05,0.04 0.05,0.06 0,0.01 -0,0.02 -0.01,0.03 -0.07,0.07 -0.13,0.12 -0.16,0.15 -0.03,0.03 -0.05,0.05 -0.07,0.06zm0.79 0.07c0.03,0.01 0.04,0.03 0.05,0.06 0.01,0.03 0,0.08 -0.02,0.13 -0.02,0.05 -0.05,0.11 -0.08,0.17 -0.04,0.08 -0.07,0.15 -0.1,0.23 -0.03,0.08 -0.04,0.15 -0.02,0.22l0.01 0.03c0,0.01 -0,0.02 -0.01,0.02 -0.01,0 -0.03,-0.01 -0.05,-0.02 -0.02,-0.02 -0.04,-0.05 -0.05,-0.1l-0.01 -0.03c-0.02,-0.12 -0.03,-0.21 -0,-0.29 -0.08,0.14 -0.15,0.29 -0.2,0.44 -0.05,0.15 -0.08,0.26 -0.09,0.32 0,0.03 -0.01,0.04 -0.03,0.05 -0.02,0 -0.05,-0.01 -0.09,-0.03 -0.03,-0.02 -0.06,-0.07 -0.08,-0.13l-0.01 -0.03c-0.02,-0.1 -0.03,-0.21 -0.01,-0.32 0.01,-0.11 0.04,-0.21 0.07,-0.3 0.03,-0.09 0.06,-0.17 0.1,-0.23 0.03,-0.06 0.06,-0.11 0.07,-0.13 0.03,-0.04 0.06,-0.06 0.09,-0.07 0.03,-0.01 0.05,-0 0.07,0.01 0.02,0.01 0.04,0.03 0.04,0.06 0,0.02 0,0.04 -0,0.06 -0.01,0.03 -0.02,0.06 -0.04,0.11 -0.03,0.1 -0.07,0.22 -0.11,0.36 0.07,-0.16 0.15,-0.29 0.23,-0.39 0.08,-0.11 0.15,-0.16 0.21,-0.18 0.02,-0 0.04,-0 0.05,0zm0.48 -0.68c0.03,-0.03 0.06,-0.06 0.09,-0.06 0.03,-0.01 0.06,-0 0.08,0.01 0.03,0.01 0.04,0.03 0.05,0.05 0,0.01 0,0.02 -0,0.03 -0.02,0.04 -0.05,0.11 -0.09,0.22 0.06,0.01 0.1,0.03 0.12,0.06 0.01,0.01 0.01,0.02 0.01,0.03 0,0.02 0,0.03 -0.01,0.04 -0,0 -0.01,-0 -0.01,-0 -0.03,-0.02 -0.08,-0.02 -0.14,-0.02 -0.07,0.18 -0.13,0.38 -0.19,0.59 -0.06,0.21 -0.1,0.39 -0.11,0.52 0.05,-0.07 0.1,-0.15 0.16,-0.25 0.06,-0.1 0.11,-0.19 0.16,-0.28 0.05,-0.09 0.08,-0.15 0.1,-0.19 0.01,-0.02 0.02,-0.03 0.04,-0.03 0.01,-0 0.02,-0 0.03,0 0.01,0 0.02,0.01 0.02,0.02 0,0.01 -0,0.01 -0.01,0.02 -0.01,0.03 -0.03,0.08 -0.06,0.15 -0.03,0.09 -0.08,0.2 -0.13,0.32 -0.05,0.12 -0.11,0.23 -0.17,0.32 -0.06,0.1 -0.13,0.15 -0.2,0.17 -0.09,0.02 -0.16,-0.04 -0.18,-0.17 -0.02,-0.12 -0.02,-0.28 0.02,-0.48 0.04,-0.2 0.11,-0.42 0.21,-0.66 -0.06,0.01 -0.09,0.03 -0.12,0.04 -0,0 -0.01,0 -0.01,0.01 -0.01,0 -0.03,-0 -0.04,-0.01 -0.01,-0.01 -0.02,-0.02 -0.02,-0.04 -0,-0.01 -0,-0.03 0.01,-0.05 0.01,-0.02 0.02,-0.03 0.04,-0.04 0.02,-0.01 0.06,-0.02 0.1,-0.03 0.03,-0.01 0.07,-0.01 0.12,-0.02 0.04,-0.09 0.09,-0.17 0.14,-0.25zm0.25 0.67c0.03,-0.04 0.06,-0.06 0.09,-0.07 0.02,-0 0.04,-0 0.06,0.01 0.02,0.01 0.03,0.03 0.04,0.05 0,0.02 0,0.04 -0.01,0.06 -0.02,0.06 -0.05,0.13 -0.09,0.21 -0.03,0.07 -0.07,0.14 -0.1,0.21 -0.03,0.07 -0.06,0.15 -0.07,0.22 -0.02,0.07 -0.02,0.13 -0.01,0.19l0 0.02c0.01,0.03 -0,0.05 -0.03,0.06 -0.02,0 -0.04,-0 -0.07,-0.03 -0.03,-0.02 -0.05,-0.06 -0.06,-0.12 -0.02,-0.1 -0.02,-0.21 0.01,-0.32 0.03,-0.11 0.07,-0.21 0.11,-0.3 0.05,-0.09 0.08,-0.15 0.11,-0.19 0,-0.01 0.01,-0.01 0.01,-0.02zm0.22 -0.4c0.01,-0.02 0.03,-0.03 0.05,-0.03 0.02,-0 0.05,-0 0.07,0.01 0.02,0.01 0.03,0.03 0.04,0.05 0,0.02 -0,0.04 -0.01,0.06 -0.01,0.02 -0.03,0.05 -0.06,0.09 -0.03,0.04 -0.05,0.07 -0.07,0.09 -0.01,0.02 -0.03,0.02 -0.04,0.03 -0.02,0 -0.03,0 -0.04,-0.01 -0.01,-0.01 -0.02,-0.02 -0.02,-0.04 -0,-0.01 -0,-0.02 0,-0.03 0,-0.01 0.01,-0.04 0.02,-0.06 0.01,-0.03 0.02,-0.06 0.04,-0.09 0.01,-0.03 0.02,-0.05 0.04,-0.07zm0.64 -0.19c0.06,-0.01 0.11,-0 0.14,0.03 0.03,0.03 0.05,0.08 0.06,0.13 0.01,0.05 0.01,0.11 0.01,0.16 -0.01,0.06 -0.02,0.1 -0.04,0.13 -0.01,0.02 -0.03,0.04 -0.05,0.06 0,0.01 0,0.01 0,0.01 0,0 -0,0.01 -0,0.01 -0,0.01 -0,0.01 -0,0.02 -0,0.05 -0.01,0.12 -0.03,0.23 -0.01,0.11 -0.03,0.23 -0.06,0.37 -0.03,0.14 -0.06,0.27 -0.11,0.41 -0.05,0.13 -0.1,0.25 -0.17,0.34 -0.07,0.1 -0.15,0.16 -0.25,0.18 -0.06,0.01 -0.11,0.01 -0.14,-0.01 -0.04,-0.02 -0.06,-0.04 -0.08,-0.07 -0.02,-0.03 -0.03,-0.07 -0.04,-0.11 -0.01,-0.06 -0.02,-0.11 -0.01,-0.16 0,-0.05 0.01,-0.09 0.01,-0.1 0.01,-0.03 0.02,-0.05 0.04,-0.05 0.01,-0 0.02,0.01 0.03,0.02l0 0.01c0,0.01 0,0.03 0,0.05 0,0.02 0.01,0.04 0.01,0.07 0.01,0.04 0.02,0.08 0.04,0.11 0.02,0.03 0.05,0.04 0.09,0.04 0.07,-0.01 0.13,-0.07 0.18,-0.18 0.06,-0.1 0.11,-0.23 0.15,-0.37 0.04,-0.14 0.08,-0.27 0.11,-0.41 -0.07,0.14 -0.13,0.26 -0.21,0.37 -0.07,0.11 -0.13,0.16 -0.19,0.18l-0 0c-0.04,0.01 -0.08,-0 -0.11,-0.03 -0.03,-0.03 -0.05,-0.06 -0.06,-0.11 -0.02,-0.09 -0.01,-0.2 0.01,-0.34 0.03,-0.14 0.07,-0.28 0.14,-0.43 0.06,-0.14 0.14,-0.27 0.23,-0.38 0.09,-0.11 0.19,-0.17 0.3,-0.2zm0.04 0.41c0.01,-0.05 0.01,-0.09 0.01,-0.12 -0,-0.02 -0.02,-0.03 -0.03,-0.03 -0.04,0.01 -0.09,0.06 -0.15,0.16 -0.06,0.1 -0.12,0.22 -0.17,0.35 -0.05,0.13 -0.08,0.25 -0.09,0.36 0.07,-0.11 0.14,-0.22 0.21,-0.35 0.09,-0.14 0.16,-0.27 0.23,-0.37zm0.66 -0.43c0.05,-0.01 0.09,-0 0.11,0.02 0.03,0.03 0.04,0.06 0.05,0.09 0.01,0.03 0.01,0.06 0,0.09 -0.01,0.03 -0.02,0.05 -0.04,0.07 0.01,0.08 0.02,0.17 0.01,0.28 -0.01,0.11 -0.02,0.21 -0.05,0.32 -0.03,0.11 -0.07,0.2 -0.13,0.28 -0.06,0.08 -0.13,0.13 -0.22,0.15 -0.07,0.02 -0.13,0 -0.17,-0.04 -0.04,-0.04 -0.07,-0.1 -0.09,-0.17 -0.02,-0.09 -0.02,-0.19 -0,-0.31 0.02,-0.12 0.05,-0.23 0.1,-0.34 0.05,-0.11 0.11,-0.21 0.18,-0.29 0.07,-0.08 0.15,-0.13 0.25,-0.15zm-0.22 1.13c0.1,-0.1 0.17,-0.24 0.2,-0.39 0.04,-0.16 0.05,-0.29 0.03,-0.41 -0.11,0.07 -0.18,0.19 -0.22,0.35 -0.04,0.16 -0.05,0.3 -0.02,0.41 0,0.02 0.01,0.03 0.01,0.04zm-2.13 2.44c0.09,-0.11 0.15,-0.25 0.17,-0.41 0.02,-0.16 0.02,-0.3 -0,-0.41 -0.1,0.08 -0.17,0.2 -0.2,0.37 -0.03,0.16 -0.02,0.3 0.01,0.41 0,0.02 0.01,0.03 0.02,0.04zm1.24 -1.3c0.02,-0.03 0.05,-0.05 0.07,-0.05 0.03,-0.01 0.05,-0.01 0.08,0 0.03,0.01 0.04,0.03 0.05,0.05 0.01,0.02 0,0.04 -0.01,0.07 -0.01,0.02 -0.02,0.04 -0.04,0.06 -0.03,0.05 -0.08,0.12 -0.12,0.2 -0.05,0.08 -0.09,0.17 -0.14,0.27 -0.04,0.1 -0.07,0.2 -0.1,0.29 -0.02,0.1 -0.02,0.19 0,0.27 0.01,0.02 0.01,0.04 0.02,0.05l0 0c0,0.01 -0,0.02 -0.02,0.03 -0.02,0.01 -0.04,-0 -0.08,-0.02 -0.03,-0.02 -0.06,-0.06 -0.08,-0.13 -0,-0.01 -0.01,-0.02 -0.01,-0.04 -0.01,-0.06 -0.01,-0.12 -0.01,-0.19 -0.06,0.11 -0.12,0.2 -0.17,0.28 -0.05,0.08 -0.1,0.12 -0.14,0.13 -0.05,0.01 -0.09,0.01 -0.12,-0.02 -0.03,-0.03 -0.06,-0.06 -0.07,-0.11 -0.03,-0.12 -0.03,-0.27 0.02,-0.46 0.05,-0.19 0.12,-0.37 0.24,-0.52 0.03,-0.03 0.05,-0.05 0.08,-0.06 0.03,-0.01 0.07,-0.01 0.1,0.01 0.03,0.02 0.05,0.04 0.06,0.06 0,0.01 0,0.03 -0,0.04 -0.17,0.34 -0.26,0.61 -0.26,0.8 0.06,-0.09 0.13,-0.2 0.21,-0.34 0.09,-0.16 0.18,-0.3 0.26,-0.43 0.06,-0.11 0.11,-0.2 0.18,-0.28zm0.75 -0.51c0.06,-0.02 0.11,-0.01 0.14,0.02 0.03,0.03 0.06,0.07 0.07,0.12 0.02,0.05 0.02,0.11 0.02,0.16 -0,0.06 -0.01,0.1 -0.03,0.14 -0.01,0.02 -0.03,0.05 -0.05,0.07 0,0 0,0.01 0,0.01 0,0 0,0.01 0,0.01 -0,0.01 -0,0.01 0,0.02 -0,0.05 -0,0.12 -0.01,0.23 -0,0.11 -0.02,0.23 -0.03,0.37 -0.02,0.14 -0.04,0.28 -0.08,0.42 -0.04,0.14 -0.08,0.26 -0.15,0.36 -0.06,0.1 -0.14,0.17 -0.24,0.2 -0.06,0.02 -0.1,0.02 -0.14,0.01 -0.04,-0.01 -0.07,-0.04 -0.09,-0.07 -0.02,-0.03 -0.04,-0.07 -0.05,-0.1 -0.02,-0.06 -0.02,-0.11 -0.02,-0.16 -0,-0.05 0,-0.09 0.01,-0.1 0.01,-0.03 0.02,-0.05 0.03,-0.05 0.01,-0 0.02,0 0.03,0.02l0 0.01c0,0.01 0,0.03 0.01,0.05 0,0.02 0.01,0.04 0.02,0.07 0.01,0.04 0.03,0.07 0.05,0.11 0.02,0.03 0.05,0.04 0.09,0.03 0.07,-0.02 0.12,-0.08 0.17,-0.19 0.05,-0.11 0.09,-0.23 0.12,-0.38 0.03,-0.14 0.06,-0.28 0.08,-0.42 -0.06,0.14 -0.12,0.27 -0.18,0.38 -0.06,0.11 -0.12,0.18 -0.18,0.19l-0 0c-0.04,0.01 -0.08,0 -0.11,-0.02 -0.03,-0.02 -0.05,-0.06 -0.06,-0.11 -0.03,-0.09 -0.03,-0.2 -0.01,-0.35 0.02,-0.14 0.05,-0.29 0.1,-0.44 0.05,-0.15 0.12,-0.28 0.2,-0.39 0.08,-0.11 0.18,-0.19 0.28,-0.22zm0.07 0.4c0.01,-0.05 0.01,-0.09 -0,-0.12 -0.01,-0.02 -0.02,-0.03 -0.04,-0.03 -0.04,0.01 -0.08,0.07 -0.14,0.17 -0.06,0.1 -0.1,0.22 -0.15,0.36 -0.04,0.13 -0.06,0.26 -0.07,0.37 0.06,-0.11 0.12,-0.23 0.19,-0.37 0.08,-0.15 0.14,-0.28 0.2,-0.39z"/>
 </g>
</svg>
