<?xml version="1.0" encoding="UTF-8"?>
<!DOCTYPE svg PUBLIC "-//W3C//DTD SVG 1.1//EN" "http://www.w3.org/Graphics/SVG/1.1/DTD/svg11.dtd">
<!-- Creator: CorelDRAW 2021.5 -->
<svg xmlns="http://www.w3.org/2000/svg" xml:space="preserve" width="1.13631in" height="0.236437in" version="1.1" style="shape-rendering:geometricPrecision; text-rendering:geometricPrecision; image-rendering:optimizeQuality; fill-rule:evenodd; clip-rule:evenodd"
viewBox="0 0 17.09 3.56"
 xmlns:xlink="http://www.w3.org/1999/xlink"
 xmlns:xodm="http://www.corel.com/coreldraw/odm/2003">
 <defs>
  <style type="text/css">
   <![CDATA[
    .fil0 {fill:#FEFEFE}
   ]]>
  </style>
 </defs>
 <g id="Capa_x0020_1">
  <metadata id="CorelCorpID_0Corel-Layer"/>
  <g id="_3020853106992">
   <path class="fil0" d="M0.39 2.66c0.02,-0.14 0.64,-1.55 0.75,-1.81 0.08,-0.19 0.16,-0.41 0.25,-0.59l0.77 0 1 2.41 -0.77 -0.07c-0.13,-0.28 -0.41,-1.12 -0.55,-1.49l-0.06 -0.16c-0.03,-0.05 0.01,-0 -0.04,-0.04 -0.03,0.13 -0.63,1.63 -0.66,1.66l-0.7 0.09zm1.2 -2.64c-0.31,0.05 -0.43,0.07 -0.68,0.21 -0.19,0.1 -0.36,0.26 -0.49,0.4 -0.98,1.14 -0.16,3.07 1.55,2.92 0.89,-0.08 1.68,-0.92 1.57,-1.96 -0.1,-0.99 -1.03,-1.71 -1.95,-1.57z"/>
   <path class="fil0" d="M13.61 1.39l-0.04 -0.1 -0.41 0c-0.01,0 -0.01,0 -0.02,0 -0,0 -0.01,0 -0.02,0 -0.06,0.01 -0.03,1.05 -0.02,1.2l0.51 0 0.01 -0.56c-0,-0.14 0.05,-0.29 0.21,-0.25 0.16,0.04 0.11,0.37 0.11,0.59l0 0.22 0.52 0.01c0.05,-0.21 -0.12,-0.93 0.23,-0.81 0.15,0.05 0.1,0.47 0.1,0.6l0 0.2 0.52 0 0 -0.58c0,-0.31 -0.04,-0.51 -0.27,-0.61 -0.16,-0.07 -0.38,-0.06 -0.54,0.03 -0.08,0.05 -0.05,0.06 -0.16,0.1 -0.07,-0.1 -0.19,-0.16 -0.34,-0.17 -0.24,-0.01 -0.26,0.04 -0.41,0.12z"/>
   <path class="fil0" d="M8.53 1.67c0.27,-0.13 0.41,0.36 0.15,0.45 -0.14,0.05 -0.26,-0.03 -0.29,-0.15 -0.04,-0.17 0.03,-0.25 0.14,-0.3zm-0.15 -0.3c-0.03,-0.07 0.05,-0.08 -0.22,-0.07 -0.1,0 -0.2,0 -0.3,0l-0 1.63c0.13,0 0.42,0.02 0.53,-0.01l0 -0.48c0.16,0.04 0.38,0.17 0.69,-0.02 0.16,-0.1 0.27,-0.29 0.26,-0.56 -0.01,-0.39 -0.3,-0.6 -0.65,-0.59 -0.17,0.01 -0.18,0.04 -0.31,0.1z"/>
   <path class="fil0" d="M6.74 1.66c0.27,-0.13 0.43,0.33 0.19,0.45 -0.3,0.15 -0.45,-0.32 -0.19,-0.45zm-0.12 -0.31c-0.07,-0.08 -0,-0.07 -0.28,-0.07l-0.25 0 -0 1.63c0.2,0.02 0.32,0.01 0.53,0.01l0 -0.49c0.1,0.02 0.33,0.19 0.66,0.01 0.4,-0.22 0.4,-0.86 0.01,-1.09 -0.25,-0.14 -0.46,-0.09 -0.67,0.01z"/>
   <path class="fil0" d="M10.26 1.67c0.27,-0.14 0.42,0.34 0.17,0.45 -0.27,0.12 -0.46,-0.3 -0.17,-0.45zm0.29 -0.32c-0.1,-0.02 -0.35,-0.18 -0.67,0 -0.47,0.27 -0.38,1.18 0.35,1.17 0.2,-0 0.21,-0.05 0.33,-0.1l0.04 0.08 0.46 0 0 -1.65 -0.52 0 -0 0.5z"/>
   <path class="fil0" d="M3.91 2.5l0.54 -0c0.1,-0.17 0.36,-0.98 0.43,-1.03 0.09,0.11 0.33,0.88 0.43,1.02l0.55 0.01c-0.02,-0.1 -0.65,-1.44 -0.71,-1.54l-0.53 -0c-0.05,0.06 -0.7,1.46 -0.72,1.55z"/>
   <path class="fil0" d="M15.73 2.53c-0.05,0.06 -0.16,0.27 -0.16,0.34 0.2,0.1 0.45,0.12 0.66,0.04 0.2,-0.08 0.29,-0.25 0.37,-0.45 0.08,-0.19 0.47,-1.05 0.48,-1.16 -0.63,-0.05 -0.44,-0.05 -0.74,0.62 -0.06,-0.02 -0.11,-0.18 -0.15,-0.29 -0.05,-0.11 -0.08,-0.24 -0.14,-0.33l-0.52 -0c0.01,0.12 0.25,0.59 0.31,0.74 0.23,0.53 0.33,0.61 -0.11,0.5z"/>
   <path class="fil0" d="M12.7 2.33c-0.05,-0.08 -0.19,-0.21 -0.26,-0.25 -0.1,0.05 -0.14,0.09 -0.3,0.08 -0.11,-0.01 -0.21,-0.05 -0.23,-0.15l0.89 -0c0.03,-0.97 -1.12,-0.87 -1.37,-0.39 -0.33,0.64 0.46,1.09 1.07,0.85l0.15 -0.08c0.05,-0.05 0.01,-0.01 0.04,-0.05z"/>
  </g>
 </g>
</svg>
