<?xml version="1.0" encoding="UTF-8"?>
<!DOCTYPE svg PUBLIC "-//W3C//DTD SVG 1.1//EN" "http://www.w3.org/Graphics/SVG/1.1/DTD/svg11.dtd">
<!-- Creator: CorelDRAW 2021.5 -->
<svg xmlns="http://www.w3.org/2000/svg" xml:space="preserve" width="0.971992in" height="0.168976in" version="1.1" style="shape-rendering:geometricPrecision; text-rendering:geometricPrecision; image-rendering:optimizeQuality; fill-rule:evenodd; clip-rule:evenodd"
viewBox="0 0 12.1 2.1"
 xmlns:xlink="http://www.w3.org/1999/xlink"
 xmlns:xodm="http://www.corel.com/coreldraw/odm/2003">
 <defs>
  <style type="text/css">
   <![CDATA[
    .fil0 {fill:#FEFEFE;fill-rule:nonzero}
   ]]>
  </style>
 </defs>
 <g id="Capa_x0020_1">
  <metadata id="CorelCorpID_0Corel-Layer"/>
  <g id="logo-it.svg">
   <g id="__x0023_0060a5ff">
    <g>
     <path class="fil0" d="M9.99 0l2.02 0c0.05,0 0.09,0.04 0.1,0.09l0 1.91c-0,0.05 -0.05,0.09 -0.1,0.1l-2.02 0c-0.05,-0 -0.1,-0.05 -0.1,-0.11 -0,-0.63 -0,-1.26 -0,-1.89 -0,-0.05 0.04,-0.1 0.1,-0.11l0 0zm0.37 0.45c-0.06,0.01 -0.09,0.07 -0.09,0.12 -0,0.31 0,0.63 -0,0.94 -0,0.03 0,0.06 0.02,0.08 0.05,0.08 0.18,0.08 0.23,-0 0.02,-0.04 0.02,-0.08 0.02,-0.13 -0,-0.3 0,-0.59 -0,-0.89 0,-0.04 -0.01,-0.08 -0.04,-0.1 -0.03,-0.03 -0.09,-0.04 -0.13,-0.03l0 0zm0.34 0.05c-0.04,0.04 -0.04,0.11 0,0.15 0.03,0.03 0.07,0.04 0.11,0.04 0.08,0 0.17,-0 0.25,0 0,0.28 0,0.55 0,0.83 -0,0.03 0,0.06 0.02,0.08 0.05,0.08 0.18,0.08 0.23,0 0.02,-0.03 0.02,-0.06 0.02,-0.09 -0,-0.27 -0,-0.55 0,-0.82 0.07,0 0.14,0 0.2,0 0.05,0 0.1,0 0.14,-0.03 0.05,-0.03 0.06,-0.11 0.02,-0.15 -0.03,-0.03 -0.07,-0.04 -0.11,-0.04 -0.25,0 -0.51,0 -0.76,0 -0.04,-0 -0.08,0.01 -0.11,0.04z"/>
    </g>
   </g>
   <g id="__x0023_2c2624ff">
    <path class="fil0" d="M7.82 0.05c0.03,-0.01 0.07,-0 0.09,0.02 0.02,0.02 0.03,0.06 0.03,0.09 -0.01,0.03 -0.04,0.06 -0.07,0.08 -0.06,0.04 -0.11,0.08 -0.17,0.11 -0.03,0.02 -0.08,0.03 -0.11,0 -0.04,-0.03 -0.05,-0.09 -0.01,-0.13 0.04,-0.04 0.08,-0.06 0.12,-0.1 0.04,-0.03 0.08,-0.07 0.12,-0.08z"/>
    <path class="fil0" d="M3.86 0.39c0.09,-0.01 0.17,-0.01 0.26,0.01 0.06,0.01 0.13,0.04 0.18,0.08 0.03,0.03 0.05,0.08 0.04,0.12 -0.01,0.05 -0.04,0.09 -0.09,0.1 -0.05,0.01 -0.09,-0.02 -0.14,-0.03 -0.1,-0.04 -0.21,-0.04 -0.31,0 -0.09,0.04 -0.14,0.13 -0.17,0.22 -0.03,0.1 -0.03,0.21 -0,0.3 0.02,0.09 0.08,0.17 0.16,0.21 0.1,0.05 0.22,0.05 0.32,0 0.04,-0.02 0.08,-0.04 0.13,-0.04 0.05,0 0.08,0.04 0.1,0.08 0.02,0.05 0,0.11 -0.04,0.15 -0.05,0.05 -0.11,0.07 -0.17,0.08 -0.13,0.03 -0.26,0.03 -0.38,-0.01 -0.11,-0.04 -0.21,-0.11 -0.28,-0.2 -0.08,-0.1 -0.13,-0.23 -0.14,-0.36 -0.01,-0.13 0.01,-0.27 0.07,-0.39 0.04,-0.09 0.11,-0.17 0.19,-0.23 0.08,-0.06 0.17,-0.09 0.27,-0.1z"/>
    <path class="fil0" d="M4.88 0.41c0.06,-0.03 0.14,-0.03 0.2,0.01 0.04,0.03 0.07,0.07 0.08,0.12 0.12,0.33 0.24,0.66 0.35,0.98 0.01,0.04 0.02,0.08 -0,0.12 -0.04,0.07 -0.15,0.08 -0.2,0.02 -0.02,-0.02 -0.03,-0.04 -0.04,-0.07 -0.05,-0.16 -0.1,-0.31 -0.15,-0.47 0.03,-0 0.06,-0.01 0.09,-0.01 0.01,-0 0.02,-0.02 0.01,-0.03 -0.08,-0.11 -0.16,-0.22 -0.25,-0.33 -0.01,-0.01 -0.03,-0.01 -0.03,0.01 -0.02,0.14 -0.04,0.27 -0.06,0.41 -0,0.01 -0,0.02 0,0.02 0.04,0 0.08,-0.01 0.11,-0.03 0.03,0.09 0.06,0.18 0.09,0.27 -0.12,0 -0.24,-0 -0.37,0 -0.02,0.05 -0.04,0.11 -0.05,0.16 -0.01,0.03 -0.03,0.06 -0.06,0.08 -0.06,0.03 -0.14,0.02 -0.18,-0.03 -0.03,-0.04 -0.03,-0.09 -0.01,-0.13 0.12,-0.33 0.24,-0.65 0.36,-0.98 0.02,-0.05 0.05,-0.1 0.1,-0.13z"/>
    <path class="fil0" d="M6.09 0.39c0.11,-0.01 0.22,-0 0.32,0.03 0.05,0.02 0.1,0.04 0.13,0.09 0.03,0.05 0.03,0.12 -0.01,0.16 -0.02,0.03 -0.06,0.04 -0.09,0.04 -0.04,-0 -0.08,-0.02 -0.12,-0.04 -0.09,-0.03 -0.2,-0.04 -0.29,0 -0.08,0.04 -0.14,0.12 -0.17,0.2 -0.03,0.1 -0.04,0.21 -0.01,0.31 0.02,0.09 0.07,0.17 0.15,0.22 0.1,0.06 0.22,0.05 0.33,0.01 0.05,-0.02 0.09,-0.05 0.14,-0.04 0.07,0.01 0.12,0.09 0.1,0.16 -0.02,0.07 -0.08,0.1 -0.14,0.13 -0.1,0.04 -0.21,0.05 -0.31,0.04 -0.12,-0.01 -0.24,-0.05 -0.33,-0.13 -0.09,-0.07 -0.16,-0.17 -0.19,-0.28 -0.04,-0.12 -0.05,-0.25 -0.03,-0.38 0.02,-0.13 0.08,-0.26 0.17,-0.36 0.09,-0.1 0.22,-0.16 0.35,-0.17z"/>
    <path class="fil0" d="M2.23 0.4c0.04,-0.01 0.1,-0.01 0.13,0.02 0.03,0.03 0.05,0.07 0.05,0.11 0,0.21 -0,0.42 0,0.63 0,0.08 0.03,0.16 0.09,0.22 0.07,0.07 0.18,0.09 0.27,0.06 0.07,-0.02 0.13,-0.08 0.16,-0.15 0.02,-0.04 0.03,-0.09 0.03,-0.14 -0,-0.21 0,-0.41 -0,-0.62 -0,-0.04 0.01,-0.08 0.04,-0.11 0.04,-0.04 0.11,-0.05 0.16,-0.02 0.04,0.02 0.07,0.07 0.07,0.12 0,0.19 0,0.39 0,0.58 -0,0.04 0,0.09 -0,0.13 -0.01,0.11 -0.06,0.21 -0.14,0.29 -0.08,0.08 -0.18,0.14 -0.29,0.16 -0.13,0.03 -0.28,0 -0.4,-0.07 -0.09,-0.05 -0.16,-0.13 -0.21,-0.22 -0.03,-0.07 -0.05,-0.15 -0.05,-0.23 -0,-0.21 0,-0.42 -0,-0.63 -0,-0.06 0.03,-0.13 0.09,-0.14z"/>
    <path class="fil0" d="M6.8 0.4c0.05,-0.01 0.1,-0 0.13,0.03 0.03,0.03 0.04,0.07 0.04,0.11 0,0.34 0,0.68 -0,1.02 0,0.04 -0.02,0.09 -0.05,0.12 -0.05,0.03 -0.11,0.03 -0.16,0 -0.04,-0.03 -0.06,-0.07 -0.06,-0.12 0,-0.34 -0,-0.68 0,-1.02 -0,-0.06 0.04,-0.12 0.1,-0.13z"/>
    <path class="fil0" d="M8.45 0.44c0.03,-0.04 0.08,-0.05 0.12,-0.04 0.04,0.01 0.07,0.03 0.1,0.06 0.19,0.25 0.38,0.51 0.57,0.76 0,-0.23 0,-0.46 0,-0.69 0,-0.03 0.01,-0.06 0.02,-0.08 0.05,-0.07 0.17,-0.07 0.22,-0 0.02,0.03 0.02,0.06 0.02,0.09 0,0.33 -0,0.67 0,1 0,0.03 -0,0.07 -0.02,0.1 -0.03,0.05 -0.09,0.07 -0.14,0.05 -0.04,-0.01 -0.07,-0.03 -0.09,-0.06 -0.16,-0.21 -0.32,-0.42 -0.48,-0.63 -0.03,-0.04 -0.06,-0.08 -0.09,-0.12 -0,0.23 0,0.45 -0,0.68 -0,0.04 -0.01,0.08 -0.05,0.11 -0.04,0.03 -0.09,0.04 -0.14,0.02 -0.04,-0.01 -0.07,-0.04 -0.08,-0.08 -0.01,-0.03 -0.01,-0.05 -0.01,-0.08 0,-0.33 0,-0.66 0,-0.99 -0,-0.03 0.01,-0.07 0.03,-0.1z"/>
    <path class="fil0" d="M0.04 0.45c0.03,-0.03 0.07,-0.04 0.11,-0.04 0.16,-0 0.32,0 0.48,-0 0.05,-0 0.1,0.01 0.13,0.05 0.03,0.04 0.03,0.11 -0,0.15 -0.03,0.03 -0.07,0.05 -0.11,0.05 -0.12,0 -0.23,0 -0.35,0 -0,0.09 -0,0.17 0,0.26 0.11,0 0.22,-0 0.33,0 0.05,0 0.09,0.02 0.12,0.06 0.03,0.04 0.03,0.1 -0.01,0.14 -0.03,0.04 -0.07,0.05 -0.12,0.05 -0.11,0 -0.22,-0 -0.33,0 0,0.09 -0,0.18 0,0.27 0.12,-0 0.23,0 0.35,-0 0.05,-0 0.11,0.01 0.14,0.05 0.03,0.04 0.03,0.11 -0.01,0.15 -0.03,0.03 -0.07,0.05 -0.11,0.05 -0.17,0 -0.34,0 -0.51,0 -0.03,0 -0.07,-0.01 -0.1,-0.03 -0.03,-0.02 -0.05,-0.06 -0.06,-0.09l0 -1.02c0,-0.03 0.01,-0.07 0.04,-0.09z"/>
    <g>
     <path class="fil0" d="M1.07 0.41c0.11,-0 0.21,-0 0.32,-0 0.14,-0 0.28,0.03 0.4,0.11 0.1,0.07 0.18,0.19 0.21,0.31 0.03,0.12 0.04,0.24 0.02,0.36 -0.02,0.14 -0.08,0.27 -0.19,0.36 -0.11,0.09 -0.26,0.14 -0.4,0.14 -0.11,0 -0.22,0 -0.33,0 -0.04,0 -0.09,-0.01 -0.11,-0.05 -0.02,-0.02 -0.03,-0.06 -0.03,-0.09 -0,-0.33 0,-0.66 -0,-0.99 -0,-0.03 0,-0.06 0.02,-0.09 0.02,-0.04 0.06,-0.06 0.1,-0.07l0 0zm0.15 0.25c-0,0.26 -0,0.52 0,0.78 0.06,0 0.11,0 0.17,0 0.05,0 0.11,-0.01 0.16,-0.03 0.08,-0.03 0.14,-0.11 0.16,-0.19 0.03,-0.1 0.03,-0.2 0.01,-0.3 -0.02,-0.09 -0.08,-0.18 -0.17,-0.22 -0.1,-0.05 -0.22,-0.03 -0.34,-0.04z"/>
    </g>
    <g>
     <path class="fil0" d="M7.59 0.41c0.13,-0.02 0.27,-0.01 0.39,0.05 0.1,0.04 0.19,0.11 0.24,0.2 0.07,0.11 0.1,0.24 0.1,0.36 0,0.14 -0.03,0.29 -0.1,0.41 -0.06,0.09 -0.15,0.17 -0.25,0.22 -0.12,0.05 -0.26,0.06 -0.39,0.05 -0.12,-0.01 -0.23,-0.06 -0.32,-0.14 -0.1,-0.09 -0.16,-0.21 -0.18,-0.34 -0.02,-0.09 -0.02,-0.18 -0.01,-0.28 0.01,-0.13 0.06,-0.26 0.14,-0.35 0.09,-0.11 0.23,-0.17 0.37,-0.19l0 0zm0.05 0.23c-0.09,0.01 -0.18,0.07 -0.23,0.15 -0.06,0.1 -0.06,0.21 -0.06,0.32 0.01,0.09 0.03,0.19 0.09,0.26 0.05,0.06 0.12,0.09 0.19,0.1 0.08,0.01 0.17,0 0.25,-0.04 0.06,-0.04 0.1,-0.09 0.12,-0.16 0.04,-0.1 0.04,-0.2 0.03,-0.3 -0.01,-0.11 -0.05,-0.22 -0.14,-0.28 -0.08,-0.05 -0.17,-0.07 -0.26,-0.06z"/>
    </g>
   </g>
  </g>
 </g>
</svg>
