<?xml version="1.0" encoding="UTF-8"?>
<!DOCTYPE svg PUBLIC "-//W3C//DTD SVG 1.1//EN" "http://www.w3.org/Graphics/SVG/1.1/DTD/svg11.dtd">
<!-- Creator: CorelDRAW 2021.5 -->
<svg xmlns="http://www.w3.org/2000/svg" xml:space="preserve" width="3.8088in" height="2.27196in" version="1.1" style="shape-rendering:geometricPrecision; text-rendering:geometricPrecision; image-rendering:optimizeQuality; fill-rule:evenodd; clip-rule:evenodd"
viewBox="0 0 1031.75 615.44"
 xmlns:xlink="http://www.w3.org/1999/xlink"
 xmlns:xodm="http://www.corel.com/coreldraw/odm/2003">
 <defs>
  <style type="text/css">
   <![CDATA[
    .fil0 {fill:#FEFEFE;fill-rule:nonzero}
   ]]>
  </style>
 </defs>
 <g id="Layer_x0020_1">
  <metadata id="CorelCorpID_0Corel-Layer"/>
  <path class="fil0" d="M388.19 513.57c0.06,-0.82 -2.24,-0.77 -2.3,0.06 -0.99,14.55 -11.17,33.76 -20.19,41.58 0.77,-19.8 2.24,-39.68 3.72,-59.42 0.22,-3.57 -10.01,-3.68 -10.29,0.15 0,0.22 0,0.39 -0.06,0.62 -3.44,-4.56 -9.08,-7.06 -14.72,-4.05 -4.93,2.67 -7.66,8.85 -9.53,13.79 -2.45,6.63 -3.49,13.69 -3.06,20.74 0.34,5.21 0.93,13.41 5.04,17.3 3.66,3.4 9.68,3.83 13.9,1.16 2.69,-1.7 4.37,-4.6 5.59,-7.77 -0.99,17.56 -1.64,35.19 -1.36,52.76 0.15,10.35 1.63,27.91 16.31,24.57 8.74,-1.96 11.92,-22.16 9.9,-33.16 -1.92,-10.5 -5.96,-20.47 -15.32,-22.77 9.08,-5.74 20.08,-22.16 22.38,-45.53zm-29.95 -5.92c-3.18,8.7 -3.94,18.12 -7.21,26.88 -0.73,1.96 -1.44,4.05 -2.52,5.85 -0.39,0.65 -1.64,2.63 -2.75,2.3 -0.32,-0.11 -1.03,-1.64 -1.2,-1.96 -2.13,-3.94 -3.06,-8.71 -3.62,-13.13 -1.08,-8.54 -0.43,-18.01 2.52,-26.17 0.71,-1.91 1.59,-3.89 3.01,-5.42 2.47,-2.5 5.42,-1.31 7.4,1.27 2.02,2.67 3.06,5.9 4.48,8.97 0,0.5 -0.06,0.93 -0.11,1.42zm17.64 68.69c4.91,30.82 -5.7,34.09 -7.29,32.67 -0.22,-0.32 -0.43,-0.71 -0.65,-1.05 -3.51,-6.28 -2.8,-15.04 -2.86,-21.99 -0.04,-8.11 0.11,-16.16 0.34,-24.19 5.81,2.02 9.58,8.8 10.46,14.55zm57.46 -58.06c-0.99,9.13 -3.61,18.27 -6.46,27.03 -1.31,4 -2.73,7.34 -5.03,10.84 0,-0.06 0,-0.06 -0.06,-0.11 -0.43,-0.65 -0.82,-1.36 -1.1,-2.07 -0.77,-1.76 -1.03,-3.72 -1.36,-5.64 -2.95,-17.07 1.1,-35.91 0.28,-53.09 -0.22,-3.66 -10.29,-1.74 -9.96,1.7 0.04,0.5 0.04,0.93 0.04,1.42 -0.09,9.81 -7.38,43.62 -10.84,44.89 -3.77,1.36 -5.14,-6.86 -5.14,-6.86 -0.99,-4.03 -1.42,-8.26 -1.64,-12.42 -0.32,-4.65 -0.22,-23.69 -0.32,-28.4 -0.06,-4 -6.3,-2.41 -7.83,-0.49 -2.2,2.62 -2.09,10.93 -2.15,17.5 -0.11,5.81 0,11.71 0.65,17.47 0.99,8.63 4.56,21.88 15.34,18.38 6.24,-2.02 7.38,-11.99 10.67,-22.27 -0.11,1.74 -0.22,3.55 -0.28,5.36 -0.15,5.68 0,11.38 1.05,17.02 0.71,3.94 1.48,8.7 5.19,11 7.29,4.37 12.22,-1.64 14.4,-8.39 3.61,-10.93 6.95,-21.5 6.41,-32.94 0,-0.28 -1.81,-0.22 -1.87,0.06zm22.01 2.02c4.82,-8.09 12.91,-33.81 -3.94,-33.78 -14.95,0.06 -20.96,20.92 -21.61,32.69 -0.45,7.27 -0.45,15.86 2.67,22.58 3.23,6.91 10.13,10.18 17.52,9.64 7.83,-0.54 14.5,-7.77 18.92,-17.13 3.51,-7.29 6.69,-15.97 8.05,-21.84 0.49,-2.13 -2.3,-2.3 -2.69,-0.06 -1.03,5.75 -5.9,16.7 -7.38,19.17 -3.46,5.62 -8.76,14.07 -15.82,13.79 -8.09,-0.34 -10.61,-8.22 -11.15,-16.2 0.43,0.06 0.86,0.17 1.31,0.17 6.41,0.54 11.06,-3.89 14.12,-9.04zm-15.54 4.76c0,-4.43 0.43,-8.48 0.65,-10.83 1.53,-15.6 8.91,-25.18 12.2,-23.26 2.63,1.48 2.69,6.61 2.63,9.14 -0.11,6.58 -2.13,13.13 -5.36,18.89 -1.7,2.95 -5.04,8.71 -9.42,6.5 -0.28,-0.09 -0.5,-0.26 -0.71,-0.43zm17.07 -57.63c2.13,0.28 0.43,-3.29 -2.35,-3.83 -3.34,-0.65 -6.84,8.71 -6.3,17.3 0.11,1.25 2.41,2.07 2.41,0.82 0,0 6.24,-14.29 6.24,-14.29zm92.06 49.97c-1.53,7.49 -3.83,14.55 -6.95,21.5 -0.77,1.7 -1.42,3.57 -2.52,5.16 -0.54,0.82 -1.2,1.63 -1.91,2.3 -0.28,-0.28 -0.49,-0.56 -0.71,-0.82 -1.05,-1.7 -1.53,-3.62 -1.92,-5.53 -2.62,-12.76 -2.9,-26.43 -2.47,-39.51 8,-11.71 12.93,-26.55 15.51,-40.07 0.82,-4.54 2.07,-19.54 -1.76,-24.02 -4.43,-5.19 -11.99,-1.7 -14.72,4.99 -3.17,7.87 -4.6,17.07 -6.07,25.39 -1.44,7.94 -2.41,15.92 -2.97,23.97 -1.59,-0.77 -3.66,-1.14 -5.03,-1.14 -6.18,-0.06 -9.81,4.31 -12.42,9.36 -6.13,12.03 -9.25,28.99 -5.81,42.24 1.42,5.42 4.54,10.72 10.69,10.89 7.15,0.17 9.13,-5.74 10.98,-11.49 0.82,-2.52 1.59,-5.08 2.3,-7.66 0.45,5.59 1.44,11.21 4.39,15.26 3.94,5.42 13.08,5.92 15.32,-1.14 3.06,-9.7 5.53,-19.6 6.89,-29.67 0.06,-0.28 -0.77,-0.28 -0.82,0zm-10.89 -62.06c0.77,-3.51 1.64,-6.95 2.63,-10.41 0.37,-1.36 0.77,-2.78 1.47,-4 0.82,-1.36 1.64,0.6 1.64,0.6 2.13,7.45 1.53,14.29 0,21.89 -1.64,7.71 -4,15.37 -7.12,22.66 -1.2,2.78 -2.58,5.42 -4,8.05 0.71,-13.08 2.47,-26.06 5.36,-38.8zm-16.08 55.54c-0.43,4.33 -1.1,8.59 -1.96,12.87 -1.16,5.53 -2.8,10.89 -4.76,16.14 -0.82,2.02 -1.27,4.11 -3.18,5.96 -1.21,1.16 -2.04,1.21 -3.06,-0.32 -0.67,-0.93 -1.1,-2.19 -1.38,-3.29 -2.02,-8.11 -0.97,-19.37 0.93,-28.3 1.05,-4.76 2.3,-9.51 4.54,-13.9 0.77,-1.47 2.86,-4.17 4.6,-4.71 1.53,-0.43 3.85,1.27 4.33,4 0,0 0,0 0,0 -0.11,3.83 -0.11,7.66 -0.06,11.54zm76.29 7.4c-0.99,9.13 -3.61,18.27 -6.46,27.03 -1.31,4 -2.73,7.34 -5.03,10.84 0,-0.06 0,-0.06 -0.06,-0.11 -0.43,-0.65 -0.82,-1.36 -1.1,-2.07 -0.77,-1.76 -1.03,-3.72 -1.36,-5.64 -2.95,-17.07 1.1,-35.91 0.28,-53.09 -0.22,-3.66 -10.29,-1.74 -9.96,1.7 0.04,0.5 0.04,0.93 0.04,1.42 -0.09,9.81 -7.38,43.62 -10.84,44.89 -3.77,1.36 -5.14,-6.86 -5.14,-6.86 -0.99,-4.03 -1.42,-8.26 -1.64,-12.42 -0.32,-4.65 -0.22,-23.69 -0.32,-28.4 -0.06,-4 -6.3,-2.41 -7.83,-0.49 -2.2,2.62 -2.09,10.93 -2.15,17.5 -0.11,5.81 0,11.71 0.65,17.47 0.99,8.63 4.56,21.88 15.34,18.38 6.24,-2.02 7.38,-11.99 10.67,-22.27 -0.11,1.74 -0.22,3.55 -0.28,5.36 -0.15,5.68 0,11.38 1.05,17.02 0.71,3.94 1.48,8.7 5.19,11 7.29,4.37 12.22,-1.64 14.4,-8.39 3.61,-10.93 6.95,-21.5 6.41,-32.94 0,-0.28 -1.81,-0.22 -1.87,0.06zm34.88 -2.63c0.54,-2.24 -1.76,-3.66 -2.63,-1.05 -1.36,4 -6.78,34.77 -13.53,35.08 -2.3,0.11 -3.12,-0.97 -4.26,-2.84 -1.87,-3.06 -3.06,-6.58 -4,-10.01 -1.92,-7.66 -2.47,-15.82 -2.58,-23.65 -0.06,-3.83 0,-10.61 0.22,-14.44 16.25,-21.3 25.39,-55.33 18.49,-62.94 -2.19,-2.41 -4.71,-3.12 -7.66,-2.09 -3.29,1.1 -7.55,5.36 -12.96,20.64 -6.52,18.38 -8.82,39.62 -8.43,59.05 0.26,12.31 1.59,44.98 21.02,42.2 8.8,-1.27 12.09,-21.13 16.31,-39.96zm-21.95 -49.8c1.42,-7.38 6.61,-27.03 11.06,-28.4 6.73,9.73 -11.17,48.65 -14.83,52.05 0.92,-7.94 2.24,-15.82 3.77,-23.65zm59.37 46.91c-9.58,45.81 -26.75,35.4 -29.16,32.56 -3.17,-3.77 -3.51,-7.55 -3.74,-12.31 -0.49,-9.75 0.77,-20.19 4.82,-29.12 0.88,-2.02 1.87,-4.11 3.18,-5.85 1.81,-2.41 1.81,-1.16 2.75,1.36 1.96,5.47 0.71,10.61 0.82,16.14 0,3.34 8.69,1.1 9.19,-1.42 0.6,-3.34 2.13,-13.84 -1.76,-19.32 -3.46,-4.82 -10.67,-5.53 -15.65,-2.84 -6.46,3.44 -9.42,11.97 -11.17,18.55 -1.85,7.12 -2.67,14.61 -2.39,21.95 0.21,6.61 1.85,13.56 6.84,18.27 4.2,4.05 11.83,4.93 17.45,3.83 10.95,-2.13 19.22,-19.77 20.36,-41.98 0,-0.34 -1.31,-0.93 -1.53,0.17zm21.95 7.55c4.82,-8.09 12.91,-33.81 -3.94,-33.78 -14.95,0.06 -20.96,20.92 -21.61,32.69 -0.45,7.27 -0.45,15.86 2.67,22.58 3.23,6.91 10.13,10.18 17.52,9.64 7.83,-0.54 14.5,-7.77 18.92,-17.13 3.51,-7.29 6.69,-15.97 8.05,-21.84 0.49,-2.13 -2.3,-2.3 -2.69,-0.06 -1.03,5.75 -5.9,16.7 -7.38,19.17 -3.46,5.62 -8.76,14.07 -15.82,13.79 -8.09,-0.34 -10.61,-8.22 -11.15,-16.2 0.43,0.06 0.86,0.17 1.31,0.17 6.41,0.54 11.06,-3.89 14.12,-9.04zm-15.54 4.76c0,-4.43 0.43,-8.48 0.65,-10.83 1.53,-15.6 8.91,-25.18 12.2,-23.26 2.63,1.48 2.69,6.61 2.63,9.14 -0.11,6.58 -2.13,13.13 -5.36,18.89 -1.7,2.95 -5.04,8.71 -9.42,6.5 -0.28,-0.09 -0.5,-0.26 -0.71,-0.43z"/>
  <path class="fil0" d="M987.73 393.15c-5.89,4.02 -3.59,9.08 2.87,10.73 6.96,1.77 13.5,0.98 20.57,0.17 2.43,-0.28 5,-0.72 7.47,-1 1.92,-0.22 2.76,-0.17 2.43,-0.33 18.3,-4.2 12.83,-18.77 -14.54,-14.27 -6.18,1.02 -13.54,1.11 -18.8,4.7z"/>
  <path class="fil0" d="M980.1 330c0.79,10.66 -1.18,29.16 4.87,38.21 5.95,8.91 35.8,4.51 29.47,-4.87 -3.07,-4.55 -2.29,-15.87 -2.76,-21.51 -0.62,-7.46 -1.08,-14.94 -1.6,-22.39 -1.12,-15.87 -2.43,-31.74 -2.27,-47.61 1.43,-139.17 40.37,-254.93 0.83,-244.62 -11.62,3.03 -16.02,13.94 -18.47,25.6 -3.23,15.37 -4.66,31.4 -6.36,47.17 -3.32,30.73 -5.41,61.55 -6.47,92.29 -1.03,30.13 -0.88,60.1 0.17,90.24 0.55,15.86 1.42,31.63 2.6,47.5z"/>
  <path class="fil0" d="M984.03 218.52c5.68,-5 -2.11,-19.91 -7.6,-18 -17.12,5.96 -35.22,7.89 -51,-0.29 1.35,-20.02 1.38,-40.62 -0.29,-60.92 -1.97,-23.96 -0.31,-62.59 -30.22,-54.95 -25.02,6.39 -30.7,45.15 -27.62,70.44 3.34,27.42 16.36,48.5 35.22,60.63 -0.77,12.13 -2.4,24 -4.43,36.09 -4.69,27.92 -11.72,55.51 -21.75,81.51 -5.74,14.88 -19.74,56.17 -36.09,57.74 -30.4,2.93 -31.33,-107.42 -32.14,-129.92 -1.96,-54.18 1.44,-108.85 9.33,-162.44 2.48,-16.83 -41.36,-9.73 -44.85,9.62 -6.31,35 -9.27,82.35 -11.55,129.15 -4.83,99.35 -22.33,133.09 -40.9,128.86 0,-0.29 0,-0.29 -0.29,-0.58 -3.95,-7.02 -6.65,-15.82 -8.76,-23.96 -10.58,-40.92 -12.21,-87.67 -11.84,-130.88 0.19,-21.93 1.49,-44.46 3.95,-66.79 1.18,-10.67 3.53,-37.27 5.1,-48.21 2.35,-16.37 -39.4,-12.04 -43.11,3.66 -2.82,11.92 -7.02,47.08 -8.47,62.36 -2.77,29.26 -3.28,58.63 -2.02,87.96 1.9,44.26 3.51,110.64 34.74,141.47 13.6,13.42 33.49,16.91 49.85,9.91 17.78,-7.61 26.69,-27.06 31.56,-47.35 0.21,-0.87 0.29,-1.73 0.58,-2.89 0.87,3.46 1.48,6.84 2.31,10.2 7.62,30.97 26.48,55.77 54.95,58.32 28.19,2.53 46.39,-16.13 58.9,-43.98 14.8,-32.95 23.54,-72.16 29.93,-109.03 2.35,-13.53 4.52,-27.72 5.87,-42.06 21.75,5.68 41.48,2.02 60.63,-5.68zm-84.01 -115c7.89,17.51 4.77,58.9 4.52,72.47 -0.02,1.13 0,2.5 0,3.66 -5.39,-9.33 -8.06,-20.32 -9.04,-31.85 -0.73,-8.47 -1.15,-33.01 4.52,-44.27z"/>
  <path class="fil0" d="M651.23 205.92c0.58,30.12 -18.39,48.21 -47.74,57.45 0.29,-2.5 0.58,-5 0.58,-7.31 6.16,-69.67 -6.83,-117.02 -43.69,-149.45 -23.19,-20.31 -59.28,-22.23 -86.03,8.18 -27.62,31.56 -41.48,78.72 -30.99,117.6 -1.15,3.08 -2.02,7.03 -2.02,11.55 -0.77,35.8 4.23,175.92 86.03,170.62 41.19,-2.6 64.29,-69.1 73.62,-131.46 40.23,-15.78 62.44,-38.25 68.71,-74.1 1.35,-7.74 -15.68,-8.76 -18.47,-3.08zm-125.89 176.78c-22.23,1.35 -31.28,-51.39 -34.93,-93.93 18.86,8.47 42.54,9.82 67.08,6.16 -5,40.9 -15.2,86.61 -32.14,87.77zm-40.32 -224.71c13.57,-43.21 40.61,-69.67 62.65,-25.12 16.07,32.14 15.2,76.41 14.05,111.63 0,6.74 -0.58,16.07 -1.64,26.46 -30.8,1.15 -58.41,-6.45 -70.83,-20.02 -0.48,-0.48 -0.77,-1.06 -1.35,-1.64 0,-5.1 0,-9.04 0,-11.26 -0.29,-6.26 -4.23,-11.64 -10.2,-15.3 -3.08,-24.25 3.66,-52.64 7.31,-64.77z"/>
  <path class="fil0" d="M46.14 377.99c-17.61,-23.83 -28.03,-50.16 -34.48,-77.03 -6.42,-26.74 -8.88,-53.87 -10.6,-79.56l0 -0.01c-1.82,-28.38 -1.46,-57.42 2.37,-86.26 3.83,-28.89 11.13,-57.55 23.17,-85.06 4.75,-10.82 11.29,-21.83 21.23,-30.77 9.99,-8.99 23.34,-15.85 41.61,-18.26 4.33,-0.57 8.94,-0.91 13.63,-1.01 12.17,-0.24 24.95,1.22 35,4.93 10.86,4.01 18.75,10.65 20.05,20.6 0.1,0.77 0.16,1.56 0.18,2.39l0.01 0.07c0,1.91 -0.88,3.43 -2.44,4.6 -1.42,1.07 -3.49,1.79 -5.88,2.22 -2.07,0.37 -4.47,0.54 -6.89,0.54 -7,0 -14.75,-1.69 -16.82,-4.43 -1.95,-2.59 -5.65,-6.51 -10.08,-9.33 -2.91,-1.86 -6.11,-3.22 -9.22,-3.32l-0.06 0c-3.66,-0.17 -7.67,2.02 -11.2,4.73 -3.83,2.93 -7.11,6.52 -9.02,8.66 -14.19,16.1 -19.59,36.02 -24.6,54.51l-0.57 2.12 -0.01 0.03c-5.99,21.39 -9.95,43.06 -12.09,64.82 -2.23,22.64 -2.48,45.43 -0.97,68.14 1.4,20.99 3.47,42.54 7.64,63.84 4.14,21.18 10.36,42.12 20.06,62.03l-0.01 0c2.21,4.37 4.6,8.67 7.2,12.88 2.6,4.2 5.45,8.4 8.61,12.58 17.79,23.57 27.22,24.85 32.26,21.05 3.24,-2.45 5.11,-7.07 6.02,-9.31 0.17,-0.41 0.31,-0.76 0.47,-1.12 3.74,-8.96 5.19,-18.66 6.62,-28.24l0.15 -1c2.67,-19.04 2.92,-38.34 3.16,-57.65 0.39,-30.98 0.78,-61.99 10.99,-92.42 0.36,-1.08 0.95,-2.04 1.73,-2.88 3.18,-3.45 10.19,-5.06 17.67,-5.28 7,-0.2 14.66,0.74 19.77,2.46 2.37,0.8 4.33,1.81 5.64,3.02l0.07 0.07c5.03,4.89 9.18,19.99 12.14,30.8 1.02,3.72 1.89,6.89 2.61,8.91l-0.01 0c0.79,2.19 1.62,4.74 2.72,8.05 11.06,33.6 46.71,141.88 90.38,143.19 1.04,0.03 2.01,-0.32 2.84,-0.8 1.67,-0.97 2.67,-2.33 2.85,-2.63l0.01 0c0.87,-1.46 1.51,-3.03 2.01,-4.63 0.53,-1.68 0.93,-3.46 1.31,-5.22l0.01 -0.06c1.98,-8.46 2.92,-17.08 3.3,-25.69 0.39,-8.76 0.23,-17.51 0.02,-26.09l0 -0.01c-0.69,-30.46 -5.19,-61.01 -9.69,-91.57 -0.6,-4.07 -1.2,-8.13 -1.96,-13.38 -2.53,-17.36 -4.98,-34.83 -6.73,-52.49 -1.74,-17.6 -2.76,-35.23 -2.43,-52.85l0 -0.04c0.22,-7.79 0.66,-15.52 1.42,-23.2 0.77,-7.77 1.85,-15.45 3.35,-23.03 1.39,-7.08 2.85,-14.4 5.3,-21.72 2.49,-7.43 5.95,-14.68 11.33,-21.33l0.03 -0.01c4.84,-5.87 11.63,-10.55 19.43,-13.7 7.76,-3.14 16.58,-4.8 25.5,-4.65 18.54,0.17 37.51,9.23 53.09,27.39 13.65,15.9 24.71,38.84 30.55,68.91l0.01 -0c1.78,8.92 2.38,18.17 1.73,27.38 -0.63,9.04 -2.45,18.04 -5.5,26.67l-0.01 0.03c-1.85,5.11 -4.47,10.56 -8.86,15.08 -4.49,4.62 -10.7,8.18 -19.57,9.28l-0.01 0c-23.83,2.89 -38.31,-8.93 -47.34,-24.24 -8.66,-14.69 -12.08,-32.48 -14.01,-43.02 -0.51,-2.4 0.61,-4.13 2.84,-5.27 1.01,-0.52 2.33,-0.89 3.81,-1.12 1.29,-0.2 2.75,-0.31 4.23,-0.32 5.58,-0.04 11.83,1.63 12.93,5.19l0.01 0.03c0.82,2.76 1.6,6.44 2.48,10.64 3.68,17.44 9.4,44.57 28.35,44.07 1.31,-0.04 2.52,-0.3 3.61,-0.77 4.03,-1.72 6.86,-6.35 8.67,-12.79 2.01,-7.14 2.72,-16.28 2.42,-26.22 -0.64,-21.34 -5.91,-46.05 -12.89,-62.47l0 -0.01c-3.28,-7.79 -6.88,-14.06 -10.58,-19.07 -7.01,-9.48 -14.33,-14.39 -20.4,-16.71 -5.6,-2.14 -9.75,-2.06 -11.36,-1.39 -3.1,2.26 -5.46,4.98 -7.34,7.84 -1.95,2.97 -3.46,6.2 -4.78,9.3 -5.68,13.58 -8.58,28.03 -9.96,42.58 -1.39,14.7 -1.22,29.57 -0.79,43.81l0 0.01c0.84,31.76 5.63,63.63 10.42,95.49 4.67,31.09 9.35,62.19 10.39,93.68l0 0.01c0.22,7.75 0.22,15.53 -0.05,23.31 -0.28,7.85 -0.83,15.66 -1.7,23.39 -0.64,6.07 -1.42,12.8 -3.88,19.3 -2.57,6.77 -6.89,13.11 -14.56,17.88l-0.01 -0.01c-4.84,3.07 -10.1,5.09 -15.61,6.4 -5.38,1.27 -11.03,1.86 -16.77,2.09l-0.01 0c-65.02,2.34 -106.5,-103.15 -121.15,-145.26 -0.26,6.27 -0.46,12.51 -0.65,18.75 -0.9,28.58 -1.79,57.18 -8.77,85.64l0 0.01c-2.73,11.06 -7.58,21.77 -16.62,29.87 -9.02,8.07 -22.07,13.4 -41.11,13.63 -19.31,0.3 -34.8,-4.52 -47.42,-12.06 -12.57,-7.51 -22.21,-17.67 -29.88,-28.13z"/>
 </g>
</svg>
