<?xml version="1.0" encoding="UTF-8"?>
<!DOCTYPE svg PUBLIC "-//W3C//DTD SVG 1.1//EN" "http://www.w3.org/Graphics/SVG/1.1/DTD/svg11.dtd">
<!-- Creator: CorelDRAW 2021.5 -->
<svg xmlns="http://www.w3.org/2000/svg" xml:space="preserve" width="2.42089in" height="1.01231in" version="1.1" style="shape-rendering:geometricPrecision; text-rendering:geometricPrecision; image-rendering:optimizeQuality; fill-rule:evenodd; clip-rule:evenodd"
viewBox="0 0 516.54 216"
 xmlns:xlink="http://www.w3.org/1999/xlink"
 xmlns:xodm="http://www.corel.com/coreldraw/odm/2003">
 <defs>
  <style type="text/css">
   <![CDATA[
    .fil1 {fill:#FEFEFE}
    .fil2 {fill:#FEFEFE}
    .fil3 {fill:#FEFEFE;fill-rule:nonzero}
    .fil0 {fill:#FEFEFE;fill-rule:nonzero}
   ]]>
  </style>
 </defs>
 <g id="Layer_x0020_1">
  <metadata id="CorelCorpID_0Corel-Layer"/>
  <g id="_3055946486320">
   <path class="fil0" d="M367.05 96.28c0.1,0 0.28,-0.03 0.53,-0.08 0.25,-0.05 0.43,-0.08 0.53,-0.08 0.71,-0.61 1.49,-1.34 2.34,-2.19 0.86,-0.86 1.76,-1.64 2.72,-2.34 0.96,-0.71 1.99,-1.31 3.1,-1.81 1.11,-0.5 2.27,-0.76 3.48,-0.76 5.55,0 9.91,1.24 13.08,3.71 3.18,2.47 5.57,5.57 7.18,9.3 1.61,3.73 2.62,7.74 3.02,12.02 0.4,4.28 0.6,8.29 0.6,12.02 0,5.95 -0.18,11.79 -0.53,17.54 -0.35,5.75 -0.43,11.64 -0.23,17.69 -0.2,1.01 -0.45,1.92 -0.76,2.72 -0.3,0.81 -0.91,1.51 -1.82,2.12l-3.02 0c-2.92,0 -5.52,-0.43 -7.79,-1.29 -2.27,-0.86 -3.4,-2.75 -3.4,-5.67 0,-3.83 0.25,-7.64 0.76,-11.42 0.5,-3.78 0.76,-7.59 0.76,-11.42l0 -8.77c-0.2,-0.71 -0.45,-1.61 -0.76,-2.72 -0.3,-1.11 -0.71,-2.19 -1.21,-3.25 -0.5,-1.06 -1.16,-1.94 -1.97,-2.65 -0.81,-0.71 -1.76,-1.06 -2.87,-1.06 -0.81,0 -1.46,0.25 -1.97,0.76 -0.5,0.5 -0.88,1.11 -1.13,1.82 -0.25,0.71 -0.43,1.44 -0.53,2.19 -0.1,0.76 -0.2,1.39 -0.3,1.89 -0.1,0.5 -0.23,1.23 -0.38,2.19 -0.15,0.96 -0.3,1.99 -0.45,3.1 -0.15,1.11 -0.28,2.14 -0.38,3.1 -0.1,0.96 -0.15,1.59 -0.15,1.89 0,0 0,0.25 0,0.76 0,0.5 -0.03,1.08 -0.08,1.74 -0.05,0.66 -0.08,1.34 -0.08,2.04 0,0.71 0,1.26 0,1.66 0,2.62 0.15,5.22 0.45,7.79 0.3,2.57 0.45,5.17 0.45,7.79 0,0.3 -0.05,0.86 -0.15,1.66 -0.1,0.81 -0.28,1.61 -0.53,2.42 -0.25,0.81 -0.6,1.51 -1.06,2.12 -0.45,0.6 -0.98,0.91 -1.59,0.91l-9.53 0c-0.6,0 -1.16,-0.28 -1.66,-0.83 -0.5,-0.56 -0.86,-1.08 -1.06,-1.59 -0.71,-5.44 -1.01,-10.89 -0.91,-16.33 0.1,-5.44 0,-10.89 -0.3,-16.33 -0.1,-1.01 -0.2,-2.19 -0.3,-3.55 -0.1,-1.36 -0.35,-2.67 -0.76,-3.93 -0.4,-1.26 -1.06,-2.34 -1.97,-3.25 -0.91,-0.91 -2.17,-1.36 -3.78,-1.36 -1.51,0 -2.65,0.48 -3.4,1.44 -0.76,0.96 -1.31,2.09 -1.66,3.4 -0.35,1.31 -0.58,2.65 -0.68,4.01 -0.1,1.36 -0.15,2.45 -0.15,3.25 -0.1,1.11 -0.2,3.07 -0.3,5.9 -0.1,2.82 -0.18,5.82 -0.23,9 -0.05,3.18 -0.1,6.15 -0.15,8.92 -0.05,2.77 -0.08,4.71 -0.08,5.82 0,0.6 -0.08,1.41 -0.23,2.42 -0.15,1.01 -0.4,1.99 -0.76,2.95 -0.35,0.96 -0.88,1.81 -1.59,2.57 -0.71,0.76 -1.61,1.13 -2.72,1.13l-8.01 0c-1.11,0 -1.94,-0.45 -2.49,-1.36 -0.55,-0.91 -0.93,-1.97 -1.13,-3.18 -0.2,-1.21 -0.3,-2.39 -0.3,-3.55 0,-1.16 0,-1.99 0,-2.49l0 -5.75c0,-1.21 0.03,-3.28 0.08,-6.2 0.05,-2.92 0.1,-6 0.15,-9.23 0.05,-3.23 0.1,-6.3 0.15,-9.22 0.05,-2.92 0.08,-4.94 0.08,-6.05 1.01,-3.53 1.81,-6.96 2.42,-10.28 0.6,-3.33 1.41,-6.75 2.42,-10.28 -0.3,-0.91 -0.05,-1.97 0.76,-3.18 0.81,-1.21 1.84,-2.37 3.1,-3.48 1.26,-1.11 2.55,-2.12 3.86,-3.02 1.31,-0.91 2.27,-1.46 2.87,-1.66 1.21,-0.4 2.19,-0.6 2.95,-0.6 0.76,0 1.79,0 3.1,0 2.52,0 4.66,0.45 6.43,1.36 1.76,0.91 3.25,1.89 4.46,2.95 1.21,1.06 2.24,2.02 3.1,2.87 0.86,0.86 1.64,1.29 2.34,1.29z"/>
   <path class="fil0" d="M238.34 94.02c-0.01,-1.35 -0.01,-2.7 -0.01,-4.04 0,-16.78 -0.13,-34.12 -0.38,-52.03 2.5,-0.25 4.76,-0.47 6.76,-0.66 2,-0.19 4.13,-0.28 6.39,-0.28 0.38,0 0.91,0 1.6,0 0.69,0 1.16,0.31 1.41,0.94 0.5,2.25 0.75,4.95 0.75,8.08 0,3.13 -0.06,5.57 -0.19,7.33 0.13,0.5 0.41,1 0.85,1.5 0.44,0.5 1.03,0.75 1.78,0.75 0.13,0 0.34,-0.09 0.66,-0.28 0.31,-0.19 0.53,-0.34 0.66,-0.47 1.5,-1.5 3.01,-3.04 4.51,-4.6 1.5,-1.56 3.07,-3.01 4.7,-4.32 1.63,-1.31 3.41,-2.41 5.35,-3.29 1.94,-0.88 4.16,-1.31 6.67,-1.31 1.63,0 3.41,0.25 5.35,0.75 1.94,0.5 3.72,1.25 5.35,2.25 1.63,1 2.97,2.19 4.04,3.57 1.07,1.38 1.6,2.94 1.6,4.7 0,1 -0.16,2.5 -0.47,4.51 -0.31,2 -0.81,3.98 -1.5,5.92 -0.69,1.94 -1.5,3.66 -2.44,5.17 -0.94,1.5 -1.97,2.25 -3.1,2.25l-1.13 0c-1.63,-1 -3.19,-2 -4.7,-3 -1.5,-1 -3.26,-1.5 -5.26,-1.5 -1,0 -2.07,0.31 -3.19,0.94 -1.13,0.63 -2.19,1.41 -3.19,2.35 -1,0.94 -1.78,1.97 -2.35,3.1 -0.56,1.13 -0.66,2.19 -0.28,3.19 -1.75,4.88 -3.32,9.83 -4.7,14.84 -1.38,5.01 -2.13,10.21 -2.25,15.59 0,1.13 -0.03,3.07 -0.09,5.82 -0.06,2.75 -0.09,5.73 -0.09,8.92 0,3.19 0.03,6.2 0.09,9.02 0.06,2.82 0.09,4.79 0.09,5.92 -0.13,1.5 -0.78,2.69 -1.97,3.57 -1.19,0.88 -2.63,1.53 -4.32,1.97 -1.16,0.3 -2.32,0.51 -3.47,0.64 4.42,-9.78 4.07,-21.49 -1.98,-31.32 -2.72,-4.41 -6.31,-7.94 -10.39,-10.56 1.24,-1.11 1.55,-2.97 0.65,-4.44 -0.43,-0.7 -1.07,-1.2 -1.79,-1.46zm-151.29 83.72c-0.81,0 -1.77,0.26 -2.89,0.77 -1.11,0.51 -2.23,1.07 -3.34,1.67 -1.11,0.6 -2.08,1.2 -2.89,1.8 -0.81,0.6 -1.32,0.98 -1.52,1.15 -2.84,1.2 -5.98,1.88 -9.42,2.05 -3.44,0.17 -6.69,0.26 -9.73,0.26 -7.09,0.17 -13.73,-1.2 -19.91,-4.11 -6.18,-2.91 -11.7,-6.76 -16.57,-11.55 -4.86,-4.79 -8.87,-10.14 -12.01,-16.04 -3.14,-5.9 -5.22,-11.68 -6.23,-17.32 -1.22,-6.67 -1.87,-13.47 -1.98,-20.4 -0.1,-6.93 -0.25,-13.81 -0.46,-20.66 -0.4,-8.72 0.3,-18.05 2.13,-27.97 1.82,-9.92 4.86,-18.9 9.12,-26.94 1.82,-3.42 4.26,-7.06 7.3,-10.91 3.04,-3.85 6.53,-7.48 10.49,-10.91 3.95,-3.42 8.16,-6.46 12.61,-9.11 4.46,-2.65 8.92,-4.49 13.37,-5.52 0.81,0 2.43,-0.09 4.86,-0.26 2.43,-0.17 4.05,-0.26 4.86,-0.26 8.71,-0.17 15.81,0.47 21.28,1.92 5.47,1.45 9.68,3.81 12.61,7.06 2.94,3.25 4.91,7.44 5.93,12.57 0.44,2.22 0.8,4.65 1.09,7.29 -7.17,-1.66 -14.91,-0.68 -21.67,3.36 -3.54,2.11 -6.47,4.86 -8.74,8.01 -0.4,-1.82 -1.61,-3.42 -3.66,-4.8 -2.53,-1.71 -5.12,-2.57 -7.75,-2.57 -6.49,0.17 -11.91,2.61 -16.26,7.31 -4.36,4.7 -7.85,10.31 -10.49,16.81 -2.63,6.5 -4.51,13.17 -5.62,20.01 -1.11,6.84 -1.67,12.57 -1.67,17.19 0.2,4.11 0.86,9.2 1.98,15.27 1.11,6.07 2.94,11.93 5.47,17.58 2.53,5.65 5.88,10.44 10.03,14.37 4.15,3.93 9.47,5.9 15.96,5.9 3.65,-0.17 6.59,-1.28 8.81,-3.34 2.23,-2.05 3.14,-4.62 2.74,-7.7 0,-0.17 -0.05,-0.6 -0.15,-1.28 -0.1,-0.68 -0.2,-1.41 -0.3,-2.18 -0.1,-0.77 -0.3,-1.45 -0.61,-2.05 -0.3,-0.6 -0.66,-0.9 -1.06,-0.9l-14.29 0.26c-0.61,0 -1.27,-0.3 -1.97,-0.9 -0.71,-0.6 -1.37,-1.33 -1.98,-2.18 -0.61,-0.86 -1.11,-1.67 -1.52,-2.44 -0.41,-0.77 -0.61,-1.41 -0.61,-1.92l-0.3 -16.68c0,-1.71 0.81,-3.12 2.43,-4.23 1.62,-1.11 3.34,-1.67 5.17,-1.67l1.22 0c1.01,0.17 2.79,0.51 5.32,1.03 2.53,0.51 4.1,0.86 4.71,1.03l39.21 -1.03c0.41,0 0.96,0.47 1.67,1.41 0.71,0.94 1.27,1.67 1.67,2.18 0.2,0.17 0.36,0.34 0.46,0.51 0.1,0.17 0.25,0.34 0.46,0.51 0.2,0.34 0.4,0.6 0.61,0.77 0,0.51 -0.1,1.54 -0.3,3.08 -0.2,1.54 -0.4,2.57 -0.61,3.08l0.29 13.02c-0.26,0.08 -0.52,0.18 -0.77,0.29 -4.64,2.13 -4.52,5.72 -3.48,9.37 0.36,1.26 0.82,2.51 1.24,3.73 0.18,0.52 0.37,1.04 0.53,1.54 0.02,0.05 0.04,0.12 0.06,0.17 1.04,3.39 1.38,6.56 2.12,9.48 0.24,0.96 0.53,1.89 0.9,2.8l0.43 19.24 -1.37 -0.21c-1.55,-0.24 -3.09,-0.48 -4.66,-0.58 -1.52,-0.1 -2.94,0 -4.26,0.25 -4.76,0.88 -8.02,3.78 -8.6,7.24 -0.23,1.33 -0.19,2.44 0.05,3.39 -1.03,-0.44 -1.98,-0.92 -2.87,-1.47 -1.42,-0.68 -2.43,-1.97 -3.04,-3.85 -0.61,-1.88 -1.82,-2.82 -3.65,-2.82zm81.33 -78.89c-2.15,2.15 -4.24,4.05 -6.27,5.7 -5.39,-1.95 -11.15,-3.55 -17.42,-4.67 13.81,1.41 16.9,-10.45 27.54,-12.97 -12.5,2.95 -34.94,-10.08 -39.06,6.34 -1.91,-3.46 -3.41,-7.34 -4.49,-11.62l-0.12 -0.47c13.59,-10.88 21.35,-29.31 15.05,-43.96 -4.93,3.21 -10.02,6.02 -14.06,4.15 -1.57,-0.73 -3.1,-1.43 -4.59,-2.11l0 -7.22c0,-0.51 0.1,-1.52 0.29,-3.05 0.19,-1.52 0.38,-3.14 0.57,-4.85 0.19,-1.71 0.38,-3.36 0.57,-4.95 0.19,-1.59 0.35,-2.76 0.48,-3.52 0.13,-0.63 0.29,-1.62 0.48,-2.95 0.19,-1.33 0.48,-2.76 0.86,-4.28 0.38,-1.52 0.82,-2.95 1.33,-4.28 0.51,-1.33 1.14,-2.25 1.9,-2.76 0.38,0 1.33,-0.03 2.86,-0.09 1.52,-0.06 2.47,-0.09 2.86,-0.09 1.9,0 3.68,0.03 5.33,0.09 1.65,0.06 3.14,0.32 4.47,0.76 1.33,0.44 2.38,1.24 3.14,2.38 0.76,1.14 1.14,2.79 1.14,4.95 0,8.12 -0.63,16.21 -1.9,24.27 -1.27,8.06 -1.9,16.21 -1.9,24.46 0,0.38 0,1.05 0,2 0,0.95 0.03,1.97 0.09,3.05 0.06,1.08 0.09,2.06 0.09,2.95 0,0.89 0,1.52 0,1.9 0.76,2.03 1.81,3.62 3.14,4.76 1.33,1.14 3.08,1.71 5.24,1.71 3.43,0 6.09,-1.08 8,-3.24 1.9,-2.16 3.3,-4.76 4.19,-7.8 0.89,-3.05 1.43,-6.22 1.62,-9.52 0.19,-3.3 0.28,-6.09 0.28,-8.38 0,-1.27 0.03,-3.52 0.1,-6.76 0.06,-3.24 0.09,-6.69 0.09,-10.37 0,-3.68 -0.03,-7.14 -0.09,-10.38 -0.06,-3.24 -0.1,-5.49 -0.1,-6.76 0,-0.76 0.19,-1.71 0.57,-2.86 0.38,-1.14 1.14,-1.71 2.28,-1.71l14.28 0c0.76,0 1.55,0.44 2.38,1.33 0.82,0.89 1.24,1.65 1.24,2.28l0 91.19c0,2.28 -0.95,3.9 -2.86,4.85 -1.9,0.95 -3.81,1.43 -5.71,1.43 -3.05,0 -5.39,-0.76 -7.04,-2.28 -1.65,-1.52 -3.05,-3.74 -4.19,-6.66l-2.67 0zm-31.44 -0.09c-0.3,-0.35 -0.59,-0.71 -0.87,-1.07 1.99,0.76 3.82,1.31 5.51,1.68 -1.52,-0.23 -3.06,-0.43 -4.64,-0.61zm62.1 1.8c-0.85,-16.79 -1.27,-33.28 -1.27,-49.46 0,-16.19 -0.12,-32.91 -0.36,-50.19 2.42,-0.24 4.59,-0.45 6.52,-0.63 1.93,-0.18 3.99,-0.27 6.16,-0.27 0.36,0 0.88,0 1.54,0 0.66,0 1.12,0.3 1.36,0.91 0.48,2.17 0.72,4.77 0.72,7.79 0,3.02 -0.06,5.38 -0.18,7.07 0.12,0.48 0.39,0.97 0.82,1.45 0.42,0.48 1,0.72 1.72,0.72 0.12,0 0.33,-0.09 0.63,-0.27 0.3,-0.18 0.51,-0.33 0.63,-0.45 1.45,-1.45 2.9,-2.93 4.35,-4.44 1.45,-1.51 2.96,-2.9 4.53,-4.17 1.57,-1.27 3.29,-2.32 5.16,-3.17 1.87,-0.85 4.02,-1.27 6.43,-1.27 1.57,0 3.29,0.24 5.16,0.72 1.87,0.48 3.59,1.21 5.16,2.17 1.57,0.97 2.87,2.11 3.9,3.44 1.03,1.33 1.54,2.84 1.54,4.53 0,0.97 -0.15,2.42 -0.45,4.35 -0.3,1.93 -0.78,3.83 -1.45,5.71 -0.66,1.87 -1.45,3.53 -2.36,4.98 -0.91,1.45 -1.9,2.17 -2.99,2.17l-1.09 0c-1.57,-0.97 -3.08,-1.93 -4.53,-2.9 -1.45,-0.97 -3.14,-1.45 -5.07,-1.45 -0.97,0 -1.99,0.3 -3.08,0.91 -1.09,0.6 -2.11,1.36 -3.08,2.26 -0.97,0.91 -1.72,1.9 -2.26,2.99 -0.54,1.09 -0.63,2.11 -0.27,3.08 -1.69,4.71 -3.2,9.48 -4.53,14.31 -1.33,4.83 -2.05,9.84 -2.17,15.04 0,1.09 -0.03,2.96 -0.09,5.62 -0.06,2.66 -0.09,5.53 -0.09,8.61 0,3.08 0.03,5.98 0.09,8.7 0.05,2.33 0.08,4.06 0.09,5.19 -2.94,0.1 -5.89,0.59 -8.77,1.48 -0.68,0.21 -1.35,0.42 -2.02,0.68 -1.92,0.74 -3.81,1.64 -5.63,2.76 -0.81,0.5 -1.59,1.03 -2.34,1.58 -0.65,-0.1 -1.46,-0.29 -2.44,-0.55z"/>
   <path class="fil0" d="M415.04 161.71c-0.07,-0.35 -0.16,-0.92 -0.26,-1.69 -0.11,-0.78 -0.21,-1.59 -0.32,-2.43 -0.11,-0.85 -0.21,-1.64 -0.32,-2.38 -0.11,-0.74 -0.19,-1.25 -0.26,-1.53 -0.07,-0.49 -0.18,-1.18 -0.32,-2.06 -0.14,-0.88 -0.26,-1.74 -0.37,-2.59 -0.11,-0.85 -0.21,-1.6 -0.32,-2.27 -0.11,-0.67 -0.16,-1.04 -0.16,-1.11 0,-0.42 -0.07,-1.27 -0.21,-2.54 -0.14,-1.27 -0.3,-2.66 -0.48,-4.18 -0.18,-1.52 -0.33,-2.98 -0.48,-4.39 -0.14,-1.41 -0.25,-2.43 -0.32,-3.07 0,-0.35 -0.04,-0.86 -0.11,-1.53 -0.07,-0.67 -0.12,-1.37 -0.16,-2.11 -0.04,-0.74 -0.09,-1.41 -0.16,-2.01 -0.07,-0.6 -0.11,-0.97 -0.11,-1.11 -0.07,-0.49 0.02,-1.06 0.26,-1.69 0.25,-0.63 0.58,-1.13 1,-1.48 0.14,-0.07 0.58,-0.16 1.32,-0.26 0.74,-0.11 1.22,-0.16 1.43,-0.16 1.06,-0.14 2.08,-0.23 3.07,-0.26 0.99,-0.04 1.9,0.05 2.75,0.26 0.85,0.21 1.55,0.62 2.11,1.22 0.56,0.6 0.95,1.46 1.16,2.59 0.78,5.15 1.36,10.36 1.74,15.65 0.39,5.29 0.97,10.5 1.74,15.65 0,0.35 0,0.92 0,1.69 0,0.78 -0.09,1.55 -0.26,2.33 -0.18,0.78 -0.48,1.48 -0.9,2.11 -0.42,0.63 -0.99,0.99 -1.69,1.06l-6.34 0.74c-0.35,0.07 -0.7,0 -1.06,-0.21 -0.35,-0.21 -0.65,-0.44 -0.9,-0.69 -0.25,-0.25 -0.48,-0.53 -0.69,-0.85 -0.21,-0.32 -0.35,-0.55 -0.42,-0.69zm-5.71 -55.09c-0.28,-1.48 -0.49,-2.78 -0.63,-3.91 -0.14,-1.13 -0.18,-2.47 -0.11,-4.02 0.28,-0.49 0.63,-0.9 1.06,-1.22 0.42,-0.32 0.95,-0.51 1.59,-0.58 0.92,-0.14 1.96,-0.18 3.12,-0.11 1.16,0.07 2.27,0.26 3.33,0.58 1.06,0.32 1.97,0.79 2.75,1.43 0.78,0.64 1.27,1.48 1.48,2.54 0.07,0.85 0.21,1.97 0.42,3.38 0.21,1.41 0.26,2.8 0.16,4.18 -0.11,1.37 -0.49,2.59 -1.16,3.65 -0.67,1.06 -1.78,1.69 -3.33,1.9 -1.83,0.21 -3.28,0.19 -4.34,-0.05 -1.06,-0.25 -1.89,-0.7 -2.48,-1.37 -0.6,-0.67 -1,-1.53 -1.22,-2.59 -0.21,-1.06 -0.42,-2.33 -0.63,-3.81z"/>
   <path class="fil0" d="M447.08 159.67c-0.23,-1.92 -0.3,-3.85 -0.21,-5.79 0.08,-1.94 0.18,-3.88 0.3,-5.79 0.11,-1.92 0.21,-3.82 0.3,-5.71 0.08,-1.89 0.01,-3.76 -0.21,-5.62 -0.06,-0.23 -0.13,-0.73 -0.21,-1.52 -0.08,-0.79 -0.13,-1.3 -0.13,-1.52 -0.51,-1.52 -1.63,-2.11 -3.38,-1.78 -1.18,0.17 -2.09,1.01 -2.71,2.54 -0.62,1.52 -1.08,3.23 -1.39,5.11 -0.31,1.89 -0.49,3.71 -0.55,5.45 -0.06,1.75 -0.08,2.9 -0.08,3.47 0,0.62 0.14,1.59 0.42,2.92 0.28,1.32 0.45,2.68 0.51,4.06 0.06,1.38 -0.08,2.64 -0.42,3.76 -0.34,1.13 -1.13,1.78 -2.37,1.94 -0.68,0.06 -1.37,0.08 -2.07,0.08 -0.7,0 -1.37,-0.08 -1.99,-0.25 -0.62,-0.17 -1.14,-0.44 -1.56,-0.8 -0.42,-0.37 -0.66,-0.89 -0.72,-1.56 -0.11,-1.3 -0.17,-2.55 -0.17,-3.76 0,-1.21 0.06,-2.47 0.17,-3.76l0 -0.51c-0.11,-3.72 -0.08,-7.31 0.08,-10.78 0.17,-3.47 0.34,-7 0.51,-10.61 0,-0.11 0,-0.35 0,-0.72 0,-0.37 0,-0.75 0,-1.14 0,-0.39 -0.01,-0.78 -0.04,-1.14 -0.03,-0.37 -0.07,-0.61 -0.13,-0.72 0.06,-0.28 0.06,-0.76 0,-1.44 -0.06,-0.68 -0.07,-1.37 -0.04,-2.07 0.03,-0.7 0.14,-1.34 0.34,-1.9 0.2,-0.56 0.58,-0.87 1.14,-0.93 1.86,-0.28 3.72,-0.23 5.58,0.17 1.86,0.39 3.33,1.16 4.4,2.28 0,0.06 0.06,0.14 0.17,0.25 0.06,0.06 0.11,0.08 0.17,0.08l6.09 -0.93c1.58,-0.17 2.9,0.24 3.97,1.23 1.07,0.99 1.96,2.2 2.66,3.64 0.7,1.44 1.24,2.9 1.61,4.4 0.37,1.49 0.61,2.64 0.72,3.42 0.17,1.52 0.21,3.03 0.13,4.52 -0.08,1.49 -0.21,3 -0.38,4.52 -0.17,1.52 -0.34,3.03 -0.51,4.52 -0.17,1.49 -0.28,2.97 -0.34,4.44 0,1.13 0.08,2.23 0.25,3.3 0.17,1.07 0.18,2.06 0.04,2.96 -0.14,0.9 -0.56,1.66 -1.27,2.28 -0.7,0.62 -1.96,1.04 -3.76,1.27 -1.47,0.23 -2.62,0.25 -3.47,0.08 -0.85,-0.17 -1.32,-0.82 -1.44,-1.94z"/>
   <path class="fil0" d="M461.82 154.65c-0.17,-1.69 -0.21,-3.33 -0.13,-4.9 0.08,-1.58 0.16,-3.21 0.21,-4.9 0.06,-2.99 0.11,-5.71 0.17,-8.16 0.06,-2.45 0.34,-5.09 0.85,-7.91 0.23,-1.3 0.51,-2.49 0.85,-3.59 0.34,-1.1 0.8,-2.07 1.4,-2.92 0.59,-0.85 1.37,-1.52 2.32,-2.03 0.96,-0.51 2.2,-0.82 3.72,-0.93 1.07,-0.06 2.21,0.08 3.42,0.42 1.21,0.34 2.35,0.86 3.42,1.56 1.07,0.7 1.96,1.54 2.66,2.49 0.7,0.96 1.11,1.97 1.23,3.04l0.93 12.26c0,0.28 -0.04,0.68 -0.13,1.18 -0.08,0.51 -0.24,1.03 -0.46,1.56 -0.23,0.54 -0.49,1.01 -0.8,1.44 -0.31,0.42 -0.66,0.63 -1.06,0.63l-9.55 0.59c-0.51,0.06 -0.87,0.63 -1.1,1.73 -0.23,1.1 -0.38,2.3 -0.47,3.59 -0.08,1.3 -0.13,2.52 -0.13,3.68 0,1.16 0,1.79 0,1.9 0.06,0.45 0.16,1 0.3,1.65 0.14,0.65 0.37,1.27 0.68,1.86 0.31,0.59 0.7,1.1 1.18,1.52 0.48,0.42 1.06,0.61 1.73,0.55 0.62,-0.06 1.03,-0.38 1.23,-0.97 0.2,-0.59 0.38,-1.24 0.55,-1.94 0.17,-0.7 0.42,-1.37 0.76,-1.99 0.34,-0.62 0.96,-0.96 1.86,-1.01 0.56,-0.06 1.17,-0.03 1.82,0.08 0.65,0.11 1.24,0.3 1.78,0.55 0.54,0.25 1,0.61 1.4,1.06 0.39,0.45 0.62,0.99 0.68,1.61 0.28,3.21 -0.42,5.93 -2.11,8.16 -1.69,2.23 -4.23,3.48 -7.61,3.76 -2.31,0.11 -4.2,-0.32 -5.67,-1.31 -1.47,-0.99 -2.62,-2.27 -3.47,-3.85 -0.85,-1.58 -1.44,-3.31 -1.78,-5.2 -0.34,-1.89 -0.56,-3.65 -0.68,-5.28zm9.72 -20.21c0.06,0.68 0.18,1.25 0.38,1.73 0.2,0.48 0.69,0.69 1.48,0.63 0.73,-0.06 1.07,-0.39 1.01,-1.01 -0.06,-0.62 -0.11,-1.21 -0.17,-1.78 0,-0.51 -0.06,-1.11 -0.17,-1.82 -0.11,-0.7 -0.56,-1.03 -1.35,-0.97 -0.79,0.06 -1.2,0.48 -1.23,1.27 -0.03,0.79 -0.01,1.44 0.04,1.94z"/>
   <path class="fil0" d="M486.8 174.13c0,-0.57 0.24,-1.21 0.72,-1.93 0.48,-0.71 1.06,-1.37 1.72,-1.98 0.66,-0.61 1.37,-1.12 2.13,-1.55 0.75,-0.43 1.37,-0.64 1.86,-0.64 0.79,0 1.36,0.5 1.72,1.5 0.36,1 0.73,2.11 1.09,3.32 0.36,1.21 0.83,2.32 1.4,3.32 0.57,1 1.5,1.5 2.76,1.5 0.66,0 1.33,-0.09 1.99,-0.27 0.66,-0.18 1.24,-0.48 1.72,-0.91 0.18,-0.14 0.54,-0.61 1.09,-1.39 0.54,-0.79 0.91,-1.25 1.09,-1.39 0.06,0 0.11,-0.07 0.14,-0.21 0.03,-0.14 0.05,-0.28 0.05,-0.43 0.06,-0.14 0.12,-0.29 0.18,-0.43 0.06,-0.14 0.09,-0.25 0.09,-0.32l0 -4.28c0,0 -0.18,-0.23 -0.54,-0.7 -0.36,-0.46 -0.8,-1 -1.31,-1.61 -0.51,-0.61 -1.06,-1.23 -1.63,-1.87 -0.57,-0.64 -1.04,-1.18 -1.4,-1.61 -0.18,-0.21 -0.44,-0.48 -0.77,-0.8 -0.33,-0.32 -0.66,-0.64 -1,-0.96 -0.33,-0.32 -0.62,-0.62 -0.86,-0.91 -0.24,-0.29 -0.39,-0.43 -0.45,-0.43 -0.12,-0.07 -0.32,-0.21 -0.59,-0.43 -0.27,-0.21 -0.57,-0.43 -0.91,-0.64 -0.33,-0.21 -0.63,-0.41 -0.91,-0.59 -0.27,-0.18 -0.44,-0.27 -0.5,-0.27 -2.05,-1.57 -3.78,-3.76 -5.16,-6.58 -1.39,-2.82 -2.08,-5.58 -2.08,-8.3 0,-0.57 0.08,-1.23 0.23,-1.98 0.15,-0.75 0.29,-1.34 0.41,-1.77 1.15,-3.85 2.91,-6.89 5.3,-9.1 2.39,-2.21 5.57,-3.32 9.56,-3.32 1.93,0 3.85,0.43 5.75,1.28 1.9,0.86 3.52,1.96 4.85,3.32 0.12,0.21 0.41,0.61 0.86,1.18 0.45,0.57 0.74,0.93 0.86,1.07 0,0.07 0.03,0.14 0.09,0.21 0.18,0.21 0.24,0.32 0.18,0.32l0 0.11c0,0.43 -0.18,0.91 -0.54,1.44 -0.36,0.54 -0.6,1.02 -0.72,1.44 -0.12,0.14 -0.27,0.37 -0.45,0.7 -0.18,0.32 -0.36,0.68 -0.54,1.07 -0.18,0.39 -0.35,0.77 -0.5,1.12 -0.15,0.36 -0.26,0.61 -0.32,0.75 -0.24,0.36 -0.57,0.54 -1,0.54 -0.72,0 -1.36,-0.25 -1.9,-0.75 -0.54,-0.5 -1.15,-0.86 -1.81,-1.07 -0.91,-0.36 -1.83,-0.68 -2.76,-0.96 -0.94,-0.29 -1.89,-0.43 -2.85,-0.43 -1.51,0 -2.7,0.45 -3.58,1.34 -0.88,0.89 -1.31,2.12 -1.31,3.69 0,1.43 0.47,2.73 1.4,3.91 0.94,1.18 2.07,2.28 3.4,3.32 1.33,1.03 2.66,2.03 3.99,3 1.33,0.96 2.42,1.91 3.26,2.84 0.48,0.71 0.91,1.23 1.27,1.55 0.36,0.32 0.6,0.87 0.72,1.66l0 0.32c1.03,1.71 1.81,3.66 2.36,5.83 0.54,2.18 0.82,4.23 0.82,6.15 0,3.64 -1.03,6.9 -3.08,9.79 -2.05,2.89 -4.74,4.83 -8.06,5.83 -0.3,0 -0.79,0.02 -1.45,0.05 -0.66,0.04 -1.12,0.05 -1.36,0.05 -1.45,0 -2.87,-0.16 -4.26,-0.48 -1.39,-0.32 -2.7,-0.82 -3.94,-1.5 -1.24,-0.68 -2.33,-1.53 -3.26,-2.57 -0.94,-1.03 -1.65,-2.3 -2.13,-3.8 -0.3,-0.79 -0.56,-1.52 -0.77,-2.19 -0.21,-0.68 -0.32,-1.41 -0.32,-2.19z"/>
   <path class="fil0" d="M305.73 157.94c-1.73,1.73 -3.4,3.25 -5.03,4.57 -1.63,1.32 -3.66,1.98 -6.1,1.98 -3.96,0 -7.26,-0.94 -9.91,-2.82 -2.64,-1.88 -4.85,-4.32 -6.63,-7.32 -1.78,-3 -3.15,-6.4 -4.11,-10.21 -0.97,-3.81 -1.65,-7.65 -2.06,-11.51 -0.41,-3.86 -0.66,-7.57 -0.76,-11.13 -0.1,-3.56 -0.15,-6.65 -0.15,-9.3l0 -7.77c0,-0.41 0.08,-1.22 0.23,-2.44 0.15,-1.22 0.3,-2.52 0.46,-3.89 0.15,-1.37 0.3,-2.69 0.46,-3.96 0.15,-1.27 0.28,-2.21 0.38,-2.82 0.1,-0.51 0.23,-1.3 0.38,-2.36 0.15,-1.07 0.38,-2.21 0.69,-3.43 0.3,-1.22 0.66,-2.36 1.07,-3.43 0.41,-1.07 0.91,-1.8 1.52,-2.21 0.3,0 1.07,-0.03 2.29,-0.08 1.22,-0.05 1.98,-0.08 2.29,-0.08 1.52,0 2.95,0.03 4.27,0.08 1.32,0.05 2.52,0.25 3.58,0.61 1.07,0.36 1.9,0.99 2.51,1.91 0.61,0.91 0.91,2.24 0.91,3.96 0,6.5 -0.51,12.98 -1.52,19.43 -1.02,6.45 -1.52,12.98 -1.52,19.58 0,0.3 0,0.84 0,1.6 0,0.76 0.03,1.58 0.08,2.44 0.05,0.86 0.08,1.65 0.08,2.36 0,0.71 0,1.22 0,1.52 0.61,1.63 1.45,2.9 2.51,3.81 1.07,0.91 2.46,1.37 4.19,1.37 2.74,0 4.88,-0.86 6.4,-2.59 1.52,-1.73 2.64,-3.81 3.35,-6.25 0.71,-2.44 1.14,-4.98 1.3,-7.62 0.15,-2.64 0.23,-4.88 0.23,-6.71 0,-1.02 0.03,-2.82 0.08,-5.41 0.05,-2.59 0.08,-5.36 0.08,-8.31 0,-2.95 -0.03,-5.71 -0.08,-8.31 -0.05,-2.59 -0.08,-4.39 -0.08,-5.41 0,-0.61 0.15,-1.37 0.46,-2.29 0.3,-0.91 0.91,-1.37 1.83,-1.37l11.43 0c0.61,0 1.24,0.36 1.9,1.07 0.66,0.71 0.99,1.32 0.99,1.83l0 73c0,1.83 -0.76,3.12 -2.29,3.89 -1.52,0.76 -3.05,1.14 -4.57,1.14 -2.44,0 -4.32,-0.61 -5.64,-1.83 -1.32,-1.22 -2.44,-3 -3.35,-5.33l-2.13 0z"/>
   <g>
    <path class="fil0" d="M130.55 173.93l-0 0 -1.61 -1.61 0 -0 0.29 -0.21 1.33 1.82zm-7.54 3.62l-0.58 -2.2 0 0 0.06 -0.02 0.1 -0.03 0.13 -0.05 0.15 -0.06 0.17 -0.07 0.18 -0.08 0.2 -0.09 0.21 -0.09 0.23 -0.1 0.23 -0.11 0.24 -0.11 0.25 -0.12 0.25 -0.12 0.26 -0.12 0.27 -0.13 0.26 -0.13 0.27 -0.13 0.27 -0.13 0.26 -0.13 0.26 -0.13 0.26 -0.13 0.26 -0.13 0.25 -0.13 0.24 -0.12 0.23 -0.12 0.22 -0.11 0.21 -0.11 0.2 -0.1 0.19 -0.1 0.17 -0.09 0.16 -0.08 0.14 -0.07 1.04 2.03 -0.14 0.07 -0.16 0.08 -0.18 0.09 -0.19 0.1 -0.2 0.1 -0.22 0.11 -0.23 0.12 -0.24 0.12 -0.24 0.12 -0.25 0.13 -0.26 0.13 -0.26 0.13 -0.27 0.13 -0.27 0.13 -0.27 0.13 -0.27 0.13 -0.27 0.13 -0.27 0.13 -0.27 0.13 -0.26 0.12 -0.26 0.12 -0.25 0.12 -0.24 0.11 -0.24 0.11 -0.23 0.1 -0.22 0.1 -0.21 0.09 -0.2 0.08 -0.19 0.07 -0.18 0.06 -0.17 0.06 -0.17 0.05 0 0zm-1.58 0.24l0.04 -2.28 0.01 0 0.02 0 0.01 0 0.02 -0 0.02 -0 0.01 0 0.03 -0 0.04 -0 0.02 -0 0.01 -0 0.03 -0 0.03 -0 0.03 -0 0.03 -0 0.02 -0 0.04 -0.01 0.04 -0.01 0.02 -0 0.03 -0.01 0.03 -0.01 0.03 -0.01 0.04 -0.01 0.03 -0.01 0.03 -0.01 0.04 -0.01 0.03 -0.01 0.03 -0.01 0.04 -0.01 0.03 -0.01 0.04 -0.01 0.05 -0.01 0.03 -0.01 0.04 -0.01 0.58 2.2 -0.05 0.01 -0.05 0.01 -0.04 0.01 -0.04 0.01 -0.05 0.01 -0.05 0.01 -0.05 0.01 -0.05 0.01 -0.04 0.01 -0.05 0.01 -0.05 0.01 -0.04 0.01 -0.05 0.01 -0.05 0.01 -0.05 0.01 -0.06 0.01 -0.04 0.01 -0.04 0.01 -0.06 0.01 -0.05 0.01 -0.05 0.01 -0.05 0.01 -0.05 0.01 -0.06 0.01 -0.05 0 -0.04 0 -0.05 0 -0.06 0 -0.05 0 -0.05 0 -0.06 0 -0.05 -0 0.01 0zm0.04 -2.28l0.01 0 0.02 0 -0.03 -0zm-6.97 1.51l0.35 -2.25 0 0 0.21 0.03 0.21 0.03 0.21 0.03 0.21 0.03 0.21 0.03 0.21 0.03 0.21 0.03 0.21 0.03 0.21 0.03 0.21 0.03 0.21 0.03 0.21 0.03 0.21 0.03 0.21 0.03 0.21 0.03 0.21 0.03 0.21 0.03 0.2 0.03 0.21 0.02 0.21 0.02 0.2 0.02 0.21 0.02 0.2 0.02 0.21 0.02 0.21 0.02 0.2 0.02 0.21 0.01 0.2 0.01 0.21 0.01 0.21 0.01 0.21 0.01 0.21 0.01 -0.04 2.28 -0.23 -0.01 -0.23 -0.01 -0.22 -0.01 -0.22 -0.01 -0.22 -0.01 -0.22 -0.01 -0.22 -0.02 -0.22 -0.02 -0.22 -0.02 -0.22 -0.02 -0.22 -0.02 -0.22 -0.02 -0.22 -0.02 -0.22 -0.02 -0.22 -0.03 -0.22 -0.03 -0.22 -0.03 -0.22 -0.03 -0.21 -0.03 -0.22 -0.03 -0.21 -0.03 -0.21 -0.03 -0.21 -0.03 -0.21 -0.03 -0.21 -0.03 -0.21 -0.03 -0.21 -0.03 -0.21 -0.03 -0.21 -0.03 -0.21 -0.03 -0.21 -0.03 -0.21 -0.03 0 0zm0.35 -2.25l0 0 0.24 0.04 -0.24 -0.04zm-4.9 1.69l0.14 -2.28 0 0 0.15 0.01 0.15 0.01 0.16 0.01 0.15 0.01 0.15 0.01 0.15 0.01 0.15 0.01 0.15 0.02 0.15 0.02 0.15 0.02 0.15 0.02 0.15 0.02 0.15 0.02 0.15 0.02 0.15 0.02 0.15 0.02 0.15 0.02 0.15 0.02 0.15 0.02 0.15 0.02 0.15 0.02 0.15 0.02 0.15 0.02 0.15 0.02 0.14 0.02 0.15 0.02 0.14 0.02 0.15 0.02 0.14 0.02 0.15 0.02 0.15 0.02 0.14 0.02 -0.35 2.25 -0.15 -0.02 -0.14 -0.02 -0.15 -0.02 -0.14 -0.02 -0.14 -0.02 -0.14 -0.02 -0.15 -0.02 -0.14 -0.02 -0.14 -0.02 -0.14 -0.02 -0.14 -0.02 -0.14 -0.02 -0.15 -0.02 -0.15 -0.02 -0.14 -0.02 -0.14 -0.02 -0.15 -0.02 -0.14 -0.02 -0.14 -0.02 -0.14 -0.02 -0.14 -0.02 -0.14 -0.02 -0.14 -0.02 -0.14 -0.02 -0.14 -0.01 -0.14 -0.01 -0.14 -0.01 -0.14 -0.01 -0.14 -0.01 -0.14 -0.01 -0.14 -0.01 -0.14 -0.01 0 0zm0.14 -2.28l0 0 0.1 0.01 -0.1 -0.01zm-4.12 2.51l-0.41 -2.24 -0.93 1.12 0.28 -0.77 0.35 -0.28 0.22 -0.1 0.17 -0.05 0.15 -0.03 0.15 -0.03 0.16 -0.02 0.16 -0.02 0.16 -0.02 0.17 -0.01 0.18 -0.01 0.18 -0.01 0.19 -0.01 0.19 -0.01 0.2 -0.01 0.2 -0.01 0.2 -0 0.2 -0 0.2 -0 0.19 -0 0.19 -0 0.18 -0 0.17 -0 0.17 0 0.15 0 0.14 0 0.13 0 0.12 0 0.1 0 0.08 0 0.07 0 0.07 0 -0.14 2.28 -0.01 0 -0.05 -0 -0.07 -0 -0.09 -0 -0.1 -0 -0.12 -0 -0.14 -0 -0.15 -0 -0.15 0 -0.17 0 -0.17 0 -0.18 0 -0.18 0 -0.19 0 -0.19 0 -0.19 0 -0.18 0.01 -0.18 0.01 -0.18 0.01 -0.17 0.01 -0.16 0.01 -0.15 0.01 -0.15 0.01 -0.13 0.01 -0.11 0.01 -0.09 0.01 -0.07 0.01 -0.03 0.01 0.03 -0.01 0.11 -0.05 0.29 -0.23 0.26 -0.71 -0.93 1.12zm0.93 -1.12l0 0.95 -0.93 0.17 0.93 -1.12zm-8.62 7.43l-2.25 -0.38 0 0 0.07 -0.38 0.09 -0.37 0.11 -0.37 0.13 -0.36 0.14 -0.36 0.16 -0.35 0.18 -0.34 0.19 -0.34 0.21 -0.33 0.22 -0.32 0.24 -0.31 0.25 -0.3 0.26 -0.3 0.28 -0.29 0.29 -0.28 0.3 -0.27 0.32 -0.26 0.33 -0.25 0.34 -0.24 0.35 -0.23 0.36 -0.22 0.38 -0.21 0.39 -0.2 0.4 -0.19 0.41 -0.18 0.42 -0.17 0.43 -0.16 0.44 -0.14 0.45 -0.13 0.46 -0.12 0.47 -0.11 0.47 -0.09 0.41 2.24 -0.41 0.08 -0.4 0.09 -0.39 0.1 -0.38 0.11 -0.37 0.12 -0.36 0.13 -0.35 0.14 -0.34 0.15 -0.33 0.16 -0.32 0.16 -0.31 0.17 -0.3 0.18 -0.29 0.19 -0.28 0.19 -0.26 0.2 -0.25 0.21 -0.24 0.21 -0.23 0.22 -0.22 0.22 -0.2 0.23 -0.19 0.23 -0.18 0.24 -0.17 0.24 -0.15 0.24 -0.14 0.25 -0.13 0.25 -0.12 0.26 -0.1 0.26 -0.09 0.26 -0.08 0.26 -0.06 0.27 -0.05 0.27 0 0zm0 -0l0 0 -0.03 0.16 0.03 -0.16zm5.32 7.09l-0.68 2.18 0 0 -0.37 -0.12 -0.37 -0.12 -0.37 -0.13 -0.36 -0.14 -0.36 -0.15 -0.36 -0.15 -0.35 -0.16 -0.34 -0.17 -0.34 -0.18 -0.33 -0.2 -0.32 -0.21 -0.31 -0.22 -0.3 -0.24 -0.29 -0.25 -0.28 -0.27 -0.27 -0.28 -0.25 -0.3 -0.24 -0.31 -0.22 -0.33 -0.2 -0.35 -0.18 -0.37 -0.16 -0.38 -0.14 -0.4 -0.12 -0.41 -0.09 -0.43 -0.07 -0.44 -0.04 -0.46 -0.02 -0.47 0 -0.48 0.03 -0.5 0.05 -0.51 0.08 -0.53 2.25 0.38 -0.07 0.43 -0.04 0.41 -0.02 0.39 -0 0.37 0.02 0.35 0.03 0.33 0.05 0.31 0.06 0.29 0.08 0.27 0.09 0.26 0.11 0.25 0.12 0.24 0.13 0.22 0.14 0.22 0.16 0.21 0.17 0.2 0.18 0.19 0.2 0.18 0.21 0.18 0.22 0.17 0.23 0.16 0.25 0.16 0.26 0.15 0.27 0.15 0.28 0.14 0.29 0.14 0.3 0.13 0.31 0.13 0.32 0.12 0.32 0.12 0.33 0.11 0.34 0.11 0 0zm5.81 1.53l-0.64 2.19 -0 -0 -0.16 -0.05 -0.17 -0.05 -0.16 -0.05 -0.17 -0.05 -0.17 -0.05 -0.17 -0.05 -0.17 -0.04 -0.17 -0.04 -0.18 -0.04 -0.18 -0.05 -0.18 -0.04 -0.18 -0.04 -0.18 -0.04 -0.18 -0.04 -0.19 -0.05 -0.18 -0.04 -0.19 -0.05 -0.19 -0.05 -0.19 -0.05 -0.19 -0.05 -0.19 -0.05 -0.19 -0.05 -0.19 -0.05 -0.19 -0.05 -0.19 -0.05 -0.19 -0.05 -0.19 -0.05 -0.19 -0.05 -0.19 -0.05 -0.19 -0.06 -0.19 -0.06 -0.19 -0.06 0.68 -2.18 0.17 0.05 0.18 0.05 0.18 0.05 0.18 0.05 0.18 0.05 0.18 0.05 0.18 0.05 0.18 0.05 0.18 0.05 0.18 0.05 0.18 0.05 0.18 0.05 0.18 0.05 0.19 0.05 0.18 0.05 0.18 0.04 0.19 0.05 0.18 0.04 0.18 0.04 0.19 0.05 0.18 0.04 0.19 0.05 0.18 0.05 0.18 0.05 0.18 0.05 0.18 0.05 0.18 0.05 0.18 0.05 0.18 0.05 0.18 0.05 0.18 0.05 0.18 0.05 -0 -0zm-0.64 2.19l-0 -0 0.04 0.01 -0.04 -0.01zm10.23 1.42l-0.74 2.16 0 0 -0.29 -0.1 -0.29 -0.1 -0.29 -0.11 -0.29 -0.11 -0.29 -0.11 -0.29 -0.11 -0.29 -0.11 -0.28 -0.11 -0.29 -0.12 -0.29 -0.12 -0.29 -0.12 -0.29 -0.12 -0.29 -0.12 -0.29 -0.12 -0.29 -0.12 -0.29 -0.12 -0.29 -0.12 -0.29 -0.12 -0.29 -0.12 -0.29 -0.12 -0.3 -0.12 -0.3 -0.12 -0.3 -0.11 -0.3 -0.11 -0.3 -0.11 -0.31 -0.11 -0.31 -0.11 -0.31 -0.11 -0.31 -0.1 -0.32 -0.1 -0.32 -0.1 -0.32 -0.1 0.64 -2.19 0.35 0.1 0.34 0.11 0.34 0.11 0.33 0.11 0.33 0.11 0.33 0.11 0.32 0.12 0.32 0.12 0.32 0.12 0.31 0.12 0.31 0.12 0.31 0.12 0.31 0.12 0.3 0.12 0.3 0.12 0.3 0.12 0.29 0.12 0.29 0.12 0.29 0.12 0.29 0.12 0.28 0.12 0.28 0.12 0.28 0.12 0.28 0.11 0.28 0.11 0.28 0.11 0.27 0.11 0.28 0.11 0.27 0.1 0.27 0.1 0.27 0.1 0.27 0.09 0 0zm7.68 2.64l1.72 -1.49 -0.64 1.87 -0.33 0.06 -0.33 0.05 -0.33 0.05 -0.32 0.04 -0.32 0.03 -0.32 0.03 -0.31 0.02 -0.31 0.02 -0.31 0.01 -0.31 0 -0.3 -0 -0.31 -0.01 -0.3 -0.02 -0.3 -0.02 -0.3 -0.03 -0.3 -0.03 -0.29 -0.04 -0.29 -0.04 -0.29 -0.05 -0.29 -0.05 -0.29 -0.06 -0.28 -0.06 -0.28 -0.06 -0.28 -0.07 -0.28 -0.07 -0.28 -0.07 -0.28 -0.08 -0.27 -0.08 -0.27 -0.08 -0.27 -0.09 -0.27 -0.09 -0.27 -0.09 0.74 -2.16 0.25 0.08 0.25 0.08 0.25 0.08 0.25 0.08 0.25 0.07 0.25 0.07 0.25 0.07 0.25 0.06 0.25 0.06 0.25 0.06 0.25 0.05 0.25 0.05 0.25 0.04 0.25 0.04 0.25 0.04 0.25 0.03 0.26 0.03 0.26 0.02 0.26 0.02 0.26 0.01 0.26 0.01 0.26 0 0.27 -0 0.27 -0.01 0.27 -0.01 0.27 -0.02 0.27 -0.02 0.28 -0.03 0.28 -0.04 0.28 -0.04 0.29 -0.05 0.29 -0.05 -0.64 1.87zm1.72 -1.49l1.29 1.49 -1.93 0.38 0.64 -1.87zm-2.39 0.18l2.27 0.24 -0.27 -0.87 0.02 0.02 0.01 0.01 -0.01 -0.01 0.03 0.03 0.02 0.03 0.01 0.01 0.01 0.01 0 0 0.01 0.01 0.02 0.03 0.01 0.01 0.01 0.01 0 0 0.01 0.01 0.02 0.03 0.01 0.01 0 0 0.01 0.01 0.04 0.04 -0 -0 0 0 0.01 0.01 0.02 0.03 0.01 0.01 0 0 0.01 0.01 0.02 0.03 0.02 0.03 -0.01 -0.01 0.01 0.01 0.02 0.03 0.01 0.01 -1.72 1.49 -0.02 -0.02 -0 -0 -0.01 -0.01 -0.04 -0.04 0 0 -0 -0 -0.01 -0.01 -0.02 -0.03 -0.01 -0.01 -0 -0 -0.01 -0.01 -0.02 -0.03 -0.02 -0.03 0.01 0.01 -0.01 -0.01 -0.02 -0.03 -0.01 -0.01 -0 -0 -0.01 -0.01 -0.02 -0.03 -0.01 -0.01 -0.01 -0.01 -0 -0 -0.01 -0.01 -0.02 -0.03 -0.01 -0.01 -0.01 -0.01 -0 -0 0 0 -0.04 -0.04 -0.01 -0.01 -0 -0.01 -0.27 -0.87zm0.27 0.87l-0.33 -0.37 0.05 -0.49 0.27 0.87zm0.38 -5.99l2.26 0.33 0 0 -0.02 0.15 -0.02 0.15 -0.02 0.15 -0.02 0.15 -0.02 0.15 -0.02 0.15 -0.02 0.16 -0.02 0.15 -0.02 0.15 -0.02 0.15 -0.02 0.16 -0.02 0.15 -0.02 0.16 -0.02 0.15 -0.02 0.15 -0.02 0.16 -0.02 0.16 -0.02 0.16 -0.02 0.16 -0.02 0.16 -0.02 0.16 -0.02 0.16 -0.02 0.16 -0.02 0.16 -0.02 0.17 -0.02 0.16 -0.02 0.16 -0.02 0.16 -0.02 0.16 -0.02 0.17 -0.02 0.17 -0.02 0.17 -2.27 -0.24 0.02 -0.17 0.02 -0.17 0.02 -0.17 0.02 -0.17 0.02 -0.17 0.02 -0.17 0.02 -0.17 0.02 -0.16 0.02 -0.16 0.02 -0.17 0.02 -0.16 0.02 -0.16 0.02 -0.16 0.02 -0.16 0.02 -0.16 0.02 -0.16 0.02 -0.16 0.02 -0.16 0.02 -0.16 0.02 -0.16 0.02 -0.16 0.02 -0.16 0.02 -0.16 0.02 -0.16 0.02 -0.16 0.02 -0.15 0.02 -0.15 0.02 -0.16 0.02 -0.15 0.02 -0.15 0.02 -0.15 0.02 -0.15 0 0zm1.13 0.17l0 0 0 0 0 0 -1.13 -0.17 1.13 0.17zm3.61 -11.91l-2.28 0 2.24 0.3 -0.09 0.33 -0.09 0.33 -0.09 0.33 -0.09 0.33 -0.08 0.33 -0.08 0.34 -0.08 0.34 -0.08 0.34 -0.08 0.34 -0.08 0.35 -0.08 0.35 -0.08 0.35 -0.08 0.36 -0.08 0.36 -0.08 0.36 -0.08 0.36 -0.08 0.37 -0.08 0.37 -0.07 0.37 -0.07 0.38 -0.07 0.38 -0.07 0.38 -0.07 0.39 -0.07 0.39 -0.07 0.39 -0.07 0.4 -0.07 0.4 -0.07 0.4 -0.07 0.41 -0.07 0.41 -0.06 0.42 -0.06 0.42 -2.26 -0.33 0.06 -0.43 0.07 -0.43 0.07 -0.42 0.07 -0.42 0.07 -0.41 0.07 -0.41 0.07 -0.41 0.07 -0.4 0.07 -0.4 0.07 -0.4 0.07 -0.39 0.07 -0.39 0.08 -0.39 0.08 -0.38 0.08 -0.38 0.08 -0.38 0.08 -0.37 0.08 -0.37 0.08 -0.37 0.08 -0.36 0.08 -0.36 0.08 -0.36 0.08 -0.35 0.08 -0.35 0.08 -0.35 0.09 -0.35 0.09 -0.34 0.09 -0.34 0.09 -0.34 0.09 -0.34 0.09 -0.33 0.09 -0.33 2.24 0.3zm-2.28 0l0 -0 2.28 0 0 0 -0.04 0.3 -2.24 -0.3zm0.69 -2.61l2.19 0.64 0 -0 -0.02 0.07 -0.02 0.07 -0.02 0.06 -0.02 0.07 -0.02 0.08 -0.02 0.07 -0.02 0.06 -0.02 0.07 -0.02 0.07 -0.02 0.07 -0.02 0.07 -0.02 0.07 -0.02 0.07 -0.02 0.07 -0.02 0.07 -0.02 0.08 -0.02 0.07 -0.02 0.07 -0.02 0.06 -0.02 0.07 -0.02 0.08 -0.02 0.06 -0.02 0.07 -0.02 0.07 -0.02 0.07 -0.02 0.08 -0.02 0.06 -0.02 0.07 -0.02 0.07 -0.02 0.07 -0.02 0.07 -0.02 0.07 -2.2 -0.6 0.02 -0.07 0.02 -0.07 0.02 -0.07 0.02 -0.07 0.02 -0.07 0.02 -0.08 0.02 -0.07 0.02 -0.07 0.02 -0.07 0.02 -0.07 0.02 -0.08 0.02 -0.07 0.02 -0.07 0.02 -0.08 0.02 -0.07 0.02 -0.07 0.02 -0.07 0.02 -0.07 0.02 -0.08 0.02 -0.07 0.02 -0.07 0.02 -0.07 0.02 -0.07 0.02 -0.07 0.02 -0.07 0.02 -0.08 0.02 -0.07 0.02 -0.06 0.02 -0.07 0.02 -0.08 0.02 -0.07 0.02 -0.07 0 -0zm-0 0l0 -0 -0.08 0.26 0.08 -0.26zm0.69 -2.3l2.18 0.68 0 -0 -0.02 0.07 -0.02 0.07 -0.02 0.06 -0.02 0.07 -0.02 0.08 -0.02 0.07 -0.02 0.06 -0.02 0.07 -0.02 0.08 -0.02 0.06 -0.02 0.07 -0.02 0.08 -0.02 0.06 -0.02 0.07 -0.02 0.07 -0.02 0.07 -0.02 0.07 -0.02 0.07 -0.02 0.07 -0.02 0.07 -0.02 0.07 -0.02 0.07 -0.02 0.07 -0.02 0.07 -0.02 0.07 -0.02 0.07 -0.02 0.08 -0.02 0.07 -0.02 0.07 -0.02 0.08 -0.02 0.07 -0.02 0.07 -2.19 -0.64 0.02 -0.07 0.02 -0.07 0.02 -0.07 0.02 -0.08 0.02 -0.07 0.02 -0.07 0.02 -0.08 0.02 -0.07 0.02 -0.07 0.02 -0.07 0.02 -0.07 0.02 -0.07 0.02 -0.07 0.02 -0.07 0.02 -0.07 0.02 -0.07 0.02 -0.07 0.02 -0.07 0.02 -0.07 0.02 -0.08 0.02 -0.06 0.02 -0.07 0.02 -0.08 0.02 -0.07 0.02 -0.07 0.02 -0.08 0.02 -0.07 0.02 -0.06 0.02 -0.07 0.02 -0.08 0.02 -0.07 0.02 -0.07 0 -0zm2.84 -2.41l-1.11 -1.99 1.64 1.35 -0.04 0.12 -0.04 0.12 -0.04 0.11 -0.04 0.12 -0.04 0.12 -0.04 0.11 -0.04 0.12 -0.04 0.12 -0.04 0.11 -0.04 0.12 -0.04 0.12 -0.04 0.12 -0.04 0.12 -0.04 0.11 -0.04 0.12 -0.04 0.12 -0.04 0.11 -0.04 0.12 -0.04 0.12 -0.04 0.12 -0.04 0.11 -0.04 0.12 -0.04 0.12 -0.04 0.12 -0.04 0.12 -0.04 0.11 -0.04 0.12 -0.04 0.12 -0.04 0.12 -0.04 0.11 -0.04 0.12 -0.04 0.12 -2.18 -0.68 0.04 -0.12 0.04 -0.12 0.04 -0.12 0.04 -0.12 0.04 -0.11 0.04 -0.12 0.04 -0.12 0.04 -0.12 0.04 -0.12 0.04 -0.12 0.04 -0.12 0.04 -0.12 0.04 -0.12 0.04 -0.11 0.04 -0.12 0.04 -0.12 0.04 -0.12 0.04 -0.11 0.04 -0.12 0.04 -0.12 0.04 -0.12 0.04 -0.12 0.04 -0.12 0.04 -0.12 0.04 -0.11 0.04 -0.12 0.04 -0.12 0.04 -0.11 0.04 -0.12 0.04 -0.12 0.04 -0.12 0.04 -0.12 1.64 1.35zm-1.11 -1.99l2.54 -1.42 -0.9 2.77 -1.64 -1.35zm-3.3 1.95l1.61 1.61 -1.37 -1.8 0.11 -0.06 0.11 -0.06 0.11 -0.06 0.1 -0.06 0.11 -0.06 0.11 -0.06 0.1 -0.06 0.1 -0.06 0.11 -0.06 0.1 -0.06 0.1 -0.06 0.1 -0.06 0.1 -0.06 0.1 -0.06 0.1 -0.06 0.1 -0.06 0.1 -0.05 0.09 -0.06 0.1 -0.06 0.09 -0.05 0.09 -0.05 0.09 -0.05 0.09 -0.05 0.09 -0.05 0.09 -0.05 0.09 -0.05 0.08 -0.05 0.08 -0.05 0.09 -0.05 0.08 -0.05 0.08 -0.04 0.08 -0.04 1.11 1.99 -0.07 0.04 -0.08 0.04 -0.08 0.04 -0.07 0.04 -0.08 0.05 -0.08 0.05 -0.08 0.05 -0.08 0.05 -0.09 0.05 -0.09 0.05 -0.09 0.05 -0.09 0.05 -0.09 0.05 -0.09 0.05 -0.1 0.06 -0.1 0.06 -0.1 0.06 -0.1 0.06 -0.1 0.06 -0.1 0.06 -0.1 0.06 -0.1 0.06 -0.11 0.06 -0.1 0.06 -0.11 0.06 -0.11 0.06 -0.1 0.06 -0.11 0.06 -0.11 0.06 -0.11 0.06 -0.11 0.06 -0.11 0.06 -1.37 -1.8zm7.91 -19.85l2.24 0.45 0 0 -0.13 0.64 -0.13 0.63 -0.13 0.62 -0.14 0.61 -0.13 0.6 -0.14 0.59 -0.14 0.59 -0.14 0.58 -0.14 0.57 -0.14 0.56 -0.14 0.56 -0.14 0.55 -0.14 0.54 -0.14 0.54 -0.15 0.53 -0.15 0.52 -0.15 0.52 -0.15 0.51 -0.15 0.51 -0.15 0.5 -0.15 0.5 -0.15 0.49 -0.15 0.49 -0.15 0.48 -0.15 0.48 -0.15 0.48 -0.15 0.47 -0.15 0.47 -0.15 0.47 -0.15 0.47 -0.15 0.47 -0.15 0.46 -2.17 -0.7 0.15 -0.46 0.15 -0.46 0.15 -0.46 0.15 -0.47 0.15 -0.47 0.15 -0.47 0.15 -0.47 0.15 -0.48 0.15 -0.48 0.15 -0.48 0.15 -0.49 0.15 -0.49 0.15 -0.49 0.15 -0.5 0.15 -0.5 0.15 -0.51 0.14 -0.51 0.14 -0.52 0.14 -0.53 0.14 -0.53 0.14 -0.54 0.14 -0.55 0.14 -0.55 0.14 -0.56 0.14 -0.57 0.14 -0.58 0.13 -0.58 0.13 -0.59 0.13 -0.6 0.13 -0.61 0.13 -0.62 0.13 -0.63 0 0zm1.16 -1.43l1.01 -2.04 0.61 1.26 -0.02 0.08 -0.02 0.08 -0.02 0.08 -0.02 0.08 -0.02 0.08 -0.02 0.08 -0.02 0.08 -0.02 0.08 -0.02 0.09 -0.02 0.08 -0.02 0.08 -0.02 0.08 -0.02 0.09 -0.02 0.08 -0.02 0.08 -0.02 0.08 -0.02 0.08 -0.02 0.08 -0.02 0.08 -0.02 0.09 -0.02 0.08 -0.02 0.08 -0.02 0.09 -0.02 0.08 -0.02 0.08 -0.02 0.08 -0.02 0.09 -0.02 0.08 -0.02 0.08 -0.02 0.08 -0.02 0.08 -0.02 0.08 -2.24 -0.45 0.02 -0.08 0.02 -0.08 0.02 -0.08 0.02 -0.09 0.02 -0.08 0.02 -0.08 0.02 -0.08 0.02 -0.09 0.02 -0.08 0.02 -0.08 0.02 -0.09 0.02 -0.08 0.02 -0.08 0.02 -0.09 0.02 -0.08 0.02 -0.08 0.02 -0.08 0.02 -0.08 0.02 -0.09 0.02 -0.08 0.02 -0.08 0.02 -0.09 0.02 -0.08 0.02 -0.08 0.02 -0.08 0.02 -0.09 0.02 -0.08 0.02 -0.08 0.02 -0.08 0.02 -0.08 0.02 -0.08 0.02 -0.08 0.61 1.26zm1.01 -2.04l0.79 0.39 -0.18 0.87 -0.61 -1.26zm-2.88 0.4l2.28 0 -0.62 -1.01 0.04 0.02 0.03 0.02 0.03 0.02 0.05 0.02 0.03 0.02 0.04 0.02 0.04 0.02 0.04 0.02 0.04 0.02 0.03 0.02 0.04 0.02 0.04 0.02 0.03 0.02 0.05 0.02 0.04 0.02 0.03 0.02 0.04 0.02 0.04 0.02 0.04 0.02 0.04 0.02 0.04 0.02 0.04 0.02 0.04 0.02 0.03 0.02 0.04 0.02 0.04 0.02 0.03 0.02 0.04 0.02 0.04 0.02 0.03 0.02 0.04 0.02 0.04 0.02 -1.01 2.04 -0.04 -0.02 -0.04 -0.02 -0.04 -0.02 -0.03 -0.02 -0.04 -0.02 -0.04 -0.02 -0.04 -0.02 -0.04 -0.02 -0.04 -0.02 -0.04 -0.02 -0.03 -0.02 -0.04 -0.02 -0.04 -0.02 -0.04 -0.02 -0.04 -0.02 -0.04 -0.02 -0.05 -0.02 -0.04 -0.02 -0.03 -0.02 -0.04 -0.02 -0.04 -0.02 -0.03 -0.02 -0.05 -0.02 -0.04 -0.02 -0.04 -0.02 -0.04 -0.02 -0.04 -0.02 -0.04 -0.02 -0.03 -0.02 -0.04 -0.02 -0.05 -0.03 -0.03 -0.02 -0.62 -1.01zm0.62 1.01l-0.62 -0.32 0 -0.69 0.62 1.01zm1.66 -1.01l0 0 -2.28 0 0 -0 1.69 -1 0.59 1zm-0.59 -1l0.59 0.32 0 0.68 -0.59 -1zm-6.93 -2.15l1.93 -1.22 -0 -0 0.02 0.03 0.04 0.05 0.05 0.06 0.07 0.07 0.09 0.08 0.1 0.09 0.11 0.1 0.12 0.1 0.14 0.11 0.14 0.11 0.15 0.11 0.16 0.12 0.17 0.12 0.17 0.12 0.18 0.12 0.19 0.12 0.19 0.12 0.19 0.12 0.2 0.13 0.2 0.12 0.2 0.12 0.2 0.12 0.2 0.12 0.2 0.12 0.2 0.12 0.2 0.12 0.2 0.11 0.19 0.11 0.19 0.11 0.19 0.11 0.18 0.1 0.18 0.1 -1.1 2 -0.18 -0.1 -0.19 -0.11 -0.19 -0.11 -0.2 -0.11 -0.2 -0.12 -0.2 -0.12 -0.21 -0.12 -0.21 -0.12 -0.21 -0.13 -0.21 -0.13 -0.21 -0.13 -0.21 -0.13 -0.21 -0.13 -0.21 -0.13 -0.21 -0.13 -0.2 -0.13 -0.2 -0.13 -0.2 -0.13 -0.19 -0.14 -0.19 -0.13 -0.18 -0.13 -0.18 -0.13 -0.17 -0.13 -0.17 -0.13 -0.16 -0.13 -0.15 -0.13 -0.14 -0.13 -0.14 -0.13 -0.13 -0.14 -0.13 -0.14 -0.12 -0.15 -0.11 -0.16 -0 -0zm0 0l-0 -0 -0.01 -0.02 0.01 0.02zm-4.95 -9.8l1.98 -1.13 -0 -0 0.17 0.31 0.17 0.31 0.17 0.31 0.16 0.31 0.16 0.31 0.16 0.31 0.15 0.31 0.15 0.31 0.15 0.31 0.15 0.31 0.15 0.31 0.14 0.31 0.14 0.31 0.14 0.31 0.14 0.31 0.14 0.31 0.14 0.31 0.14 0.31 0.14 0.31 0.14 0.3 0.14 0.3 0.15 0.3 0.15 0.3 0.15 0.3 0.15 0.29 0.15 0.29 0.16 0.29 0.16 0.29 0.16 0.29 0.17 0.29 0.17 0.28 0.18 0.28 -1.93 1.22 -0.19 -0.31 -0.19 -0.31 -0.18 -0.31 -0.18 -0.31 -0.17 -0.31 -0.17 -0.32 -0.16 -0.31 -0.16 -0.32 -0.16 -0.32 -0.15 -0.31 -0.15 -0.32 -0.15 -0.31 -0.15 -0.31 -0.15 -0.31 -0.14 -0.31 -0.14 -0.31 -0.14 -0.31 -0.14 -0.31 -0.14 -0.31 -0.14 -0.31 -0.14 -0.3 -0.14 -0.31 -0.14 -0.3 -0.14 -0.3 -0.14 -0.3 -0.15 -0.3 -0.15 -0.3 -0.15 -0.29 -0.15 -0.29 -0.15 -0.29 -0.16 -0.29 -0.16 -0.28 -0 -0zm0 0l-0 -0 -0.14 -0.24 0.14 0.24zm-2.25 -3l1.63 -1.59 -0 -0 0.09 0.09 0.09 0.09 0.09 0.09 0.09 0.09 0.09 0.1 0.09 0.1 0.08 0.09 0.09 0.1 0.09 0.1 0.08 0.1 0.08 0.1 0.08 0.1 0.09 0.11 0.08 0.1 0.08 0.1 0.08 0.11 0.08 0.11 0.08 0.11 0.08 0.11 0.08 0.11 0.08 0.12 0.08 0.12 0.08 0.11 0.08 0.11 0.08 0.12 0.08 0.12 0.08 0.12 0.07 0.12 0.07 0.12 0.07 0.13 0.07 0.12 0.07 0.13 -1.98 1.13 -0.06 -0.11 -0.06 -0.11 -0.06 -0.11 -0.07 -0.11 -0.07 -0.11 -0.06 -0.1 -0.07 -0.1 -0.07 -0.1 -0.07 -0.1 -0.07 -0.1 -0.07 -0.1 -0.07 -0.09 -0.07 -0.1 -0.07 -0.1 -0.07 -0.09 -0.07 -0.09 -0.07 -0.09 -0.07 -0.1 -0.07 -0.09 -0.07 -0.09 -0.07 -0.09 -0.07 -0.09 -0.08 -0.09 -0.07 -0.08 -0.07 -0.08 -0.08 -0.09 -0.07 -0.08 -0.07 -0.08 -0.08 -0.08 -0.08 -0.08 -0.08 -0.08 -0.08 -0.08 -0 -0zm0 0l-0 -0 0.16 0.17 -0.16 -0.16zm0.82 -0.8l0 0 0 0 0 0 -0.82 0.79 0.82 -0.79zm-0.82 0.8l-0 -0 0.16 0.17 -0.16 -0.16zm-2.89 -2.16l1.05 -2.02 0 0 0.11 0.06 0.11 0.06 0.11 0.06 0.11 0.06 0.11 0.06 0.11 0.07 0.12 0.07 0.11 0.07 0.11 0.07 0.11 0.07 0.11 0.07 0.11 0.08 0.11 0.08 0.11 0.07 0.11 0.08 0.11 0.08 0.11 0.08 0.11 0.08 0.11 0.09 0.11 0.08 0.11 0.08 0.11 0.09 0.11 0.09 0.11 0.09 0.11 0.09 0.11 0.09 0.11 0.1 0.1 0.09 0.11 0.1 0.1 0.1 0.1 0.1 0.1 0.11 -1.63 1.59 -0.08 -0.09 -0.09 -0.09 -0.08 -0.08 -0.08 -0.08 -0.09 -0.08 -0.09 -0.08 -0.09 -0.08 -0.09 -0.08 -0.09 -0.07 -0.09 -0.08 -0.09 -0.07 -0.09 -0.07 -0.09 -0.07 -0.09 -0.07 -0.09 -0.07 -0.09 -0.07 -0.09 -0.06 -0.09 -0.06 -0.09 -0.07 -0.09 -0.06 -0.09 -0.06 -0.09 -0.06 -0.09 -0.06 -0.09 -0.06 -0.1 -0.06 -0.09 -0.05 -0.09 -0.06 -0.1 -0.06 -0.09 -0.05 -0.09 -0.05 -0.09 -0.05 -0.1 -0.05 0 0zm1.05 -2.02l0 0 0.02 0.01 -0.02 -0.01zm-3.11 1.24l0.51 -2.22 0 0 0.08 0.02 0.09 0.02 0.07 0.02 0.08 0.02 0.09 0.03 0.08 0.02 0.08 0.02 0.08 0.03 0.08 0.03 0.08 0.03 0.08 0.03 0.08 0.03 0.08 0.03 0.08 0.03 0.08 0.03 0.08 0.03 0.08 0.03 0.09 0.03 0.08 0.03 0.08 0.03 0.09 0.04 0.08 0.03 0.08 0.03 0.09 0.04 0.08 0.04 0.08 0.04 0.08 0.04 0.08 0.04 0.08 0.04 0.07 0.04 0.08 0.04 0.08 0.04 -1.05 2.02 -0.06 -0.03 -0.06 -0.03 -0.07 -0.04 -0.06 -0.03 -0.06 -0.03 -0.07 -0.03 -0.07 -0.03 -0.06 -0.03 -0.06 -0.03 -0.07 -0.03 -0.07 -0.03 -0.06 -0.03 -0.06 -0.03 -0.07 -0.03 -0.06 -0.02 -0.07 -0.03 -0.06 -0.02 -0.06 -0.02 -0.07 -0.02 -0.07 -0.02 -0.06 -0.02 -0.06 -0.02 -0.07 -0.02 -0.06 -0.02 -0.06 -0.02 -0.07 -0.02 -0.07 -0.02 -0.05 -0.02 -0.06 -0.02 -0.07 -0.02 -0.06 -0.02 -0.06 -0.01 0 0zm-4.03 0.31l-0.95 -2.07 0 0 0.16 -0.07 0.16 -0.07 0.16 -0.06 0.17 -0.06 0.17 -0.06 0.16 -0.05 0.17 -0.05 0.17 -0.05 0.17 -0.04 0.17 -0.04 0.17 -0.03 0.17 -0.03 0.17 -0.03 0.17 -0.02 0.17 -0.02 0.17 -0.02 0.18 -0.01 0.17 -0.01 0.17 -0 0.17 -0 0.17 0 0.18 0.01 0.18 0.01 0.18 0.01 0.18 0.02 0.18 0.02 0.18 0.02 0.17 0.03 0.18 0.03 0.18 0.03 0.17 0.04 0.18 0.04 -0.51 2.22 -0.14 -0.03 -0.14 -0.03 -0.13 -0.03 -0.14 -0.02 -0.14 -0.02 -0.13 -0.02 -0.13 -0.01 -0.13 -0.01 -0.13 -0.01 -0.13 -0.01 -0.13 -0 -0.13 -0 -0.13 0 -0.13 0 -0.13 0.01 -0.13 0.01 -0.13 0.01 -0.13 0.01 -0.13 0.02 -0.12 0.02 -0.12 0.02 -0.12 0.02 -0.12 0.03 -0.12 0.03 -0.12 0.03 -0.12 0.03 -0.12 0.04 -0.12 0.04 -0.11 0.04 -0.12 0.05 -0.11 0.05 -0.11 0.05 0 0zm-2.86 8.02l-2.19 0.63 0 -0 -0.1 -0.36 -0.09 -0.36 -0.09 -0.36 -0.08 -0.36 -0.07 -0.36 -0.06 -0.36 -0.05 -0.37 -0.04 -0.37 -0.03 -0.37 -0.02 -0.37 -0 -0.37 0.01 -0.37 0.03 -0.37 0.05 -0.37 0.06 -0.37 0.08 -0.37 0.11 -0.36 0.13 -0.36 0.15 -0.36 0.17 -0.35 0.2 -0.34 0.22 -0.33 0.24 -0.33 0.27 -0.32 0.29 -0.3 0.32 -0.29 0.34 -0.28 0.36 -0.27 0.39 -0.26 0.41 -0.25 0.44 -0.24 0.46 -0.22 0.95 2.07 -0.38 0.18 -0.35 0.19 -0.32 0.19 -0.29 0.2 -0.27 0.2 -0.24 0.2 -0.22 0.21 -0.2 0.21 -0.18 0.21 -0.16 0.21 -0.14 0.22 -0.13 0.22 -0.11 0.22 -0.1 0.23 -0.08 0.23 -0.07 0.24 -0.06 0.25 -0.04 0.25 -0.03 0.26 -0.02 0.27 -0.01 0.27 0 0.28 0.01 0.28 0.02 0.29 0.03 0.3 0.04 0.3 0.05 0.31 0.06 0.31 0.07 0.31 0.08 0.32 0.08 0.32 0.09 0.32 0 -0zm1.22 3.66l-2.15 0.76 0 0 -0.04 -0.11 -0.04 -0.11 -0.04 -0.11 -0.04 -0.12 -0.04 -0.12 -0.04 -0.12 -0.04 -0.12 -0.04 -0.11 -0.04 -0.12 -0.04 -0.12 -0.04 -0.11 -0.04 -0.12 -0.04 -0.12 -0.04 -0.12 -0.04 -0.11 -0.04 -0.12 -0.04 -0.12 -0.04 -0.12 -0.04 -0.12 -0.04 -0.12 -0.04 -0.12 -0.04 -0.12 -0.04 -0.12 -0.04 -0.12 -0.04 -0.12 -0.04 -0.13 -0.04 -0.12 -0.04 -0.12 -0.04 -0.12 -0.04 -0.12 -0.04 -0.12 -0.04 -0.12 2.19 -0.63 0.03 0.12 0.03 0.11 0.03 0.11 0.04 0.12 0.04 0.12 0.04 0.12 0.03 0.11 0.04 0.11 0.04 0.12 0.04 0.11 0.04 0.12 0.04 0.12 0.04 0.11 0.04 0.11 0.04 0.12 0.04 0.11 0.04 0.11 0.04 0.12 0.04 0.12 0.04 0.11 0.04 0.12 0.04 0.12 0.04 0.11 0.04 0.12 0.04 0.12 0.04 0.11 0.04 0.12 0.04 0.11 0.04 0.11 0.04 0.12 0.04 0.11 0.04 0.11 0 0zm0.54 1.57l-2.17 0.7 -0 -0.01 -0.01 -0.04 -0.01 -0.04 -0.02 -0.06 -0.01 -0.04 -0.01 -0.04 -0.02 -0.06 -0.01 -0.04 -0.01 -0.04 -0.02 -0.05 -0.02 -0.05 -0.01 -0.04 -0.02 -0.05 -0.02 -0.05 -0.02 -0.04 -0.02 -0.06 -0.02 -0.05 -0.02 -0.04 -0.02 -0.05 -0.01 -0.04 -0.02 -0.05 -0.02 -0.06 -0.01 -0.04 -0.02 -0.05 -0.02 -0.05 -0.02 -0.05 -0.02 -0.05 -0.02 -0.05 -0.02 -0.05 -0.02 -0.05 -0.02 -0.05 -0.02 -0.05 -0.02 -0.05 2.15 -0.76 0.02 0.05 0.02 0.05 0.02 0.05 0.02 0.05 0.02 0.05 0.02 0.05 0.02 0.05 0.02 0.05 0.02 0.05 0.02 0.05 0.02 0.06 0.01 0.04 0.02 0.05 0.02 0.06 0.02 0.05 0.02 0.05 0.02 0.05 0.01 0.04 0.02 0.05 0.02 0.05 0.02 0.05 0.02 0.06 0.02 0.05 0.02 0.05 0.02 0.05 0.02 0.06 0.01 0.04 0.02 0.05 0.02 0.06 0.01 0.04 0.02 0.06 0.02 0.05 -0 -0.01zm-2.17 0.7l-0.01 -0.02 0 0.01 0 0.01zm2.23 -0.51l-2.18 0.67 -0 -0 0.01 0.02 -0.01 -0.03 -0 -0.01 0.01 0.02 -0.01 -0.03 -0 -0.01 -0 -0.01 0.02 0.07 0.01 0.02 -0.04 -0.11 -0 -0.01 0.02 0.07 -0 -0.01 -0.03 -0.08 0.02 0.07 -0 -0.01 -0.03 -0.08 0.02 0.07 -0 -0.01 -0.03 -0.08 -0 -0.01 0.02 0.07 -0 -0.01 -0.02 -0.05 -0.01 -0.03 0.02 0.07 0.01 0.02 -0.04 -0.11 -0 -0.01 0.01 0.02 -0 -0.01 -0.01 -0.02 2.17 -0.7 -0 -0.01 0 0.01 0.01 0.03 0 0.01 -0.04 -0.1 0.01 0.03 0.03 0.08 -0.01 -0.02 -0.02 -0.04 0 0.01 0.03 0.08 0 0.01 -0.02 -0.07 0 0.01 0.03 0.08 -0.02 -0.07 0 0.01 0.03 0.08 -0.02 -0.07 0 0.01 0.03 0.08 0 0.01 -0.04 -0.1 0.01 0.03 0.03 0.08 0 0.01 0 0.01 -0.01 -0.02 0.01 0.03 0 0.01 -0.01 -0.02 0.01 0.03 -0 -0zm-2.18 0.67l-0 -0 -0.05 -0.15 0.05 0.15zm8.35 16.18l-1.26 1.9 -0.14 -0.11 -0.5 -0.48 -0.47 -0.49 -0.44 -0.51 -0.41 -0.52 -0.38 -0.53 -0.35 -0.54 -0.32 -0.54 -0.3 -0.55 -0.28 -0.56 -0.25 -0.56 -0.24 -0.57 -0.22 -0.57 -0.2 -0.58 -0.18 -0.58 -0.17 -0.58 -0.16 -0.58 -0.15 -0.59 -0.14 -0.59 -0.13 -0.59 -0.13 -0.59 -0.12 -0.59 -0.12 -0.58 -0.12 -0.59 -0.12 -0.58 -0.12 -0.58 -0.12 -0.58 -0.12 -0.58 -0.13 -0.57 -0.14 -0.57 -0.14 -0.56 -0.15 -0.56 -0.16 -0.55 2.18 -0.67 0.18 0.6 0.16 0.6 0.15 0.6 0.14 0.6 0.14 0.6 0.13 0.59 0.12 0.59 0.12 0.59 0.12 0.59 0.12 0.58 0.12 0.58 0.12 0.57 0.12 0.57 0.13 0.56 0.13 0.56 0.14 0.55 0.15 0.54 0.16 0.54 0.17 0.53 0.18 0.52 0.19 0.51 0.21 0.5 0.22 0.49 0.24 0.48 0.26 0.47 0.28 0.47 0.3 0.45 0.32 0.45 0.34 0.44 0.37 0.43 0.39 0.42 0.42 0.41 -0.14 -0.11zm-1.26 1.9l-0.08 -0.05 -0.06 -0.06 0.14 0.11zm4.43 0.76l-2.28 0 0.54 0.97 -0.08 -0.05 -0.08 -0.05 -0.08 -0.05 -0.08 -0.05 -0.08 -0.05 -0.08 -0.05 -0.08 -0.05 -0.08 -0.05 -0.08 -0.05 -0.08 -0.05 -0.08 -0.05 -0.08 -0.05 -0.08 -0.05 -0.08 -0.05 -0.08 -0.05 -0.09 -0.06 -0.08 -0.05 -0.09 -0.05 -0.08 -0.06 -0.08 -0.05 -0.09 -0.06 -0.09 -0.06 -0.09 -0.06 -0.09 -0.06 -0.09 -0.06 -0.09 -0.06 -0.09 -0.06 -0.09 -0.06 -0.09 -0.06 -0.09 -0.06 -0.09 -0.06 -0.09 -0.06 1.26 -1.9 0.09 0.06 0.09 0.06 0.09 0.06 0.09 0.06 0.09 0.06 0.09 0.06 0.09 0.06 0.09 0.06 0.09 0.06 0.08 0.05 0.08 0.05 0.08 0.05 0.09 0.06 0.08 0.05 0.08 0.05 0.08 0.05 0.08 0.05 0.08 0.05 0.08 0.05 0.08 0.05 0.08 0.05 0.08 0.05 0.08 0.05 0.08 0.05 0.07 0.05 0.08 0.05 0.08 0.05 0.08 0.05 0.08 0.05 0.07 0.05 0.07 0.05 0.08 0.05 0.54 0.97zm-0.54 -0.97l0.54 0.33 0 0.64 -0.54 -0.97zm-1.74 0.97l0 -0 2.28 0 0 0 -1.74 0.97 -0.54 -0.97zm0.54 0.97l-0.54 -0.33 0 -0.64 0.54 0.97zm11 4.5l2.17 0.7 -1.51 0.71 -0.37 -0.15 -0.37 -0.15 -0.37 -0.16 -0.37 -0.16 -0.37 -0.16 -0.37 -0.16 -0.37 -0.17 -0.38 -0.17 -0.37 -0.17 -0.37 -0.17 -0.37 -0.18 -0.38 -0.18 -0.37 -0.18 -0.37 -0.18 -0.37 -0.18 -0.37 -0.19 -0.37 -0.19 -0.37 -0.19 -0.37 -0.19 -0.37 -0.19 -0.36 -0.2 -0.36 -0.2 -0.36 -0.2 -0.36 -0.2 -0.36 -0.2 -0.35 -0.2 -0.35 -0.2 -0.35 -0.2 -0.35 -0.2 -0.34 -0.21 -0.34 -0.21 -0.34 -0.21 1.2 -1.94 0.33 0.2 0.33 0.2 0.33 0.2 0.34 0.2 0.34 0.2 0.34 0.2 0.35 0.2 0.34 0.19 0.35 0.19 0.35 0.19 0.35 0.19 0.35 0.19 0.36 0.19 0.36 0.19 0.36 0.19 0.36 0.18 0.36 0.18 0.36 0.18 0.36 0.18 0.36 0.18 0.36 0.17 0.36 0.17 0.36 0.17 0.36 0.17 0.36 0.16 0.36 0.16 0.36 0.16 0.36 0.16 0.36 0.15 0.36 0.15 0.36 0.15 0.36 0.14 -1.51 0.71zm2.17 0.7l-0.38 1.16 -1.13 -0.45 1.51 -0.71z"/>
   </g>
   <path class="fil0" d="M238.72 99.07c0.42,-0.37 0.68,-0.88 0.76,-1.42 0.08,-0.53 -0.03,-1.08 -0.33,-1.57 -0.34,-0.55 -0.88,-0.92 -1.46,-1.06 -0.59,-0.14 -1.23,-0.06 -1.78,0.28 -0.32,0.19 -0.57,0.45 -0.75,0.74 -0.19,0.31 -0.31,0.66 -0.35,1.02l-0.16 1.49 -1.39 -0.55c-3.41,-1.35 -7.03,-2.11 -10.68,-2.25 -3.6,-0.14 -7.25,0.33 -10.79,1.42l-0.99 0.31 -0.96 0.34c-0.92,0.35 -1.85,0.75 -2.76,1.2 -0.93,0.45 -1.82,0.94 -2.68,1.47 -3.65,2.25 -6.69,5.1 -9.08,8.35 -2.32,3.15 -4.02,6.68 -5.07,10.39l1.66 1.03c7.48,-2.88 15.57,-2.97 22.89,-0.58 7.37,2.41 13.95,7.35 18.34,14.47 1.6,2.6 2.74,5.64 3.5,8.76 0.83,3.41 1.2,6.93 1.23,10.06 0.33,0.2 0.71,0.33 1.08,0.44 0.52,0.17 1.03,0.33 1.53,0.65 6.64,-4.86 10.94,-11.87 12.53,-19.46 1.64,-7.8 0.41,-16.22 -4.11,-23.55 -1.28,-2.09 -2.78,-3.97 -4.42,-5.65 -1.71,-1.74 -3.6,-3.26 -5.62,-4.56l-1.26 -0.81 1.12 -1zm3.01 -1.09c-0.09,0.59 -0.29,1.16 -0.59,1.68 1.76,1.22 3.42,2.62 4.96,4.18 1.76,1.79 3.36,3.81 4.74,6.04 4.83,7.85 6.15,16.86 4.4,25.2 -1.76,8.4 -6.64,16.14 -14.17,21.36l-0.81 0.56 -0.67 -0.73c-0.33,-0.36 -0.83,-0.52 -1.34,-0.68 -0.75,-0.24 -1.52,-0.49 -2.3,-1.22l-0.36 -0.34 0 -0.49c0.01,-3.11 -0.34,-6.65 -1.17,-10.09 -0.7,-2.9 -1.75,-5.72 -3.22,-8.1 -4.09,-6.65 -10.24,-11.25 -17.11,-13.5 -6.99,-2.29 -14.75,-2.15 -21.87,0.74l-0.54 0.22 -4.07 -2.53 0.21 -0.81c1.09,-4.28 3,-8.35 5.66,-11.97 2.56,-3.48 5.82,-6.54 9.72,-8.94 0.96,-0.59 1.92,-1.12 2.88,-1.58 0.96,-0.47 1.95,-0.89 2.95,-1.28 0.36,-0.14 0.71,-0.26 1.05,-0.37l1.03 -0.33c3.79,-1.18 7.69,-1.67 11.55,-1.52 3.5,0.13 6.96,0.8 10.25,1.96 0.09,-0.21 0.2,-0.41 0.32,-0.6 0.37,-0.58 0.87,-1.09 1.48,-1.47 1.09,-0.67 2.35,-0.84 3.5,-0.57 1.16,0.27 2.21,0.99 2.88,2.08 0.59,0.96 0.79,2.06 0.64,3.09z"/>
   <path class="fil0" d="M131.52 96.14c1.18,-11.77 8.72,-13.2 17.68,-12.3 2.47,0.25 5.02,0.67 7.56,1.1 5.51,0.92 11.03,1.84 15.21,0.86l0.52 2.22c-4.13,0.98 -7.13,3.52 -10.14,6.07 -6.49,5.5 -12.98,11.01 -30.16,3.21l-0.75 -0.34 0.08 -0.81zm17.45 -10.04c-7.5,-0.75 -13.84,0.34 -15.09,9.45 15.31,6.7 21.15,1.75 27,-3.21 1.62,-1.37 3.23,-2.74 5.04,-3.91 -3.04,-0.17 -6.29,-0.71 -9.53,-1.26 -2.52,-0.42 -5.04,-0.84 -7.41,-1.08z"/>
   <path class="fil0" d="M127.94 198.92c12.71,8.96 26.39,13.59 39.67,14.59 12.19,0.92 24.05,-1.23 34.49,-5.91 10.43,-4.67 19.47,-11.87 26.04,-21.06 6.11,-8.54 10.09,-18.81 11.09,-30.37 -11.99,-6.21 -22.21,-14.06 -32.43,-21.9 -19.97,-15.33 -39.95,-30.66 -73.08,-33.42 15.22,15.89 8.41,39.61 1.61,63.33 -3.43,11.96 -6.86,23.93 -7.39,34.73zm39.5 16.86c-13.84,-1.04 -28.11,-5.92 -41.32,-15.37l-0.5 -0.36 0.02 -0.61c0.43,-11.26 3.97,-23.57 7.5,-35.89 6.93,-24.16 13.85,-48.31 -3.24,-63.21l0.81 -2c35.73,2.07 56.6,18.09 77.48,34.11 10.32,7.92 20.65,15.85 32.76,22.03l0.68 0.34 -0.06 0.76c-0.93,12.3 -5.1,23.22 -11.57,32.27 -6.81,9.52 -16.16,16.98 -26.96,21.81 -10.79,4.83 -23.02,7.05 -35.59,6.1z"/>
   <path class="fil0" d="M128.54 91.61c1.72,0 3.29,0.67 4.42,1.75 1.15,1.1 1.86,2.62 1.86,4.29 0,1.68 -0.71,3.2 -1.86,4.29 -1.14,1.08 -2.7,1.75 -4.42,1.75 -1.72,0 -3.29,-0.67 -4.42,-1.75 -1.15,-1.1 -1.86,-2.62 -1.86,-4.29 0,-1.68 0.71,-3.2 1.86,-4.29 1.14,-1.08 2.7,-1.75 4.42,-1.75zm2.86 3.4c-0.73,-0.69 -1.74,-1.12 -2.86,-1.12 -1.12,0 -2.13,0.43 -2.86,1.12 -0.71,0.68 -1.15,1.61 -1.15,2.65 0,1.03 0.44,1.97 1.15,2.65 0.72,0.69 1.74,1.12 2.86,1.12 1.12,0 2.13,-0.43 2.86,-1.12 0.71,-0.68 1.15,-1.61 1.15,-2.64 0,-1.03 -0.44,-1.97 -1.15,-2.65z"/>
   <circle class="fil1" cx="141.12" cy="191.77" r="2.67"/>
   <circle class="fil1" cx="158.87" cy="176.21" r="2.67"/>
   <circle class="fil1" cx="169.81" cy="194.44" r="2.67"/>
   <circle class="fil1" cx="184.19" cy="172.73" r="2.67"/>
   <circle class="fil1" cx="205.63" cy="183.62" r="2.67"/>
   <circle class="fil1" cx="204.58" cy="154.08" r="2.67"/>
   <circle class="fil1" cx="227.93" cy="161.86" r="2.67"/>
   <circle class="fil1" cx="145.98" cy="159.67" r="2.67"/>
   <circle class="fil1" cx="173.46" cy="149.46" r="2.67"/>
   <circle class="fil1" cx="189.26" cy="137.54" r="2.67"/>
   <circle class="fil1" cx="140.87" cy="94.5" r="2.67"/>
   <circle class="fil1" cx="152.79" cy="89.88" r="2.67"/>
   <circle class="fil1" cx="157.65" cy="118.09" r="2.67"/>
   <circle class="fil1" cx="159.6" cy="132.92" r="2.67"/>
   <circle class="fil1" cx="175.16" cy="125.63" r="2.67"/>
   <path class="fil2" d="M225.1 136.25c-0.76,0.47 -1,1.47 -0.53,2.23 0.47,0.76 1.47,1 2.23,0.53 0.76,-0.47 1,-1.47 0.53,-2.23 -0.47,-0.76 -1.47,-1 -2.23,-0.53z"/>
   <path class="fil2" d="M205.58 124.26c-0.76,0.47 -1,1.47 -0.53,2.23 0.47,0.76 1.47,1 2.23,0.53 0.76,-0.47 1,-1.47 0.53,-2.23 -0.47,-0.76 -1.47,-1 -2.23,-0.53z"/>
   <g>
    <path class="fil3" d="M191.8 119.36c-0.43,0.22 -0.96,0.05 -1.18,-0.38 -0.22,-0.43 -0.05,-0.96 0.38,-1.18l0.8 1.56zm2.48 -2.99l0.68 1.62 -1.05 0.39 -2.11 0.98 -0.8 -1.56 2.22 -1.03 1.05 -0.39zm0 0c0.45,-0.19 0.96,0.02 1.15,0.47 0.19,0.45 -0.02,0.96 -0.47,1.15l-0.68 -1.62zm5.61 0.21c-0.47,0.12 -0.95,-0.16 -1.07,-0.63 -0.12,-0.47 0.16,-0.95 0.63,-1.07l0.43 1.7zm3.16 -2.2l0.18 1.74 -0.7 0.05 -2.18 0.31 -0.47 0.1 -0.43 -1.7 0.6 -0.13 2.3 -0.32 0.7 -0.05zm0 0c0.48,-0.05 0.91,0.3 0.96,0.78 0.05,0.48 -0.3,0.91 -0.78,0.96l-0.18 -1.74zm5.32 1.74c-0.48,-0.02 -0.86,-0.42 -0.85,-0.91 0.02,-0.48 0.42,-0.86 0.91,-0.85l-0.06 1.75zm3.65 -1.29l-0.29 1.73 -0.54 -0.11 -2.14 -0.29 -0.68 -0.05 0.06 -1.75 0.79 0.05 2.25 0.3 0.54 0.11zm0 0c0.48,0.08 0.8,0.53 0.72,1.01 -0.08,0.48 -0.53,0.8 -1.01,0.72l0.29 -1.73zm4.68 3.05c-0.46,-0.14 -0.72,-0.63 -0.58,-1.09 0.14,-0.46 0.63,-0.72 1.09,-0.58l-0.51 1.68zm3.86 -0.33l-0.71 1.6 -0.45 -0.22 -1.99 -0.81 -0.71 -0.24 0.51 -1.68 0.82 0.28 2.09 0.85 0.45 0.22zm0 0c0.44,0.2 0.64,0.72 0.45,1.16 -0.2,0.44 -0.72,0.64 -1.16,0.45l0.71 -1.6zm3.79 4.1c-0.41,-0.25 -0.55,-0.79 -0.3,-1.2 0.25,-0.41 0.79,-0.55 1.2,-0.3l-0.9 1.5zm3.83 0.61l-1.08 1.38 -0.37 -0.31 -1.72 -1.26 -0.66 -0.42 0.9 -1.5 0.75 0.48 1.81 1.33 0.37 0.31zm0 0c0.38,0.3 0.45,0.85 0.15,1.23 -0.3,0.38 -0.85,0.45 -1.23,0.15l1.08 -1.38zm2.68 4.9c-0.34,-0.34 -0.34,-0.9 0,-1.24 0.34,-0.34 0.9,-0.34 1.24,0l-1.24 1.24zm3.56 1.54l-1.39 1.07 -0.3 -0.42 -1.34 -1.64 -0.52 -0.55 1.24 -1.24 0.59 0.64 1.42 1.73 0.3 0.42zm0 0c0.29,0.38 0.22,0.93 -0.16,1.23 -0.38,0.29 -0.93,0.22 -1.23,-0.16l1.39 -1.07zm1.32 5.43c-0.24,-0.42 -0.09,-0.96 0.33,-1.2 0.42,-0.24 0.96,-0.09 1.2,0.33l-1.52 0.87zm3 2.44l-1.63 0.65 -0.2 -0.55 -0.85 -1.94 -0.32 -0.6 1.52 -0.87 0.38 0.71 0.9 2.05 0.2 0.55zm0 0c0.18,0.45 -0.04,0.96 -0.49,1.14 -0.45,0.18 -0.96,-0.04 -1.14,-0.49l1.63 -0.65zm-0.26 5.59c-0.11,-0.47 0.18,-0.94 0.65,-1.05 0.47,-0.11 0.94,0.18 1.05,0.65l-1.71 0.4zm2.16 3.21l-1.75 0.14 -0.02 -0.49 -0.25 -2.17 -0.14 -0.69 1.71 -0.4 0.16 0.82 0.27 2.3 0.02 0.49zm0 0c0.04,0.48 -0.32,0.91 -0.81,0.94 -0.48,0.04 -0.91,-0.32 -0.94,-0.81l1.75 -0.14zm-1.9 5.25c0.04,-0.48 0.46,-0.84 0.94,-0.81 0.48,0.04 0.84,0.46 0.81,0.94l-1.75 -0.14zm1.6 1.43l-1.73 -0.27 0.14 -1.16 1.75 0.14 -0.15 1.3zm0 0c-0.07,0.48 -0.52,0.8 -1,0.73 -0.48,-0.07 -0.8,-0.52 -0.73,-1l1.73 0.27z"/>
   </g>
   <g>
    <path class="fil0" d="M83.54 34.72c3.66,-2.18 7.6,-3.5 11.58,-4.01 4.13,-0.54 8.31,-0.22 12.29,0.9 3.36,0.71 6.89,1.91 10.65,3.42 3.74,1.5 7.7,3.32 11.98,5.3 1.71,0.79 3.71,0.57 5.83,-0.21 2.29,-0.83 4.73,-2.3 7.13,-3.87 0.53,-0.34 1.23,-0.19 1.57,0.33l0.09 0.17c3.7,8.58 2.76,18.38 -1.29,27.3 -4.25,9.36 -11.94,17.77 -21.28,22.75 -2.21,1.18 -4.37,2.13 -6.48,2.87 -2.13,0.75 -4.23,1.29 -6.27,1.62 -6.76,2.18 -13.97,1.88 -20.44,-0.6 -6.36,-2.44 -12,-6.98 -15.79,-13.33l-0.02 -0.03c-4.41,-7.41 -5.45,-15.87 -3.57,-23.57 1.88,-7.72 6.7,-14.67 13.99,-19.02l0.03 -0.02zm11.87 -1.76c-3.66,0.48 -7.29,1.69 -10.66,3.68l-0.16 0.1c-6.71,4.03 -11.13,10.44 -12.87,17.56 -1.74,7.13 -0.78,14.96 3.29,21.83l0.1 0.16c3.51,5.84 8.73,10.03 14.6,12.28 6.01,2.31 12.72,2.58 18.99,0.54l0.17 -0.04c1.93,-0.31 3.92,-0.82 5.97,-1.54 2.01,-0.7 4.07,-1.61 6.17,-2.73 8.89,-4.75 16.22,-12.76 20.28,-21.68 3.6,-7.93 4.6,-16.56 1.78,-24.21 -2.15,1.36 -4.32,2.58 -6.43,3.35 -2.66,0.97 -5.23,1.21 -7.56,0.13 -4.25,-1.97 -8.19,-3.77 -11.87,-5.25 -3.65,-1.47 -7.06,-2.62 -10.3,-3.31l-0.07 -0.02c-3.7,-1.04 -7.59,-1.34 -11.43,-0.85z"/>
    <path class="fil0" d="M109.6 52.32c0.08,0.62 -0.36,1.19 -0.98,1.27 -0.62,0.08 -1.19,-0.36 -1.27,-0.98 -1.31,-9.83 1.56,-19.28 4.99,-24.05 1.19,-1.65 2.49,-2.8 3.76,-3.28 1.53,-0.57 2.96,-0.28 4.14,1.08 1.44,1.67 2.41,5.23 2.39,11.18 2.13,-0.55 3.77,-0.39 4.97,0.27l0.07 0.04c1.13,0.65 1.84,1.71 2.2,3.01 0.33,1.2 0.35,2.61 0.14,4.08 -0.61,4.19 -3.21,9.13 -6.13,11.11 -0.52,0.35 -1.23,0.22 -1.58,-0.3 -0.35,-0.52 -0.22,-1.23 0.3,-1.58 2.44,-1.65 4.62,-5.9 5.15,-9.55 0.17,-1.19 0.16,-2.28 -0.08,-3.16 -0.2,-0.73 -0.56,-1.3 -1.12,-1.63l-0.05 -0.03c-0.92,-0.5 -2.4,-0.48 -4.61,0.35 -0.14,0.06 -0.29,0.08 -0.45,0.08 -0.63,-0.02 -1.12,-0.54 -1.1,-1.17 0.18,-6.29 -0.59,-9.79 -1.81,-11.22 -0.47,-0.54 -1.03,-0.66 -1.62,-0.44 -0.85,0.32 -1.78,1.19 -2.72,2.48 -3.17,4.4 -5.82,13.21 -4.58,22.43z"/>
    <path class="fil0" d="M82.46 55.19c-0.47,-0.42 -0.51,-1.14 -0.09,-1.6 0.42,-0.47 1.14,-0.51 1.6,-0.09 2.28,2.04 4.38,2.99 6.29,2.74 1.9,-0.25 3.74,-1.71 5.49,-4.5 0.33,-0.53 1.04,-0.69 1.57,-0.36 0.53,0.33 0.69,1.04 0.36,1.57 -2.14,3.41 -4.53,5.21 -7.13,5.55 -2.6,0.34 -5.3,-0.81 -8.09,-3.31z"/>
    <path class="fil0" d="M68.88 61.7c0.44,-0.45 1.16,-0.45 1.61,-0.01 0.45,0.44 0.45,1.16 0.01,1.61l-6.55 6.66 7.29 1.9c0.61,0.16 0.97,0.78 0.82,1.39l-0.07 0.2 -3.78 7.97c1.15,-0.16 2.28,-0.3 3.39,-0.39 1.83,-0.14 3.66,-0.15 5.57,0.06 0.62,0.07 1.08,0.63 1.01,1.25 -0.07,0.62 -0.63,1.08 -1.25,1.01 -1.75,-0.19 -3.45,-0.18 -5.16,-0.05 -1.74,0.13 -3.47,0.39 -5.28,0.68 -0.23,0.05 -0.49,0.03 -0.72,-0.08 -0.57,-0.27 -0.81,-0.95 -0.54,-1.51l4.11 -8.66 -7.84 -2.05c-0.19,-0.05 -0.38,-0.14 -0.53,-0.29 -0.45,-0.44 -0.45,-1.16 -0.01,-1.61l7.92 -8.07z"/>
    <path class="fil0" d="M119.08 87.23c-0.31,-0.55 -0.11,-1.24 0.44,-1.55 0.55,-0.31 1.24,-0.11 1.55,0.44l1.17 2.14c2.42,4.46 5.07,9.36 9.37,11.73 0.12,0.07 0.23,0.15 0.31,0.25l5.5 5.67c0.44,0.45 0.43,1.17 -0.02,1.61 -0.45,0.44 -1.17,0.43 -1.61,-0.02l-5.42 -5.59c-4.8,-2.72 -7.58,-7.87 -10.13,-12.56l-1.15 -2.11z"/>
    <path class="fil0" d="M105.42 92.56c-0.33,-0.53 -0.17,-1.23 0.36,-1.57 0.53,-0.33 1.23,-0.17 1.57,0.36 1.31,2.08 2.72,3.75 4.27,5.12 1.52,1.34 3.17,2.39 4.98,3.24 0.67,0.14 1.32,0.24 1.97,0.35l0.04 0.01c1.5,0.24 2.99,0.49 4.37,1.02 0.58,0.23 0.88,0.89 0.65,1.47 -0.23,0.58 -0.89,0.88 -1.47,0.65 -1.16,-0.45 -2.54,-0.67 -3.91,-0.9l-0.04 -0.01c-0.75,-0.12 -1.51,-0.25 -2.2,-0.39 -0.08,-0.02 -0.16,-0.04 -0.24,-0.08 -2.06,-0.96 -3.94,-2.14 -5.65,-3.66 -1.71,-1.52 -3.27,-3.35 -4.69,-5.62z"/>
    <path class="fil0" d="M120.21 106c0.47,0.41 0.52,1.13 0.11,1.6 -0.41,0.47 -1.13,0.52 -1.6,0.11 -3.86,-3.39 -4.51,-5.92 -3.32,-7.96 1.09,-1.85 3.76,-3.01 6.82,-4 0.6,-0.19 1.24,0.14 1.43,0.74 0.19,0.6 -0.14,1.24 -0.74,1.43 -2.61,0.84 -4.84,1.75 -5.56,2.98 -0.61,1.05 0.03,2.62 2.85,5.1z"/>
    <path class="fil0" d="M133.62 107.34c0.38,0.5 0.29,1.21 -0.21,1.59 -0.5,0.38 -1.21,0.29 -1.59,-0.21 -1.42,-1.85 -2.21,-3.44 -2.44,-4.75 -0.2,-1.15 0.02,-2.12 0.62,-2.89 0.57,-0.73 1.45,-1.23 2.62,-1.48 1.81,-0.39 4.45,-0.21 7.8,0.57 0.61,0.14 0.99,0.76 0.85,1.37 -0.14,0.61 -0.76,0.99 -1.37,0.85 -3.02,-0.71 -5.32,-0.89 -6.81,-0.56 -0.64,0.14 -1.08,0.36 -1.31,0.65 -0.19,0.25 -0.25,0.62 -0.17,1.11 0.16,0.95 0.82,2.21 2,3.75z"/>
    <path class="fil0" d="M84.6 56.64c0.38,-0.5 1.1,-0.59 1.6,-0.21 0.5,0.38 0.59,1.1 0.21,1.6l-2.2 2.88c-0.38,0.5 -1.1,0.59 -1.6,0.21 -0.5,-0.38 -0.59,-1.1 -0.21,-1.6l2.2 -2.88z"/>
    <path class="fil0" d="M95.13 56.8c-0.52,-0.35 -0.65,-1.06 -0.3,-1.58 0.35,-0.52 1.06,-0.65 1.58,-0.3l2.74 1.85c0.52,0.35 0.65,1.06 0.3,1.58 -0.35,0.52 -1.06,0.65 -1.58,0.3l-2.74 -1.85z"/>
    <path class="fil0" d="M93.18 61.66c0.16,0.6 -0.19,1.23 -0.8,1.39 -0.6,0.16 -1.23,-0.19 -1.39,-0.8l-1.18 -4.29c-0.16,-0.6 0.19,-1.23 0.8,-1.39 0.6,-0.16 1.23,0.19 1.39,0.8l1.18 4.29z"/>
   </g>
  </g>
 </g>
</svg>
