<?xml version="1.0" encoding="UTF-8"?>
<!DOCTYPE svg PUBLIC "-//W3C//DTD SVG 1.1//EN" "http://www.w3.org/Graphics/SVG/1.1/DTD/svg11.dtd">
<!-- Creator: CorelDRAW 2021.5 -->
<svg xmlns="http://www.w3.org/2000/svg" xml:space="preserve" width="0.407776in" height="0.451469in" version="1.1" style="shape-rendering:geometricPrecision; text-rendering:geometricPrecision; image-rendering:optimizeQuality; fill-rule:evenodd; clip-rule:evenodd"
viewBox="0 0 2.08 2.3"
 xmlns:xlink="http://www.w3.org/1999/xlink"
 xmlns:xodm="http://www.corel.com/coreldraw/odm/2003">
 <defs>
  <style type="text/css">
   <![CDATA[
    .fil0 {fill:#FEFEFE}
   ]]>
  </style>
 </defs>
 <g id="Capa_x0020_1">
  <metadata id="CorelCorpID_0Corel-Layer"/>
  <g id="_3020469466320">
   <path class="fil0" d="M1.07 2.25c-0.02,0 -0.05,-0 -0.07,-0.02 -0.03,-0.03 0.03,-0.1 0.04,-0.2 0.01,-0.05 0,-0.11 -0.02,-0.15 -0.01,-0.01 -0.03,-0.03 -0.06,-0.02 -0.07,0.04 -0.09,0.24 -0.06,0.31 0,0.01 0.01,0.02 0,0.03 -0.01,0.03 -0.09,0.06 -0.11,0 -0.02,-0.05 0.02,-0.09 -0.02,-0.15 -0.08,-0.01 -0.04,0.15 -0.11,0.15 -0.01,-0.01 -0.01,-0.02 -0.02,-0.04 -0.04,-0.1 -0.04,-0.17 -0.12,-0.08 -0.02,0.02 -0.03,0.04 -0.05,0.06 -0.01,-0.01 -0.02,-0.05 -0.03,-0.07 -0.04,-0 -0.04,0.04 -0.06,0.09 -0.01,0.03 -0.03,0.09 -0.02,0.12 0.03,0.01 0.08,-0.05 0.1,-0.07l0.05 -0.04c0.02,-0.01 0.03,-0.03 0.05,-0.01 0.03,0.03 0.04,0.08 0.07,0.11 0.04,0.04 0.06,-0.03 0.09,-0.06 0.02,0.01 0.03,0.07 0.09,0.07 0.04,0 0.09,-0.03 0.12,-0.04 0.03,0.01 0.05,0.05 0.1,0.04 0.02,-0 0.04,-0.02 0.06,-0.02 0.03,0 0.06,0.05 0.16,-0.02 0.03,-0.02 0.06,-0.06 0.08,-0.07 0.02,0.02 0.02,0.07 0.05,0.1 0.06,0.04 0.13,-0.08 0.14,-0.13 0.04,-0.13 -0.01,-0.15 -0.04,-0.11 -0.03,0.04 -0.01,0.09 -0.01,0.12 -0,0.02 -0.01,0.04 -0.02,0.05 -0.03,0.02 -0.05,-0.06 -0.06,-0.08 -0.01,-0.03 -0.02,-0.09 -0.05,-0.1 -0.03,0.01 -0.02,0.03 -0.04,0.06 -0.02,0.04 -0.07,0.17 -0.14,0.12 0.01,-0.03 0.06,-0.04 0.06,-0.09 0.01,-0.1 -0.09,-0.14 -0.14,-0.03 -0.02,0.05 -0.01,0.1 -0.02,0.13z"/>
   <path class="fil0" d="M0.2 0.01c-0,0.03 0.05,0.03 0.08,0.04 -0.02,0.03 -0.08,0.05 -0.08,0.08 0.06,0.02 0.08,0.01 0.12,0.02 -0.01,0.02 -0.04,0.05 -0.06,0.07 -0.01,0.02 -0.03,0.04 -0.04,0.06 -0.03,0.08 0.11,-0.03 0.15,-0.03 0,0.03 -0.01,0.07 0.01,0.09 0.02,0.02 0.05,-0.02 0.07,-0.03 0.01,0.04 0.01,0.08 0.03,0.11 0.02,0 0.03,-0.02 0.04,-0.05 0.01,-0.02 0.01,-0.05 0.02,-0.07 0.02,0 0.03,0.03 0.05,0.02l0 -0.01c0,-0 0,-0.01 0,-0.01 0,-0.01 0.01,-0.02 0.01,-0.02 0.04,-0 0.09,0.08 0.12,0.06 0.01,-0.03 -0.03,-0.11 -0.04,-0.15 0.05,0 0.1,0.04 0.15,0.02 0.01,-0.05 -0.08,-0.1 -0.09,-0.15 0.02,-0.03 0.08,-0.03 0.09,-0.06 -0.03,-0.02 -0.13,0 -0.16,0.03 0,0.04 0.06,0.07 0.06,0.11 -0.03,0 -0.08,-0.04 -0.11,-0.01 -0.01,0.02 0.02,0.07 0.03,0.1 -0.03,-0.01 -0.05,-0.05 -0.08,-0.05l-0.01 0.06c-0.02,-0 -0.04,-0.03 -0.05,-0.05 -0.01,0.01 -0,-0 -0.01,0.01 -0,0 -0,0.01 -0,0.01l-0.02 0.07c-0,-0.03 -0,-0.06 -0.02,-0.08 -0.02,0 -0.02,0.01 -0.03,0.02 -0.01,0.01 -0.02,0.02 -0.03,0.03 -0.01,-0.01 -0,-0.03 0,-0.04 0,-0.02 0,-0.03 -0,-0.05 -0.03,-0.01 -0.06,0.02 -0.08,0.03l0.03 -0.04c0.01,-0.01 0.02,-0.03 0.03,-0.04 -0.02,-0.02 -0.06,-0.02 -0.08,-0.03 0,-0.02 0.01,-0.02 0.04,-0.04 0.07,-0.06 -0.12,-0.06 -0.15,-0.04z"/>
   <path class="fil0" d="M1.75 0.82c-0.02,-0.04 0.02,-0.14 -0.02,-0.12 -0.01,0 -0.01,0.01 -0.01,0.01 -0.09,0.08 -0.01,0.11 0.01,0.14 0.01,0.02 -0.01,0.05 -0.02,0.06 -0,0 -0,0 -0,0 -0.02,-0.03 -0.04,-0.13 -0.09,-0.17 -0.01,-0.01 -0.04,-0.02 -0.05,-0.02l-0.01 0c-0.01,0.03 0.1,0.1 0.12,0.19l-0.07 -0.08c-0.03,-0.03 -0.03,-0.01 -0.07,-0.09 -0.01,-0.01 -0.01,-0.02 -0.02,-0.03 -0.01,-0.02 -0.02,-0.02 -0.03,-0.02 -0.01,0.03 -0.02,0.09 -0,0.12 0.02,0.02 0.06,0.03 0.09,0.04 0.05,0.02 0.09,0.1 0.1,0.17 0,-0 0,-0 0,-0l0.03 -0.03c0.06,-0.06 0.05,0.01 0.06,0.02 0.05,-0.01 0.08,-0.15 0.01,-0.12 -0.02,0.01 -0.02,0.02 -0.04,0.03 0,-0.02 0.03,-0.05 0.04,-0.07 0.01,-0.02 0.03,-0.05 0.04,-0.07 0.03,-0.06 -0.03,-0.11 -0.07,-0.14 -0.05,-0.04 -0.06,-0.09 -0.11,-0.11 -0.05,-0.02 -0.14,-0.02 -0.21,-0.02 0,0.07 0.02,0.1 0.05,0.14 0.03,0.04 0.07,0.05 0.14,0.05 0.05,-0 0.12,-0.03 0.15,0.01 0.04,0.04 0.01,0.12 -0.02,0.12z"/>
   <path class="fil0" d="M0.7 1.48c-0.01,0.04 0.01,0.09 -0.12,0.09 0.01,0.02 0.05,0.04 0.06,0.05 0.03,0.01 0.06,0.01 0.08,0.02 0.03,0.01 0.05,0.02 0.07,0.04 0.13,0.07 0.23,-0 0.26,0 0.02,0 0.03,0.03 0.09,0.02 0.03,-0 0.07,-0.01 0.06,-0.04 -0.02,-0.01 -0.07,0.02 -0.14,-0.05 -0.03,-0.04 -0.03,-0.05 -0.08,-0.01 -0.04,0.03 -0.11,0.05 -0.16,0.03 0.02,-0.02 0.06,-0 0.12,-0.03 0.02,-0.01 0.03,-0.02 0.05,-0.03 0.01,-0.01 0.03,-0.03 0.06,-0.02 0.02,0.03 0.05,0.09 0.11,0.08 0.05,-0.01 0.05,-0.07 0.06,-0.08 0.01,-0.02 0.01,-0.01 0.03,-0.02 -0,-0.02 -0.02,-0.05 -0.03,-0.06 -0.04,-0.02 -0.1,0.02 -0.16,-0.02 -0.02,-0.01 -0.03,-0.03 -0.05,-0 -0.04,0.07 -0.06,0.05 -0.12,0.1 -0.02,0.02 -0.03,0.06 -0.09,0.03 -0.03,-0.01 -0.05,-0.09 -0.09,-0.09z"/>
   <path class="fil0" d="M1.32 0.15c-0.03,0 -0.03,0.01 -0.02,0.03 -0.02,-0.01 -0.03,0 -0.04,0.01 -0.03,-0.03 -0.02,-0.08 0.01,-0.1 0.02,0.01 0,0.02 0.03,0.02 -0,0.02 -0.01,0.02 0.01,0.03 0,0 0,0 0.01,0 0,0 0,0 0,0 0,0 0,0 0,0 0,0 0,0 0,0zm-0.02 -0.08c0.01,-0.02 0.02,-0.02 0.05,-0.02 0.08,-0 0.11,0.06 0.1,0.12 -0.01,0.09 -0.1,0.12 -0.17,0.07 0.02,0 0.05,0.01 0.06,0.01l-0 -0.03c0.01,-0.01 0.04,-0 0.05,-0.01 0,-0 0.01,0 -0.01,-0.02 -0.04,-0.05 0.01,-0.02 0.02,-0.06 -0.02,-0.02 -0.03,-0.01 -0.05,-0.02l0 -0.03 -0.06 0zm-0.08 -0.03c-0.02,0 -0.1,-0.05 -0.06,0.01 0.04,0.08 -0,0.04 -0.01,0.08 0.01,0.01 0.02,0.01 0.03,0.03 -0.01,0.03 -0.03,0.03 -0.03,0.05l0.03 0.01c0,0.03 -0.02,0.06 -0.02,0.09 0.02,-0.01 0.04,-0.04 0.06,-0.04 0.01,0.01 0.01,0.03 0.02,0.04 0.03,-0 0.01,-0.01 0.05,-0.01 0.03,0 0.08,0.04 0.15,0 0.11,-0.05 0.12,-0.24 -0.04,-0.28 -0.06,-0.01 -0.1,0.02 -0.13,0.01 -0.03,-0.01 -0.03,-0.04 -0.04,0.02z"/>
   <path class="fil0" d="M0.31 0.85c-0,-0.03 0.01,-0.09 -0,-0.12 -0.05,0 -0.03,0.1 -0.06,0.12 -0.02,-0.02 0,-0.06 -0.02,-0.07 -0.04,0.03 -0.04,0.24 -0,0.26 0.02,0.01 0.04,-0.01 0.04,-0.02 0.03,-0.05 -0.01,-0.12 0.03,-0.11l0.03 0.03c0.01,0.02 -0.04,0.09 -0.05,0.11 -0.04,0.06 -0.05,0.14 -0.02,0.2 0.01,0.02 0.02,0.04 0.04,0.05 0.01,0.01 0.03,0.03 0.05,0.03 0.04,-0.03 -0.01,-0.09 -0.03,-0.11 -0.01,-0.01 -0.07,-0.08 -0.03,-0.11 0,0 0.08,0.05 0.05,-0.01 -0.01,-0.03 -0.01,-0.04 0,-0.07 0.02,-0.07 0.11,-0.23 0.09,-0.27 -0.03,-0 -0.05,0.08 -0.07,0.09 0,-0.04 0.05,-0.15 0.01,-0.14 -0.03,0.01 -0.05,0.11 -0.07,0.13z"/>
   <path class="fil0" d="M1.86 2.19c-0.01,-0.01 -0.01,-0.04 -0.02,-0.06 -0,-0.01 -0,-0.02 -0.01,-0.03 -0,-0.01 -0,-0.03 -0.01,-0.03 -0.02,-0.01 -0.06,0.09 -0.07,0.12 -0.02,0.03 -0.06,0.09 -0.12,0.06 0,-0.03 0.04,-0.02 0.07,-0.06 0.05,-0.06 0,-0.15 -0.08,-0.12 -0.08,0.03 -0.11,0.22 0.01,0.23 0.06,0.01 0.1,-0.03 0.13,-0.06 0.01,-0.01 0.01,-0.03 0.03,-0.04 0,0 0,0 0,0l0 0.01c0.02,0.06 0.03,0.15 0.1,0.03 0.02,-0.03 0.03,-0.06 0.05,-0.09 0.02,-0.03 0.04,-0.07 0.07,-0.04 0.01,0.01 0.02,0.02 0.04,0.01 0.01,-0.01 0.02,-0.03 0.02,-0.05 -0.01,-0.03 -0.05,-0.05 -0.09,-0.03 -0.05,0.02 -0.07,0.07 -0.09,0.11l-0.02 0.03c-0.01,0.01 0,0 -0.01,0.01z"/>
   <path class="fil0" d="M1.12 1.25c-0,0 -0,0 -0,0.01 -0,0 -0,0.01 -0,0.01 -0,0.01 -0,0.01 -0.01,0.01 -0.01,0.01 -0.01,0.01 -0.02,0.02 0,0.02 0.03,0.04 0.06,0.05 0.04,0.01 0.06,-0.01 0.09,-0.01 0.06,0.08 -0.1,0.07 -0.15,0 -0.03,-0.04 -0.03,-0.08 0.01,-0.1 0.01,-0.01 0.03,-0.02 0.05,-0.02 0.03,-0.01 0.02,-0.02 0.02,-0.05 0.02,-0.01 0.09,-0 0.08,-0.04 -0,-0.01 -0.01,-0.01 -0.02,-0.01 -0,-0 -0,-0 -0,-0 -0,-0 -0,-0 -0,-0 0.12,-0.04 -0.07,-0.1 -0.17,0.03 -0.03,0.04 -0.04,0.09 -0.03,0.15 0.02,0.12 0.13,0.16 0.23,0.14 0.07,-0.02 0.12,-0.09 0.12,-0.14 0,-0.01 0,-0.01 -0.01,-0.01 -0,-0 -0.04,0.02 -0.08,0.02 -0.1,0 -0.11,-0.04 -0.15,-0.04z"/>
   <path class="fil0" d="M0.25 1.96c0.01,0.09 0.04,0.16 -0,0.24 -0.02,0.04 -0.03,0.06 -0.08,0.06 -0.12,-0 -0.05,-0.18 -0.08,-0.34 -0.01,-0.05 -0.08,-0 -0.09,0.15 -0.01,0.15 0.04,0.25 0.18,0.23 0.13,-0.01 0.15,-0.15 0.15,-0.27 0,-0.21 -0.09,-0.14 -0.08,-0.08z"/>
   <path class="fil0" d="M1.71 0.12c-0.04,-0 -0.03,-0.01 -0.03,-0.05 0,-0.03 0.01,-0.05 -0.02,-0.06 -0.03,-0.01 -0.13,-0.01 -0.14,0.01 0.01,0.03 0.08,0.04 0.1,0.06l-0.08 0.03c0,0.01 -0,0.01 0.02,0.02 0.01,0.01 0.02,0.01 0.03,0.01 0.01,0.01 0.04,0.02 0.05,0.03 0.01,0.02 -0.01,0.04 -0.03,0.04 -0.03,-0 -0.03,-0.03 -0.05,-0.03 -0.02,0.02 -0,0.03 -0.02,0.06 -0.01,0.03 -0.02,0.02 -0.03,0.04 0.03,0.01 0.15,0.01 0.19,-0 0.13,-0.03 0.13,-0.12 0.11,-0.24 -0,-0.02 -0,-0.03 -0.02,-0.03 -0.08,-0.03 -0.07,0.07 -0.08,0.12z"/>
   <path class="fil0" d="M0.65 0.64c-0.02,-0.01 -0.04,-0.04 -0.07,-0.06 -0.04,-0.02 -0.07,0.01 -0.06,0.05 0.03,0.01 0.07,0 0.08,0.04 -0.03,0.01 -0.06,-0.01 -0.09,0.02 -0.02,0.01 -0.04,0.05 -0.03,0.08 0.01,-0 0.02,-0.01 0.03,-0.02 0.02,-0.02 0.07,-0.04 0.09,-0.04l0.01 0c0.01,0 -0.01,0.06 -0.01,0.09 0,0.09 0.06,0.22 0.1,0.19 0.02,-0.01 -0.02,-0.07 -0.04,-0.12 -0.01,-0.04 -0.02,-0.12 0.01,-0.14 0.04,0 0.03,0.07 0.04,0.1 0.02,-0.01 0.06,-0.04 0.07,-0.06 0.01,-0.04 -0.05,-0.06 -0.06,-0.08 0.1,-0.01 0.09,0.03 0.12,0.03 0.01,-0.02 0.01,-0.03 0,-0.06 -0.02,-0.07 -0.13,-0.01 -0.14,-0.01 0,-0.02 0.02,-0.02 0.04,-0.03 0.01,-0.03 -0.02,-0.06 -0.04,-0.06 -0.04,-0 -0.03,0.05 -0.03,0.07z"/>
   <path class="fil0" d="M0.53 0.4c0,0 0,0 0,0l0.01 0c0,0 0.01,0 0.01,0 0.01,0 0.01,0 0.02,0.01 0.02,0.02 0,0.07 -0.03,0.07 -0.02,-0 -0.02,-0.02 -0.02,-0.04 -0.06,-0 -0.04,0.15 0.1,0.1 0.03,-0.01 0.04,-0.02 0.06,-0.03 0,0 0,0 0,0.01 0.02,0.03 0.03,0.09 0.1,0.08 0.02,-0 0.05,-0.03 0.04,-0.05 -0,-0.01 -0.02,-0.02 -0.02,-0.05 0,-0.01 0,-0.01 0.01,-0.02 0.01,0.02 0.01,0.03 0.03,0.04 0.01,-0.03 0.02,-0.14 -0.08,-0.11 -0.02,0.01 -0.03,0.02 -0.05,0.02 -0.01,-0.04 -0.03,-0.08 -0.08,-0.08 -0.05,-0 -0.08,0.03 -0.1,0.06z"/>
   <path class="fil0" d="M1.54 1.28c-0.01,0.02 -0.08,0.08 -0.11,0.1 0,0.01 0.08,0.11 0.15,0 0.01,-0.02 0.03,-0.04 0.04,-0.04 0,0.03 -0.03,0.06 -0.04,0.07 -0.01,0.01 -0.02,0.02 -0.03,0.02 -0.01,0.01 -0.02,0.01 -0.03,0.02 -0,0.02 0.01,0.04 0.03,0.05 0.03,0.01 0.1,-0.09 0.12,-0.12 0.05,-0.09 0.03,-0.18 -0.07,-0.19 -0.07,-0.01 -0.08,0.04 -0.15,0.08 -0.02,0.01 -0.04,0.02 -0.05,0.03 -0.03,0.02 -0.02,0.09 0.05,0.04 0.02,-0.02 0.06,-0.06 0.09,-0.06z"/>
   <path class="fil0" d="M0.58 1.39c-0.06,0.05 -0.12,-0.07 -0.06,-0.08 0.06,-0 0.11,0.05 0.1,0.11 -0.01,0.07 -0.16,0.06 -0.19,-0.04 -0.01,-0.03 -0.01,-0.08 -0.02,-0.09 -0.03,0 -0.07,0.08 -0.03,0.15 0.02,0.05 0.06,0.08 0.13,0.1 0.07,0.01 0.12,-0.02 0.14,-0.07 0.02,-0.06 -0.01,-0.13 -0.04,-0.17 -0.03,-0.04 -0.13,-0.05 -0.15,-0 -0.06,0.1 0.07,0.19 0.13,0.14 0.02,-0.02 0.03,-0.05 0.01,-0.08 -0.01,-0.02 -0.05,-0.05 -0.07,-0.02 -0.02,0.03 0.02,0.04 0.03,0.04 0.01,0 0.01,0 0.02,0.01z"/>
   <path class="fil0" d="M0.71 1.14c-0.04,0.03 0,0.11 0.04,0.15 0.04,0.03 0.12,0.03 0.17,0.01 0.05,-0.02 0.08,-0.1 0.06,-0.14 -0.01,-0.02 -0.04,-0.04 -0.05,-0.05 -0.02,-0.01 -0.02,-0.01 -0.03,-0.02 -0.02,-0.02 -0.01,-0.01 -0.02,-0.03 -0.02,0.01 -0.04,0.05 -0.02,0.08 0.01,0.01 0.07,0.04 0.03,0.06 -0.03,0.01 -0.07,0.01 -0.1,0 -0.05,-0.02 -0.05,-0.04 -0.07,-0.04z"/>
   <path class="fil0" d="M1.17 0.92c-0.01,0.01 -0.01,0.04 -0.01,0.06 -0,0.04 -0.01,0.03 -0.02,0.06 0.06,0.01 0.08,-0.05 0.12,-0.06 -0,0.02 -0.03,0.05 -0.01,0.07 0.01,0.02 0.05,0.02 0.06,0 0.01,-0.02 -0.04,-0.07 0,-0.07 0.02,0 0.02,0.01 0.02,0.02 0,0.01 0,0.02 0.02,0.02 0.04,0 0.08,-0.01 0.08,-0.03 -0,-0.02 -0.04,-0.04 -0.05,-0.05 -0.05,-0.04 -0.01,0.02 -0.06,0.02 -0.01,-0 -0.03,-0.01 -0.02,-0.02 0.01,-0.02 0.06,-0.04 0.09,-0.06 -0.02,-0.01 -0.07,-0.04 -0.1,-0.03 -0.02,0.01 -0,0.05 -0.02,0.06 -0.02,-0.02 0,-0.06 -0.03,-0.09 -0.01,-0.01 -0.05,-0.04 -0.07,-0.05 -0.02,0.06 -0.04,0.09 0.03,0.14 0.01,0.01 0.06,0.03 0.04,0.05 -0.02,0.02 -0.03,-0.03 -0.07,-0.02z"/>
   <path class="fil0" d="M1.39 0.91c0.01,0.02 0.15,0.08 0.03,0.14 -0.02,0.01 -0.05,0.01 -0.06,0.03l0.03 0.01c0,0.03 -0.01,0.03 -0,0.05 0.02,-0 0.02,-0.01 0.04,-0.01l0.01 0.02c0.02,-0.01 0.02,-0.04 0.02,-0.06 0,-0.02 0.02,-0.04 0.04,-0.04 0.02,0.04 -0.01,0.08 -0.01,0.12 0.02,-0.01 0.02,-0.01 0.03,-0.02 0.02,0.01 0.01,0.03 0.04,0.03 0,-0.01 0,-0.02 0.01,-0.04 0,-0.02 0.01,-0.01 0.02,-0.02 -0.01,-0.03 -0.07,-0.05 -0.06,-0.1 0.02,-0.01 0.06,0.02 0.07,0.04 0.01,0.01 0.01,0.02 0.01,0.03 0.02,-0.01 0.01,-0.01 0.02,-0.03 0.01,-0.02 0.02,-0 0.04,-0.01 -0,-0.02 -0.02,-0.02 -0.03,-0.03 -0,-0.02 0.01,-0.02 0.01,-0.04 -0.02,-0.01 -0.07,0.03 -0.11,0.01 0.01,-0.04 0.08,-0.03 0.09,-0.05 -0.01,-0.01 0,-0 -0.01,-0.01 -0.01,-0 -0.01,0 -0.02,-0.01l0 -0.03c-0.02,-0 -0.02,0 -0.04,0 -0.02,-0 -0.02,-0.01 -0.03,-0.01 -0.01,0.02 0,0.1 -0.03,0.09 -0.02,-0.01 0,-0.08 -0.01,-0.11 -0.02,0 -0.02,0.01 -0.04,0.02 -0.01,-0.01 -0,-0.01 -0.01,-0.02 -0.01,-0.01 -0.01,0 -0.02,0.01 -0.01,0.04 -0.01,0.02 -0.04,0.03z"/>
   <path class="fil0" d="M0.79 0.99c-0.02,0 -0.03,-0.02 -0.05,-0.02 -0.01,0 -0.07,0.07 -0.01,0.14 0.03,0.03 0.05,0.05 0.1,0.06 0.02,0 0.03,0 0.04,-0.02 -0.02,-0 -0.02,-0 -0.03,-0.01 -0.03,-0.03 -0.01,-0.07 0.01,-0.1 0.03,-0.07 0.01,-0.09 -0.03,-0.13 0.01,-0.03 0.04,-0.06 0.04,-0.09 0,-0.03 -0.03,-0.07 -0.06,-0.08 -0.01,0.02 0,0.03 -0,0.04 -0.01,0.02 -0.06,0.06 -0.08,0.08 -0.04,0.05 0.06,0.07 0.08,0.12z"/>
   <path class="fil0" d="M0.38 1.01c-0.01,0.05 0.06,0.07 0.07,0.02 0.01,-0.03 0,-0.1 0.02,-0.13 0.01,0.01 0.04,0.12 0.03,0.14 -0.01,0.01 -0.01,-0 -0.03,0 -0.02,0.05 0.1,0.08 0.08,-0.03 -0.01,-0.05 -0.04,-0.12 -0.04,-0.18 0.01,0.01 0.02,0.05 0.02,0.07 0.02,0.06 0.1,0.17 0.08,0.18 -0.02,0.01 -0.02,-0.01 -0.03,-0.02 -0.02,0.01 -0.02,0.05 -0,0.06 0.03,0.03 0.11,0 0.09,-0.06 -0,-0.02 -0.02,-0.04 -0.03,-0.06 -0.03,-0.04 -0.05,-0.07 -0.07,-0.11 -0.03,-0.07 -0.02,-0.08 -0.02,-0.16 -0.04,0.02 -0.08,0.06 -0.09,0.12 -0.01,0.04 -0.01,0.05 -0.01,0.09 -0,0.06 -0.02,0.04 -0.06,0.05z"/>
   <path class="fil0" d="M1.46 1.48c-0.03,0.01 -0.05,0.02 -0.08,0.03 -0.03,0.01 -0.09,-0.01 -0.11,0 -0.02,0.01 -0.09,0.12 -0,0.14 0.08,0.02 0.19,-0.03 0.22,-0.11 0.01,-0.03 0.01,-0.07 -0.03,-0.07z"/>
   <path class="fil0" d="M0.43 0.04c-0.01,0.03 -0.04,0.01 -0.05,0.04 0.02,0.02 0.05,0.01 0.08,0.01 -0.01,0.02 -0.03,0.04 -0.03,0.06 0.02,0 0.04,-0.02 0.06,-0.02 0.02,0.02 -0,0.04 0.02,0.06 0.03,-0 0.02,-0.04 0.04,-0.06 0.04,0 0.03,0.04 0.06,0.03 0.01,-0.02 -0.02,-0.03 -0.01,-0.06 0.03,-0.01 0.06,0 0.06,-0.02 -0,-0.01 -0.04,-0.02 -0.05,-0.04 0.01,-0.02 0.02,-0.01 0.03,-0.03 -0.06,-0.04 -0.09,0.03 -0.13,0.02 -0.02,-0.01 -0.02,-0.03 -0.06,-0.03 -0.01,-0 -0.03,0 -0.03,0.01 -0,0.02 0.01,0.01 0.02,0.03z"/>
   <path class="fil0" d="M1.5 0.32c-0.03,-0 -0.06,0.01 -0.09,0.01 -0.03,0.01 -0.05,0.02 -0.04,0.05 0.02,0.04 0.06,0.08 0.11,0.08 0.18,0.01 0.12,-0.12 0.09,-0.14 -0.03,-0.01 -0.05,0.02 -0.08,-0.01z"/>
   <path class="fil0" d="M0.93 1.36c-0.02,0.01 -0.04,-0.01 -0.06,0.01 -0.01,0.01 -0.03,0.03 -0.03,0.04 -0.04,0.06 -0.07,0.02 -0.1,0.05 -0.01,0.02 0.05,0.07 0.13,0.05 0.03,-0.01 0.05,-0.02 0.06,-0.04 0.03,-0.03 0.02,-0.03 0.03,-0.07l0.04 0c0.01,-0.03 -0.01,-0.06 -0.02,-0.08 -0.05,-0.04 -0.04,0.02 -0.05,0.04z"/>
   <path class="fil0" d="M1.73 1.25c0.05,-0 0.1,-0.14 0.05,-0.21 -0.02,-0.02 -0.06,-0.03 -0.07,-0.01 -0.01,0.01 -0,0.03 -0.01,0.04 -0.01,0.01 -0.02,0.01 -0.04,0.01 -0.02,0 -0.05,0.03 -0.04,0.06 0.01,0.03 0.06,0.04 0.09,0.07 0.01,0.01 0.01,0.02 0.02,0.03z"/>
   <path class="fil0" d="M0.21 0.6c0.06,0.02 0.09,0.03 0.14,-0.01 0.04,-0.03 0.08,-0.06 0.05,-0.11 -0.03,-0.04 -0.09,-0.03 -0.13,-0.01 -0.05,0.04 -0.06,0.07 -0.06,0.12z"/>
   <path class="fil0" d="M0.41 1.1c-0.03,0.01 -0.03,0.02 -0.04,0.04 -0.01,0.02 -0.03,0.03 -0.03,0.06 0,0.03 0.02,0.03 0.05,0.04 0.02,0.01 0.03,0.02 0.07,0.02 0.03,-0 0.03,-0.02 0.04,-0.04 0.01,-0.02 0.03,-0.03 0.03,-0.06 -0,-0.04 -0.02,-0.03 -0.05,-0.04 -0.02,-0.01 -0.04,-0.02 -0.07,-0.02z"/>
   <path class="fil0" d="M0.58 1.19c-0.05,0.01 -0.05,0.04 -0.01,0.06 0.02,0 0.03,0.01 0.05,0.02 0.08,0.04 0.03,0.17 0.16,0.15 0.05,-0.01 0.04,-0.04 0.01,-0.07 -0.03,-0.04 -0.06,-0.02 -0.09,-0.04 -0.02,-0.02 -0.03,-0.14 -0.13,-0.12z"/>
   <path class="fil0" d="M1.68 0.49c0,0.03 0.1,0.14 0.13,0.12 0.03,-0.01 0.03,-0.16 0.02,-0.2 -0.03,-0 -0.05,0.03 -0.07,0.04 -0.03,0.02 -0.05,0.01 -0.07,0.04z"/>
   <path class="fil0" d="M1.17 0.42c-0.02,0.04 -0.02,0.12 0.02,0.13 0.02,-0.01 -0,-0.02 0.02,-0.02 0.02,-0 0.11,0.03 0.14,-0.06 0.01,-0.02 0,-0.06 -0.01,-0.07l-0.03 0.05c-0.01,0.02 -0.02,0.03 -0.05,0.03 -0.03,-0 -0.01,-0.02 -0.04,-0.03 -0.01,-0 -0.05,-0.02 -0.06,-0.02z"/>
   <path class="fil0" d="M1.27 1.08c0,0.02 0,0.04 -0,0.07 -0.01,0.07 -0.02,0.07 0.02,0.1 0.02,0.02 0.04,0.01 0.05,-0 0.01,-0.01 0.02,-0.02 0.02,-0.05 0,-0.02 -0,-0.04 -0.01,-0.06 -0.01,-0.02 -0.06,-0.06 -0.09,-0.06z"/>
   <path class="fil0" d="M0.42 0.55c-0.02,0.01 -0.04,0.06 -0.03,0.09 0.01,0.03 0.03,0.06 0.07,0.05 0.03,-0.01 0.05,-0.05 0.03,-0.08 -0.01,-0.02 -0.04,-0.05 -0.06,-0.06z"/>
   <path class="fil0" d="M1.19 0.39c0.02,-0 0.03,-0.04 0.07,-0.02 0.01,0.02 -0,0.03 0.01,0.05 0.03,0.03 0.05,-0 0.06,-0.03 0.01,-0.02 0,-0.04 -0.01,-0.05 -0.01,-0.01 -0.07,-0.03 -0.09,-0.02 -0.03,0.01 -0.05,0.04 -0.04,0.08z"/>
   <path class="fil0" d="M1.78 0.3c-0.01,0.04 0,0.03 -0.02,0.06 -0.01,0.01 -0.03,0.02 -0.05,0.03 -0.02,0.01 -0.05,0.01 -0.06,0.02 -0.02,0.02 0,0.04 0.02,0.04 0.05,0.01 0.14,-0.04 0.14,-0.1 0,-0.02 -0.01,-0.05 -0.03,-0.05z"/>
   <path class="fil0" d="M1.35 1.41c-0.1,0.01 -0.06,0.1 0.03,0.08 0.03,-0 0.06,-0.02 0.05,-0.06 -0.01,-0.03 -0.05,-0.03 -0.08,-0.02z"/>
   <path class="fil0" d="M0.29 0.3c-0.07,0.03 -0.03,0.11 0.04,0.12 0.02,0 0.03,-0 0.03,-0.02 0,-0.02 -0.01,-0.04 -0.01,-0.05 -0.01,-0.01 -0.04,-0.05 -0.06,-0.04z"/>
   <path class="fil0" d="M1.4 1.15c-0,0 -0,0.02 -0.01,0.04 -0.02,0.05 0.03,0.09 0.07,0.06 0.07,-0.05 -0.04,-0.11 -0.06,-0.1z"/>
   <path class="fil0" d="M0.74 0.23c-0,0.03 0.03,0.06 0.04,0.08 0.01,0.01 0.05,0.07 0.07,0.04 0.03,-0.04 -0.08,-0.12 -0.11,-0.12z"/>
   <path class="fil0" d="M1.33 0.73c-0.04,0.02 -0.03,0.12 0.04,0.08 0.02,-0.01 0.04,-0.03 0.02,-0.06 -0.01,-0.01 -0.04,-0.03 -0.06,-0.02z"/>
   <path class="fil0" d="M1.63 0.33c-0,0.04 0.03,0.05 0.07,0.04 0.03,-0.01 0.06,-0.02 0.05,-0.06 -0.03,-0.01 -0.1,-0 -0.12,0.02z"/>
   <path class="fil0" d="M0.76 1.88c-0.02,0.01 -0.03,0.02 -0.03,0.05 0.01,0.06 0.09,0.02 0.08,-0.03 -0.01,-0.02 -0.03,-0.03 -0.05,-0.02z"/>
   <path class="fil0" d="M1.34 0.55c-0.05,0.02 -0.02,0.1 0.03,0.08 0.05,-0.03 0.03,-0.1 -0.03,-0.08z"/>
   <path class="fil0" d="M1.27 0.62c-0.04,0.01 -0.04,0.09 0.03,0.07 0.05,-0.01 0.02,-0.09 -0.03,-0.07z"/>
   <path class="fil0" d="M0.28 0.44c-0.01,-0.02 -0.03,-0.02 -0.04,-0.05 -0.01,-0.01 -0,-0.03 -0.01,-0.03 -0.01,-0 -0.02,0.01 -0.03,0.02 -0.03,0.05 0.04,0.11 0.08,0.07z"/>
   <path class="fil0" d="M1.18 0.67c-0.04,0.02 0,0.08 0.04,0.06 0.01,-0.01 0.02,-0.03 0.02,-0.05 -0.01,-0.02 -0.04,-0.02 -0.06,-0.01z"/>
   <path class="fil0" d="M1.2 1.19c-0.01,0.01 -0.01,0.08 0.01,0.09 0.01,0 0.02,-0 0.03,-0.01 0.04,-0.02 -0.01,-0.08 -0.04,-0.08z"/>
   <path class="fil0" d="M1.42 0.7c-0.04,0.01 -0.02,0.07 0.02,0.06 0.03,-0.01 0.03,-0.07 -0.02,-0.06z"/>
   <path class="fil0" d="M1.4 0.66c0.02,0.01 0.03,0.02 0.05,0.01 0.01,-0.02 0,-0.04 -0.02,-0.05 -0.03,-0.01 -0.04,0.01 -0.03,0.04z"/>
   <path class="fil0" d="M1.2 0.63c0.03,0.01 0.04,-0.02 0.04,-0.04 -0.01,-0.01 -0.03,-0.01 -0.05,-0 -0.01,0.01 -0.01,0.04 0.01,0.05z"/>
  </g>
 </g>
</svg>
