<?xml version="1.0" encoding="UTF-8"?>
<!DOCTYPE svg PUBLIC "-//W3C//DTD SVG 1.1//EN" "http://www.w3.org/Graphics/SVG/1.1/DTD/svg11.dtd">
<!-- Creator: CorelDRAW 2021.5 -->
<svg xmlns="http://www.w3.org/2000/svg" xml:space="preserve" width="0.443307in" height="0.400846in" version="1.1" style="shape-rendering:geometricPrecision; text-rendering:geometricPrecision; image-rendering:optimizeQuality; fill-rule:evenodd; clip-rule:evenodd"
viewBox="0 0 2.2 1.99"
 xmlns:xlink="http://www.w3.org/1999/xlink"
 xmlns:xodm="http://www.corel.com/coreldraw/odm/2003">
 <defs>
  <style type="text/css">
   <![CDATA[
    .fil0 {fill:#FEFEFE}
   ]]>
  </style>
 </defs>
 <g id="Capa_x0020_1">
  <metadata id="CorelCorpID_0Corel-Layer"/>
  <g id="_3020938074928">
   <path class="fil0" d="M0.46 0.7c0.09,-0 0.29,-0.01 0.36,0.02 0.09,0.04 0.12,0.15 0.05,0.22 -0,0 -0.01,0.01 -0.01,0.01 -0,0 -0.01,0.01 -0.01,0.01 -0,-0 -0,0 -0.01,0.01 0.04,0.04 0.08,0.06 0.08,0.13 -0,0.07 -0.03,0.11 -0.08,0.13 -0.09,0.04 -0.28,0.03 -0.39,0.03l0 -0.55zm0.61 0.39c0.06,0.13 0.27,0.1 0.28,0.01 0.01,-0.12 -0.2,-0.07 -0.29,-0.14 -0.1,-0.08 -0.05,-0.22 0.07,-0.26 0.11,-0.03 0.28,-0 0.3,0.1l-0.07 0.04c-0.12,-0.11 -0.26,-0.05 -0.25,0.02 0.03,0.08 0.16,0.05 0.25,0.09 0.08,0.03 0.13,0.13 0.07,0.23 -0.07,0.13 -0.4,0.13 -0.45,-0.05l0.09 -0.04zm0.04 -0.97c-0.02,-0.03 -0.09,-0.1 -0.13,-0.11l-0.99 0.98c0.01,0.04 0.04,0.05 0.06,0.08 0.02,0.02 0.04,0.04 0.06,0.06l0.74 0.75c0.04,0.04 0.08,0.1 0.13,0.12 0.03,-0.03 0.12,-0.11 0.14,-0.15 -0.03,-0.04 -0.06,-0.06 -0.08,-0.09 0.04,-0.06 0.13,-0.13 0.19,-0.19 0.09,-0.09 0.55,-0.54 0.56,-0.58l-0.39 -0.39c-0.09,-0.09 -0.33,-0.32 -0.39,-0.39l0.09 -0.09z"/>
   <path class="fil0" d="M1.25 1.94c0.04,-0.03 0.41,-0.4 0.48,-0.47l0.47 -0.47c-0.02,-0.03 -0.09,-0.09 -0.12,-0.13l-0.37 -0.37c-0.09,-0.08 -0.16,-0.16 -0.25,-0.25 -0.04,-0.04 -0.08,-0.08 -0.12,-0.12 -0.04,-0.04 -0.08,-0.09 -0.12,-0.12 -0.04,0.03 -0.06,0.06 -0.1,0.1 0.03,0.05 0.37,0.37 0.44,0.44 0.08,0.07 0.14,0.14 0.22,0.22l0.21 0.22c-0.06,0.08 -0.53,0.51 -0.64,0.63 -0.08,0.09 -0.15,0.14 -0.21,0.21l0.1 0.1z"/>
   <path class="fil0" d="M0.81 1.12c0.03,-0.15 -0.14,-0.11 -0.26,-0.12l0 0.14 0.06 -0 0.04 0c0.07,0 0.09,0 0.15,-0.02z"/>
   <path class="fil0" d="M0.75 0.91c0.08,-0.01 0.06,-0.1 -0.01,-0.11l-0.18 -0 0 0.12 0.19 -0z"/>
   <path class="fil0" d="M0.75 0.91l-0.19 0 -0 -0.12 0.18 0c-0.04,-0.02 -0.14,-0.02 -0.19,-0.01l-0 0.13c0.04,0 0.17,0.01 0.2,-0.01z"/>
  </g>
 </g>
</svg>
