<?xml version="1.0" encoding="UTF-8"?>
<!DOCTYPE svg PUBLIC "-//W3C//DTD SVG 1.1//EN" "http://www.w3.org/Graphics/SVG/1.1/DTD/svg11.dtd">
<!-- Creator: CorelDRAW 2021.5 -->
<svg xmlns="http://www.w3.org/2000/svg" xml:space="preserve" width="1.06096in" height="0.36624in" version="1.1" style="shape-rendering:geometricPrecision; text-rendering:geometricPrecision; image-rendering:optimizeQuality; fill-rule:evenodd; clip-rule:evenodd"
viewBox="0 0 13.91 4.8"
 xmlns:xlink="http://www.w3.org/1999/xlink"
 xmlns:xodm="http://www.corel.com/coreldraw/odm/2003">
 <defs>
  <style type="text/css">
   <![CDATA[
    .fil0 {fill:#E6E7E8}
   ]]>
  </style>
 </defs>
 <g id="Capa_x0020_1">
  <metadata id="CorelCorpID_0Corel-Layer"/>
  <g id="_3020743374256">
   <path class="fil0" d="M4.33 2.8c-0.16,-0.12 -0.05,-0.21 -0.59,-0.5 0.08,-0.13 0.16,-0.12 0.31,-0.37 0.44,-0.73 -0.07,-1.86 -1.59,-1.86l-1.76 0c-0.41,0 -0.7,0.33 -0.7,0.74l0 3.22c0,0.39 0.27,0.72 0.65,0.72l2.1 0c0.54,0 0.86,-0.22 1.08,-0.27 0.03,0.1 0.26,0.31 0.54,0.32l0.03 0c0.16,-0 0.34,-0.07 0.51,-0.25 0.1,-0.11 0.13,-0.36 0.41,-0.36l2.01 0c0.08,0 0.2,0.07 0.24,0.12 0.06,0.08 0.18,0.49 0.66,0.49 0.4,0 0.68,-0.31 0.68,-0.7 0,-0.27 -0.64,-1.38 -0.8,-1.7l-0.85 -1.65c-0.11,-0.18 -0.17,-0.38 -0.32,-0.51 -0.32,-0.28 -0.72,-0.32 -1.09,-0.11 -0.29,0.17 -0.43,0.55 -0.59,0.87 -0.04,0.08 -0.07,0.12 -0.11,0.2 -0.07,0.14 -0.13,0.26 -0.19,0.39l-0.41 0.78c-0.05,0.08 -0.18,0.32 -0.2,0.41z"/>
   <path class="fil0" d="M9.06 2.66l-0.29 0 0 -0.27c0.34,0 0.38,-0.04 0.47,0.14 -0.01,0.02 -0.02,0.14 -0.18,0.14zm-0.02 -0.47l-0.27 0 0 -0.25c0.2,0 0.24,-0.02 0.41,0.02 0.01,0.05 0.08,0.23 -0.14,0.23zm-0.5 0.68l0.63 0c0.26,0 0.43,-0.41 0.16,-0.59 0.23,-0.34 -0.02,-0.54 -0.18,-0.54l-0.61 0 0 1.13z"/>
   <path class="fil0" d="M9.45 0.68l0 0.83 0.23 0c0,-0.27 -0.06,-0.65 0.16,-0.65 0.22,0 0.16,0.4 0.16,0.65l0.23 0c0,-0.31 -0.07,-0.65 0.16,-0.65 0.2,0 0.14,0.3 0.14,0.65l0.23 0c0,-0.53 0.09,-0.86 -0.41,-0.86 -0.09,0 -0.14,0.05 -0.2,0.09 -0.14,-0.09 -0.13,-0.09 -0.29,-0.09 -0.11,0 -0.03,0 -0.09,0.03l-0.16 -0c-0.04,-0 -0.1,-0 -0.14,-0z"/>
   <path class="fil0" d="M9.92 3.36c0.06,0.05 0.15,0.37 0.16,0.43l-0.29 0c0.03,-0.06 0.13,-0.35 0.14,-0.43zm-0.52 0.86l0.25 0 0.07 -0.22 0.45 -0c0.01,0.07 0.04,0.17 0.07,0.23l0.23 0c-0.01,-0.09 -0.22,-0.67 -0.28,-0.85 -0.03,-0.08 -0.07,-0.21 -0.1,-0.28l-0.29 0 -0.38 1.13z"/>
   <path class="fil0" d="M8.66 1.1c0,-0.29 0.41,-0.37 0.41,0.02 0,0.27 -0.41,0.27 -0.41,-0.02zm-0.23 -0.05c0,0.41 0.32,0.61 0.65,0.38l0 0.07 0.23 0 0 -0.83 -0.23 0 0 0.07c-0.37,-0.25 -0.65,0.06 -0.65,0.32z"/>
   <path class="fil0" d="M12.18 3.54c0.1,0 0.18,0.08 0.2,0.16l-0.41 0c0.03,-0.06 0.08,-0.16 0.2,-0.16zm-0.43 0.23c0,0.63 0.8,0.56 0.83,0.18 -0.08,0 -0.17,-0.01 -0.23,0.01 -0,0 -0.06,0.04 -0.07,0.05 -0.15,0.08 -0.24,0 -0.31,-0.13l0.63 0c0,-0.38 -0.12,-0.52 -0.5,-0.52 -0.08,0 -0.21,0.08 -0.25,0.13 -0.06,0.06 -0.11,0.16 -0.11,0.27z"/>
   <path class="fil0" d="M10.85 2.19c0.1,0 0.18,0.08 0.2,0.16l-0.41 0c0.03,-0.06 0.08,-0.16 0.2,-0.16zm-0.43 0.23c0,0.14 0.01,0.24 0.14,0.36 0.27,0.25 0.67,0.06 0.69,-0.18 -0.41,0 -0.22,0.09 -0.41,0.09 -0.12,0 -0.16,-0.08 -0.2,-0.16l0.63 0c0,-0.38 -0.12,-0.52 -0.5,-0.52 -0.08,0 -0.21,0.08 -0.25,0.13 -0.06,0.06 -0.11,0.16 -0.11,0.27z"/>
   <path class="fil0" d="M7.89 1.51l0.25 0c0.03,-0.06 0.35,-1.02 0.36,-1.13l-0.23 0c-0.07,0.14 -0.18,0.75 -0.27,0.81 -0.01,-0.11 -0.08,-0.3 -0.11,-0.41 -0.03,-0.11 -0.1,-0.29 -0.11,-0.41l-0.25 0c0.06,0.26 0.29,0.83 0.36,1.13z"/>
   <path class="fil0" d="M12.69 2.68c-0.33,0 -0.27,-0.47 -0.02,-0.47 0.15,0 0.26,0.23 0.15,0.38 -0.02,0.02 -0.1,0.1 -0.13,0.1zm-0.45 -0.27c0,0.69 0.86,0.55 0.86,0.07 0,-0.65 -0.86,-0.6 -0.86,-0.07z"/>
   <path class="fil0" d="M11.27 1.33c-0.33,0 -0.27,-0.47 -0.02,-0.47 0.15,0 0.26,0.23 0.15,0.38 -0.02,0.02 -0.1,0.1 -0.13,0.1zm-0.45 -0.27c0,0.69 0.86,0.55 0.86,0.07 0,-0.5 -0.52,-0.59 -0.75,-0.34 -0.06,0.06 -0.11,0.16 -0.11,0.27z"/>
   <path class="fil0" d="M13.69 2.57c0,0 0.03,0.11 -0.14,0.11 -0.1,0 -0.16,-0.03 -0.18,-0.11l-0.23 0c0.01,0.44 0.77,0.4 0.77,0.02 0,-0.23 -0.32,-0.28 -0.52,-0.29 0.01,-0.1 0,-0.09 0.18,-0.09 0.08,0 0.04,0.04 0.12,0.06 0.05,0.02 0.14,0.01 0.2,0.01 -0.04,-0.43 -0.89,-0.32 -0.71,0.08 0.06,0.14 0.3,0.17 0.51,0.21z"/>
   <path class="fil0" d="M13.19 3.92c0,0 0.03,0.11 -0.14,0.11 -0.1,0 -0.16,-0.03 -0.18,-0.11l-0.23 0c0.01,0.44 0.77,0.4 0.77,0.02 0,-0.13 -0.09,-0.19 -0.18,-0.22 -0.07,-0.02 -0.26,-0.06 -0.34,-0.07 0.01,-0.1 0,-0.09 0.18,-0.09 0.13,0 -0.07,0.07 0.32,0.07 -0.04,-0.43 -0.89,-0.32 -0.71,0.08 0.06,0.14 0.24,0.15 0.37,0.18 0.05,0.01 0.09,0.03 0.14,0.04z"/>
   <path class="fil0" d="M12.29 1.22c-0,0 0.03,0.11 -0.14,0.11 -0.1,0 -0.16,-0.03 -0.18,-0.11l-0.23 0c0.01,0.44 0.77,0.4 0.77,0.02 0,-0.13 -0.09,-0.19 -0.18,-0.22 -0.07,-0.02 -0.26,-0.06 -0.34,-0.07 0.01,-0.1 0,-0.09 0.18,-0.09 0.13,0 -0.07,0.07 0.32,0.07 -0.04,-0.43 -0.89,-0.32 -0.71,0.08 0.06,0.14 0.24,0.15 0.37,0.18 0.05,0.01 0.09,0.03 0.14,0.04z"/>
   <path class="fil0" d="M11.39 2.03l0 0.83 0.23 0c0,-0.27 -0.06,-0.65 0.16,-0.65 0.22,0 0.16,0.4 0.16,0.65l0.23 0c0,-0.48 0.07,-0.86 -0.38,-0.86 -0.11,0 -0.05,0.03 -0.13,0.04l-0.02 0c-0,-0 -0.01,-0 -0.01,-0l-0.03 -0.01c-0.03,-0.01 -0.02,-0.01 -0.06,-0.01 -0.04,-0 -0.1,-0 -0.14,-0z"/>
   <path class="fil0" d="M9.56 2.59c0,0.15 0.18,0.37 0.45,0.27 0.1,-0.04 0.02,-0.03 0.1,-0.01l0.19 0.02 0 -0.83 -0.23 0c0,0.2 0.02,0.42 -0.02,0.61 -0.35,0.17 -0.27,-0.18 -0.27,-0.61l-0.23 0 0 0.56z"/>
   <path class="fil0" d="M10.94 3.38l0 0.83 0.23 0c0,-0.27 -0.06,-0.65 0.16,-0.65 0.11,0 0.15,0.1 0.16,0.2l0.23 0c0,-0.32 -0.15,-0.41 -0.38,-0.41 -0.12,0 -0.07,0.04 -0.14,0.05l-0.25 -0.02z"/>
   <polygon class="fil0" points="10.53,4.22 10.76,4.22 10.76,3.38 10.53,3.38 "/>
   <polygon class="fil0" points="10.53,3.29 10.76,3.29 10.76,3.09 10.53,3.09 "/>
  </g>
 </g>
</svg>
