<?xml version="1.0" encoding="UTF-8"?>
<!DOCTYPE svg PUBLIC "-//W3C//DTD SVG 1.1//EN" "http://www.w3.org/Graphics/SVG/1.1/DTD/svg11.dtd">
<!-- Creator: CorelDRAW 2021.5 -->
<svg xmlns="http://www.w3.org/2000/svg" xml:space="preserve" width="0.727228in" height="0.260787in" version="1.1" style="shape-rendering:geometricPrecision; text-rendering:geometricPrecision; image-rendering:optimizeQuality; fill-rule:evenodd; clip-rule:evenodd"
viewBox="0 0 6.78 2.43"
 xmlns:xlink="http://www.w3.org/1999/xlink"
 xmlns:xodm="http://www.corel.com/coreldraw/odm/2003">
 <defs>
  <style type="text/css">
   <![CDATA[
    .fil0 {fill:#FEFEFE}
   ]]>
  </style>
 </defs>
 <g id="Capa_x0020_1">
  <metadata id="CorelCorpID_0Corel-Layer"/>
  <g id="_3020737985280">
   <path class="fil0" d="M4.65 2.4l-0 -0.49c-0.06,0 -0.94,0.02 -1,-0.01l0 -0.44 0.78 -0 -0.01 -0.49 -0.78 -0 -0 -0.42c0.05,-0.03 0.14,-0.01 0.22,-0.01l0.73 0 0 -0.49 -1.51 0.01 -0 2.34 1.57 0.01z"/>
   <path class="fil0" d="M1.04 1.77c0.08,0.42 0.39,0.69 0.88,0.66 0.79,-0.04 0.98,-0.87 0.55,-1.26 -0.2,-0.18 -0.66,-0.23 -0.77,-0.35 -0.21,-0.21 0.26,-0.55 0.43,-0.1l0.5 -0.18c-0.29,-0.92 -1.73,-0.57 -1.52,0.37 0.1,0.43 0.57,0.46 0.88,0.6 0.28,0.13 0.14,0.37 -0.02,0.41 -0.25,0.06 -0.38,-0.12 -0.39,-0.34l-0.53 0.19z"/>
   <path class="fil0" d="M6.26 1.51c-0.04,0.13 -0.07,0.27 -0.14,0.35 -0.14,0.17 -0.64,0.21 -0.64,-0.65 -0,-0.93 0.71,-0.95 0.78,-0.27 0.13,-0.04 0.43,-0.13 0.53,-0.21 -0.35,-1.16 -1.9,-0.91 -1.88,0.5 0.02,1.66 1.86,1.38 1.87,0.46l-0.51 -0.18z"/>
   <path class="fil0" d="M0.02 0.97l-0.01 1.43 0.56 -0.01 -0 -1.84c-0.08,0.04 -0.21,0.16 -0.29,0.22l-0.26 0.21z"/>
   <path class="fil0" d="M0.01 0.64c0.07,-0.01 0.48,-0.17 0.56,-0.21l0 -0.38c-0.15,-0.01 -0.43,-0.02 -0.56,0.01l-0 0.58z"/>
   <path class="fil0" d="M0.58 2.38l-0.56 0.01 0.01 -1.43c-0.04,0.08 -0.02,1.39 -0.01,1.43l0.44 0.01c0.12,0 0.11,0.01 0.13,-0.02z"/>
   <path class="fil0" d="M4.65 2.4l0.01 -0.03c0.02,-0.08 0.01,-0.42 -0.01,-0.47l-1 -0c0.06,0.03 0.94,0.01 1,0.01l0 0.49z"/>
   <path class="fil0" d="M3.65 0.54l0.95 -0.01c0.02,-0.05 0.03,-0.42 0,-0.5l0 0.49 -0.73 -0c-0.08,-0 -0.17,-0.01 -0.22,0.01z"/>
  </g>
 </g>
</svg>
