<?xml version="1.0" encoding="UTF-8"?>
<!DOCTYPE svg PUBLIC "-//W3C//DTD SVG 1.1//EN" "http://www.w3.org/Graphics/SVG/1.1/DTD/svg11.dtd">
<!-- Creator: CorelDRAW 2021.5 -->
<svg xmlns="http://www.w3.org/2000/svg" xml:space="preserve" width="0.135429in" height="0.0729331in" version="1.1" style="shape-rendering:geometricPrecision; text-rendering:geometricPrecision; image-rendering:optimizeQuality; fill-rule:evenodd; clip-rule:evenodd"
viewBox="0 0 135.43 72.94"
 xmlns:xlink="http://www.w3.org/1999/xlink"
 xmlns:xodm="http://www.corel.com/coreldraw/odm/2003">
 <defs>
  <style type="text/css">
   <![CDATA[
    .fil0 {fill:#FEFEFE}
   ]]>
  </style>
 </defs>
 <g id="Layer_x0020_1">
  <metadata id="CorelCorpID_0Corel-Layer"/>
  <path class="fil0" d="M1.52 1.53c0.98,-0.98 2.31,-1.53 3.69,-1.53 1.38,0 2.71,0.55 3.69,1.53l58.81 58.82 58.81 -58.82c0.98,-0.98 2.31,-1.53 3.69,-1.53 2.88,0 5.22,2.33 5.22,5.22 0,1.38 -0.55,2.71 -1.53,3.69l-62.5 62.5c-0.98,0.98 -2.31,1.53 -3.69,1.53 -1.38,0 -2.71,-0.55 -3.69,-1.53l-62.5 -62.5c-0.98,-0.97 -1.53,-2.3 -1.53,-3.69 0,-1.38 0.55,-2.71 1.53,-3.69l-0.01 0z"/>
 </g>
</svg>
