<?xml version="1.0" encoding="UTF-8"?>
<!DOCTYPE svg PUBLIC "-//W3C//DTD SVG 1.1//EN" "http://www.w3.org/Graphics/SVG/1.1/DTD/svg11.dtd">
<!-- Creator: CorelDRAW 2021.5 -->
<svg xmlns="http://www.w3.org/2000/svg" xml:space="preserve" width="5.20787in" height="4.74996in" version="1.1" style="shape-rendering:geometricPrecision; text-rendering:geometricPrecision; image-rendering:optimizeQuality; fill-rule:evenodd; clip-rule:evenodd"
viewBox="0 0 298.64 272.38"
 xmlns:xlink="http://www.w3.org/1999/xlink"
 xmlns:xodm="http://www.corel.com/coreldraw/odm/2003">
 <defs>
  <style type="text/css">
   <![CDATA[
    .fil10 {fill:#05B4A9}
    .fil6 {fill:#0DA39C}
    .fil8 {fill:#1B8A8B}
    .fil9 {fill:#1D1D1A}
    .fil4 {fill:#3B3C39}
    .fil11 {fill:#6AD3CB}
    .fil1 {fill:#A0E1DB}
    .fil13 {fill:#BADCDA}
    .fil5 {fill:#DBD8D7}
    .fil15 {fill:#E5C5C4}
    .fil7 {fill:#E6A7A8}
    .fil16 {fill:#E9988A}
    .fil14 {fill:#F4C6AD}
    .fil3 {fill:whitesmoke}
    .fil0 {fill:#F9887D}
    .fil2 {fill:#FD6A72}
    .fil12 {fill:#FED7BB}
   ]]>
  </style>
 </defs>
 <g id="Capa_x0020_1">
  <metadata id="CorelCorpID_0Corel-Layer"/>
  <g id="_1991680595488">
   <path class="fil0" d="M106.82 42.1c0.01,18.06 0.01,36.26 -0,54.32 -0,5.73 0.53,52.49 -0.26,53.74l2.28 0.74c0.79,0.09 1.54,0.07 2.25,-0.17 1.08,-0.37 2.31,-1.17 3.47,-1.75 2.5,-1.25 1.21,-1.41 2.47,-2.73 0.51,-0.54 2.97,-1.17 3.87,-1.22 -0.38,1.22 -1.2,2.83 -1.7,3.91 -0.47,1.04 -0.26,1 -1.5,1.35 -0.52,0.15 -1.8,0.4 -2.13,0.77 -0.7,0.79 -1.36,8.49 -8.82,8.45 0.32,2.43 0.04,32.56 0.08,38.48 0.01,1.87 -0.29,3.55 -0.27,5.16l88.5 0 0.16 -0.75c-1.8,0.81 -19.5,0.11 -23,0.06l2.27 -0.04c1.15,-1.74 1.63,-1.86 1.89,-2.26 0.63,-0.95 -0.41,-0.07 0.48,-1.33l0.23 -0.31c0.94,-1.18 1.15,-0.43 1.27,-1.84 -0.32,-0.2 0.51,-0.23 -0.76,-0.24 -1.09,0.16 0.66,0.84 -1.05,1.29l0.25 -2.11c0.45,-0.19 0.59,0.5 1.06,0.03 0.42,-0.42 0.07,-0.24 -0.02,-1.29 -0.72,0.21 -0.29,0.16 -0.67,0.25 -0.51,0.12 0.08,0.19 -0.36,-0.01l-0.01 -3.64 1.04 -0.52c0.01,-1.9 0.3,-1.83 0.3,-2.39l-0.15 -0.77c-0,-0.05 0,-0.13 0,-0.17 0.21,-2.99 0.35,0.94 -0.06,-1.68 -0.29,-1.89 0.69,-0.16 0.11,-2.43 -0.11,-0.43 -0.08,-0.17 -0.13,-0.72l-0.09 -1.95c-0.96,0.38 0.02,0.09 -1.03,0.78 0.13,-1.67 0.71,-0.58 1.27,-1.87 0.21,-0.49 0.08,-0.05 0.09,-0.43 0.01,-0.83 -0.73,-1.18 -1.36,-1.61 0.02,-0.67 0.08,-0.53 0.17,-0.91 0.24,-1.12 -0.08,-0.5 -0.05,-1.4 0,-0.04 0.03,-0.15 0.03,-0.18l0.14 -0.37c0.49,0.97 0.05,1.21 1.26,1.54 -0.37,-1.3 -0.59,-0.22 -0.64,-1.45 -0.05,-1.11 0.88,-3.22 -0.25,-4.36l-0.65 -0.4c-0.01,-0.94 -0.25,-2.38 0.3,-3.13 0.21,0.89 0.15,0.81 0.72,1.29l0.03 -2.31 -1.7 -0.11c-0.05,-0.01 -0.15,0 -0.18,-0.07 -0.03,-0.07 -0.12,-0.05 -0.17,-0.08 1.56,-0.07 0.12,0.09 0.76,-0.51 -9.45,0.84 -14.15,1.26 -22.84,-1.84 -18.81,-6.71 -31.72,-26.99 -27.15,-48.95 5.14,-24.72 31.02,-39.46 54.83,-31.74 4.42,1.43 7.83,3.62 9.18,4.05l-0.36 -0.83 0.76 -0.31c-1.64,-0.2 -0.48,-0.02 -0.71,-0.84 -0.33,-1.15 -0.09,-0.96 0.14,-1.64 0.01,-0.02 0.03,-0.09 0.04,-0.12 0.01,-0.02 0.02,-0.09 0.02,-0.11 0.1,-0.37 -0.57,-0.52 0.79,-0.44 -0.67,-0.45 -0.25,-0.31 -1.05,-0.53 0.14,-0.47 0.44,-0.57 0.32,-1.03l-0.33 -0.37c0.06,-0.69 -0.12,-0.22 0.46,-0.48 -0.42,-0.73 -0.57,-0.74 -1.15,-1.32 -4.84,-4.79 -6.33,-12.57 -3.84,-18.96 1.04,-2.68 2.12,-3.74 3.45,-5.74 -0,-0 -1.31,-0.3 0.34,-1.39 -0.09,-0.01 -0.33,-0 -0.34,-0l-0.47 -0.17c0.52,-1.14 0.48,-0.85 0.26,-2.19 0.96,0.17 1.3,0.87 1.3,-1.69 0,-1.09 -0.01,-2.19 -0.02,-3.27 -0.33,1.2 -0.2,0.87 -1.02,1.28 -0.96,-1.09 -0.64,-1.11 -1.29,-3.83 1.77,0.5 0.73,1.25 2.39,1.1 -0.17,-0.99 -1.51,-2.08 -2.18,-2.75 3.68,-0.52 4.47,0.83 4.98,-0.42 -10.35,-0.04 -20.71,-0.02 -31.07,-0.02 -5.2,0 -10.39,0.01 -15.59,0.01 -3.06,0 -12.97,0.41 -15.24,-0.13l-0.04 39.81c-0.06,-0.04 -0.13,-0.1 -0.17,-0.13 -0.04,-0.03 -0.12,-0.1 -0.16,-0.14l-5.97 -8.1c-0.11,-0.16 -0.34,-0.47 -0.48,-0.59 -0.5,-0.44 -0.01,-0.17 -0.79,-0.49 -0.17,0.59 -6.24,8.91 -6.96,9.57l-0.03 -39.74 -5.19 0.01 -0.19 1.72 -4.37 0.1z"/>
   <path class="fil1" d="M285.27 268.9l-184.82 0.03c-3.99,0 -58.73,0.37 -61.15,-0.21 -0.55,-1.57 -0.43,-1.78 0.62,-2.73l53.82 -0.01 -0.09 -17.19 -19.65 0.02 -0.07 -3.56 0.01 -11.29 -0.01 -3.48c1.16,-0.97 3.22,-1.57 4.77,-2.28 0.9,-0.41 1.61,-0.71 2.55,-1.09 1.97,-0.79 0.87,-0.14 1.55,-1.77l2.83 0.03 0.09 5.03 1.37 0.06 -0.02 -10.14c-1.94,-0.35 -4.22,-1.42 -6.23,-2.31l1.59 -23.17c-1.06,0.45 -0.33,-0.04 -1.15,0.91l-4.4 4.68c-0.51,0.51 -1.21,1.35 -1.89,1.6 -0.47,0.92 -1.27,1.49 -2.18,2.4 -1.73,1.72 -5.71,5.53 -5.51,7.5 2.6,0.68 4.29,-0.92 7.12,-0.32 0.21,2.67 -5.03,7.28 -7.03,9.47 -1.52,1.66 -6.65,7.18 -7.45,8.85 -0.34,1.14 0.13,-0.01 -0.59,1.03 -0.1,0.14 -0.2,0.27 -0.33,0.44 -0.68,0.87 0.21,-0.24 -0.23,0.29 -3.54,4.24 -1.74,4.41 -3.01,5.33l-0.44 2.74c8.27,-0.66 4.99,-0.28 10.18,2.52 2.8,1.51 1.96,-0.41 3.52,3.01 2,4.37 4.02,12.68 2.01,16.35 -1.99,3.63 -4.8,3.47 -9.57,3.48 -4.42,0.01 -8.83,0.02 -13.25,0.03 -2.43,0.01 -3.92,0.17 -5.66,-0.96 -1.2,-0.78 -2.51,-2.18 -2.89,-3.63 -0.79,-2.93 0.37,-9.34 1.05,-11.79 1.14,-4.08 2.02,-5.46 4.33,-8.67 1.95,0.31 1.9,1.06 4.96,0.87l0 -4.89c-0.71,-1.19 -0.63,-4.64 -0.57,-5.93l-0.93 -9.53c-0.71,-7.84 -2.61,-16.73 -4.26,-24.36 -1.24,-5.74 -5.74,-19.95 -3.23,-23.61 4.03,-0.74 7.98,7.26 12.06,7.1 3.17,-4.67 -4.01,-22.96 -5.27,-29.23 -1.03,3.65 -6.41,13.25 -8.62,16.63 -3.81,5.81 -6.87,9.29 -11.49,13.45 -5.61,5.05 -10.61,6.25 -15.79,9.15 -15.36,8.62 -13.14,20.74 -8.21,34.24l4.68 7.88c1.67,2.66 3.27,4.96 5.11,7.36 1.91,2.5 3.61,4.62 5.55,6.92l16.79 17.45c0.6,1.85 -0.28,0.36 -0.95,1.16 5.12,4.41 2.58,4.49 6.85,4.46 3.89,-0.03 7.81,-0.01 11.7,0l152.23 0.01c1.04,0 2.09,-0 3.13,-0 3.73,-0 2.54,1.83 5.01,3.15 -0.61,-0.33 -2.63,-2.43 -3.07,-3.16 0.34,0 72.56,0.27 74.1,-0.14l0.43 -0.19z"/>
   <path class="fil2" d="M189.13 53.55c2.58,-1.82 3.3,-3.64 8.31,-5.1 10.39,-3.03 22.16,4 23.03,15.75 0.9,12.16 -9.25,20.99 -20.77,19.44 -5.07,-0.68 -6.86,-3.01 -9.03,-4.07 -0.58,0.25 -0.4,-0.21 -0.46,0.48l0.33 0.37c0.12,0.46 -0.18,0.56 -0.32,1.03 0.8,0.22 0.37,0.08 1.05,0.53 -1.36,-0.08 -0.7,0.07 -0.79,0.44 -0,0.02 -0.01,0.09 -0.02,0.11 -0.01,0.02 -0.03,0.09 -0.04,0.12 -0.23,0.68 -0.47,0.49 -0.14,1.64 0.23,0.82 -0.93,0.63 0.71,0.84l-0.76 0.31 0.36 0.83c0.15,0.21 4.26,3.09 4.8,3.54 27.95,23.14 16.4,67.98 -18.82,74.95 -0.64,0.59 0.8,0.43 -0.76,0.51 0.05,0.04 0.14,0.01 0.17,0.08 0.03,0.07 0.14,0.06 0.18,0.07l1.7 0.11 -0.03 2.31c-0.58,-0.48 -0.51,-0.4 -0.72,-1.29 -0.55,0.75 -0.31,2.19 -0.3,3.13l0.65 0.4c1.13,1.14 0.21,3.25 0.25,4.36 0.05,1.23 0.27,0.15 0.64,1.45 -1.21,-0.33 -0.77,-0.57 -1.26,-1.54l-0.14 0.37c-0,0.04 -0.03,0.14 -0.03,0.18 -0.03,0.9 0.29,0.29 0.05,1.4 -0.08,0.38 -0.15,0.24 -0.17,0.91 0.62,0.43 1.37,0.78 1.36,1.61 -0.01,0.37 0.12,-0.06 -0.09,0.43 -0.56,1.29 -1.14,0.2 -1.27,1.87 1.05,-0.69 0.07,-0.4 1.03,-0.78l0.09 1.95c0.05,0.55 0.02,0.29 0.13,0.72 0.58,2.28 -0.41,0.54 -0.11,2.43 0.41,2.63 0.27,-1.31 0.06,1.68 -0,0.05 -0.01,0.13 -0,0.17l0.15 0.77c-0.01,0.55 -0.29,0.49 -0.3,2.39l-1.04 0.52 0.01 3.64c0.44,0.2 -0.15,0.12 0.36,0.01 0.38,-0.09 -0.05,-0.04 0.67,-0.25 0.08,1.05 0.44,0.87 0.02,1.29 -0.47,0.47 -0.6,-0.21 -1.06,-0.03l-0.25 2.11c1.71,-0.45 -0.04,-1.14 1.05,-1.29 1.26,0 0.44,0.04 0.76,0.24 -0.12,1.41 -0.33,0.67 -1.27,1.84l-0.23 0.31c-0.89,1.27 0.15,0.39 -0.48,1.33 -0.26,0.39 -0.74,0.51 -1.89,2.26l-2.27 0.04c3.5,0.05 21.2,0.75 23,-0.06 0.43,-2.15 1.77,-6.47 1.88,-8.02l-1.3 -1.03c0.51,-1.8 2.78,-5.68 3.82,-7.64 2.75,-5.19 1.23,-2.87 5.86,-5.61 -0.17,-0.62 0.06,-0.31 -0.35,-0.71l-2.78 0.7 -0.09 -8.36c-0.99,-0.45 -3.24,-0.84 -4.58,-1.36 -1.54,-0.6 -2.7,-1.28 -3.76,-2.21 -2.05,-1.8 -3.48,-4.95 -1.77,-8.61 2.15,-0.09 13.28,5.83 15.28,7.05 1.82,1.1 5.05,3.16 5.86,5.33 1.56,4.12 -2.93,4.76 -4.46,6.16 0.32,0.5 0.94,1.56 1.02,1.6 0.7,0.61 1.23,0.51 2.35,1.1 3.22,1.69 4.03,2.31 5.35,4.79 1.52,2.86 3.53,6.1 4.79,9.04l-1.37 1.23c0.37,1.32 0.84,4.43 1.56,5.23 1.87,-1.81 2.85,-2.99 3.43,-6.25 0.33,-3.59 0.08,-8.2 0.09,-11.9l-0.03 -128.85c-0,-4.05 0.37,-7.12 -1.82,-9.97 -1.65,-2.15 -3.96,-3.84 -7.89,-3.9 -7.71,-0.11 -15.52,0.19 -23.22,0.01 -0.51,1.26 -1.3,-0.09 -4.98,0.42 0.66,0.66 2.01,1.76 2.18,2.75 -1.66,0.16 -0.62,-0.59 -2.39,-1.1 0.65,2.72 0.33,2.74 1.29,3.83 0.82,-0.41 0.68,-0.08 1.02,-1.28 0.02,1.09 0.02,2.19 0.02,3.27 0,2.56 -0.34,1.86 -1.3,1.69 0.23,1.34 0.26,1.05 -0.26,2.19l0.47 0.17c0.01,0 0.25,-0.01 0.34,0 -1.65,1.08 -0.34,1.38 -0.34,1.39z"/>
   <path class="fil2" d="M57.81 101.61l0.55 14.81 0.48 5.09c0.3,2.76 1.84,12.65 1.54,14.6 -1.46,0.16 -2.27,-1.02 -3.08,-1.73 -0.88,-0.77 -1.65,-1.4 -2.45,-2.36 -3.93,-3.79 -11.55,-11.24 -10.9,-0.35 0.35,5.83 2.31,13.42 3.89,18.83 1.26,6.27 8.44,24.56 5.27,29.23 -4.09,0.16 -8.04,-7.83 -12.06,-7.1 -2.51,3.66 1.99,17.86 3.23,23.61 1.65,7.62 3.55,16.52 4.26,24.36 0.06,0.07 0.12,0.09 0.15,0.23 0.04,0.24 0.45,0.27 0.55,1.97 0.06,0.95 0.05,1.49 0.21,2.46 0.28,1.68 0.44,2.78 0.45,4.61l4.59 -0.14c0.05,-1.58 4.94,-17.84 6.06,-20.72 1.47,-3.75 3.17,-9.96 5.13,-15.19 1.33,-3.55 0.44,-3.81 0.93,-4.89 0.34,-0.74 -0,-0.31 0.56,-0.62l3.41 -17.34c1.22,-5.84 1.93,-11.79 3.16,-17.6 1.16,-5.5 1.86,-12.23 2.68,-18.08 0.74,-5.27 1.3,-16.02 1.8,-18.89l0.06 -2.16c0.16,-5.15 0.32,-10.61 -0.25,-15.67 -0.25,-2.23 -0.68,-4.59 -1.29,-6.71 -0.78,-2.7 -1.58,-3.46 -2.5,-5.29 -2.41,-2.44 -8.76,-11.54 -13.13,-4.31 -3.05,5.04 -2.95,12.89 -3.27,19.35z"/>
   <path class="fil0" d="M142.12 146.56c-0.24,-1.09 2.74,-6.13 3.31,-6.96 11.93,-17.45 39.43,-16.28 48.65,5.29 0.84,1.98 0.04,2.34 -1.01,3.37 -10.27,10.05 -25.64,12.87 -39.03,7.06 -2.52,-1.09 -4.71,-2.42 -6.56,-3.83 -0.53,-0.41 -5.19,-4.14 -5.36,-4.93zm39.26 -35.33c-1.14,6.62 -7.17,12.13 -15.01,10.97 -6.58,-0.97 -12.22,-7.21 -11.02,-15.05 1.01,-6.62 7.27,-12.24 15.21,-10.96 6.29,1.01 12.17,7.21 10.83,15.04zm25.16 15.85c1.13,-11.81 -3.18,-22.87 -8.91,-29.11 -3.06,-3.34 -5.97,-6.1 -10.57,-8.67 -4,-2.23 -9.16,-4.16 -14.39,-4.63 -23.01,-2.05 -39.97,14.06 -42.4,33.81 -2.54,20.63 12.29,39.69 33.62,42.48 20.21,2.65 40.61,-12.52 42.64,-33.89z"/>
   <path class="fil1" d="M239.69 114.31l2.14 -0.99c-0.04,-1.44 -0.27,-0.66 -0.36,-1.17 -0.1,-0.57 -0.05,-0.19 0.25,-0.97l-0.13 -0.45c-0.62,0.56 -1.04,1.11 -1.96,1.34l-0 -3.7 -0.66 -0.7c0.83,-0.58 0.48,0.04 0.67,-0.87 0.12,-0.59 -0.02,-1.5 -0.11,-2.09 -0.81,-0.6 -0.47,-2.59 -0.06,-3.3 2,-3.46 11.71,-3.48 10.26,6.07 -0.56,3.67 -1.9,3.26 -3.64,4.53 0.22,0.69 -0.04,0.27 0.3,0.71l3.38 0.94 0.59 0.47 48.27 0.02c-1.67,-6.68 -7.09,-15.87 -11.9,-20.09 -3.19,-2.8 -7.52,-3.67 -12.72,-2.28 -6.71,1.78 -8.05,5.61 -9.43,6.75 -0.65,-7.01 -0.64,-12.55 -2.24,-19.33 -2.38,-10.1 -7.32,-22.28 -18.96,-24.16 -6,-0.97 -13.95,0.97 -17.29,4.23l-0.06 54.88c1.78,-0 13.06,-0.31 13.66,0.16z"/>
   <path class="fil1" d="M160.39 24.69c-3.07,-1.92 -3.84,-2.98 -8.82,-3.81 -7.68,-1.28 -10.22,-0.35 -15.87,2.46l-3.63 2.57c-0.83,0.69 -0.05,0.33 -1.2,1.19l-0.56 0.44c-0.59,0.66 -0.86,1.35 -1.46,1.94 -1.44,1.41 -0.43,0.05 -1.38,1.74 -0.78,1.39 -1.18,0.7 -1.34,2.16l110.19 -0.03c1.24,-2.29 0.4,-6.04 -0.71,-7.91 -1.15,-1.95 -2.87,-3.26 -5.26,-4.36 -6.31,-2.91 -12.43,-1.64 -17.3,-2.17 -0.1,-0.41 -0.13,-0.71 -0.21,-1.07 -0.42,-2.02 -2.37,-5.74 -3.46,-7.22 -5.66,-7.65 -15.48,-11.05 -25.55,-10.56 -15.19,0.74 -22.53,9.52 -23.44,24.64z"/>
   <path class="fil1" d="M261.78 187.87c0.74,0.63 2.93,2.93 3.06,3.82 -1.01,-0.11 -1.78,-1.2 -2.74,-1.72 -0.35,2.7 -1.22,5.99 -3.89,7.13l1.88 -7.1c-0.13,-1.1 -0.36,-1.22 -2.12,-2.76 -1.08,-0.95 -1.82,-1.86 -3.03,-2.26 -0.75,0.95 -2.24,2.57 -3.36,2.93 -0.75,-1.21 -5.6,-8.15 -6.49,-8.85 0.03,1.41 0.88,10.47 -0.08,10.72l0.38 8.69 0.02 4.65 4.73 0.03 -0.01 13.45c15.76,-3.88 15.61,8.54 21.2,12.36 4.81,3.3 17.34,-0.59 10.48,12.46 -1.43,2.71 -2.95,4.35 -3.53,5.44 0.13,0.43 -0.08,0.53 0.24,0.25 1.42,0.45 7.73,0.48 9.36,0.26 0.14,-1.07 -0.08,-1.86 0.47,-2.68 -0.06,-2.53 0.11,-5.12 0.15,-7.72 0.05,-2.61 -0.11,-4.95 -0.16,-7.53 -0.24,-12.91 -2.41,-28.9 -7,-40.36 -1.02,-2.55 -4.78,-10.02 -6.01,-11.87l-6.54 -7c-4.71,-4.36 -14.62,-8.72 -23.71,-7.85 -1.41,3.64 0.38,4.91 2.52,7.46l7.38 8.99c4.98,5.89 1.34,2.35 2.85,4.89l3.94 4.18z"/>
   <path class="fil3" d="M101.71 207.01l0.81 11.01 -2.28 0.99c0.07,1.73 0.03,5.27 0.46,6.49l0.06 1.08 1.59 0.42 97.92 0 0.51 -5.59c-0.77,0.55 -1.22,1.66 -1.6,2.7l-3.84 -1.49 0.02 -1.45c0.69,0.46 0.31,0.35 1.22,0.58 0.15,-1.97 0.67,-2.13 -0.16,-3.84 -0.58,-1.19 -0.79,-1.89 -1.12,-3.26 -0.71,-2.9 -0.53,-5.16 -0.58,-8.08l-92.44 0.06c-0.52,0.1 -0.3,-0.09 -0.56,0.37z"/>
   <path class="fil4" d="M210.48 233.96l1.22 11.31 -5.95 -0.03 1.15 -10.96c0.34,-0.58 0.64,-0.4 1.59,-0.4 0.65,0 1.34,0.02 1.99,0.08zm-11.59 11.28l-118.45 0.04 -0.03 -11.37 119.27 0 -0.79 11.33zm1.88 -23.82l-0.51 5.59 -0.23 3.22c-0.78,0.48 -0.95,0.32 -3.21,0.31 -15.25,-0.08 -32.66,0.33 -47.28,-0.09 -11.26,-0.33 -26.26,0.02 -38.2,0.04 -2.28,0 -2.88,-0.67 -4.79,-1.48 -1.26,-0.54 -3.39,-1.23 -4.21,-1.99l-1.59 -0.42 -0.06 -1.08c-1.09,-0.25 -2.01,-0.29 -3.05,0.07l0.08 1.42 -0.07 3.54 -10.56 -0.09 -1.37 -0.06 -0.09 -5.03 -2.83 -0.03c-0.68,1.62 0.42,0.97 -1.55,1.77 -0.94,0.38 -1.65,0.67 -2.55,1.09 -1.55,0.71 -3.61,1.31 -4.77,2.28l0.01 3.48 6 -0 0.05 11.29 -6.05 0 0.07 3.56 124.48 -0.09 -0.36 5.07 -0.07 2.25 2.9 1.13 3.43 1.13 0.59 -5.87 0.42 -3.69 6.61 0.01 0.43 3.44 0.6 5.92c1.09,0.25 2.24,-0.61 3.46,-0.91l2.75 -1.61 -0.11 -3.41 -0.21 -3.43 17.92 -0.02 0.11 -3.21 -0.01 -0.25 -6.8 -0.04 -0.04 -11.27 6.8 0.02c-0.8,-1.7 -2.74,-3.4 -3.38,-4.96 -0.94,0.22 -1.64,1.64 -2.23,2.42 -0.52,0.69 -1.73,1.96 -1.49,2.56l-0.01 11.27 -11.13 0.02 -0.78 -11.25c1.4,-0.61 6.13,-0.13 8.08,-0.22l-0 -3.41 -8.32 0.01 -0.19 -3.39 -0.04 -0.32 -0.38 -5.39 -0.45 -7.73c-1.4,0.51 -14,0.52 -15.32,0l-0.49 7.84z"/>
   <polygon class="fil3" points="199.68,233.91 80.41,233.91 80.44,245.27 198.89,245.23 "/>
   <path class="fil1" d="M58.36 116.42l-0.55 -14.81 -0.96 -0.22c-0.44,0.91 -1.55,1.36 -2.32,1.84 -1.29,0.8 -0.34,-0.06 -1.05,1.04 -0.54,0.83 -0.31,0.76 -1.09,1.01 -0.75,-2 -0.91,-4.29 -1.73,-6.33 -2.24,-5.63 -6.37,-10.1 -13.36,-11.07 -4.84,-0.68 -10.09,-0.07 -13.97,1.85 -1.88,0.92 -3.41,2.07 -4.59,3.46 -0.51,0.6 -1.18,1.69 -1.59,2.57 -0.27,0.59 -0.4,0.97 -0.55,1.52l-0.58 1.6c-6.48,0.05 -9.21,0.15 -12.88,3.91 -2.95,3.02 -3.55,8.48 -2.91,13.61 2.71,0.33 24.64,0.08 29.3,0.08 4.93,-0 9.79,0.3 14.55,0.02 0.96,-0.06 13.73,0.21 14.28,-0.05z"/>
   <path class="fil3" d="M142.12 146.56c0.17,0.79 4.83,4.52 5.36,4.93 1.85,1.41 4.04,2.74 6.56,3.83 13.39,5.81 28.76,2.99 39.03,-7.06 1.05,-1.03 1.86,-1.39 1.01,-3.37 -9.22,-21.57 -36.72,-22.74 -48.65,-5.29 -0.57,0.83 -3.55,5.87 -3.31,6.96z"/>
   <path class="fil3" d="M201.06 263.53l-0.09 -6.38 -2.9 -1.13 0.07 -2.25 0.13 -1.57c-9.77,0.04 -96.42,-0.44 -98.22,0.19l0 10.94c1.96,0.72 44.58,0.21 50.54,0.21 16.88,0 33.67,-0.09 50.48,-0.01z"/>
   <path class="fil5" d="M206.54 127.07c-2.04,21.37 -22.44,36.54 -42.64,33.89 -21.33,-2.8 -36.16,-21.85 -33.62,-42.48 2.43,-19.75 19.39,-35.86 42.4,-33.81 5.23,0.47 10.38,2.4 14.39,4.63 4.6,2.57 7.51,5.33 10.57,8.67 5.73,6.25 10.03,17.3 8.91,29.11zm-29.97 37.68c35.23,-6.97 46.78,-51.81 18.82,-74.95 -0.54,-0.45 -4.64,-3.33 -4.8,-3.54 -1.35,-0.43 -4.77,-2.62 -9.18,-4.05 -23.82,-7.71 -49.7,7.03 -54.83,31.74 -4.57,21.97 8.34,42.24 27.15,48.95 8.69,3.1 13.39,2.68 22.84,1.84z"/>
   <path class="fil1" d="M74.22 86.57c0.92,1.83 1.72,2.6 2.5,5.29 0.61,2.12 1.04,4.48 1.29,6.71 0.58,5.06 0.41,10.52 0.25,15.67 0.87,-1.33 0.16,-8.48 0.39,-10.79l14.92 3.24 -0.03 9.77 -15.34 -0.07c-0.5,2.86 -1.06,13.62 -1.8,18.89 -0.82,5.86 -1.52,12.59 -2.68,18.08 -1.23,5.82 -1.94,11.76 -3.16,17.6l-3.41 17.34c1.03,0.26 0.3,0.15 0.7,-0.54 0.12,-0.21 0.27,-0.78 0.33,-0.98l0.55 -1.33c0.24,-0.37 0.14,-0.24 0.4,-0.5 0.09,-2.34 6.37,-14.02 7.86,-15.69 1.33,-11.45 2.17,-13.36 5.94,-22.85 0.29,-0.73 0.3,-0.93 0.66,-1.41l-0.01 3.44c0.46,-0.98 0.33,-2.93 0.27,-4.24 1.13,-0.6 5.16,-2.76 6.32,-2.95 0.14,-0.79 0.56,-1.29 0.91,-1.98 -2.21,-0.72 -5.28,-1.03 -6.77,-2.54 -1.34,-1.37 -2.57,-4.68 -1.99,-7.25 0.43,-1.91 2.99,-4.35 4.15,-5.21 2.04,-1.52 3.57,-2.48 7.02,-2.19 0.49,-1.2 0.29,-44.74 0.16,-49.85 -3.78,0.24 -9.15,3.67 -11.42,5.47 -1.64,1.29 -2.95,2.63 -4.27,4.04 -0.92,0.98 -3.17,3.62 -3.75,4.84z"/>
   <path class="fil6" d="M236.61 203.08l-13.85 0.08 0.22 1.58 0.09 1.86 20.01 0 -0.11 20.38 -2.42 0.1 -0 8.58c0.07,3.04 0.05,2.43 -0.75,2.35 0.16,0.91 -0.22,0.46 0.67,0.76 0.66,-1.1 -0.28,-0.83 0.99,-1.59l1.57 -0.72c1.05,-0.72 1.88,-1.27 2.84,-1.87 2.55,-1.59 5.16,-4.23 8.72,-1.86l1.71 1.62c1.21,1.71 2.09,3.82 2.74,5.77 0.38,1.12 0.57,2.89 1.14,3.85 -1.33,0.51 -1.32,-0.33 -2.16,0.78 4.91,-0.51 13.36,-1.24 18.3,1.02 0.7,0.32 1.25,0.81 1.95,1.08 0.58,-1.09 2.1,-2.73 3.53,-5.44 6.86,-13.04 -5.66,-9.16 -10.48,-12.46 -5.59,-3.83 -5.45,-16.24 -21.2,-12.36l0.01 -13.45 -4.73 -0.03c-0.49,-0.18 -0.4,0.27 -0.73,-1.46 -0.16,-0.84 -0.04,-0.91 -0.56,-1.52 -2.1,1.25 -3.22,3.41 -7.51,2.95z"/>
   <path class="fil2" d="M97.59 42.17l0.2 2.02c0.19,2.04 0.48,5.14 -0.01,7.11 -0.23,0.95 0.04,1.05 0.04,1.92l0.32 4.74c-0,1.07 0.16,0.73 0.4,1.78l0.07 2.38c-0.87,0.6 -0.6,0.21 -0.62,1.28 -0.02,0.81 -0.15,1.76 -0.15,2.88 -0.46,-0.37 -1.32,-1.05 -0.52,-1.3l0 5.46c-0.01,-0.04 -0.06,-0.14 -0.05,-0.1l0.57 -0.15 0.24 4.66c-0.75,0.15 0.37,0.29 -0.64,-0.02 -1.01,-0.32 -0.14,-0.21 -0.12,-0.23 0,0.85 0.35,4.75 -0.26,4.94 0,-1.05 0,-1.19 0.77,-1.82 0.44,1.25 -0.27,3.91 0.48,5.05l0.74 0.74c1.22,1.19 2.42,2.19 3.14,3.78 -1.62,-0.49 -2.08,-1.97 -3.64,-1.69 0.86,0.78 0.38,0.34 0.49,1.71 0.07,0.82 0.26,0.89 0.75,1.46 -1.1,0.79 -0.36,1.1 -0.26,2.29 0.07,0.81 -0.46,0.24 -0.49,1.73l0.75 0c-0.14,0.75 -0.49,1.28 -0.58,1.64 -0.01,0.03 -0.17,1.36 -0.12,1.65 0.27,1.75 0.28,0.72 0.02,2.45 -0.2,1.37 0.2,3.67 0.19,4.08l0 0.49c-0.01,1.28 -0.55,0.97 0.49,2.16 -0.94,0.81 -0.51,0.1 -0.52,1.37 -0,0.71 0.5,1.45 0.52,2.01 -0.5,1.44 0.69,-1.1 -0.23,0.39 -0.36,0.59 -0.44,0.46 -0.49,1.22 -0,0.07 -0.01,0.29 -0.01,0.36l0.57 1.26c0.03,0.04 0.11,0.1 0.16,0.15 -0.05,0.06 -0.14,0.07 -0.16,0.17 -0.09,0.35 -1.21,0.72 -0.59,0.7 0,2.07 0.28,1.92 -0.49,2.5 0.07,0.02 0.68,-0.11 1.25,-0.14 -0.08,0.49 -0.11,1.06 -0.16,1.35 -0.01,0.05 -0.02,0.13 -0.03,0.17 -0.01,0.04 -0.03,0.12 -0.05,0.16 -0.27,0.74 -0.36,0.18 -0.47,0.98l-0.08 3.12c-0.15,0.97 0.18,2.44 0.67,3.36 0.03,0.06 0.09,0.15 0.12,0.23 -0.92,-0.14 -0.76,-0.25 -1.37,-0.17 1.06,1.42 2.39,2.65 1.73,5.45 -0.65,2.76 -1.43,3.24 -3.63,4.13 1.1,-0.02 0.46,0.28 0.58,2.37 0.13,2.15 -0.19,2.21 -0.21,4.6 -1.06,-0.11 -2.18,-0.39 -3.01,-0.94 0.11,-0.62 0.2,-1.52 0.13,-2.42 -0.67,0.5 0.06,0.14 -0.97,0.22l0.82 0.46c-0.8,0.48 -1.79,0.87 -2.79,0.94 -0.35,0.69 -0.77,1.19 -0.91,1.98 0.6,1.64 0.68,2.21 1.97,3.14 1.64,-0.33 1.82,-1.87 2.86,-3.03 0.97,0.22 3.46,1.11 4.08,1.83l1.55 2.16c0.51,0.67 1.09,1.37 1.68,1.96 0.84,0.86 2.74,2.8 4.26,2.86 0.79,-1.25 0.26,-48.01 0.26,-53.74 0.01,-18.06 0.01,-36.26 0,-54.32l0.11 -1.8c-2.92,-0.36 -8.11,-0.07 -9.34,1.87z"/>
   <path class="fil7" d="M50.02 236.05l-0 4.89c-3.06,0.19 -3.01,-0.56 -4.96,-0.87 -2.31,3.22 -3.2,4.59 -4.33,8.67 -0.68,2.45 -1.84,8.86 -1.05,11.79 0.39,1.44 1.69,2.85 2.89,3.63 1.74,1.13 3.23,0.96 5.66,0.96 4.42,-0.02 8.83,-0.02 13.25,-0.03 4.77,-0.02 7.58,0.15 9.57,-3.48 2.01,-3.66 -0.02,-11.98 -2.01,-16.35 -1.57,-3.43 -0.72,-1.5 -3.52,-3.01 -5.19,-2.8 -1.91,-3.17 -10.18,-2.52l0.44 -2.74 0.39 -2.53 -6.13 -0.12 -0.02 1.71z"/>
   <path class="fil8" d="M285.27 268.9c1.5,-0.76 0.84,-1.47 0.64,-2.54 -2.73,-1.05 -24.27,-0.04 -29.43,-0.34l-39.36 -0.07 -4.43 -0.01 -8.03 0.01 -4.43 -0 -106.48 0.04 -53.82 0.01c-1.05,0.95 -1.17,1.16 -0.62,2.73 2.43,0.58 57.16,0.21 61.15,0.21l184.82 -0.03z"/>
   <path class="fil0" d="M93.75 265.97l106.48 -0.04 0.84 -2.4c-16.81,-0.07 -33.6,0.02 -50.48,0.01 -5.96,-0 -48.58,0.51 -50.54,-0.21l-0 -10.94c1.8,-0.63 88.45,-0.15 98.22,-0.19l-0.13 1.57 0.36 -5.07 -124.48 0.09 19.65 -0.02 0.09 17.19z"/>
   <path class="fil9" d="M83.28 182.47l-0.54 7.09 -0.3 5.26 -1.59 23.17c2.01,0.89 4.29,1.96 6.23,2.31 0.49,-0.64 0.6,-3.4 0.68,-4.38 0.13,-1.63 0.32,-2.94 0.51,-4.64 0.18,-1.62 0.57,-8.46 0.99,-9.4l2.48 -23.49 2.47 24.35 0.42 3.88 1.49 13.73 1.49 -0.36 2.63 -0.97 2.28 -0.99 -0.81 -11.01 -0.27 -3.86 -2.27 -27.99 -15.37 0.01 -0.51 7.3z"/>
   <path class="fil9" d="M205.48 180.11c-4.62,2.74 -3.11,0.42 -5.86,5.61 -1.04,1.96 -3.31,5.85 -3.82,7.64l1.3 1.03c0.63,0.26 1.01,0.57 1.7,0.86 0.69,0.29 1.42,0.39 2.02,0.67l-2.06 15.83c0.73,0.65 1.84,1.73 2.51,1.84 1.32,0.52 13.92,0.51 15.32,0 0.56,-0.06 1.87,-1.52 2.34,-2.08 -0.29,-1.05 -0.91,-1.79 -1.16,-2.73l-0.59 -11.56c2.18,-0.54 2.02,-0.52 3.8,-1.37l1.37 -1.23c-1.26,-2.94 -3.27,-6.18 -4.79,-9.04 -1.32,-2.48 -2.12,-3.1 -5.35,-4.79 -1.12,-0.59 -1.65,-0.49 -2.35,-1.1 -1.76,0.18 -2.57,0.04 -4.39,0.42z"/>
   <path class="fil1" d="M225.97 194.82c-0.58,3.26 -1.56,4.45 -3.43,6.25 -0.12,1.16 -0.22,2.86 0.44,3.67l-0.22 -1.58 13.85 -0.08c1.42,-1.18 4.32,-3.11 5.95,-4.05 0.99,-1.45 -0.51,-7.98 -0.81,-10.08l-2.25 -0.6 -0.63 -17.95c-0.53,-1.15 -1.58,-2.01 -1.64,-3.06 -0.05,-0.87 0.54,-3.2 0.65,-4.4 -1.62,0.52 -4.13,0.82 -5.96,1.29 -1.87,0.48 -4.27,0.9 -5.84,1.81l-0.1 28.78z"/>
   <path class="fil3" d="M181.38 111.23c1.35,-7.83 -4.53,-14.03 -10.83,-15.04 -7.94,-1.27 -14.2,4.34 -15.21,10.96 -1.2,7.84 4.44,14.08 11.02,15.05 7.84,1.16 13.87,-4.34 15.01,-10.97z"/>
   <path class="fil2" d="M200.72 55.89c0,-3.16 3.56,-3.03 3.56,0l0.05 8.09c3.74,0.87 10.6,-1.42 10.42,2.02 -0.11,2.16 -2.84,1.68 -4.67,1.68 -1.45,-0 -4.52,-0.17 -5.75,0.12 -0.4,4.83 1.12,10.61 -2,10.35 -2.99,-0.25 -0.94,-5.95 -1.71,-10.45 -1.24,-0.01 -9.27,0.15 -9.83,-0.33 -0.95,-1.86 -0.77,-3.28 1.89,-3.28l8 -0.01 0.05 -8.19zm-0.01 -4.78c-7.64,1.16 -14.01,7.57 -12.89,16.71 0.89,7.26 7.93,13.87 16.71,12.66 7.27,-1 13.98,-7.92 12.67,-16.71 -1.07,-7.18 -7.85,-13.97 -16.5,-12.66z"/>
   <path class="fil7" d="M256.44 265.8l0.2 -0.38c0.02,-0.05 0.06,-0.14 0.09,-0.2 0.02,-0.06 0.05,-0.14 0.08,-0.2 0.19,-0.48 -0.14,-0.11 0.3,-0.81l24 -0.01c1.54,-6.12 0.74,-13.25 -2.55,-16.69 -2.16,-0.59 -31.73,0.03 -39.38,-0.17 -2.4,-0.06 -2.04,0.16 -2.33,0.8 0.29,0.62 -0.05,0.84 2.33,0.77 0.87,-0.03 1.73,-0.03 2.6,-0.03 1.65,-0 3.29,-0 4.94,-0 2.99,-0 6.75,-0.2 9.65,0.03 0.92,2.07 -0.3,13.7 0.08,16.9z"/>
   <path class="fil2" d="M258.03 244.75c-3.49,0.24 -6.55,1.04 -10.29,1.17 -3.9,0.13 -7.18,-0.3 -10.79,-0.41l-0.11 3.21 -17.92 0.02 0.21 3.43 30.46 0.03 0 11.34 -33.28 -0.06 0.81 2.46 39.36 0.07 -0.05 -0.21c-0.38,-3.2 0.84,-14.83 -0.08,-16.9 -2.9,-0.24 -6.66,-0.04 -9.65,-0.03 -1.65,0 -3.29,-0 -4.94,0 -0.87,0 -1.73,0.01 -2.6,0.03 -2.38,0.07 -2.04,-0.14 -2.33,-0.77 0.29,-0.63 -0.07,-0.86 2.33,-0.8 7.66,0.2 37.22,-0.42 39.38,0.17l-0.03 -0.41c-0.32,0.28 -0.11,0.18 -0.24,-0.25 -0.69,-0.27 -1.25,-0.76 -1.95,-1.08 -4.94,-2.26 -13.39,-1.53 -18.3,-1.02z"/>
   <path class="fil0" d="M67.15 188.31c-0.56,0.31 -0.22,-0.13 -0.56,0.62 -0.49,1.08 0.4,1.34 -0.93,4.89 -1.96,5.22 -3.66,11.44 -5.13,15.19 -1.13,2.88 -6.01,19.14 -6.06,20.72l-4.59 0.14c-0,-1.82 -0.17,-2.93 -0.45,-4.61 -0.16,-0.96 -0.15,-1.51 -0.21,-2.46 -0.1,-1.7 -0.51,-1.73 -0.55,-1.97 -0.03,-0.14 -0.09,-0.16 -0.15,-0.23l0.93 9.53c1.73,0.18 9.15,0.12 10.49,-0.22 0.81,-1.67 5.93,-7.19 7.45,-8.85 2.01,-2.19 7.24,-6.8 7.03,-9.47 -2.83,-0.59 -4.52,1 -7.12,0.32 -0.19,-1.97 3.78,-5.77 5.51,-7.5 0.91,-0.91 1.71,-1.47 2.18,-2.4 -0.77,-0.25 -0.45,-0.32 -0.58,-0.91 -0.17,-0.82 0.79,-0.62 -0.67,-0.83 0.52,-0.51 0.01,-0.22 0.77,-0.4 -0.24,-0.64 -0.18,-0.18 -0.6,-0.83l-0.32 -0.89c-0.66,-1.83 -0.59,0.22 -1.14,-1.2 -0.38,-2.01 0.79,-1.79 -1.03,-1.89 1.03,-0.72 0.38,-0.56 -0.22,-1.57 -0.51,-0.87 -0.33,-1.08 -0.32,-2.32 -1.41,-0.45 0.41,-0.27 -1.27,-0.53 0.94,-0.91 0.39,0.09 0.75,-1.02 -0.76,-0.27 -0.11,0.04 -0.55,-0.47l-1.25 -1.55c0.29,-0.77 0.57,-0.16 0.57,-2.65 -0.26,0.26 -0.16,0.13 -0.4,0.5l-0.55 1.33c-0.07,0.2 -0.21,0.77 -0.33,0.98 -0.4,0.69 0.33,0.8 -0.7,0.54z"/>
   <path class="fil0" d="M93.65 72.22c0.13,5.11 0.33,48.64 -0.16,49.85 2.89,0.55 3.12,1.27 4.94,2.38 0.61,-0.07 0.46,0.03 1.37,0.17 -0.03,-0.08 -0.09,-0.17 -0.12,-0.23 -0.49,-0.92 -0.81,-2.39 -0.67,-3.36l0.08 -3.12c0.11,-0.8 0.2,-0.25 0.47,-0.98 0.01,-0.04 0.04,-0.11 0.05,-0.16 0.01,-0.05 0.02,-0.12 0.03,-0.17 0.05,-0.29 0.08,-0.86 0.16,-1.35 -0.57,0.02 -1.19,0.16 -1.25,0.14 0.77,-0.58 0.49,-0.43 0.49,-2.5 -0.62,0.02 0.51,-0.35 0.59,-0.7 0.03,-0.11 0.11,-0.11 0.16,-0.17 -0.05,-0.06 -0.12,-0.12 -0.16,-0.15l-0.57 -1.26c-0,-0.07 0,-0.29 0.01,-0.36 0.05,-0.76 0.13,-0.63 0.49,-1.22 0.92,-1.49 -0.27,1.05 0.23,-0.39 -0.01,-0.56 -0.52,-1.29 -0.52,-2.01 0,-1.27 -0.42,-0.56 0.52,-1.37 -1.03,-1.19 -0.5,-0.88 -0.49,-2.16l-0 -0.49c0.01,-0.4 -0.38,-2.71 -0.19,-4.08 0.25,-1.74 0.24,-0.7 -0.02,-2.45 -0.05,-0.3 0.12,-1.62 0.12,-1.65 0.09,-0.36 0.44,-0.9 0.58,-1.64l-0.75 0c0.03,-1.49 0.56,-0.92 0.49,-1.73 -0.1,-1.19 -0.84,-1.5 0.26,-2.29 -0.49,-0.57 -0.69,-0.64 -0.75,-1.46 -0.11,-1.37 0.37,-0.93 -0.49,-1.71 1.56,-0.28 2.02,1.2 3.64,1.69 -0.72,-1.59 -1.92,-2.59 -3.14,-3.78l-0.74 -0.74c-0.75,-1.14 -0.03,-3.8 -0.48,-5.05 -0.77,0.62 -0.77,0.76 -0.77,1.82 0.61,-0.18 0.26,-4.08 0.26,-4.94 -0.02,0.01 -0.89,-0.09 0.12,0.23 1.01,0.32 -0.11,0.17 0.64,0.02l-0.24 -4.66 -0.57 0.15c-0.01,-0.03 0.03,0.07 0.05,0.1l0 -5.46c-0.8,0.24 0.06,0.93 0.52,1.3 -0,-1.11 0.13,-2.07 0.15,-2.88 0.02,-1.07 -0.25,-0.67 0.62,-1.28l-0.07 -2.38c-0.24,-1.06 -0.4,-0.72 -0.4,-1.78l-0.32 -4.74c-0,-0.88 -0.27,-0.98 -0.04,-1.92 0.49,-1.98 0.2,-5.07 0.01,-7.11l-0.2 -2.02c-4.21,2.09 -3.91,7.43 -3.92,13.2 -0.01,5.6 0.09,11.24 -0.02,16.84z"/>
   <path class="fil0" d="M246.28 142.84c-0.59,0.6 -1.07,2.35 -1.46,3.08l-0.81 0.94c-0.51,-0.84 -1.26,-1.9 -1.57,-3.05 0.67,-0.46 0.98,-0.82 1.24,-1.48l-2.12 -0.39 -2.23 12.83c-0.22,1.26 -0.28,3.16 -1.05,4.14 0.04,1.39 0.06,2.65 -0.41,4.04 -0.11,1.19 -0.7,3.52 -0.65,4.4 0.06,1.05 1.11,1.91 1.64,3.06 0.79,0.59 1.1,1.23 1.68,2.06 0.52,0.73 1.03,1.4 1.53,2.11 0.77,1.07 2.7,3.47 3.02,4.49 0.89,0.71 5.74,7.65 6.49,8.85 1.12,-0.35 2.61,-1.98 3.36,-2.93 1.2,0.4 1.94,1.31 3.03,2.26 1.76,1.54 1.99,1.66 2.12,2.76l0.24 0.58 1.46 -2.71 -3.94 -4.18c-1.51,-2.55 2.13,0.99 -2.85,-4.89l-7.38 -8.99c-2.14,-2.55 -3.94,-3.81 -2.52,-7.46 0.27,-1.82 0.9,-3.56 1.25,-5.22 0.4,-1.83 0.8,-3.46 1.25,-5.27 0.7,-2.81 2.28,-7.98 2.49,-10.6l-0.9 0.76c-0.95,0.78 -1.74,0.91 -2.9,0.81z"/>
   <polygon class="fil3" points="216.5,257.18 216.31,263.48 249.6,263.53 249.6,252.19 219.13,252.17 219.25,255.57 "/>
   <path class="fil5" d="M200.71 51.12c8.64,-1.31 15.43,5.48 16.5,12.66 1.31,8.78 -5.4,15.71 -12.67,16.71 -8.78,1.21 -15.82,-5.4 -16.71,-12.66 -1.12,-9.13 5.25,-15.54 12.89,-16.71zm-11.58 2.44c-1.33,2.01 -2.4,3.06 -3.45,5.74 -2.49,6.4 -1.01,14.18 3.84,18.96 0.58,0.58 0.72,0.59 1.15,1.32 2.16,1.06 3.96,3.38 9.03,4.07 11.51,1.55 21.67,-7.28 20.77,-19.44 -0.87,-11.75 -12.64,-18.78 -23.03,-15.75 -5,1.46 -5.72,3.28 -8.31,5.1z"/>
   <path class="fil9" d="M241.83 113.32l-2.14 0.99c-1.11,1.49 -0.69,-0.95 -2.23,3.78 -0.66,2.03 -1.43,2.92 -0.66,4.85 1.57,3.93 0.63,5.96 0.31,11.4 -0.14,2.36 0.45,3.43 0.53,5.73 0.16,4.57 0.92,15.64 0.64,18.85 0.77,-0.99 0.83,-2.88 1.05,-4.14l2.23 -12.83 2.12 0.39c0.73,-0.35 1.21,-0.92 1.81,-1.65 0.55,-0.66 0.87,-1.16 1.44,-1.94 0.61,-0.82 2.39,-3 2.6,-3.83 -0.39,-1.44 -1.78,-5.31 -1.76,-6.51 0.02,-1.4 0.77,-5.53 1.09,-7.04 0.06,-2.27 -1.43,-2.44 -1.53,-4.7 -0.1,-2.1 1.01,-2.35 2.44,-3l-3.38 -0.94c-1.11,0.78 -2.17,2.41 -4.15,2.14l-0.41 -1.53z"/>
   <path class="fil6" d="M200.27 227.01l-97.92 -0c0.82,0.76 2.94,1.45 4.21,1.99 1.92,0.82 2.52,1.49 4.79,1.48 11.94,-0.02 26.94,-0.36 38.2,-0.04 14.62,0.42 32.02,0.01 47.28,0.09 2.25,0.01 2.43,0.17 3.21,-0.31l0.23 -3.22z"/>
   <path class="fil6" d="M101.71 207.01c0.26,-0.46 0.04,-0.27 0.56,-0.37l92.44 -0.06 0.35 -3.42 -88.5 -0 -5.12 -0 0.27 3.86z"/>
   <path class="fil2" d="M100.14 162.06c0.54,0.83 1.08,6.2 1.24,7.45 0.43,3.3 1.06,3.52 -2.21,5.66l2.27 27.99 5.12 0c-0.03,-1.61 0.28,-3.3 0.27,-5.16 -0.04,-5.92 0.24,-36.05 -0.08,-38.48 -1.41,-0.27 -2.26,-0.3 -3.63,-0.8 -1.31,-0.48 -2.17,-1.16 -3.34,-1.44 0.16,1.44 0.63,3.48 0.35,4.78z"/>
   <path class="fil4" d="M123.57 70.44c0.78,0.33 0.3,0.05 0.79,0.49 0.14,0.12 0.36,0.43 0.48,0.59l5.97 8.1c0.04,0.04 0.13,0.1 0.16,0.14 0.04,0.03 0.11,0.1 0.17,0.13l0.04 -39.81 -0.03 -1.87 -7.5 -0.05c0.41,2.04 0.35,30.82 -0.09,32.27z"/>
   <path class="fil9" d="M116.58 40.27l0.03 39.74c0.72,-0.66 6.79,-8.98 6.96,-9.57 0.44,-1.45 0.5,-30.23 0.09,-32.27l-7.08 0.02 0 2.07z"/>
   <path class="fil10" d="M83.57 148.44l-0.05 5.34 0.22 7 0.46 -1.86c0.51,0.57 0.38,0.77 0.65,1.31 1.54,-0.86 2.19,-0.17 3.41,-0.18 0.47,-0 0.8,-0.23 1.48,-0.23 0.39,0 1.18,0.09 1.98,0.09l0.63 0.05c0.03,0 0.1,0.01 0.12,0.02l0.77 0.01c1.16,-0.06 0.73,-0.27 2.21,-0.01 0.55,0.1 -0.28,0.18 0.64,0.05 1.21,-0.16 0.53,-0.06 0.86,-0.31 0.44,0.42 0.36,-0.21 0.48,0.76l0.4 -1.75c0.04,0.06 0.07,0.1 0.09,0.21 0.01,0.11 0.06,0.16 0.08,0.21 0.02,0.05 0.05,0.15 0.07,0.21l0.8 -0.47 0.52 2.09c0.09,-1.89 0.17,-2.06 -0.58,-2.9 -1.36,-1.52 -5.22,-6.27 -5.94,-6.43l6.28 5.73c0.47,-3.16 -0.04,-5.34 -0.01,-8.27l-0.09 -5.93c-0.61,-0.72 -3.11,-1.6 -4.08,-1.83 -1.04,1.16 -1.22,2.7 -2.86,3.03 -1.29,-0.93 -1.37,-1.5 -1.97,-3.14 -1.17,0.19 -5.19,2.35 -6.32,2.95 0.05,1.32 0.19,3.27 -0.27,4.24z"/>
   <path class="fil10" d="M239.8 238.02l-2.89 -4.06 0.04 11.29 0.01 0.25c3.6,0.11 6.89,0.54 10.79,0.41 3.74,-0.13 6.8,-0.93 10.29,-1.17 0.83,-1.1 0.82,-0.27 2.16,-0.78 -0.57,-0.96 -0.76,-2.73 -1.14,-3.85 -0.66,-1.95 -1.53,-4.06 -2.74,-5.77l-1.71 -1.62c-3.55,-2.37 -6.16,0.28 -8.72,1.86 -0.96,0.6 -1.79,1.15 -2.84,1.87l-1.57 0.72c-1.28,0.76 -0.33,0.49 -0.99,1.59 -0.89,-0.3 -0.51,0.15 -0.67,-0.76z"/>
   <path class="fil2" d="M69.13 184.95c0.01,2.49 -0.27,1.88 -0.57,2.65l1.25 1.55c0.45,0.51 -0.2,0.21 0.55,0.47 -0.36,1.11 0.19,0.12 -0.75,1.02 1.67,0.26 -0.14,0.08 1.27,0.53 -0.01,1.24 -0.19,1.45 0.32,2.32 0.59,1.01 1.25,0.84 0.22,1.57 1.82,0.1 0.65,-0.12 1.03,1.89 0.55,1.42 0.48,-0.63 1.14,1.2l0.32 0.89c0.41,0.65 0.36,0.19 0.6,0.83 -0.75,0.18 -0.25,-0.11 -0.77,0.4 1.46,0.21 0.5,0.01 0.67,0.83 0.13,0.59 -0.19,0.66 0.58,0.91 0.68,-0.26 1.38,-1.09 1.89,-1.6l4.4 -4.68c0.82,-0.95 0.1,-0.46 1.15,-0.91l0.3 -5.26c-2.92,-0.02 -4.79,1.32 -7.58,1.18 0.44,-1.43 3.28,-4.48 4.18,-5.99 -0.64,-0.72 -0.81,-0.36 -1.59,-1.06l0.01 -1.04 1.2 0.01c0.9,-2.89 -0.35,-3.56 -1.09,-6.25 -0.74,-2.68 -0.5,-4.54 -0.9,-7.16 -1.49,1.67 -7.77,13.35 -7.86,15.69z"/>
   <path class="fil9" d="M91.08 139.26c1,-0.07 1.99,-0.46 2.79,-0.94l-0.82 -0.46c-0.74,-0.92 -1.88,-1.36 -1.26,-2.82 1.51,-0.66 1.74,0.74 2.69,1.9 0.57,-0.68 0.61,-1.81 1.04,-2.79l1.02 -0.13c2.2,-0.9 2.98,-1.38 3.63,-4.13 0.66,-2.79 -0.67,-4.03 -1.73,-5.45 -1.82,-1.11 -2.05,-1.83 -4.94,-2.38 -3.45,-0.29 -4.99,0.68 -7.02,2.19 -1.16,0.87 -3.71,3.3 -4.15,5.21 -0.58,2.56 0.64,5.88 1.99,7.25 1.49,1.51 4.56,1.82 6.77,2.54z"/>
   <path class="fil8" d="M83.04 162.73c-0.47,1.32 -0.28,4.05 -0.35,5.66 -0.09,2.24 -0.73,2.68 -1.4,4.4 0.85,0.95 1.51,1.72 2.5,2.38l15.37 -0.01c3.28,-2.14 2.64,-2.36 2.21,-5.66 -0.16,-1.24 -0.7,-6.62 -1.24,-7.45 0.02,1.02 0.29,2.39 -0.21,3.26 -0.55,-0.78 -0.3,-1.79 -0.58,-2.55l-0.17 2.52 -13 0.06c-1.29,0.13 -0.9,0.65 -1.32,-0.37 -0.77,1.41 -0.05,0.77 -0.73,1.13l-0.42 -2.33 -0.45 4.08 -0.21 -5.13z"/>
   <path class="fil8" d="M87.08 220.3l0.02 10.14 10.56 0.09 0.07 -3.54 -4.1 -0.02 -0 -19.89c0.4,-0.64 -0.43,-0.36 1.01,-0.47l-0.42 -3.88c-0.3,0.66 -1.4,0.41 -2.33,0.4 -0.88,-0.01 -1.76,-0 -2.67,0l0.04 -1.26c-0.43,0.94 -0.81,7.78 -0.99,9.4 -0.19,1.71 -0.38,3.01 -0.51,4.64 -0.08,0.99 -0.19,3.75 -0.68,4.38z"/>
   <path class="fil4" d="M202.26 171.74c1.3,-0 2.23,0.04 2.77,0.92 0.97,1.59 -0.62,1.45 1.65,2.2l0.11 1.99c0.7,-1.56 0.18,-1.87 1.55,-2.33 0.73,3.3 -0.64,2.64 -0.6,3.22 0.63,0.44 0.17,0.23 1.1,0.36 1.53,-1.4 6.01,-2.04 4.46,-6.16 -0.82,-2.17 -4.04,-4.22 -5.86,-5.33 -2.01,-1.21 -13.13,-7.14 -15.28,-7.05 -1.7,3.65 -0.27,6.81 1.77,8.61 1.06,0.93 2.22,1.61 3.76,2.21 1.33,0.52 3.58,0.91 4.58,1.36z"/>
   <path class="fil11" d="M78.26 114.24l-0.06 2.16 15.34 0.07 0.03 -9.77 -14.92 -3.24c-0.23,2.32 0.48,9.46 -0.39,10.79z"/>
   <path class="fil12" d="M76.98 169.26c0.41,2.62 0.16,4.47 0.9,7.16 0.74,2.69 1.99,3.36 1.09,6.25l-1.2 -0.01 -0.01 1.04c0.77,0.7 0.95,0.33 1.59,1.06l2.14 0.51 1.79 -2.79 0.51 -7.3c-1,-0.66 -1.65,-1.43 -2.5,-2.38 0.67,-1.72 1.31,-2.17 1.4,-4.4 0.07,-1.61 -0.12,-4.34 0.35,-5.66l0.48 -8.96 0.05 -5.34 0.01 -3.44c-0.35,0.48 -0.37,0.69 -0.66,1.41 -3.77,9.49 -4.61,11.4 -5.94,22.85z"/>
   <path class="fil13" d="M278.52 247.1l0.03 0.41c3.29,3.43 4.09,10.56 2.55,16.69l-24 0.01c-0.43,0.7 -0.11,0.33 -0.3,0.81 -0.03,0.07 -0.05,0.14 -0.08,0.2 -0.02,0.06 -0.07,0.15 -0.09,0.2l-0.2 0.38 0.05 0.21c5.16,0.31 26.69,-0.7 29.43,0.34 0.78,-0.98 0.65,0.09 0.91,-2.02 0.12,-0.96 0.24,-1.92 0.35,-2.88l1.18 -16.77c-0.55,0.81 -0.33,1.61 -0.47,2.68 -1.62,0.22 -7.94,0.19 -9.36,-0.26z"/>
   <path class="fil14" d="M99.16 149.1c0.95,2.16 -0.11,5.83 0.62,8.18 1.17,0.28 2.03,0.96 3.34,1.44 1.36,0.5 2.21,0.53 3.63,0.8 7.46,0.04 8.12,-7.66 8.82,-8.45 0.33,-0.37 1.61,-0.62 2.13,-0.77 1.23,-0.35 1.02,-0.31 1.5,-1.35 0.5,-1.09 1.32,-2.69 1.7,-3.91 -0.9,0.05 -3.36,0.67 -3.87,1.22 -1.25,1.32 0.03,1.48 -2.47,2.73 -1.16,0.58 -2.39,1.38 -3.47,1.75 -0.7,0.24 -1.46,0.26 -2.25,0.17l-2.28 -0.74c-1.51,-0.06 -3.42,-2 -4.26,-2.86 -0.59,-0.6 -1.17,-1.3 -1.68,-1.96l-1.55 -2.16 0.09 5.93z"/>
   <path class="fil2" d="M233.53 229c0.64,1.56 2.58,3.27 3.38,4.96l2.89 4.06c0.8,0.08 0.82,0.69 0.75,-2.35l0 -8.58 -0.13 -15.21 -6.97 -0.02c-0.39,2.81 0.16,6.18 -0.1,8.55 -0.12,1.12 -0.26,7.55 0.17,8.61z"/>
   <path class="fil0" d="M225.96 227.08l0.01 3.31 0 3.41c-1.95,0.09 -6.68,-0.39 -8.08,0.22l8.11 -0.09 0 4.49 2.61 -3.43c0.62,-0.86 0.34,-0.72 1.19,-1 -0.24,-0.6 0.97,-1.87 1.49,-2.56 0.59,-0.79 1.29,-2.2 2.23,-2.42 -0.43,-1.06 -0.29,-7.49 -0.17,-8.61 0.25,-2.37 -0.3,-5.73 0.1,-8.55l-7.27 0.04c-0.2,2.62 0.39,13.99 -0.22,15.19z"/>
   <path class="fil3" d="M240.42 211.87l0.13 15.21 2.42 -0.1 0.11 -20.38 -20.01 -0c-0.1,2.01 0.08,3.76 -0.18,5.85 -0.24,1.95 -0.86,3.39 -1.2,5.15l4.12 -0.52c0.01,-1.78 -0.25,-3.72 0.18,-5.32 1.48,-0.35 13.73,-0.37 14.43,0.11z"/>
   <path class="fil3" d="M200.72 55.89l-0.05 8.19 -8 0.01c-2.66,-0 -2.84,1.43 -1.89,3.28 0.56,0.48 8.6,0.31 9.83,0.33 0.77,4.5 -1.28,10.2 1.71,10.45 3.12,0.26 1.6,-5.52 2,-10.35 1.23,-0.3 4.3,-0.12 5.75,-0.12 1.84,0 4.56,0.49 4.67,-1.68 0.18,-3.44 -6.69,-1.15 -10.42,-2.02l-0.05 -8.09c0,-3.03 -3.56,-3.16 -3.56,0z"/>
   <path class="fil12" d="M216.59 213.58l0.45 7.73c0.73,0.79 1.03,1.58 1.61,2.61 1.05,-0.05 2.94,-0.89 3.77,-1.32l-0 -1.4 -1.08 0.62c-0.23,-0.78 -0.36,-1.17 -0.09,-1.9l4.42 -0.04 0.17 6.99c-1.6,0.42 -7.03,0.55 -8.42,-0.16l0.04 0.32 8.51 0.06c0.61,-1.21 0.02,-12.57 0.22,-15.19l7.27 -0.04 6.97 0.02c-0.71,-0.48 -12.95,-0.46 -14.43,-0.11 -0.43,1.61 -0.17,3.54 -0.18,5.32l-4.12 0.52c0.34,-1.76 0.96,-3.2 1.2,-5.15 0.26,-2.09 0.08,-3.84 0.18,-5.85l-0.09 -1.86c-0.66,-0.8 -0.57,-2.51 -0.44,-3.67 -0.72,-0.79 -1.19,-3.91 -1.56,-5.23 -1.78,0.85 -1.62,0.83 -3.8,1.37l0.59 11.56c0.26,0.94 0.87,1.68 1.16,2.73 -0.47,0.56 -1.78,2.02 -2.34,2.08z"/>
   <path class="fil12" d="M195.21 202.41l-0.16 0.75 -0.35 3.42c0.05,2.91 -0.13,5.18 0.58,8.08 0.34,1.36 0.55,2.07 1.12,3.26 0.83,1.72 0.32,1.87 0.16,3.84 -0.9,-0.23 -0.52,-0.13 -1.22,-0.58l-0.02 1.45 3.84 1.49c0.38,-1.04 0.82,-2.15 1.6,-2.7l0.49 -7.84c-0.67,-0.11 -1.78,-1.19 -2.51,-1.84l2.06 -15.83c-0.6,-0.28 -1.33,-0.37 -2.02,-0.67 -0.68,-0.29 -1.06,-0.6 -1.7,-0.86 -0.11,1.55 -1.45,5.87 -1.88,8.02z"/>
   <path class="fil14" d="M248.87 121.36c0.41,-0.37 0.4,-0.19 0.33,-0.26 0.71,1.29 1.36,2.46 2.06,3.73 3.08,5.62 3.73,2.97 -0.31,8.57 -0.56,0.78 -0.69,1.14 -1.42,1.51 -0.22,0.83 -2,3 -2.6,3.83 -0.57,0.78 -0.89,1.28 -1.44,1.94 -0.61,0.73 -1.09,1.31 -1.81,1.65 -0.26,0.65 -0.57,1.02 -1.24,1.48 0.31,1.15 1.06,2.21 1.57,3.05l0.81 -0.94c0.39,-0.73 0.87,-2.48 1.46,-3.08 0.7,-1 3.4,-4.09 4.35,-4.57 0.4,-1.28 6.06,-6.23 7.87,-8.59 -0.47,-1.41 -1.32,-2.55 -1.96,-3.85 -0.62,-1.27 -1.29,-2.7 -1.98,-3.97 -1.31,-2.43 -2.69,-5.53 -4.19,-7.73l-0.59 -0.47c-1.43,0.64 -2.54,0.9 -2.44,3 0.1,2.26 1.59,2.43 1.53,4.7z"/>
   <path class="fil3" d="M229.81 233.99c-0.85,0.28 -0.57,0.15 -1.19,1l-2.61 3.43 -0 -4.49 -8.11 0.09 0.78 11.25 11.13 -0.02 0.01 -11.27z"/>
   <path class="fil2" d="M239.54 104.71l2.63 0.17c1.66,2.41 1.24,4.12 -0.44,6.31 -0.3,0.78 -0.35,0.4 -0.25,0.97 0.09,0.51 0.32,-0.27 0.36,1.17l0.41 1.53c1.97,0.27 3.03,-1.36 4.15,-2.14 -0.34,-0.44 -0.08,-0.01 -0.3,-0.71 1.74,-1.27 3.09,-0.86 3.64,-4.53 1.45,-9.54 -8.25,-9.52 -10.26,-6.07 -0.41,0.71 -0.75,2.69 0.06,3.3z"/>
   <path class="fil6" d="M83.53 153.77l-0.48 8.96 0.21 5.13 0.45 -4.08 0.42 2.33c0.68,-0.36 -0.04,0.28 0.73,-1.13 0.42,1.02 0.03,0.5 1.32,0.37l13 -0.06 0.17 -2.52c0.28,0.76 0.03,1.77 0.58,2.55 0.5,-0.87 0.23,-2.24 0.21,-3.26 0.28,-1.3 -0.19,-3.34 -0.35,-4.78 -0.73,-2.35 0.32,-6.01 -0.62,-8.18 -0.03,2.93 0.48,5.11 0.01,8.27l-6.28 -5.73c0.72,0.16 4.58,4.9 5.94,6.43 0.75,0.84 0.67,1.01 0.58,2.9l-0.52 -2.09 -0.8 0.47c-0.02,-0.06 -0.05,-0.16 -0.07,-0.21 -0.02,-0.05 -0.07,-0.1 -0.08,-0.21 -0.01,-0.11 -0.05,-0.14 -0.09,-0.21l-0.4 1.75c-0.12,-0.97 -0.04,-0.34 -0.48,-0.76 -0.33,0.26 0.34,0.15 -0.86,0.31 -0.91,0.12 -0.09,0.04 -0.64,-0.05 -1.48,-0.26 -1.05,-0.05 -2.21,0.01l-0.77 -0.01c-0.02,-0 -0.1,-0.01 -0.12,-0.02l-0.63 -0.05c-0.8,-0.01 -1.59,-0.09 -1.98,-0.09 -0.68,-0 -1.01,0.23 -1.48,0.23 -1.23,0.01 -1.87,-0.68 -3.41,0.18 -0.28,-0.53 -0.15,-0.73 -0.65,-1.31l-0.46 1.86 -0.22 -7z"/>
   <path class="fil3" d="M204.4 258.28l0.1 5.22 -0.02 -0.02 8.46 0.02 0.1 -5.4 -0.6 -5.92c-1.91,0.05 -5.9,-0.34 -7.46,0.25l-0.59 5.87z"/>
   <path class="fil9" d="M241.74 188.95l3.27 0.83c0.96,-0.25 0.11,-9.31 0.08,-10.72 -0.31,-1.02 -2.25,-3.42 -3.02,-4.49 -0.5,-0.7 -1.02,-1.37 -1.53,-2.11 -0.58,-0.83 -0.89,-1.47 -1.68,-2.06l0.63 17.95 2.25 0.6z"/>
   <polygon class="fil9" points="236.95,245.26 236.91,233.96 230.11,233.94 230.15,245.22 "/>
   <polygon class="fil9" points="73.95,245.23 80,245.23 79.95,233.94 73.95,233.95 "/>
   <path class="fil1" d="M89.26 201.87l-0.04 1.26c0.91,-0.01 1.79,-0.01 2.67,-0 0.93,0.01 2.02,0.26 2.33,-0.4l-2.47 -24.35 -2.48 23.49z"/>
   <path class="fil3" d="M210.48 233.96c-0.65,-0.05 -1.33,-0.07 -1.99,-0.08 -0.95,-0.01 -1.25,-0.18 -1.59,0.4l-1.15 10.96 5.95 0.03 -1.22 -11.31z"/>
   <path class="fil3" d="M97.72 226.99l-0.08 -1.42 -0.03 -5.59 -1.49 0.36 -1.49 -13.73c-1.44,0.11 -0.62,-0.18 -1.01,0.47l0 19.89 4.1 0.02z"/>
   <path class="fil3" d="M217.04 221.31l0.38 5.39c1.39,0.71 6.82,0.58 8.42,0.16l-0.17 -6.99 -4.42 0.04c-0.27,0.73 -0.14,1.12 0.09,1.9l1.08 -0.62 0 1.4c-0.83,0.43 -2.72,1.26 -3.77,1.32 -0.59,-1.03 -0.88,-1.82 -1.61,-2.61z"/>
   <path class="fil3" d="M248.87 121.36c-0.32,1.51 -1.07,5.64 -1.09,7.04 -0.02,1.2 1.37,5.07 1.76,6.51 0.73,-0.37 0.86,-0.74 1.42,-1.51 4.04,-5.6 3.38,-2.95 0.31,-8.57 -0.7,-1.27 -1.35,-2.44 -2.06,-3.73 0.07,0.07 0.07,-0.11 -0.33,0.26z"/>
   <path class="fil1" d="M54.84 132.02c0.8,0.97 1.57,1.59 2.45,2.36 0.81,0.71 1.63,1.88 3.08,1.73 0.3,-1.95 -1.23,-11.84 -1.54,-14.6 -0.97,0.85 -2.78,8.4 -3.81,10.23l-0.19 0.28z"/>
   <path class="fil12" d="M205.48 180.11c1.82,-0.38 2.62,-0.24 4.39,-0.42 -0.08,-0.05 -0.7,-1.1 -1.02,-1.6 -0.94,-0.13 -0.47,0.08 -1.1,-0.36 -0.05,-0.58 1.32,0.08 0.6,-3.22 -1.37,0.46 -0.85,0.77 -1.55,2.33l-0.11 -1.99c-2.27,-0.75 -0.68,-0.61 -1.65,-2.2 -0.53,-0.87 -1.46,-0.92 -2.77,-0.92l0.09 8.36 2.78 -0.7c0.41,0.41 0.18,0.1 0.35,0.71z"/>
   <path class="fil15" d="M49.45 230.12c-0.06,1.29 -0.14,4.73 0.57,5.93l0.02 -1.71 6.13 0.12 -0.39 2.53c1.27,-0.92 -0.53,-1.09 3.01,-5.33 0.44,-0.53 -0.45,0.58 0.23,-0.29 0.13,-0.17 0.23,-0.3 0.33,-0.44 0.72,-1.04 0.25,0.11 0.59,-1.03 -1.35,0.33 -8.76,0.39 -10.49,0.22z"/>
   <path class="fil1" d="M79.34 184.76c-0.9,1.51 -3.74,4.56 -4.18,5.99 2.78,0.14 4.66,-1.2 7.58,-1.18l0.54 -7.09 -1.79 2.79 -2.14 -0.51z"/>
   <polygon class="fil10" points="225.97,230.39 225.96,227.08 217.45,227.02 217.64,230.4 "/>
   <path class="fil16" d="M242.56 199.03c0.37,0.62 -0.17,0.16 0.5,0.17 0.42,0 0.27,-0 0.73,-0.17 0.61,-0.22 0.88,-0.38 1.6,-0.56l-0.38 -8.69 -3.27 -0.83c0.31,2.1 1.81,8.63 0.81,10.08z"/>
   <path class="fil2" d="M204.98 252.41c1.56,-0.59 5.55,-0.19 7.46,-0.25l-0.43 -3.44 -6.61 -0.01 -0.42 3.69z"/>
   <path class="fil12" d="M93.05 137.86c1.03,-0.07 0.3,0.28 0.97,-0.22 0.07,0.9 -0.02,1.8 -0.13,2.42 0.84,0.55 1.95,0.83 3.01,0.94 0.02,-2.4 0.34,-2.45 0.21,-4.6 -0.12,-2.09 0.52,-2.39 -0.58,-2.37l-1.02 0.13c-0.43,0.97 -0.47,2.11 -1.04,2.79 -0.95,-1.17 -1.18,-2.56 -2.69,-1.9 -0.62,1.46 0.53,1.91 1.26,2.82z"/>
   <path class="fil14" d="M241.73 111.18c1.68,-2.19 2.1,-3.9 0.44,-6.31l-2.63 -0.17c0.09,0.59 0.23,1.5 0.11,2.09 -0.19,0.91 0.16,0.29 -0.67,0.87l0.66 0.7 0 3.7c0.91,-0.23 1.34,-0.77 1.96,-1.34l0.13 0.45z"/>
   <polygon class="fil2" points="204.65,265.94 212.69,265.92 212.94,263.49 204.48,263.47 "/>
   <polygon class="fil16" points="201.06,263.53 204.5,263.49 204.4,258.28 200.97,257.15 "/>
   <path class="fil16" d="M213.04 258.09l-0.1 5.4 3.37 -0.01 0.19 -6.3c-1.21,0.29 -2.36,1.15 -3.46,0.91z"/>
   <path class="fil9" d="M260.09 190.01l-1.88 7.1c2.67,-1.14 3.54,-4.43 3.89,-7.13 0.96,0.52 1.73,1.61 2.74,1.72 -0.13,-0.89 -2.32,-3.19 -3.06,-3.82l-1.46 2.71 -0.24 -0.58z"/>
   <path class="fil9" d="M242.56 199.03c-1.63,0.94 -4.53,2.87 -5.95,4.05 4.29,0.47 5.41,-1.7 7.51,-2.95 0.52,0.61 0.39,0.68 0.56,1.52 0.34,1.73 0.24,1.28 0.73,1.46l-0.02 -4.65c-0.73,0.18 -1,0.35 -1.6,0.56 -0.45,0.16 -0.31,0.17 -0.73,0.17 -0.68,-0 -0.13,0.45 -0.5,-0.17z"/>
   <path class="fil16" d="M97.61 219.98l0.03 5.59c1.05,-0.36 1.97,-0.32 3.05,-0.07 -0.43,-1.22 -0.39,-4.77 -0.46,-6.49l-2.63 0.97z"/>
   <polygon class="fil9" points="212.69,265.92 217.12,265.94 216.31,263.48 212.94,263.49 "/>
   <polygon class="fil9" points="200.22,265.93 204.65,265.94 204.48,263.47 204.5,263.49 201.06,263.53 "/>
   <path class="fil9" d="M246.28 142.84c1.16,0.1 1.95,-0.03 2.9,-0.81l0.9 -0.76 0.55 -3c-0.95,0.49 -3.64,3.57 -4.35,4.57z"/>
  </g>
 </g>
</svg>
